<svg xmlns="http://www.w3.org/2000/svg" viewBox="0 0 2100 1080"><style>.st0{fill:#f9f9f9}.st1{fill:#f4f4f5}.st2{fill:#e2e6e8}.st3,.st4{fill:#fff}.st4{opacity:.31}.st5{opacity:.6;fill:#e3b361}.st6{fill:#c4ced1}.st7{fill:#a4aeb3}.st8{fill:#d4dbdd}.st9{opacity:.1}.st10{fill:#454545}.st11{fill:#512a4a}.st12{fill:#bdd2e8}.st13{fill:#8c9ab9}.st14{fill:#35213f}.st15{fill:#f8b7b6}.st16{fill:#8c5e68}.st17{fill:#bb848a}.st18{fill:#ffd4d4}.st19{fill:#754b56}.st20{fill:#cea3aa}.st21{fill:#393253}.st22{fill:#27233d}.st23{fill:#5f5570}.st24{fill:#73688e}.st25{fill:#e3b361}.st26{opacity:.25}.st27{fill:#ff889d}.st28{fill:#ea6c88}.st29{fill:#eda4a4}.st30{fill:#575989}.st31{fill:#424670}.st32{fill:#6e74a4}.st33{fill:#aac9f5}.st34{fill:#8aafdb}.st35{fill:#49306a}.st36{fill:#dfaca9}.st37{fill:none}.st38{fill:#381b34}</style><path d="M1238 484h282v408h-282zM253 52h282v408H253zm985 0h282v408h-282zm326 432h282v408h-282zm-654 0h282v408H910zm0-432h282v408H910zM583 484h282v408H583zm0-432h282v408H583z" class="st0"/><path d="M147 919H98c-3 0-6-2-6-6v-16c0-3 3-6 6-6h49c3 0 6 3 6 6v16c0 4-2 6-6 6zm-34 36H64c-4 0-6-3-6-6v-17c0-3 2-6 6-6h49c3 0 6 3 6 6v17c0 3-3 6-6 6zm8-804h48c4 0 7 2 7 6v16c0 3-3 6-6 6h-49c-4 0-6-3-6-6v-17c0-3 2-5 6-5zm34-36h49c3 0 6 3 6 6v16c0 4-3 6-6 6h-49c-3 0-6-2-6-6v-16c0-3 3-6 6-6zm1798 128h49c3 0 6 3 6 6v16c0 4-3 6-6 6h-49c-4 0-6-2-6-6v-16c0-3 3-6 6-6zm34-35h49c4 0 6 3 6 6v16c0 3-2 6-6 6h-49c-3 0-6-3-6-6v-16c0-3 3-6 6-6z" class="st1"/><path d="M278 387h233v50H278zm1311 432h233v50h-233zm-326 0h233v50h-233zm-328 0h233v50H935zm-327 0h233v50H608zm0-430h233v50H608zm329 0h233v50H937zm326 0h233v50h-233zm339 391l-1-1h-1l-1-3c4-9 16-10 23-10l9 1 13 2a137 137 0 0 0 26 4c7 0 14 0 21-2l2 2c1 2 0 2-1 3l-22 2-21-2-7-2-17-4h-3l-8 1-6 3-3 2h-1l1 1-1 2h-1l-1 1z" class="st2"/><path d="M1691 772c-11 2-21 3-32 2-9-2-18-5-28-6-9-2-27-2-31 9l1 1v1h2v-1c1-1 1-2-1-2l2-1 4-2 6-2 11-1c8 0 16 3 25 5 13 3 28 3 42 0 2 0 1-3-1-3zm59-23c-5 0-9-1-14-3l-8-4c-5-3-10-6-17-6h-2c-6 0-13 2-20 5l-3 1c-8 3-17 6-26 6-4 0-8 0-12-2l-7-3c-5-3-10-6-17-6h-1c-9 0-17 3-23 9l-2 1-2-1v-3a39 39 0 0 1 37-9l11 4c4 3 9 5 14 6h2c8 0 15-3 21-5l2-1c9-3 18-7 26-7 5 0 9 1 13 3l9 4c6 3 11 6 18 7h1c11 0 21-6 31-11h1l2 2c1 1 0 2-1 3-10 5-21 10-33 10z" class="st2"/><path d="M1781 735c-9 5-20 11-31 11-11-1-19-7-28-11-14-6-28 0-40 5-8 3-16 5-24 5-10-1-16-8-25-11-13-3-26 1-36 10-1 1 1 3 2 2 7-7 16-10 25-10 10 0 16 6 25 10 13 5 27-1 39-6 8-2 15-5 23-5 10 1 17 7 26 11 16 6 32-1 46-8 2-1 0-3-2-3zM291 348h-1l-1-1-1-2c4-9 16-11 23-11l10 1 12 3a137 137 0 0 0 27 4l20-2c2 0 2 1 3 2l-2 2c-7 2-14 2-21 2-8 0-15 0-22-2l-7-2-17-3h-3l-8 1-6 2-3 2h-1l1 1-1 2h-1l-1 1z" class="st2"/><path d="M380 341c-11 2-21 2-32 1l-27-6c-10-2-27-2-32 9l1 2h2v-3h1l4-2 6-3 11-1 25 5c13 3 28 3 42 0 2 0 1-3-1-2zm59-23c-5 0-9-1-14-3l-7-4c-6-3-11-6-18-7h-1c-7 0-14 3-21 5l-3 1c-8 4-17 7-26 7-4 0-8-1-11-3l-8-3c-5-3-10-6-17-6h-1c-9 0-17 4-23 10h-2l-2-1v-3a39 39 0 0 1 37-9l11 5c4 2 9 5 14 5h2c8 0 15-3 21-5l2-1c9-3 18-6 27-6l12 2 9 4c6 4 11 7 18 7h1c11 0 21-5 31-10h1l2 1c1 1 0 2-1 3-10 6-21 11-33 11z" class="st2"/><path d="M470 304c-9 5-20 10-31 10s-19-7-28-11c-14-5-28 0-41 5-7 3-15 6-23 5-10-1-17-7-25-10-13-4-27 0-36 9-1 2 1 4 2 2 7-6 16-10 25-9 10 0 16 5 25 9 13 5 27-1 39-5 8-3 15-6 23-5 10 0 17 7 26 10 16 7 31 0 46-8 2 0 0-3-2-2zm798 44h-1v-1c-1 0-2-1-1-2 4-9 16-11 23-11l9 1 12 3a137 137 0 0 0 27 4l20-2h1l2 2-2 2c-7 2-14 2-21 2s-14 0-21-2l-8-2c-5-1-11-3-17-3h-2l-8 1-6 2-4 2v1l-1 2-2 1z" class="st2"/><path d="M1357 341c-10 2-20 2-31 1l-28-6c-9-2-27-2-31 9v2h3c1-1 0-3-1-3h2l3-2c2-2 5-2 7-3l10-1 25 5c14 3 28 3 42 0 2 0 1-3-1-2zm60-23c-5 0-10-1-14-3l-8-4c-5-3-11-6-17-7h-2c-7 0-13 3-21 5l-3 1c-8 4-16 7-25 7l-12-3-7-3c-6-3-11-6-17-6h-1c-9 0-17 4-24 10h-1l-3-1 1-3a39 39 0 0 1 37-9l10 5c5 2 9 5 14 5h3c7 0 14-3 21-5l2-1c8-3 17-6 26-6l12 2 9 4c6 4 12 7 19 7h1c11 0 21-5 30-10h2l2 1-1 3c-11 6-22 11-33 11z" class="st2"/><path d="M1448 304c-10 5-20 10-32 10-10 0-18-7-28-11-13-5-27 0-40 5-7 3-15 6-24 5s-16-7-25-10c-12-4-26 0-35 9-2 2 0 4 2 2 7-6 15-10 25-9 9 0 16 5 24 9 14 5 27-1 40-5 7-3 15-6 23-5 9 0 17 7 25 10 16 7 32 0 46-8 2 0 1-3-1-2zm-180 486h-1v-1c-1 0-2-1-1-2 4-9 16-11 23-11l9 1 12 3a137 137 0 0 0 27 4l20-2 1-1 2 3-2 2c-7 2-14 2-21 2l-21-2-8-2c-5-1-11-3-17-3h-2l-8 1-6 2-4 2v1l-1 2-2 1z" class="st2"/><path d="M1357 783c-10 2-20 2-31 1l-28-6c-9-2-27-2-31 9v2h3v-1l-1-2h2l3-2c2-2 5-2 7-3l10-1 25 5c14 3 28 3 42 0 2 0 1-3-1-2zm60-23c-5 0-10-1-14-3l-8-4c-5-3-11-6-17-7h-2c-7 0-13 3-21 5l-3 1c-8 4-16 7-25 7l-12-3-7-3c-6-3-11-6-17-6h-1c-9 0-17 4-24 10h-1l-3-1 1-3a39 39 0 0 1 37-9l10 5c5 2 9 5 14 5h3c7 0 14-3 21-5l2-1c8-3 17-6 26-6l12 2 9 4c6 4 12 7 19 7h1c11 0 21-5 30-10l2-1 2 2-1 3c-11 5-22 11-33 11z" class="st2"/><path d="M1448 746c-10 5-20 10-32 10-10 0-18-7-28-11-13-6-27 0-40 5-7 3-15 6-24 5s-16-8-25-10c-12-4-26 0-35 9-2 1 0 3 2 2 7-6 15-10 25-10 9 1 16 6 24 10 14 5 27-1 40-5 7-3 15-6 23-5 9 0 17 6 25 10 16 7 32-1 46-8 2-1 1-3-1-2zM940 348h-1v-1c-1 0-2-1-1-2 3-9 15-11 22-11l10 1 12 3a137 137 0 0 0 27 4l20-2h1l2 2-2 2c-7 2-14 2-21 2s-14 0-21-2l-8-2c-5-1-11-3-17-3h-2l-8 1-7 2-3 2v1l-1 2-2 1z" class="st2"/><path d="M1029 341c-10 2-21 2-31 1s-19-4-28-6c-10-2-27-2-32 9l1 2h3c1-1 0-3-1-3h2l3-2c2-2 4-2 7-3l10-1 25 5c14 3 28 3 42 0 2 0 1-3-1-2zm60-23c-5 0-10-1-14-3l-8-4c-6-3-11-6-17-7h-2c-7 0-14 3-21 5l-3 1c-8 4-17 7-25 7l-12-3-8-3c-5-3-10-6-16-6h-2c-8 0-16 4-23 10h-1l-3-1 1-3a39 39 0 0 1 36-9l11 5c5 2 9 5 14 5h3c7 0 14-3 20-5l3-1c8-3 17-6 26-6l12 2 9 4c6 4 12 7 19 7h1c10 0 20-5 30-10h1l3 1-1 3c-11 6-22 11-33 11z" class="st2"/><path d="M1120 304c-10 5-21 10-32 10s-18-7-28-11c-14-5-27 0-40 5-8 3-16 6-24 5-9-1-16-7-25-10-12-4-26 0-35 9-2 2 0 4 2 2 6-6 15-10 25-9 9 0 16 5 24 9 14 5 27-1 40-5 7-3 15-6 23-5 9 0 17 7 25 10 16 7 32 0 46-8 2 0 1-3-1-2zM940 790h-1v-1c-1 0-2-1-1-2 3-9 15-11 22-11l10 1 12 3a137 137 0 0 0 27 4l20-2 1-1 2 3-2 2c-7 2-14 2-21 2l-21-2-8-2c-5-1-11-3-17-3h-2l-8 1-7 2-3 2v1l-1 2-2 1z" class="st2"/><path d="M1029 783c-10 2-21 2-31 1s-19-5-28-6c-10-2-27-2-32 9l1 2h2l1-1-1-2h2l3-2c2-2 4-2 7-3l10-1 25 5c14 3 28 3 42 0 2 0 1-3-1-2zm60-23c-5 0-10-1-14-3l-8-4c-6-3-11-6-17-7h-2c-7 0-14 3-21 5l-3 1c-8 4-17 7-25 7l-12-3-8-3c-5-3-10-6-16-6h-2c-8 0-16 4-23 10h-1l-3-1 1-3a39 39 0 0 1 36-9l11 5c5 2 9 5 14 5h3c7 0 14-3 20-5l3-1c8-3 17-6 26-6l12 2 9 4c6 4 12 7 19 7h1c10 0 20-5 30-10l1-1 3 2-1 3c-11 5-22 11-33 11z" class="st2"/><path d="M1120 746c-10 5-21 10-32 10s-18-7-28-11c-14-6-27 0-40 5-8 3-16 6-24 5-9-1-16-8-25-10-12-4-26 0-35 9-2 1 0 3 2 2 6-6 15-10 25-10 9 1 16 6 24 10 14 5 27-1 40-5 7-3 15-6 23-5 9 0 17 6 25 10 16 7 32-1 46-8 2-1 1-3-1-2zM613 348h-1l-1-1-1-2c4-9 16-11 23-11l10 1 12 3a137 137 0 0 0 27 4l20-2c2 0 3 1 3 2l-2 2c-7 2-14 2-21 2s-15 0-21-2l-8-2c-6-1-11-3-17-3h-3l-7 1-7 2-3 2v1l-1 2-2 1z" class="st2"/><path d="M702 341c-10 2-21 2-31 1s-19-4-28-6c-10-2-27-2-32 9l1 2h3c1-1 0-3-1-3h2l3-2c2-2 4-2 7-3l10-1 25 5c14 3 28 3 42 0 2 0 1-3-1-2zm59-23c-4 0-9-1-13-3l-8-4c-6-3-11-6-17-7h-2c-7 0-14 3-21 5l-3 1c-8 4-17 7-25 7-5 0-8-1-12-3l-8-3c-5-3-10-6-16-6h-2c-8 0-17 4-23 10h-2l-2-1 1-3a39 39 0 0 1 36-9l11 5c4 2 9 5 14 5h3c7 0 14-3 20-5l3-1c8-3 17-6 26-6l12 2 9 4c6 4 12 7 19 7h1c10 0 20-5 30-10h1l3 1-1 3c-11 6-22 11-34 11z" class="st2"/><path d="M793 304c-10 5-21 10-32 10s-19-7-28-11c-14-5-27 0-40 5-8 3-16 6-24 5-9-1-16-7-25-10-13-4-26 0-36 9-1 2 1 4 3 2 6-6 15-10 25-9 9 0 16 5 24 9 14 5 27-1 40-5 7-3 15-6 23-5 9 0 17 7 25 10 16 7 32 0 46-8 2 0 0-3-1-2zM613 790h-1l-1-1-1-2c4-9 16-11 23-11l10 1 12 3a137 137 0 0 0 27 4l20-2v-1c2 0 3 2 3 3l-2 2c-7 2-14 2-21 2l-21-2-8-2c-6-1-11-3-17-3h-3l-7 1-7 2-3 2v1l-1 2-2 1z" class="st2"/><path d="M702 783c-10 2-21 2-31 1s-19-5-28-6c-10-2-27-2-32 9l1 2h2l1-1-1-2h2l3-2c2-2 4-2 7-3l10-1 25 5c14 3 28 3 42 0 2 0 1-3-1-2zm59-23c-4 0-9-1-13-3l-8-4c-6-3-11-6-17-7h-2c-7 0-14 3-21 5l-3 1c-8 4-17 7-25 7-5 0-8-1-12-3l-8-3c-5-3-10-6-16-6h-2c-8 0-17 4-23 10h-2l-2-1 1-3a39 39 0 0 1 36-9l11 5c4 2 9 5 14 5h3c7 0 14-3 20-5l3-1c8-3 17-6 26-6l12 2 9 4c6 4 12 7 19 7h1c10 0 20-5 30-10l1-1 3 2-1 3c-11 5-22 11-34 11z" class="st2"/><path d="M793 746c-10 5-21 10-32 10s-19-7-28-11c-14-6-27 0-40 5-8 3-16 6-24 5-9-1-16-8-25-10-13-4-26 0-36 9-1 1 1 3 3 2 6-6 15-10 25-10 9 1 16 6 24 10 14 5 27-1 40-5 7-3 15-6 23-5 9 0 17 6 25 10 16 7 32-1 46-8 2-1 0-3-1-2zM182 955h-49c-3 0-6-3-6-6v-17c0-3 3-6 6-6h49c3 0 6 3 6 6v17c0 3-3 6-6 6zm1736-747h49c3 0 6 3 6 6v16c0 3-3 6-6 6h-49c-3 0-6-3-6-6v-16c0-3 3-6 6-6z" class="st2"/><path d="M444 410H341c-4 0-4 6 0 6h103c4 0 4-6 0-6zm1327 430l-126-3c-4 0-4 6 0 6l126 4c4 0 4-6 0-7zm-326 0l-126-3c-4 0-4 6 0 6l126 4c4 0 4-6 0-7zm-328 0l-126-3c-4 0-4 6 0 6l126 4c4 0 4-6 0-7zm-327 0l-126-3c-4 0-4 6 0 6l126 4c4 0 4-6 0-7zm0-430l-126-3c-4 0-4 6 0 6l126 4c4 0 4-6 0-7zm329 0l-126-3c-4 0-4 6 0 6l126 4c4 0 4-6 0-7zm326 0l-126-3c-4 0-4 6 0 6l126 4c4 0 4-6 0-7zm303-3l-86 2c-4 0-4 7 1 7l85-2c5 0 4-8 0-7z" class="st3"/><path d="M311 394c-19 21-44 11-58 3-5-3-12-4-18-2-26 6-33 37-32 50l1 3h-1l-2-1-3-3c-2-2-2-5-2-8v-6c0-6 1-13 3-18l4-12c5-10 14-18 24-21 7-1 15-1 22 2 9 3 18 10 27 14 11 4 24 4 35-1z" class="st4"/><path d="M1589 387h233v50h-233zM278 819h233v50H278z" class="st5"/><path d="M467 171c1 0 3 1 3 3l6 53v9H312v-3c0-9 6-17 15-19l11-3 34-9c10-3 19-9 27-16l30-30s7 4 6 12c-1 3 2 5 5 6 7 0 20 0 27-3z" class="st6"/><path d="M428 173c-13 15-29 26-48 32-12 4-29 2-35 16-1 2 3 3 4 1 4-10 19-10 28-12a109 109 0 0 0 54-34c1-2-1-5-3-3z" class="st7"/><path d="M479 244H310v-17h168z" class="st2"/><path d="M338 211v16h-26c0-9 6-11 15-13l11-3zm69-15l-2-1-9-9v-2h2l10 9v2l-1 1zm-14 8h-2l-7-8v-2h2l8 8v2h-1zm-16 6h-1l-8-8v-2h3l7 7v3h-1z" class="st1"/><path d="M421 270c-17-2-24-21-18-36 4-9 13-16 18-25 5-13 0-28-12-36-2-1-4 2-2 4 14 8 15 23 7 36-6 8-14 15-16 26-4 16 6 33 23 34 3 1 3-3 0-3z" class="st1"/><circle cx="449" cy="196" r="12" class="st1"/><path d="M1412 215l-12 22h-41l-11-22zm-64-50l11-22h41l12 22z" class="st8"/><path d="M1397 251h-35c-2 0-3-1-3-3V130c0-2 1-4 3-4h35c2 0 4 2 4 4v118c0 2-2 3-4 3z" class="st6"/><circle cx="1380" cy="189" r="42" class="st2"/><circle cx="1380" cy="189" r="32" class="st1"/><path d="M1379 194l-14-12 3-3 10 9 16-17 3 3z" class="st6"/><path d="M1707 742h-5l-6-29v-6l1 6z"/><path d="M1739 153l22-9-6 38 9 2 8-40c2-7-4-13-10-13h-74l51 22zm5-22h-87l38-11h12zm-35-26l-2 15h-12l-3-15 9-2zm-52 26h-14l21 30z" class="st10"/><path d="M1739 153l22-9-6 38 9 2 8-40c2-7-4-13-10-13h-74l51 22zm-65 31h52v10h-52zm70-53h-87l38-11h12zm-35-26l-2 15h-12l-3-15 9-2zm-52 26h-14l21 30z" class="st11"/><path d="M1657 131h87l-11 53h-65z" class="st12"/><path d="M1744 131l-11 53h-32v-53zm-61 53l-6-53h24v53z" class="st13"/><path d="M1718 184l6-53h-23v53zm-61 68h87l-11-59h-65z" class="st12"/><path d="M1744 252l-11-59h-32v59zm-61-59l-6 59h24v-59z" class="st13"/><path d="M1718 193l6 59h-23v-59z" class="st12"/><path d="M1593 348h-1v-1c-1 0-2-1-1-2 4-9 16-11 23-11l9 1 12 3a137 137 0 0 0 27 4l20-2h1l2 2-2 2c-7 2-14 2-21 2s-14 0-21-2l-8-2c-5-1-11-3-17-3h-2l-8 1-6 2-4 2v1l-1 2-2 1z" class="st14"/><path d="M1683 341c-11 2-21 2-32 1l-28-6c-9-2-27-2-31 9v2h3c1-1 0-3-1-3h2l3-2c2-2 5-2 7-3l10-1 25 5c14 3 28 3 42 0 2 0 1-3 0-2zm68-29l-9 1h-1c-7 0-12-3-18-6l-9-5-13-2c-9 0-17 3-26 7h-2c-7 3-14 5-21 5h-3c-5 0-9-3-14-5l-10-5-10-1c-10 0-20 4-27 11v2l2 2 2-1c6-6 14-10 23-10h1c6 1 11 3 17 6l7 4 12 2c9 0 17-3 25-6l4-1a61 61 0 0 1 22-5c6 0 12 3 17 6l8 4c4 2 9 3 14 3l13-2-4-4z" class="st14"/><path d="M1752 313l-11 1c-10 0-18-7-28-11-13-5-27 0-40 5-7 3-15 6-24 5s-16-8-25-10c-12-4-26 0-35 9-2 1 0 4 2 2 7-6 15-10 25-9 9 0 16 5 24 9 14 5 27-1 40-5 7-3 15-6 23-5 9 0 17 6 25 10 9 4 17 3 26 1l-2-2z" class="st14"/><path d="M792 582l-4 3c-2 2-2 4-2 6l1 1c2 4 1 9-3 11l-3 2c-7 4-12 10-14 17l-2 10-1 1h-16l-35-3 5 9h-31l-2-10s7-11 5-20c0 0-3-6-15-3 1 0-14 0-15-9 0 0-3-8 1-11 0 0 8-4 13 3 0 0 4 3 6 1 0 0 7-6 10-5 0 0 5 3 3 11 0 0 13 12 12 19 1-3 3-6 7-9 2-1 3-3 3-5-1-2-1-4-4-6l-5-8c-2-4-2-10 6-15 0 0 6-7 0-14-2-2-3-6-2-9 3-8 10-24 34-23l6 3c1 2 3 6-1 11 0 0-11 18 3 22 0 0 11 5 0 16 0 0-14 9-4 16l6 4 5-1 11-7c3-3 5-7 6-11l1-4c1-6 3-14 11-14 9 3 11 15 4 21z" class="st2"/><path d="M776 579c0 8-4 16-8 25-3 11-12 18-19 27-2 2-4-1-3-2 7-8 15-16 19-26l5-13c3-3 5-7 6-11zm-42-3l-4-11c-2-6 0-11 3-17 1-2-2-3-3-1-3 5-5 10-4 16l2 6c3 8 2 13-1 21-2 5-4 9-4 15 1 5 2 10 1 16 0 4-2 8-5 12-1 2 2 3 3 2 4-5 6-11 6-17v-8c-1-8 0-12 2-18 2-5 4-10 4-16z" class="st7"/><path d="M774 629l-6 14-2 5-18 43h-48l-18-43-2-5-6-14z" class="st6"/><path d="M768 643l-2 5h-84l-2-5zm-67-39c-10-10-26-20-40-18-3 0-2 3 1 3 13-2 28 8 36 17 2 2 5-1 3-2z" class="st7"/><path d="M279 790h-1v-1c-1 0-2-1-1-2 3-9 16-11 22-11l10 1 12 3a137 137 0 0 0 27 4l20-2 1-1 2 3c0 1 0 2-2 2-7 2-14 2-21 2l-21-2-8-2c-5-1-11-3-17-3h-2l-8 1-6 2-3 2h-1v1l-1 2-2 1z" class="st14"/><path d="M369 783c-11 2-21 2-32 1-9-1-18-5-28-6-9-2-27-2-31 9v2h3v-1l-1-2h2l3-2c2-2 5-2 7-3l10-1 25 5c14 3 28 3 42 0 2 0 1-3 0-2zm59-23c-5 0-10-1-14-3l-8-4c-5-3-11-6-17-7h-2c-7 0-13 3-21 5l-3 1c-8 4-16 7-25 7l-12-3-7-3c-6-3-11-6-17-6h-1c-9 0-17 4-24 10h-1l-3-1 1-3a39 39 0 0 1 36-9l11 5c5 2 9 5 14 5h3c7 0 14-3 21-5l2-1c8-3 17-6 26-6l12 2 9 4c6 4 12 7 19 7h1c11 0 21-5 30-10l2-1 2 2-1 3c-11 5-22 11-33 11z" class="st14"/><path d="M459 746c-10 5-20 10-32 10-11 0-18-7-28-11-14-6-27 0-40 5-7 3-16 6-24 5-9-1-16-8-25-10-12-4-26 0-35 9-2 1 0 3 2 2 7-6 15-10 25-10 9 1 16 6 24 10 14 5 27-1 40-5 7-3 15-6 23-5 10 0 17 6 25 10 16 7 32-1 47-8 1-1 0-3-2-2z" class="st14"/><path d="M175 559c33 22 112 33 112 33l3-18s-51-3-103-42l-12 27z" class="st15"/><path d="M330 550c-1-5-4-10-8-13-3-3-8-5-13-5h-4c-4 0-8 1-11 3a21 21 0 0 0-10 18v3h46v-6zm-39 0c1-5 3-8 7-10 2-2 5-2 8-2h3c4 0 8 2 11 5 2 1 3 4 4 6v1h-33z" class="st11"/><path d="M369 668H245c-3 0-5-3-5-5v-79h134v78c0 3-2 6-5 6z" class="st16"/><path d="M369 633H245c-3 0-5-2-5-5v-79h134v79c0 3-2 5-5 5z" class="st17"/><path d="M266 546h14v88h-14zm14 116v-15h-14v15c0 3 1 6 4 7v1c2 1 4 0 6-1 3-1 4-4 4-7z" class="st11"/><path d="M266 633v14h14v-14h-14zm11 11h-8v-8h8v8z" class="st12"/><path d="M335 546h14v88h-14zm14 116v-15h-14v15c0 3 1 6 3 7l1 1c2 1 4 0 5-1h1c2-1 4-4 4-7z" class="st11"/><path d="M335 633v14h14v-14h-14zm11 11h-8v-8h8v8z" class="st12"/><path d="M241 1062h-20v-28h16c2 0 4 2 4 4v24zm-75-24h21v24h-21z" class="st18"/><path d="M235 1074h-75c0-10 3-19 3-19 15 9 27-5 27-5 3 8 16 11 23 13h3l4 1c15 1 15 9 15 10z" class="st16"/><path d="M160 1074h76v6h-76z" class="st19"/><path d="M196 1056l-3 3c-1 1 2 3 3 1l2-3c1-1-1-2-2-1zm5 2l-2 3c-1 2 1 3 2 2l2-3c1-2-1-3-2-2zm5 3l-2 2c-1 2 1 3 2 2l2-3c1-1-1-3-2-1zm84 13h-75c0-10 2-19 2-19 16 9 27-5 27-5 4 8 17 11 24 13h3l4 1c15 1 15 9 15 10z" class="st17"/><path d="M215 1074h76v6h-76z" class="st16"/><path d="M250 1056l-2 3c-1 1 2 3 2 1l3-3c1-1-1-2-3-1zm6 2l-3 3c-1 2 2 3 3 2l2-3c1-2-1-3-2-2zm5 3l-2 2c-1 2 1 3 2 2l2-3c1-1-1-3-2-1z" class="st20"/><path d="M204 889a1019 1019 0 0 1-15 150h-25v-1c14-114-20-262-31-306l-1-2a84 84 0 0 1-2-10h2l6 2 14 4 6 2 9 3 25 7 3 15c9 44 11 92 9 136z" class="st21"/><path d="M243 880l-26 79c-3-25-7-49-13-70-1 49-6 94-10 121a447 447 0 0 0-56-274v-1l-6-8-1-2 7-2 12-5 17 13 28 22 1 1 46 126h1z" class="st22"/><path d="M240 1037v1h-22a483 483 0 0 0-91-318l81-13h1l7 26v3l3 12 1 4v4l2 6v3a1223 1223 0 0 1 20 115 700 700 0 0 1-2 157z" class="st23"/><path d="M220 752c-18-8-26-30-26-32h3s7 20 22 28l1 4z" class="st21"/><path d="M243 1046l-27 1v-9l27-1z" class="st24"/><path d="M190 1046h-29v-8l29 1z" class="st22"/><path d="M185 468l-2 3 15 33 6-6 16-14 12 5h1l22-20 6 3 1-15c2-2 4-5 5-9l2-3 6-13 1-2 1-1-1-18-9-4h-1l-33-14-28 49-2 3-18 23z" class="st18"/><path d="M277 428l-2 4c-8-3-15-8-15-8l-10-15 15-3 2 1 9 3 1 18z" class="st15"/><path d="M245 440l1-4c3-5 3-12-3-15l-5-1c-5 1-9 6-10 10-2 6-2 13-6 18a12 12 0 0 1-10 4 46 46 0 0 1-11-5l-3-3c-2-2-2-5-2-8v-6l3-18 4-12a37 37 0 0 1 46-19c9 3 18 10 27 14 11 4 24 4 35-1-2 7-8 13-16 16 5 3 11 4 17 3a29 29 0 0 1-35 16l-16-8v3c0 2 0 5-2 7l-5 4-9 5z" class="st25"/><path d="M220 484l6-7 7 12z" class="st15"/><path d="M216 736l-12-3h-4v-1l-12-2-18-1-12-1-11 2c-3 2-7 3-11 3h-1l-2-1-1-2-1-5-3-4 2-1h2l77-13 7 26v3z" class="st9"/><path d="M186 625c-7-1-13-3-18-6-3-2-6-5-6-8 0-5 2-9 3-13l2-14 9 5-2 8-1 4-2 6 1 1-1 5c-1 2 0 4 2 5l13 7z" class="st26"/><path d="M188 465l1 7c3 7 6 14 11 20l6 4-3 39-1 11-1 29c0 27 2 54 4 80l4 41 6 32-18-2c-15-3-30-7-45-3l-9 2c-4 0-9 1-13-1l-3-3v-14l1-8a125 125 0 0 0 1-44l-1-5-5-40c-2-46 13-92 42-127 6-8 13-14 22-18h1z" class="st27"/><path d="M318 672l-3 2-12 3h-11c-7 0-15 1-21-1l-9-3-29-7-34-10-30-8-16-4-1-1c-9 0-15-8-15-17l6-56 24 14 9 5-2 8-1 4-1 7-1 5c-1 2 0 4 2 5l13 7c20 11 58 30 87 36l2-3 2-5h5l6 9c3 2 6 2 9 2l16 3h3c3 0 4 3 2 5z" class="st18"/><path d="M188 556l-4 19-5 16c-3-3-7-5-11-6-15-5-33 3-33 3l2-23c2-30 10-45 17-52 5-4 12-6 18-3l8 5 7 7c5 9 2 24 1 34z" class="st27"/><path d="M187 522l3 17a108 108 0 0 1-3 36l-3 9c0 3-2 5-3 8l-4-2 3-8 3-8a112 112 0 0 0 6-35l-2-17zm-32 163a57 57 0 0 1-22-16l-3-2-1-12-1-5 2 5a64 64 0 0 0 14 22l11 8z" class="st28"/><path d="M1790 421l-26 11s18-65 13-82c0 0-22-10-16-33h4c10 0 19 9 21 21l3 22 1 54v7z" class="st15"/><path d="M1762 312h5v17h-5z" class="st14" transform="rotate(-42 1764 320)"/><path d="M1684 748v5l-1 6v18a2262 2262 0 0 0-2 61v49l1 5v27h-14v-6l-2-21-3-23-3-25v-6a2326 2326 0 0 0-9-62v-5l-2-12-1-6-1-4h37zm60-4l-1 1v8l-1 6a2976 2976 0 0 0-6 81l-1 6-1 23-1 23v20l-1 6-13 1v-8l-1-19-1-23-1-24-1-6a926 926 0 0 0-7-80l-1-6v-6l26-2h1l7-1h3z" class="st15"/><path d="M1690 742l1 11h-7v6h-35l-1-6h-8v-9h4l-3-34 54 3-6 29h1zm61 2v9h-8l-1 6h-34l-1-6h-7v-11h2l-5-29 53 2-3 28 4 1z" class="st29"/><path d="M1754 661v1l-1 4v8l-1 10-3 31-2 29h-45v-2l-6-29v-6l-1 6-5 29-1 2h-45l-3-34-3-26-1-11-1-6v-6z" class="st30"/><path d="M1753 666v8l-1 10c-7 11-14 12-16 12-37-3-84-23-100-30v-5h90l27 5z" class="st31"/><path d="M1691 753h-51v-9h4l46-2zm60-9v9h-51v-11h2l45 2z" class="st32"/><path d="M1735 919l-1 10-1 6v3l-2 13v8l-8-2-4-1v1l-10-1-2-1v-3l2-4 4-15v-1l1-3 1-12c0-3 2-5 4-6l3-1h6l3 1 2 1c2 2 3 5 2 7z" class="st17"/><path d="M1733 935v3l-2 13v8l-8-2-4-1v1l-10-1-2-1v-3l2-4 4-15c1 0 13-6 20 2z" class="st16"/><path d="M1694 955l-1 1-10 1v-1l-4 1-7 2-1-2v-5l-2-12-1-4v-1l-1-6-1-10c-1-2 0-5 2-6l2-2 3-1h6l3 1c2 1 4 3 4 6l2 12v4l2 5 3 9 2 5c1 1 0 3-1 3z" class="st17"/><path d="M1694 955l-1 1-10 1v-1l-4 1-7 2-1-2v-5l-2-12-1-4c7-9 19-4 20-3l1 2v1l1 2 3 9 2 5c1 1 0 3-1 3z" class="st16"/><path d="M1627 599v1l-1 11a445 445 0 0 0-2 17v4l-1 3v3l-3 11-2 11v1l2 12c2 12-1 11-1 11l-1 1-2 16-2 1c-5-6-7-12-8-18l-1-11 3-12v-1l1-11 2-13v-1l1-11 2-11 1-2 11-11 1-1z" class="st15"/><path d="M1624 632l-1 3-1 3-2 11-2 11h-1l3 13c2 12-1 11-1 11h-1v1c-2-9-2-25-2-25l5-29 2-1 1 2z" class="st29"/><path d="M1716 441v7l-1 4v5l-4 3-1 1-1-3-1-6-2-9 6-1z" class="st15"/><path d="M1727 439l-4 9-2 4c-2 4-5 6-6 5l-1-3v-2l2-4 1-4 4-5c2-3 4-4 5-4l1 4zm-9-20l-2 9-3 11-1 3-2 7 1 3v15h-23v-48z" class="st15"/><path d="M1729 425a29 29 0 0 1-1 5v2l-2 3-2 4c-3 6-7 13-13 18-4 4-9 3-15 3h-10l-8-8a109 109 0 0 1-11-22l-1-2v-14a34 34 0 0 1 3-11c3-6 8-10 12-13l6-4c7-5 17-5 24 0l6 4a32 32 0 0 1 11 18l1 6v11z" class="st14"/><path d="M1747 444l-3 1h-5l-6-5-1-1-4-8-1-3-1-2-3-12-1-4-6-7c-2-2-5-3-9-3h-3l6-10 2-4 4 4 4 4a102 102 0 0 1 10 17l1 3c2 4 2 9 3 14v2l3 9c2 3 6 5 10 5z" class="st14"/><path d="M1697 413l-2-1c-3-8-10-5-10-5-2 0-3 0-3-2-1-1 0-2 1-2 4-2 12-2 16 7 1 1 0 2-1 3h-1zm103 1a154 154 0 0 1-4 38c-6 28-19 43-36 65-17 21-21 57-19 83 0 5 2 11 4 16l4 10 4 9c2 3 5 6 5 9 1 4 0 7-1 10l-2 4-1 2v10l-1 3a18 18 0 0 1-5 8h-1l-5 3c-12 6-29 3-41 0h-2c-14-3-29-6-43-11l-15-5-2-1-2-2-1-2-1-1v-2l1-3 2-8 6-14 2-6 2-5 4-13 2-11 1-8 1-6 1-9v-3 1a92 92 0 0 0-15 25 73 73 0 0 0-5 21v3c-1 4-3 7-5 9l-2 2a15 15 0 0 1-18 1l-2-1c-3-3-6-7-7-11v-9l1-5 2-11 3-13a251 251 0 0 1 48-98l7-6 2-5c1-3 2-5 4-6 5-4 14-4 19-5h12l10-1h1l4 2c2 1 4 2 6 1 8-1 17-2 24-6 9-5 11-14 14-23l2-11a107 107 0 0 0 3-25l-1-6-1-7c0-5 1-9 3-11l7-4 5-1c4 0 9 2 12 4l1 1a16 16 0 0 1 7 11l2 13v11z" class="st33"/><path d="M1643 661l-2 7-5-1v-2l-1-2-1-1v-2l1-3 2-8 6-14 2-6 2-5 4-13 2-11 1-8 1-6 1-9c2 8 6 42-13 84z" class="st34"/><path d="M1703 437c0 7-1 15-4 23l-1 3-2 3v1l-2 3a40 40 0 0 1-30 18h-16l-6-1 2-1 7-7 2-2a46 46 0 0 0 9-23v-2c-7 1-13-5-16-8l-3-3 2 1 7-1 4-2 1-1c2-3 2-7 2-10v-7l2-7c2-4 4-7 7-8a19 19 0 0 1 8-3h6v1l6 1 4 2 5 8 3 8c2 4 3 9 3 14z" class="st14"/><path d="M1750 660l-8 6c-4 3-9 7-13 8 0 0 11 2 20-5 0 0 1 5-2 12h1l1-2 4-6 1-3v-12h1v-1l1-2 1-1 1-5-3 4-5 7z" class="st34"/><path d="M1682 434c0 47-40 53-40 53l2-1c14-11 17-26 18-32v-2c2-46 19-48 20-48l6 1 4 2c-11 1-10 27-10 27z" class="st35"/><path d="M1690 938c-10-5-18 0-21 2l-1-4v-1c7-6 16-5 20-3v1l1 2v1l1 2zm22 0c10-5 18 0 21 2v-4h1v-1c-8-6-16-5-20-3l-1 1v2l-1 1v2z" class="st36"/><path d="M755 250h-3c-18 0-19-22-19-35l-1-4-1-16-1-37c-1-13 3-27 10-34 8-9 21-9 29 0 7 7 11 21 10 34 0 10-2 20-3 29l-2 21c-2 28-8 42-19 42z" class="st2"/><path d="M768 225c-1 11-7 21-16 21s-15-9-15-21c-1-12 1-27 15-27 15 0 18 15 16 27zm-4-49h-21c-2 0-3-1-3-3l2-2h22c2 0 3 1 3 2 0 2-1 3-3 3zm0 9h-21c-2 0-3-1-3-3l2-2h22c2 0 3 1 3 2 0 2-1 3-3 3zm0 9h-21c-2 0-3-1-3-3l2-2h22c2 0 3 1 3 2 0 2-1 3-3 3z" class="st6"/><path d="M734 159s-1-38 20-38 20 38 20 38-18 7-40 0z" class="st1"/><path d="M677 208l-2-21c-1-9-3-19-3-29-1-13 3-27 10-34 8-9 21-9 29 0 7 7 12 21 10 34l-2 37v16l-1 4c0 13-1 35-19 35h-3c-11 0-17-14-19-42z" class="st2"/><path d="M683 225c1 11 7 21 16 21s15-9 15-21c1-12-1-27-15-27-15 0-18 15-16 27zm26-49h-22c-1 0-3-1-3-3 0-1 1-2 3-2h22l2 2c0 2-1 3-2 3zm0 9h-22c-1 0-3-1-3-3 0-1 1-2 3-2h22l2 2c0 2-1 3-2 3zm0 9h-22c-1 0-3-1-3-3 0-1 1-2 3-2h22l2 2c0 2-1 3-2 3z" class="st6"/><path d="M717 159s1-38-20-38-20 38-20 38 18 7 40 0z" class="st1"/><path d="M1670 960v10l-3 1h-2c-3 2-5 6-5 9v102h-10V980c0-3 0-6 2-9 3-7 10-11 18-11zm85 20v102h-11V980a10 10 0 0 0-7-9l-3-1v-10c8 0 15 4 18 11l3 9zm-59-15h10v117h-10z" class="st11"/><path d="M1660 980v102m-10 0V980m105 0v102m-11 0V980m-38 102V965m-10 0v117" class="st37"/><path d="M1767 972h-15c2 2 2 5 2 8h-10c0-3-2-7-5-9h-33v9h-10v-9h-31c-3 2-5 6-5 9h-11l3-9h-5 120v1z" class="st38"/><path d="M1635 952h133v19h-133z" class="st11"/><path d="M1049 179l-21-62h37z" class="st7"/><path d="M1021 119s-16 5-25 14c-10 9-28 58-28 58l18 12 17-36 4 78h34l13-31-12-77-21-18z" class="st2"/><path d="M985 209c-1 2-3 3-6 2l-15-7c-2-1-3-3-2-6l3-7c1-2 4-3 6-2l15 7c2 1 3 4 2 6l-3 7zm36-90l12 21 9-3-14-22z" class="st6"/><path d="M1072 119s16 5 25 14c10 9 28 58 28 58l-18 12-17-36-3 78h-35l-13-31 13-77 20-18z" class="st2"/><path d="M1072 119l-11 21-9-3 13-22zm6 58h-18l-3-22h23z" class="st6"/><path d="M1041 149c0 2-1 3-3 3-1 0-2-1-2-3 0-1 1-2 3-2l2 2zm3 15c0 2-1 3-3 3-1 0-2-1-2-3 0-1 1-2 3-2l2 2zm3 15c0 1-1 3-3 3l-2-3 2-3 3 3zm0 15c0 1-1 3-3 3l-2-3 2-3c2 0 3 2 3 3zm0 15c0 1-1 2-3 2l-2-2c0-2 1-3 2-3 2 0 3 1 3 3zm0 15c0 1-1 2-3 2l-2-2c0-2 1-3 2-3 2 0 3 1 3 3z" class="st1"/><path d="M1028 115h38v8h-38zm80 94c1 2 3 3 6 2l15-7c2-1 3-4 2-6l-3-7c-1-2-4-3-6-2l-15 7c-2 1-3 4-2 6l3 7z" class="st6"/><path d="M1345 539s20 30 30 30c9 0 26-30 29-31l5 5-21 56-33 2-13-54" class="st7"/><path d="M1345 539s16 44 31 44c9 0 26-15 29-45 3 0 8 3 7 6-4 19-3 39-10 73l-54 2s-3-37-10-74c0-3 4-5 6-6h1z" class="st2"/><path d="M1429 681c-18-27-26-67-26-67l-28 3c-16 1-28-3-28-3s-8 31-15 48c-6 13-15 23-15 23s57 23 115 0l-3-4z" class="st2"/><path d="M1347 614s-5 7-4 11c1 5 7 1 9-5 0 0-1 8 7 9s10-8 10-8 2 9 7 9c8 0 9-9 9-9s2 6 8 6 5-8 5-8 5 10 8 7c4-5-4-13-4-13s-22 6-55 1z" class="st6"/><path d="M1066 646s-17-13-37-33c-15-15-32-37-33-37-3-3-7-5-12-5a17 17 0 0 0-12 30 416 416 0 0 0 70 70c3 3 8 5 12 5a17 17 0 0 0 12-30zm-38-4c0-2 2-4 4-6l6-4h3v4c0 2-2 4-4 6-1 2-4 3-6 4l-3-1v-3zm-31-31c0-2 2-4 4-6l6-4h3v4c0 2-2 4-4 6l-6 4-3-1v-3z" class="st2"/><path d="M996 611c1-2 2-4 5-6l6-5h2l2 1v3l-4 7-7 4h-4v-4zm31 31c1-2 2-4 5-6l6-5h2l2 1v3l-4 7-7 4h-3l-1-4z" class="st1"/><path d="M1136 646s-17-13-37-33c-15-15-32-37-33-37-3-3-7-5-12-5a17 17 0 0 0-12 30s18 13 37 33c15 15 33 36 33 37 3 3 8 5 12 5a17 17 0 0 0 12-30zm-38-4l4-6 6-4h3v4l-3 6-6 4-4-1v-3zm-31-31l4-6 6-4h3l1 4-4 6-6 4-4-1v-3z" class="st6"/><path d="M1066 611c1-2 2-4 5-6l6-5h2l2 1v3l-4 7-7 4h-3l-1-4zm31 31l5-6 6-5h2l2 1v3l-4 7-7 4h-3l-1-4z" class="st1"/></svg>
