<svg xmlns="http://www.w3.org/2000/svg" viewBox="0 0 520 925"><style>.st0{fill:#1d172c;stroke:#3d275b;stroke-miterlimit:10}</style><path d="M-11 651l112 6-4 30-106 2" class="st0"/><path d="M35 738l-5-112 31-6 8 117" class="st0"/><path d="M42 667l8-1-1 10-7 1zM-15 817l46-9 2 34-53 13M252 645l51-5 3 42-54 8z" class="st0"/><path d="M230 676l47-11 7 108-48 7zM528 469l-103 9-4 56 110-14M435-9v49l89-1M383 82l5-34 30-2-1 35M-11 34l77-5-5-41M66 79l3-43 29-6v52" class="st0"/><path d="M45 12l41 2 1 39-40-3zM458 331l76 1-4 20-73 3zM248 367l143-14 10 63-145 22z" class="st0"/><path d="M378 286l89-2 6 106-102 4zM173 262l102-7-4 23-94 4" class="st0"/><path d="M162 227l41-2-5 129-34 2zM-6 395l135 6-7 35-139 4M217 453l-100-2-2 30 99 7z" class="st0"/><path d="M20 361l68 2 4 53-71 9zM184 470l58-1 12 50-76 8z" class="st0"/><path d="M197 476l9 2v7h-10zM183 267l10-2v14l-7-1zM381 370h10l-1 8h-9zM295 531l35-1 2 36-37-3z" class="st0"/><path d="M286 522l16-1 2 16-17-2zM221 598l-10-40-25 10 6 36" class="st0"/><path d="M200 587l9-2v10h-10zM-15 531l97-16 6 42-103 25M78 42l5-3v10h-5zM50 19l7-3v8h-7zM341 594l90 1 7 57-95 7zM262 676l6-1 1 9-8-1zM20 728l178-10 8 184-180 4zM497 722l5 184H315l-1-177z" class="st0"/><path d="M323 739l11-1-1 13h-11zM475 735l12-3-1 15h-12zM483 882l12 1-3 14-14-1zM327 883h14v10h-13zM194 885h-10l1 8 10 1zM172 732l11-1v13l-14 1zM44 736l11-3 1 13-10 3zM37 887l11-1-1 13-12-1z" class="st0"/></svg>
