<svg xmlns="http://www.w3.org/2000/svg" viewBox="0 0 520 24"><path d="M0 0h520v24H0z"/><path fill="#fcdb07" d="M457 24h21l6-13-6-11h-21l-24 3 14 2-17 1 26 1-30 1 10 1-14 1 16 1-7 1 13 1-19 1 13 1-26 1 27 1-7 1 26 2h-31z"/><path fill="#fff9f1" d="M478 24h11V12 0h-11l-15 3h8l-6 1 6 1-12 1 13 1h-12l7 1-4 1h9l-9 2 10 1-13 1 5 1h-6l7 2h-4l12 2-11-1 10 4-7-1 5 2h-6l13 2z"/><path fill="#cf61a5" d="M327 24h21l6-13-6-11h-21l-24 3 14 2-17 1 26 1-30 1 10 1-14 1 16 1-7 1 13 1-19 1 13 1-26 1 27 1-7 1 26 2h-31z"/><path fill="#dfa4ca" d="M348 24h11V12 0h-11l-15 3h8l-6 1 6 1-12 1 13 1h-12l7 1-4 1h9l-9 2 10 1-13 1 5 1h-6l7 2h-4l12 2-11-1 10 4-7-1 5 2h-6l13 2z"/><path fill="#a6d052" d="M197 24h21l6-13-6-11h-21l-24 3 14 2-17 1 26 1-30 1 10 1-14 1 16 1-7 1 13 1-19 1 13 1-26 1 27 1-7 1 26 2h-31z"/><path fill="#cbe2a1" d="M218 24h11V12 0h-11l-15 3h8l-6 1 6 1-12 1 13 1h-12l7 1-4 1h9l-9 2 10 1-13 1 5 1h-6l7 2h-4l12 2-11-1 10 4-7-1 5 2h-6l13 2z"/><path fill="#6a91cc" d="M67 24h21l6-13-6-11H67L43 3l14 2-17 1 26 1-30 1 10 1-14 1 16 1-7 1 13 1-19 1 13 1-26 1 27 1-7 1 26 2H37z"/><path fill="#bfe7fb" d="M88 24h11V12 0H88L73 3h8l-6 1 6 1-12 1 13 1H70l7 1-4 1h9l-9 2 10 1-13 1 5 1h-6l7 2h-4l12 2-11-1 10 4-7-1 5 2h-6l13 2z"/></svg>
