<svg data-name="Layer 1" xmlns="http://www.w3.org/2000/svg" viewBox="0 0 44 57">
  <path d="M4.27 10.48c-6.37 22.84.97 37.69 18.27 45.37a4.5 4.5 0 0 0 6.07-2.67l13.55-39.54a4.5 4.5 0 0 0-2.8-5.72l-2.84-.97a4.5 4.5 0 0 0-5.72 2.8 4.5 4.5 0 0 1-5.71 2.8L10.07 7.4a4.52 4.52 0 0 0-5.8 3.07Z" fill="color-mix(in hsl, var(--c-ocarina, #ad7d59), black 25%)" stroke="#000"/>
  <circle cx="25.24" cy="6.66" r="4"/>
  <circle cx="38.24" cy="42.66" r="4"/>
  <path d="M10.7 36.42a3 3 0 1 1 0 6 3 3 0 0 1 0-6m0-1h-.25a4 4 0 1 0 .25 0Zm-.56-7.98a3 3 0 1 1-.01 6 3 3 0 0 1 0-6m0-1a4.04 4.04 0 0 0-3 1.35 4 4 0 1 0 3-1.35Zm7.42-7.49a2 2 0 1 1 0 4 2 2 0 0 1 0-4m0-1-.19.01a3 3 0 1 0 .2 0Zm9.35 21.81a3 3 0 1 1 0 6 3 3 0 0 1 0-6m0-1a4 4 0 1 0 0 8 4 4 0 0 0 0-8Zm-4.66-9.1a2 2 0 1 1 0 3.99 2 2 0 0 1 0-4m0-1a3 3 0 1 0 0 6 3 3 0 0 0 0-6ZM9 15.97a3.5 3.5 0 1 1 .01-7 3.5 3.5 0 0 1 0 7H9Z"/>
  <path d="M32.73 29.23a3.49 3.49 0 0 1-3.31-4.63 3.5 3.5 0 1 1 3.3 4.63Zm-2.92 8.52a3.49 3.49 0 0 1-3.3-4.64 3.5 3.5 0 1 1 3.3 4.64Zm-5.83 17.03a3.49 3.49 0 0 1-3.31-4.64 3.5 3.5 0 1 1 3.31 4.64Zm-1.74-20.62a2.5 2.5 0 1 1 0-5 2.5 2.5 0 0 1 0 5Zm-12.67-9.2a3.5 3.5 0 1 1 0-7.01 3.5 3.5 0 0 1 0 7Zm.56 8.98a3.5 3.5 0 1 1 .01-7.01 3.5 3.5 0 0 1 0 7h-.01Zm7.42-10.48a2.5 2.5 0 0 1-.15-5h.15a2.5 2.5 0 0 1 .16 4.99h-.16Z" fill="#fff"/>
  <path d="M38.24 38.15a4.5 4.5 0 0 0-3.06 1.21l.34.37a3.97 3.97 0 0 1 2.55-1.07h.1a.56.56 0 0 1 .01 0h.07v-.5Zm-4.27 3.09a4.48 4.48 0 0 0 .18 3.29l.46-.21a3.99 3.99 0 0 1-.16-2.93l-.48-.15Zm1.88 4.62-.3.4a4.5 4.5 0 0 0 3.18.87l-.06-.5h-.03l-.21.02a3.53 3.53 0 0 1-.02 0h-.09a.25.25 0 0 1-.01 0h-.03a.24.24 0 0 1-.01 0h-.02a4 4 0 0 1-1.3-.21h-.02l-.01-.01a2.85 2.85 0 0 1-.01 0h-.01v-.01a4.01 4.01 0 0 1-.68-.31l-.01-.01h-.01a.04.04 0 0 1-.01-.01h-.01v-.01h-.01l-.01-.01h-.01v-.01h-.02v-.01h-.01l-.01-.01h-.01v-.01h-.02v-.01h-.01l-.01-.01-.21-.15Zm6.3-2.36c-.02.12-.06.25-.1.37v.04h-.01v.03h-.01v.03h-.01V44H42a.08.08 0 0 0 0 .01.06.06 0 0 1 0 .01.05.05 0 0 1-.01 0v.03h-.01v.02l-.01.01v.02a.1.1 0 0 1-.01 0v.03h-.01v.02h-.01a.06.06 0 0 1 0 .01v.01l-.01.01v.02h-.01v.02l-.01.01v.02h-.01v.02h-.01v.02h-.01v.02l-.01.01v.02h-.01v.02h-.01v.02h-.01v.02h-.01v.02l-.02.02-.07.14v.02h-.01v.01h-.01v.02h-.01v.02h-.01v.01l-.01.01v.01h-.01v.02h-.01v.01l-.01.01v.01h-.01a.24.24 0 0 0 0 .01.25.25 0 0 0-.01.01v.01l-.01.01v.01h-.01a6.86 6.86 0 0 1 0 .01l-.01.01v.01h-.01v.01l-.01.01v.01h-.01v.02l-.2.27-.01.01-.01.01v.01h-.01v.01h-.01v.01l-.01.01-.01.01v.01h-.01v.01h-.01v.01h-.01v.01l-.01.01-.01.01v.01a.3.3 0 0 0-.01 0v.01h-.01v.01h-.01v.01h-.01v.01h-.01v.01l-.01.01-.02.02a4 4 0 0 1-.14.14v.01h-.01v.01h-.01v.01a5.57 5.57 0 0 1-.01 0v.01h-.01v.01H41v.02h-.01a.22.22 0 0 1 0 .01h-.01v.01h-.01v.01h-.01v.01h-.01l-.01.01-.01.01-.01.01h-.01v.01h-.01v.01h-.01v.01h-.01v.01h-.01v.01h-.01l-.01.01-.01.01h-.01v.01h-.01v.01h-.01v.01h-.01v.01h-.02v.01h-.01v.01a.2.2 0 0 0-.01 0v.01h-.01v.01h-.02v.01h-.01v.01a.33.33 0 0 1-.03.02h-.01v.01h-.01v.01h-.01v.01h-.01l-.01.01h-.01v.01h-.01v.01h-.02v.01h-.01v.01h-.02v.01h-.01v.01h-.01v.01h-.02l.28.42a4.47 4.47 0 0 0 1.83-2.74l-.49-.11Zm-1.62-4.72-.25.43c.26.16.5.34.72.54v.01h.01v.01h.01v.01h.01a.44.44 0 0 1 0 .01h.01v.01h.01v.01h.01v.01h.01v.01h.01v.01h.01v.01h.01a.35.35 0 0 1 0 .01h.01v.01h.01v.01h.01a.24.24 0 0 1 0 .01h.01v.01h.01v.01h.01a.15.15 0 0 1 0 .01h.01v.01h.01v.01l.01.01.01.01v.01h.01v.01a.18.18 0 0 1 .01 0V40h.02a.1.1 0 0 1 0 .01h.01v.01h.01v.01l.01.01v.01h.01l.01.01v.01h.01v.01l.02.01v.02h.01v.01h.01c.34.42.59.9.74 1.4l.48-.14a4.49 4.49 0 0 0-2.03-2.6Zm-2.29-.63v.5h.01a3.95 3.95 0 0 1 .13 0l.02-.5h-.16Zm-13-36a4.5 4.5 0 0 0-3.07 1.21l.34.37a6.52 6.52 0 0 1 .31-.26h.01l.02-.02.02-.02a2.32 2.32 0 0 1 .02-.01h.01V3.4a.25.25 0 0 1 .01 0h.01a3.98 3.98 0 0 1 .01-.01h.01l.01-.01v-.01a.62.62 0 0 0 .01 0l.01-.01h.01l.01-.01H23v-.01h.01v-.01h.02v-.01h.01V3.3h.03v-.01h.02v-.01h.01l.01-.01h.01v-.01h.02v-.01a.34.34 0 0 1 .01 0l.01-.01h.01v-.01h.02v-.01h.01l.01-.01h.01V3.2h.02v-.01h.01l.01-.01h.01v-.01h.02v-.01h.02v-.01h.02v-.01h.01l.01-.01h.01l.01-.01h.01l.01-.01h.01V3.1h.02v-.01h.02v-.01h.02v-.01h.02l.01-.01h.01l.01-.01h.01l.02-.01h.01v-.01h.02v-.01h.02V3a3.1 3.1 0 0 1 .03-.01h.01v-.01h.03v-.01h.01l.02-.01.02-.01h.02v-.01h.01l.02-.01.03-.01a4.15 4.15 0 0 1 1.23-.27h.22v-.5Zm-4.27 3.09a4.48 4.48 0 0 0 .18 3.29l.45-.21a4.02 4.02 0 0 1-.18-.48v-.02l-.01-.02v-.02h-.01v-.03l-.01-.01v-.01a.08.08 0 0 1 0-.01V7.7h-.01a.11.11 0 0 1 0-.01.16.16 0 0 0 0-.02v-.01h-.01v-.04h-.01v-.04h-.01v-.04h-.01v-.02a.34.34 0 0 0 0-.01V7.5l-.01-.01v-.05h-.01v-.01a4.1 4.1 0 0 1 .12-2.05l-.47-.15Zm1.88 4.62-.3.4a4.5 4.5 0 0 0 3.18.87l-.06-.5h-.03l-.22.02a4.09 4.09 0 0 1-.02 0h-.15a4 4 0 0 1-1.3-.21h-.02l-.01-.01h-.03v-.01a4 4 0 0 1-1.04-.56Zm6.3-2.36a4.03 4.03 0 0 1-.12.44v.02h-.01V8H29v.02l-.01.01v.02l-.01.01v.02h-.01v.03h-.01a.76.76 0 0 0 0 .01v.01a.1.1 0 0 1-.01 0v.02a.1.1 0 0 0 0 .01h-.01a.06.06 0 0 1 0 .01v.01h-.01v.02l-.01.01v.02a.06.06 0 0 0-.01 0v.02a.12.12 0 0 0-.01 0v.02l-.01.01v.02h-.01v.02h-.01v.02h-.01v.02h-.01v.02l-.01.01v.02h-.01v.01l-.01.01v.02h-.01a4 4 0 0 1-.07.14.26.26 0 0 1 0 .01h-.01v.02h-.01v.01l-.01.01v.01l-.01.01v.01h-.01v.02h-.01v.01l-.01.01v.01h-.01v.01a.28.28 0 0 0-.01.02h-.01v.01a.27.27 0 0 1 0 .01h-.01v.01l-.02.02-.02.03c-.28.45-.65.83-1.07 1.12l.28.4a4.47 4.47 0 0 0 1.83-2.73l-.49-.11Zm-1.62-4.72-.25.43.16.1.01.01a.4.4 0 0 1 .01 0v.01h.01l.01.01h.01a.22.22 0 0 0 0 .01.13.13 0 0 0 .01 0l.01.01h.01v.01a.12.12 0 0 0 .01 0v.01a.3.3 0 0 0 .01 0 .58.58 0 0 0 .01.01h.01v.01h.01l.01.01h.01v.01h.01l.01.01.02.02a4 4 0 0 1 1.45 2.07l.48-.14a4.49 4.49 0 0 0-2.03-2.6Zm-2.29-.63v.5h.13l.02-.5h-.15Zm7.49 20.58a3 3 0 1 1 0 6 3 3 0 0 1 0-6m0-1a4 4 0 1 0 0 8 4 4 0 0 0 0-8Zm-2.92 9.52a3 3 0 1 1 0 5.99 3 3 0 0 1 0-6m0-1a4 4 0 1 0 0 8 4 4 0 0 0 0-8Zm-5.83 18.04a3 3 0 1 1 0 5.99 3 3 0 0 1 0-6m0-1a4 4 0 1 0 0 8 4 4 0 0 0 0-8Zm2.92-1.01a3.5 3.5 0 1 1 0-6.98 3.5 3.5 0 0 1 0 6.98ZM9 9.47a3 3 0 1 1 0 6 3 3 0 0 1 0-6m0-1a4.05 4.05 0 0 0-3 1.36 4 4 0 1 0 3-1.35Zm.57 9.99a3 3 0 1 1 0 6 3 3 0 0 1 0-6m0-1a4.04 4.04 0 0 0-3 1.35 4 4 0 1 0 3-1.35Zm1.13 25.46a3.5 3.5 0 1 1 0-7.01 3.5 3.5 0 0 1 0 7.01Z"/>
</svg>
