<svg xmlns="http://www.w3.org/2000/svg" viewBox="0 0 44 57">
  <path d="M4.27 9.25c-6.37 22.83.97 37.69 18.27 45.37a4.5 4.5 0 0 0 6.07-2.67L42.16 12.4a4.5 4.5 0 0 0-2.8-5.71l-2.84-.98a4.5 4.5 0 0 0-5.72 2.8 4.5 4.5 0 0 1-5.71 2.8L10.07 6.17a4.52 4.52 0 0 0-5.8 3.08Z" fill="var(--c-ocarina, #ceb3a1)" stroke="#000"/>
  <circle cx="25.24" cy="5.42" r="4"/>
  <circle cx="38.24" cy="41.42" r="4"/>
  <path d="M10.13 32.7a3.5 3.5 0 1 1 .01-7 3.5 3.5 0 0 1 0 7Zm7.42-10.48a2.5 2.5 0 0 1-.15-5h.15a2.5 2.5 0 0 1 .16 5h-.16Zm4.69 10.7a2.5 2.5 0 1 1 0-5 2.5 2.5 0 0 1 0 5Zm1.74 20.62a3.5 3.5 0 1 1 0-7 3.5 3.5 0 0 1 0 7Zm2.92-8.51a3.5 3.5 0 1 1 0-7.01 3.5 3.5 0 0 1 0 7.01Zm2.91-8.51a3.5 3.5 0 1 1 0-7 3.5 3.5 0 0 1 0 7ZM32.73 28a3.5 3.5 0 1 1 0-7 3.5 3.5 0 0 1 0 7ZM9 14.74a3.5 3.5 0 1 1 .01-7 3.5 3.5 0 0 1 0 7H9Zm.56 8.98a3.5 3.5 0 1 1 .02-7 3.5 3.5 0 0 1-.01 7Z" fill="#fff"/>
  <path d="M10.14 26.2a3 3 0 1 1-.01 6 3 3 0 0 1 0-6m0-1a4.04 4.04 0 0 0-3 1.36 4 4 0 1 0 3-1.35Zm.57 9.99a3 3 0 1 1 0 6 3 3 0 0 1 0-6m0-1a4.04 4.04 0 0 0-3 1.35 4 4 0 1 0 3-1.35Zm6.85-16.47a2 2 0 1 1 0 4 2 2 0 0 1 0-4m0-1h-.19a3 3 0 1 0 .2 0Zm4.69 11.7a2 2 0 1 1 0 4 2 2 0 0 1 0-4m0-1a3 3 0 1 0 0 6 3 3 0 0 0 0-6Zm1.74 19.62a3 3 0 1 1 0 6 3 3 0 0 1 0-6m0-1a4 4 0 1 0 0 8 4 4 0 0 0 0-8ZM25.24.92a4.5 4.5 0 0 0-3.07 1.2l.34.37a6.01 6.01 0 0 1 .31-.26h.01l.02-.01.02-.02a1.95 1.95 0 0 1 .02-.01v-.01h.01a.23.23 0 0 1 .01-.01h.01l.01-.01v-.01h.02v-.01h.01l.01-.01.01-.01H23V2.1a.09.09 0 0 0 .01 0l.01-.01h.01v-.01h.02v-.01h.01v-.01h.02v-.01h.01v-.01h.02v-.01h.01v-.01h.02v-.01h.02V2h.03v-.01h.02v-.01h.01v-.01h.02v-.01h.01a.13.13 0 0 1 .01-.01h.01l.01-.01h.01v-.01h.02v-.01h.02V1.9h.04v-.01a.85.85 0 0 1 .01 0l.01-.01h.01v-.01h.02v-.01h.02l.01-.01h.01v-.01h.02v-.01h.02l.01-.01h.01l.01-.01h.02V1.8h.02v-.01h.01l.02-.01.02-.01h.01l.01-.01h.01l.02-.01h.01l.02-.01.02-.01.02-.01h.01l.02-.01.03-.01a4 4 0 0 1 1.28-.27h.1v-.01h.02a.52.52 0 0 1 .02 0h.02v-.5ZM20.97 4a4.48 4.48 0 0 0 .18 3.3l.45-.21a3.83 3.83 0 0 1-.05-.11v-.03l-.01-.01v-.02h-.01V6.9a.05.05 0 0 1 0-.01l-.01-.01v-.02h-.01v-.02l-.01-.01v-.02h-.01v-.03h-.01v-.02l-.01-.01v-.01a.25.25 0 0 1 0-.01v-.01h-.01V6.7l-.01-.01v-.02l-.02-.04v-.02a3.98 3.98 0 0 1 .01-2.46L20.97 4Zm1.88 4.63-.3.4a4.5 4.5 0 0 0 3.18.87l-.06-.5a2.05 2.05 0 0 1-.01 0h-.02l-.22.02a4.43 4.43 0 0 1-.03 0 3.04 3.04 0 0 1-.02 0h-.13a4 4 0 0 1-1.3-.21h-.01l-.01-.01h-.01a6.02 6.02 0 0 1-.01 0l-.01-.01h-.01a4 4 0 0 1-1.04-.56Zm6.3-2.36c-.03.14-.07.29-.12.43v.02l-.01.01v.02l-.01.01v.02H29v.03h-.01v.03h-.01v.02h-.01v.02a.09.09 0 0 1-.01.01v.02h-.01v.03h-.01v.02h-.01V7h-.01v.02a.12.12 0 0 0-.01 0v.01a.05.05 0 0 0 0 .01h-.01v.02l-.01.01v.02h-.01v.02h-.01v.02h-.01a.16.16 0 0 0 0 .01v.01a.17.17 0 0 1-.01 0v.02h-.01v.02h-.01v.02h-.01a4 4 0 0 1-.07.15l-.01.01v.01l-.01.01v.01h-.01v.02h-.01v.01l-.01.01v.01l-.01.01v.01h-.01v.02h-.01v.01a.3.3 0 0 0-.01.01v.01h-.01a.27.27 0 0 1 0 .02h-.01v.01l-.02.02-.02.03c-.28.45-.65.82-1.07 1.11l.28.41a4.47 4.47 0 0 0 1.83-2.74l-.49-.1Zm-1.62-4.72-.25.43.16.1h.01v.01a.47.47 0 0 1 .01 0l.01.01h.01v.01h.01a.13.13 0 0 0 .01 0v.01h.01v.01h.01l.01.01a.33.33 0 0 0 .01 0v.01a.37.37 0 0 0 .01 0v.01h.02v.01h.01v.01h.01l.01.01h.01v.01l.02.01a4 4 0 0 1 1.45 2.08l.48-.14a4.49 4.49 0 0 0-2.03-2.6ZM25.24.92v.5h.13l.02-.5h-.15Zm1.66 37.61a3 3 0 1 1 0 5.99 3 3 0 0 1 0-6m0-1a4 4 0 1 0 0 8 4 4 0 0 0 0-8Zm2.91-7.51a3 3 0 1 1 0 6 3 3 0 0 1 0-6m0-1a4 4 0 1 0 0 8 4 4 0 0 0 0-8Zm2.92-7.51a3 3 0 1 1 0 5.99 3 3 0 0 1 0-6m0-1a4 4 0 1 0 0 8.01 4 4 0 0 0 0-8Zm5.51 16.43a4.5 4.5 0 0 0-3.06 1.2l.34.37a4.01 4.01 0 0 1 2.52-1.06h.06a3.53 3.53 0 0 1 .02 0h.01a3.21 3.21 0 0 1 .01 0h.04v-.01h.02a3.95 3.95 0 0 1 .02 0 6.72 6.72 0 0 1 .01 0h.01v-.5ZM33.97 40a4.48 4.48 0 0 0 .18 3.3l.46-.21a3.99 3.99 0 0 1-.16-2.93l-.48-.16Zm1.88 4.63-.3.4a4.5 4.5 0 0 0 3.18.87l-.06-.5h-.03l-.21.02a3.53 3.53 0 0 1-.02 0h-.09a.25.25 0 0 1-.01 0h-.03a.24.24 0 0 1-.01 0h-.02a4 4 0 0 1-1.3-.21h-.01v-.01h-.02a2.85 2.85 0 0 1-.01 0v-.01h-.01a4.01 4.01 0 0 1-.68-.32h-.02v-.01a.04.04 0 0 1-.01 0v-.01h-.02v-.01h-.02v-.01h-.01v-.01h-.02v-.01h-.01v-.01h-.02l-.01-.01-.01-.01h-.01v-.01l-.21-.14Zm6.3-2.36c-.02.12-.06.24-.1.36v.04h-.01v.03h-.01v.03h-.01v.03H42a.08.08 0 0 0 0 .02.06.06 0 0 1 0 .01.05.05 0 0 1-.01 0v.02l-.01.01v.02h-.01v.02a.1.1 0 0 1-.01.01v.02l-.01.01v.02h-.01v.02h-.01v.03h-.01V43h-.01a.12.12 0 0 0 0 .01l-.01.01v.02h-.01v.02h-.01v.02h-.01v.02l-.01.01v.01h-.01v.02l-.01.01v.02h-.01v.01l-.02.03-.07.14v.01h-.01v.02h-.01v.01l-.01.01v.01l-.01.01v.01h-.01v.02h-.01v.01l-.01.01v.01h-.01v.02h-.01v.01a.25.25 0 0 0-.01 0v.02h-.01v.01l-.01.01v.01h-.01v.01l-.01.01v.01h-.01v.02h-.01v.01l-.2.28-.01.01h-.01v.01l-.01.01v.01h-.01v.01h-.01v.01h-.01v.01h-.01v.01l-.01.01V44h-.01v.01h-.01v.01h-.01v.01a.3.3 0 0 0-.01 0v.01l-.01.01-.01.01-.01.01-.01.01v.01h-.01v.01l-.02.01a4 4 0 0 1-.14.15l-.01.01v.01h-.01v.01a5.57 5.57 0 0 1-.01 0v.01h-.01v.01H41l-.01.01-.01.01-.01.01-.01.01-.01.01h-.01v.01h-.01v.01h-.01v.01h-.01v.01h-.01v.01h-.01l-.01.01-.01.01h-.01v.01h-.01v.01h-.01v.01h-.01v.01h-.01l-.01.01-.01.01h-.01v.01h-.01v.01h-.01v.01h-.01a.2.2 0 0 0-.01.01h-.01v.01h-.01v.01h-.01v.01h-.01v.01a.33.33 0 0 1-.03.01v.01h-.01v.01h-.02v.01h-.01v.01h-.01l-.01.01-.01.01h-.01v.01h-.01l-.01.01h-.01v.01h-.01v.01h-.01l-.01.01h-.01v.01h-.01l.28.41a4.47 4.47 0 0 0 1.83-2.74l-.49-.1Zm-1.62-4.72-.25.43c.26.15.5.33.72.54l.01.01.01.01.01.01.01.01.01.01.01.01.01.01.01.01.01.01.01.01.01.01.01.01.01.01v.01h.01v.01h.01v.01h.01v.01h.01a4 4 0 0 1 0 .01h.01v.01h.01v.01h.01v.01h.01v.01a.17.17 0 0 1 .01.01l.01.01.01.01v.01h.01v.01h.01v.01h.01v.01h.01v.01h.01v.01l.01.01.02.02v.01h.01v.01l.01.01c.34.41.59.89.74 1.4l.48-.14a4.49 4.49 0 0 0-2.03-2.6Zm-2.29-.63v.5h.01a3.96 3.96 0 0 1 .13 0l.02-.5h-.16ZM9 8.24a3 3 0 1 1 0 6 3 3 0 0 1 0-6m0-1a4.04 4.04 0 0 0-3 1.35 4 4 0 1 0 3-1.35Z"/>
  <path d="M9.57 17.22a3 3 0 1 1 0 6 3 3 0 0 1 0-6m0-1-.25.01a4 4 0 1 0 .25 0Zm1.13 25.47a3.5 3.5 0 1 1 0-7.01 3.5 3.5 0 0 1 0 7Z"/>
</svg>
