<svg xmlns="http://www.w3.org/2000/svg" viewBox="0 0 44 57">
  <path d="M4.27 9.25c-6.37 22.83.97 37.69 18.27 45.37a4.5 4.5 0 0 0 6.07-2.67L42.16 12.4a4.5 4.5 0 0 0-2.8-5.71l-2.84-.98a4.5 4.5 0 0 0-5.72 2.8 4.5 4.5 0 0 1-5.71 2.8L10.07 6.17a4.52 4.52 0 0 0-5.8 3.08Z" fill="var(--c-ocarina, #ceb3a1)" stroke="#000"/>
  <circle cx="25.24" cy="5.42" r="4"/>
  <circle cx="38.24" cy="41.42" r="4"/>
  <path d="M10.14 26.2a3 3 0 1 1-.01 6 3 3 0 0 1 0-6m0-1a4.05 4.05 0 0 0-3 1.36 4 4 0 1 0 3-1.35Z"/>
  <path d="M10.7 35.19a3 3 0 1 1 0 6 3 3 0 0 1 0-6m0-1a4.05 4.05 0 0 0-3 1.35 4 4 0 1 0 3-1.35Zm-.57-1.49a3.5 3.5 0 1 1 .01-7 3.5 3.5 0 0 1 0 7Zm7.42-14.98a2 2 0 1 1 0 4 2 2 0 0 1 0-4m0-1h-.19a3 3 0 1 0 .2 0Zm4.69 11.7a2 2 0 1 1 0 4 2 2 0 0 1 0-4m0-1a3 3 0 1 0 0 6 3 3 0 0 0 0-6ZM9 14.74a3.5 3.5 0 1 1 .01-7 3.5 3.5 0 0 1 0 7H9Zm14.98 32.3a3 3 0 1 1 0 6 3 3 0 0 1 0-6m0-1a4 4 0 1 0 0 8 4 4 0 0 0 0-8Zm2.92-1.01a3.5 3.5 0 1 1 0-7.01 3.5 3.5 0 0 1 0 7.01ZM25.24.92a4.5 4.5 0 0 0-3.07 1.2l.34.37a4 4 0 0 1 2.5-1.07h.17a1.98 1.98 0 0 1 .01 0h.05v-.5ZM20.97 4a4.48 4.48 0 0 0 .18 3.3l.45-.21v-.03h-.01v-.02h-.01v-.02h-.01v-.03h-.01v-.02h-.01v-.02l-.01-.01v-.01a.17.17 0 0 1 0-.01h-.01V6.9l-.01-.01v-.02h-.01v-.02a.73.73 0 0 0-.01-.01v-.02h-.01V6.8a.1.1 0 0 0 0-.01v-.01a.8.8 0 0 0-.01 0v-.02l-.01-.01v-.03h-.01V6.7l-.01-.01v-.02l-.01-.01v-.02l-.01-.01V6.6h-.01v-.03a.78.78 0 0 1-.01-.01v-.02l-.01-.01V6.5h-.01v-.03l-.01-.01v-.03h-.01V6.4a.88.88 0 0 1 0-.01h-.01v-.04a.77.77 0 0 0-.01-.01v-.03l-.01-.01v-.02a.08.08 0 0 1 0-.01v-.01h-.01v-.05h-.01v-.03a.07.07 0 0 1 0-.02h-.01v-.03a.8.8 0 0 1 0-.01v-.01h-.01v-.05a.75.75 0 0 1 0-.01h-.01V6a.65.65 0 0 1-.01-.01v-.07h-.01v-.08a.57.57 0 0 0-.01-.02V5.8a.33.33 0 0 1 0-.02v-.07h-.01v-.06a.23.23 0 0 1 0-.01v-.12a.74.74 0 0 0 0-.01V5.5h-.01v-.2a.37.37 0 0 0 0-.01v-.15l.01-.01v-.08a.08.08 0 0 0 0-.01v-.02a.8.8 0 0 1 .01-.01v-.08h.01a.2.2 0 0 0 0-.01v-.06l.01-.01v-.03a.41.41 0 0 1 0-.01V4.8a4.75 4.75 0 0 0 0-.01h.01v-.03a.2.2 0 0 0 0-.02.87.87 0 0 1 0-.01h.01v-.05l.01-.01v-.01a1.1 1.1 0 0 1 0-.01v-.03h.01v-.04l.01-.01a3.61 3.61 0 0 1 0-.03l.01-.01.1-.38-.47-.16Zm1.88 4.63-.3.4a4.5 4.5 0 0 0 3.18.87l-.06-.5h-.03a3.97 3.97 0 0 1-.23.02 4.3 4.3 0 0 1-.02 0 3.5 3.5 0 0 1-.01 0h-.05a3.1 3.1 0 0 1-.01 0h-.07a4 4 0 0 1-1.3-.21h-.01l-.01-.01h-.02l-.01-.01a.07.07 0 0 0-.01 0 4 4 0 0 1-1.04-.56Zm6.3-2.36-.07.29-.01.02v.02h-.01v.03l-.01.02v.01l-.01.01v.03h-.01v.02l-.01.01v.02l-.01.01a.26.26 0 0 1 0 .01v.01H29v.03h-.01v.03h-.01v.02h-.01v.03h-.01v.02h-.01v.03h-.01v.02h-.01v.01a.26.26 0 0 1 0 .02h-.01v.02h-.01v.02h-.01v.02h-.01v.03h-.01v.02h-.01v.02h-.01v.02h-.01v.02h-.01v.02l-.01.01v.01l-.12.21-.02.03-.02.04-.01.02-.01.02c-.17.27-.37.53-.6.75h-.01v.01l-.01.01a.1.1 0 0 0-.01 0v.01H28v.02h-.01v.01a.3.3 0 0 0-.01 0v.01h-.01v.01h-.01a.23.23 0 0 1 0 .01h-.01v.01h-.01v.01h-.01v.01h-.01l-.01.01-.01.01-.01.01a4 4 0 0 1-.36.28l.28.41a4.47 4.47 0 0 0 1.83-2.74l-.49-.1Zm-1.62-4.72-.25.43a3.97 3.97 0 0 1 .31.2l.01.01h.01v.01h.01v.01h.01l.01.01h.01a2.04 2.04 0 0 1 0 .01h.01l.01.01.01.01h.01a.47.47 0 0 1 0 .01h.01v.01h.01v.01h.02v.01h.01v.01h.01v.01h.01l.01.01h.01a1.46 1.46 0 0 0 0 .01.07.07 0 0 0 .01.01h.01v.01h.01l.01.01v.01h.01a1.52 1.52 0 0 1 .01.01h.01v.01h.01v.01h.01v.01h.01l.04.04.01.01a4 4 0 0 1 .54.6l.01.01v.01h.01v.01l.01.02h.01v.01l.01.01v.01h.01v.01h.01v.02h.01v.01h.01v.02h.01v.01h.01v.02a1 1 0 0 1 .01 0v.01l.01.01v.01h.01v.01l.01.01v.01a.2.2 0 0 0 .01.01v.01h.01v.01h.01v.02a.47.47 0 0 0 .01 0v.01l.01.01v.01h.01v.02h.01v.01l.01.01v.01l.01.01.02.03v.01l.01.01v.01c.15.26.26.52.34.8l.48-.14a4.49 4.49 0 0 0-2.03-2.6ZM25.24.92v.5h.13l.02-.5h-.15ZM32.73 28a3.5 3.5 0 1 1 0-7 3.5 3.5 0 0 1 0 7Z"/>
  <path d="M17.55 22.22a2.5 2.5 0 0 1-.15-5h.15a2.5 2.5 0 0 1 .16 5h-.16Zm4.69 10.7a2.5 2.5 0 1 1 0-5 2.5 2.5 0 0 1 0 5Zm1.74 20.62a3.5 3.5 0 1 1 0-7 3.5 3.5 0 0 1 0 7Z" fill="#fff"/>
  <path d="M26.9 38.53a3 3 0 1 1 0 5.99 3 3 0 0 1 0-6m0-1a4 4 0 1 0 0 8 4 4 0 0 0 0-8Zm2.91-7.51a3 3 0 1 1 0 6 3 3 0 0 1 0-6m0-1a4 4 0 1 0 0 8 4 4 0 0 0 0-8Z"/>
  <path d="M32.73 21.5a3 3 0 1 1 0 5.99 3 3 0 0 1 0-6m0-1a4 4 0 1 0 0 8.01 4 4 0 0 0 0-8Zm-2.92 16.03a3.5 3.5 0 1 1 0-7 3.5 3.5 0 0 1 0 7Zm8.43.4a4.5 4.5 0 0 0-3.06 1.2l.34.37c.67-.62 1.55-1 2.47-1.06h.11a4.05 4.05 0 0 1 .02 0 1.43 1.43 0 0 0 .01 0 4.28 4.28 0 0 1 .01 0h.01a1.5 1.5 0 0 1 .01 0h.02v-.01h.03a.98.98 0 0 1 .01 0h.02v-.5ZM33.97 40a4.48 4.48 0 0 0 .18 3.3l.46-.21a2.16 2.16 0 0 1 0-.01h-.01v-.02l-.01-.01v-.01l-.01-.01V43h-.01v-.02h-.01v-.02l-.01-.01v-.02h-.01v-.01a.17.17 0 0 1 0-.01v-.01h-.01v-.02h-.01v-.02l-.01-.01v-.01a.7.7 0 0 0 0-.01h-.01v-.03h-.01a.11.11 0 0 0 0-.01v-.01l-.01-.01v-.02l-.01-.01v-.02l-.01-.01v-.02h-.01v-.03h-.01v-.03h-.01v-.03l-.01-.01v-.02a.88.88 0 0 1-.01-.01v-.03h-.01v-.04h-.01v-.03h-.01v-.04h-.01v-.02a.88.88 0 0 1 0-.01v-.01h-.01v-.03a.81.81 0 0 0 0-.01h-.01v-.04l-.01-.01v-.01a.08.08 0 0 1 0-.01v-.02h-.01v-.05h-.01v-.02a.07.07 0 0 1 0-.02v-.01h-.01v-.02a.8.8 0 0 1 0-.01v-.02l-.01-.01v-.03a.76.76 0 0 1 0-.01v-.01l-.01-.01V42a.65.65 0 0 1 0-.01v-.01h-.01v-.08h-.01v-.07a.57.57 0 0 0 0-.02v-.01h-.01a.33.33 0 0 1 0-.02v-.1l-.01-.01v-.02a.23.23 0 0 1 0-.01v-.12a.74.74 0 0 0 0-.01v-.21a.37.37 0 0 0 0-.01v-.24a.08.08 0 0 0 0-.01h.01v-.02a.8.8 0 0 1 0-.01v-.06h.01v-.02a.2.2 0 0 0 0-.01v-.05h.01v-.05a.41.41 0 0 1 0-.01l.01-.01a4.75 4.75 0 0 0 0-.01v-.03a.2.2 0 0 0 0-.02h.01a.87.87 0 0 1 0-.01v-.04l.01-.01v-.02a1.1 1.1 0 0 1 0-.01v-.01l.01-.01v-.04l.01-.01v-.01a3.61 3.61 0 0 1 0-.03h.01v-.01l.1-.38-.47-.16Zm1.88 4.63-.3.4a4.5 4.5 0 0 0 3.18.87l-.06-.5a3.98 3.98 0 0 1-.3.02h-.13a4 4 0 0 1-1.3-.21h-.01v-.01h-.03v-.01h-.01a4 4 0 0 1-1.05-.56Zm6.3-2.36-.07.29a3.39 3.39 0 0 1 0 .02.11.11 0 0 1-.01 0v.03l-.01.02-.01.02v.02h-.01v.03h-.01v.03h-.01v.03H42v.05l-.01.01v.02a.33.33 0 0 1-.01 0v.03h-.01v.02l-.01.01v.02h-.01v.02l-.01.01v.02h-.01V43h-.01v.02l-.01.01v.02h-.01v.02h-.01v.02h-.01v.02h-.01v.02l-.01.01v.01l-.01.01v.01l-.01.01v.02h-.01v.01l-.01.01v.02h-.01a2.69 2.69 0 0 1-.03.06v.01h-.01v.02h-.01v.02h-.01v.02h-.01v.02h-.01a.08.08 0 0 0 0 .01l-.01.01v.01h-.01v.02h-.01v.01l-.01.01a.1.1 0 0 0 0 .01h-.01v.01a.08.08 0 0 1 0 .01h-.01v.02h-.01v.01l-.01.01v.01h-.01v.02h-.01v.01h-.01v.02h-.01v.01l-.01.01v.01h-.01v.01h-.01v.02h-.01a4.28 4.28 0 0 1-.93.98.78.78 0 0 1 0 .01h-.02v.01h-.01v.01a.51.51 0 0 1-.01 0l-.01.01h-.01v.01h-.01v.01a.37.37 0 0 0-.01 0l-.01.01h-.01v.01h-.01l.28.41a4.47 4.47 0 0 0 1.83-2.74l-.49-.1Zm-1.62-4.72-.25.43a4 4 0 0 1 1.8 2.3l.48-.13a4.49 4.49 0 0 0-2.03-2.6Zm-2.29-.63v.5h.01a3.96 3.96 0 0 1 .13 0l.02-.5h-.16ZM9 8.24a3 3 0 1 1 0 6 3 3 0 0 1 0-6m0-1h-.25a4 4 0 1 0 .26 0Zm.56 16.48a3.5 3.5 0 1 1 .02-7 3.5 3.5 0 0 1-.01 7Z"/>
  <path d="M9.57 17.22a3 3 0 1 1 0 6 3 3 0 0 1 0-6m0-1a4.05 4.05 0 0 0-3 1.36 4 4 0 1 0 3-1.35Zm1.13 25.47a3.5 3.5 0 1 1 0-7.01 3.5 3.5 0 0 1 0 7Z"/>
</svg>
