<svg xmlns="http://www.w3.org/2000/svg" viewBox="0 0 44 57">
  <path d="M4.27 9.25c-6.37 22.83.97 37.69 18.27 45.37a4.5 4.5 0 0 0 6.07-2.67L42.16 12.4a4.5 4.5 0 0 0-2.8-5.71l-2.84-.98a4.5 4.5 0 0 0-5.72 2.8 4.5 4.5 0 0 1-5.71 2.8L10.07 6.17a4.52 4.52 0 0 0-5.8 3.08Z" fill="var(--c-ocarina, #ceb3a1)" stroke="#000"/>
  <g fill="#fff">
    <circle cx="25.24" cy="5.42" r="4"/>
    <path d="M10.13 32.7a3.5 3.5 0 1 1 .01-7 3.5 3.5 0 0 1-.01 7Zm7.42-10.48a2.5 2.5 0 0 1-.15-5h.15a2.5 2.5 0 0 1 .16 5h-.16Zm4.69 10.7a2.5 2.5 0 1 1 0-5 2.5 2.5 0 0 1 0 5Zm1.74 20.62a3.5 3.5 0 1 1 0-7 3.5 3.5 0 0 1 0 7Zm2.92-8.51a3.5 3.5 0 1 1 0-7 3.5 3.5 0 0 1 0 7Zm2.91-8.51a3.5 3.5 0 1 1 0-7 3.5 3.5 0 0 1 0 7ZM32.73 28a3.5 3.5 0 1 1 0-7 3.5 3.5 0 0 1 0 7ZM9 14.74a3.5 3.5 0 1 1 .01-7.01 3.5 3.5 0 0 1 0 7.01H9Zm.56 8.98a3.5 3.5 0 1 1 .02-7 3.5 3.5 0 0 1-.01 7Z"/>
  </g>
  <circle cx="38.24" cy="41.42" r="4"/>
  <path d="M38.24 36.92a4.5 4.5 0 0 0-3.06 1.2l.34.37a3.98 3.98 0 0 1 2.5-1.07h.11a4.26 4.26 0 0 1 .01 0h.04a6.23 6.23 0 0 1 .01 0h.01a5.06 5.06 0 0 1 .02 0 5.48 5.48 0 0 1 .01 0h.01v-.5ZM33.97 40a4.48 4.48 0 0 0 .18 3.3l.46-.21a3.99 3.99 0 0 1-.16-2.93l-.48-.16Zm1.88 4.63-.3.4a4.5 4.5 0 0 0 3.18.87l-.06-.5-.26.02h-.02a.17.17 0 0 0-.02 0h-.02a1.18 1.18 0 0 1-.01 0h-.02a2.58 2.58 0 0 1-.01 0h-.03a.25.25 0 0 1-.01 0h-.02a4 4 0 0 1-1.3-.21h-.01v-.01h-.01a4 4 0 0 1-1.08-.57Zm6.3-2.36-.1.4-.01.01v.02h-.01v.03l-.01.01v.02H42v.03a.22.22 0 0 0 0 .01v.01a.24.24 0 0 1-.01.01v.02h-.01v.03h-.01v.02h-.01v.03h-.01v.02l-.01.01v.02h-.01V43h-.01v.02l-.01.01v.02h-.01v.02a4 4 0 0 1-.19.35v.02h-.01v.01l-.01.01v.01a.23.23 0 0 0-.01.01v.01h-.01v.02h-.01v.01l-.01.01v.01h-.01v.01l-.01.01v.01h-.01v.02h-.01v.01h-.01v.02h-.01v.01h-.01v.02h-.01v.01h-.01v.02h-.01v.01h-.01v.02h-.01l-.01.02c-.28.39-.61.72-1 .98l.3.41a4.47 4.47 0 0 0 1.82-2.74l-.49-.1Zm-1.62-4.72-.25.43c.6.36 1.1.86 1.44 1.46v.01l.01.01v.02l.02.03h.01v.02h.01v.01l.01.01.01.03.01.01v.01l.01.01v.02h.01l.01.03.01.01v.01l.01.01a.35.35 0 0 0 0 .01l.01.01v.01l.01.01v.02h.01v.02l.01.01v.01a1.48 1.48 0 0 1 .02.04v.01h.01v.02l.01.01.02.05v.01l.01.01.12.35.48-.14a4.49 4.49 0 0 0-2.03-2.6Zm-2.29-.63v.5h.13l.03-.5h-.16ZM10.14 26.2a3 3 0 1 1-.01 6 3 3 0 0 1 0-6m0-1a4.04 4.04 0 0 0-3 1.36 4 4 0 1 0 3-1.35Zm.57 9.99a3 3 0 1 1 0 6 3 3 0 0 1 0-6m0-1h-.25a4 4 0 1 0 .25 0Zm6.85-16.47a2 2 0 1 1 0 4 2 2 0 0 1 0-4m0-1a3.02 3.02 0 0 0-2.25 1.02 3 3 0 1 0 2.25-1.02Zm4.69 11.7a2 2 0 1 1 0 4 2 2 0 0 1 0-4m0-1a3 3 0 1 0 0 6 3 3 0 0 0 0-6Zm1.74 19.62a3 3 0 1 1 0 6 3 3 0 0 1 0-6m0-1a4 4 0 1 0 0 8 4 4 0 0 0 0-8ZM25.24.92a4.5 4.5 0 0 0-3.07 1.2l.34.37a6.01 6.01 0 0 1 .31-.26h.01l.02-.01.02-.02a1.95 1.95 0 0 1 .02-.01v-.01h.01a.23.23 0 0 1 .01-.01h.01l.01-.01v-.01h.02v-.01h.01l.01-.01.01-.01H23V2.1a.09.09 0 0 0 .01 0l.01-.01h.01v-.01h.02v-.01h.01v-.01h.02v-.01h.01v-.01h.02v-.01h.01v-.01h.02v-.01h.02V2h.03v-.01h.02v-.01h.01v-.01h.02v-.01h.01a.13.13 0 0 1 .01-.01h.01l.01-.01h.01v-.01h.02v-.01h.02V1.9h.04v-.01a.85.85 0 0 1 .01 0l.01-.01h.01v-.01h.02v-.01h.02l.01-.01h.01v-.01h.02v-.01h.02l.01-.01h.01l.01-.01h.02V1.8h.02v-.01h.01l.02-.01.02-.01h.01l.01-.01h.01l.02-.01h.01l.02-.01.02-.01.02-.01h.01l.02-.01.03-.01a4 4 0 0 1 1.28-.27h.1v-.01h.02a.52.52 0 0 1 .02 0h.02v-.5ZM20.97 4a4.48 4.48 0 0 0 .18 3.3l.45-.21a3.83 3.83 0 0 1-.05-.11v-.03l-.01-.01v-.02h-.01V6.9a.05.05 0 0 1 0-.01l-.01-.01v-.02h-.01v-.02l-.01-.01v-.02h-.01v-.03h-.01v-.02l-.01-.01v-.01a.25.25 0 0 1 0-.01v-.01h-.01V6.7l-.01-.01v-.02l-.02-.04v-.02a3.98 3.98 0 0 1 .01-2.46L20.97 4Zm1.88 4.63-.3.4a4.5 4.5 0 0 0 3.18.87l-.06-.5a2.05 2.05 0 0 1-.01 0h-.02l-.22.02a4.43 4.43 0 0 1-.03 0 3.04 3.04 0 0 1-.02 0h-.13a4 4 0 0 1-1.3-.21h-.01l-.01-.01h-.01a6.02 6.02 0 0 1-.01 0l-.01-.01h-.01a4 4 0 0 1-1.04-.56Zm6.3-2.36c-.03.14-.07.29-.12.43v.02l-.01.01v.02l-.01.01v.02H29v.03h-.01v.03h-.01v.02h-.01v.02a.09.09 0 0 1-.01.01v.02h-.01v.03h-.01v.02h-.01V7h-.01v.02a.12.12 0 0 0-.01 0v.01a.05.05 0 0 0 0 .01h-.01v.02l-.01.01v.02h-.01v.02h-.01v.02h-.01a.16.16 0 0 0 0 .01v.01a.17.17 0 0 1-.01 0v.02h-.01v.02h-.01v.02h-.01a4 4 0 0 1-.07.15l-.01.01v.01l-.01.01v.01h-.01v.02h-.01v.01l-.01.01v.01l-.01.01v.01h-.01v.02h-.01v.01a.3.3 0 0 0-.01.01v.01h-.01a.27.27 0 0 1 0 .02h-.01v.01l-.02.02-.02.03c-.28.45-.65.82-1.07 1.11l.28.41a4.47 4.47 0 0 0 1.83-2.74l-.49-.1Zm-1.62-4.72-.25.43.16.1h.01v.01a.47.47 0 0 1 .01 0l.01.01h.01v.01h.01a.13.13 0 0 0 .01 0v.01h.01v.01h.01l.01.01a.33.33 0 0 0 .01 0v.01a.37.37 0 0 0 .01 0v.01h.02v.01h.01v.01h.01l.01.01h.01v.01l.02.01a4 4 0 0 1 1.45 2.08l.48-.14a4.49 4.49 0 0 0-2.03-2.6ZM25.24.92v.5h.13l.02-.5h-.15Zm1.66 37.61a3 3 0 1 1 0 5.99 3 3 0 0 1 0-6m0-1a4 4 0 1 0 0 8 4 4 0 0 0 0-8Zm2.91-7.51a3 3 0 1 1 0 6 3 3 0 0 1 0-6m0-1a4 4 0 1 0 0 8 4 4 0 0 0 0-8Zm2.92-7.51a3 3 0 1 1 0 5.99 3 3 0 0 1 0-6m0-1a4 4 0 1 0 0 8.01 4 4 0 0 0 0-8ZM9 8.24a3 3 0 1 1 0 6 3 3 0 0 1 0-6m0-1a4.04 4.04 0 0 0-3 1.35 4 4 0 1 0 3-1.35Z"/>
  <path d="M9.57 17.22a3 3 0 1 1 0 6 3 3 0 0 1 0-6m0-1a4.04 4.04 0 0 0-3 1.36 4 4 0 1 0 3-1.35Zm1.13 25.47a3.5 3.5 0 1 1 0-7.01 3.5 3.5 0 0 1 0 7Z"/>
</svg>
