<svg xmlns="http://www.w3.org/2000/svg" viewBox="0 0 44 57">
  <path d="M4.27 9.48c-6.37 22.84.97 37.69 18.27 45.37a4.5 4.5 0 0 0 6.07-2.67l13.55-39.54a4.5 4.5 0 0 0-2.8-5.72l-2.84-.97a4.5 4.5 0 0 0-5.72 2.8 4.5 4.5 0 0 1-5.71 2.8L10.07 6.4a4.52 4.52 0 0 0-5.8 3.07Z" fill="color-mix(in hsl, var(--c-ocarina, #ad7d59), black 25%)" stroke="#000"/>
  <circle cx="25.24" cy="5.66" r="4"/>
  <circle cx="38.24" cy="41.66" r="4"/>
  <path d="M17.55 22.46a2.5 2.5 0 0 1-.15-5h.15a2.5 2.5 0 0 1 .16 4.99h-.16Zm6.43 31.32a3.49 3.49 0 0 1-3.31-4.64 3.5 3.5 0 1 1 3.31 4.64Zm2.92-8.52a3.5 3.5 0 1 1 0-6.98 3.5 3.5 0 0 1 0 6.98Z" fill="#fff"/>
  <path d="M10.14 26.44a3 3 0 1 1-.01 6 3 3 0 0 1 0-6m0-1a4.04 4.04 0 0 0-3 1.35 4 4 0 1 0 3-1.35Z"/>
  <path d="M10.7 35.42a3 3 0 1 1 0 6 3 3 0 0 1 0-6m0-1h-.25a4 4 0 1 0 .25 0Zm-.57-1.48a3.5 3.5 0 1 1 .01-7.01 3.5 3.5 0 0 1 0 7h-.01Zm7.42-14.99a2 2 0 1 1 0 4 2 2 0 0 1 0-4m0-1-.19.01a3 3 0 1 0 .2 0Zm4.69 11.71a2 2 0 1 1 0 3.99 2 2 0 0 1 0-4m0-1a3 3 0 1 0 0 6 3 3 0 0 0 0-6ZM9 14.97a3.5 3.5 0 1 1 .01-7 3.5 3.5 0 0 1 0 7H9Zm14.98 32.31a3 3 0 1 1 0 5.99 3 3 0 0 1 0-6m0-1a4 4 0 1 0 0 8 4 4 0 0 0 0-8Zm1.26-45.12a4.5 4.5 0 0 0-3.07 1.21l.34.37c.68-.63 1.55-1 2.48-1.07h.16a1.02 1.02 0 0 1 .01 0h.08v-.5Zm-4.27 3.09a4.48 4.48 0 0 0 .18 3.29l.45-.21a4.01 4.01 0 0 1-.32-1.09v-.08h-.01v-.07a3.67 3.67 0 0 1-.01-.04v-.09l-.01-.01v-.1a1.1 1.1 0 0 0 0-.01v-.1h-.01v-.12a1.77 1.77 0 0 1 0-.02v-.22h.01v-.12h.01v-.01a.57.57 0 0 1 0-.01.16.16 0 0 0 0-.01v-.05l.01-.01V5.1h.01v-.07h.01v-.07h.01v-.05h.01v-.03l.13-.5-.47-.15Zm1.88 4.62-.3.4a4.5 4.5 0 0 0 3.18.87l-.06-.5h-.02a3.34 3.34 0 0 1-.23.02 3.92 3.92 0 0 1-.03 0h-.04a17.52 17.52 0 0 1-.01 0h-.09a4 4 0 0 1-1.3-.21h-.02l-.01-.01h-.03v-.01a4 4 0 0 1-1.04-.56Zm6.3-2.36-.07.3a3.16 3.16 0 0 1-.01.01v.03h-.01v.03l-.01.02-.01.02v.02h-.01v.03h-.01V7H29v.02l-.01.01v.01a.67.67 0 0 1 0 .01s-.01.01-.01.01v.01a.32.32 0 0 1 0 .01h-.01a.53.53 0 0 1 0 .01v.02h-.01v.02h-.01v.03h-.01v.02h-.01v.03h-.01v.02h-.01v.01a.37.37 0 0 1 0 .01l-.01.01a.26.26 0 0 1 0 .01v.01h-.01a.4.4 0 0 1 0 .01v.01h-.01v.02h-.01v.02h-.01v.02l-.01.01v.01l-.01.01v.01l-.01.01v.02h-.01v.01l-.12.22-.02.02v.01l-.02.04-.01.01-.01.02c-.17.28-.37.53-.6.75v.01h-.01v.01h-.01v.01a.1.1 0 0 0-.01 0v.01H28v.02h-.01a.3.3 0 0 0-.01.02h-.01l-.01.01-.01.01h-.01v.01h-.01v.01h-.01v.01h-.01v.01h-.01v.01h-.01a4 4 0 0 1-.36.29l.28.4a4.47 4.47 0 0 0 1.83-2.73l-.49-.11Zm-1.62-4.72-.25.43a3.97 3.97 0 0 1 .31.21h.01v.01h.01l.01.01h.01v.01h.01v.01h.02v.01h.01v.01h.01v.01h.02v.01h.01v.01h.01v.01h.01v.01h.01l.01.01h.01v.01h.01v.01h.01v.01h.01l.01.01h.01v.01a1.54 1.54 0 0 1 .01 0v.01h.01v.01h.01v.01h.01a1.61 1.61 0 0 1 .01.01h.01v.01l.01.01.04.03v.01h.01a4 4 0 0 1 .54.6v.01h.01v.01l.01.01.01.02.01.01v.01h.01v.01h.01v.01l.01.01v.01h.01v.01l.01.01v.01h.01v.02h.01v.01a.6.6 0 0 1 .02.02v.01l.01.01v.01h.01v.01a.2.2 0 0 0 .02.02v.02h.01v.01a.47.47 0 0 0 .02.02v.01a.54.54 0 0 1 .01.01v.01l.01.01v.01h.01v.02h.01v.01l.02.03v.01h.01v.02c.15.25.26.52.34.8l.48-.15a4.49 4.49 0 0 0-2.03-2.6Zm-2.29-.63v.5h.13l.02-.5h-.15Zm7.49 27.08a3.49 3.49 0 0 1-3.31-4.63 3.5 3.5 0 1 1 3.3 4.63Z"/>
  <path d="M26.9 38.76a3 3 0 1 1 0 6 3 3 0 0 1 0-6m0-1a4 4 0 1 0 0 8 4 4 0 0 0 0-8Zm-4.66-4.6a2.5 2.5 0 1 1 0-5 2.5 2.5 0 0 1 0 5Zm7.57-2.91a3 3 0 1 1 0 5.99 3 3 0 0 1 0-6m0-1a4 4 0 1 0 0 8 4 4 0 0 0 0-8Z"/>
  <path d="M32.73 21.73a3 3 0 1 1 0 6 3 3 0 0 1 0-6m0-1a4 4 0 1 0 0 8 4 4 0 0 0 0-8Zm-2.92 16.02a3.49 3.49 0 0 1-3.3-4.64 3.5 3.5 0 1 1 3.3 4.64Zm8.43.4a4.5 4.5 0 0 0-3.06 1.21l.34.37c.67-.63 1.55-1 2.47-1.07h.05a4.33 4.33 0 0 1 .03 0h.03a3.06 3.06 0 0 1 .02 0 .24.24 0 0 1 .01 0h.01a.33.33 0 0 1 .02 0h.08v-.5Zm-4.27 3.09a4.48 4.48 0 0 0 .18 3.29l.46-.21-.01-.01v-.02h-.01v-.02h-.01v-.02l-.01-.01v-.02h-.01v-.02h-.01v-.02l-.01-.01v-.02h-.01v-.01a.26.26 0 0 1 0-.01v-.01h-.01v-.02h-.01v-.02a.7.7 0 0 0 0-.01h-.01v-.02l-.01-.01v-.01a.8.8 0 0 0 0-.01h-.01v-.03h-.01v-.03h-.01v-.03h-.01v-.03h-.01v-.03h-.01v-.03h-.01a.1.1 0 0 1 0-.01v-.02a.88.88 0 0 1-.01-.01v-.02l-.01-.01a.09.09 0 0 1 0-.01v-.02h-.01v-.04h-.01v-.03l-.01-.01v-.03l-.01-.01v-.02a.81.81 0 0 0 0-.02h-.01v-.04h-.01v-.04l-.01-.01v-.04h-.01v-.03a.07.07 0 0 1 0-.01v-.01l-.01-.01v-.01a.8.8 0 0 1 0-.02v-.02h-.01v-.01a.1.1 0 0 1 0-.01v-.04h-.01v-.05a.65.65 0 0 1 0-.01v-.01h-.01v-.07l-.01-.01v-.07a.57.57 0 0 0 0-.01v-.01l-.01-.01a.33.33 0 0 1 0-.01.38.38 0 0 0 0-.01V42a.25.25 0 0 1 0-.01v-.07h-.01v-.19a.53.53 0 0 1 0-.01v-.18a.37.37 0 0 0 0-.02 1.07 1.07 0 0 1 0-.02v-.2a.08.08 0 0 0 0-.02h.01v-.01a.8.8 0 0 1 0-.02v-.05l.01-.01a.19.19 0 0 1 0-.02v-.05l.01-.01a.38.38 0 0 1 0-.01v-.05h.01a4.75 4.75 0 0 0 0-.02V41a.2.2 0 0 0 0-.01h.01v-.01a.87.87 0 0 1 0-.01v-.04h.01v-.05l.01-.01v-.04h.01v-.01a3.61 3.61 0 0 1 0-.04h.01v-.01l.1-.38-.47-.15Zm1.88 4.62-.3.4a4.5 4.5 0 0 0 3.18.87l-.06-.5a3.98 3.98 0 0 1-.3.02h-.13a4 4 0 0 1-1.3-.21h-.02l-.01-.01h-.02a.07.07 0 0 0 0-.01 4 4 0 0 1-1.05-.56Zm6.3-2.36-.07.3a3.39 3.39 0 0 1 0 .01.11.11 0 0 1-.01.01v.03l-.01.01v.01l-.01.02v.02h-.01v.03h-.01v.03h-.01V43H42v.05h-.01v.02a.33.33 0 0 1-.01.01v.02h-.01v.03h-.01v.02h-.01v.03h-.01v.02h-.01a3.15 3.15 0 0 0 0 .01v.01l-.01.01v.01a.28.28 0 0 1 0 .01h-.01a.32.32 0 0 1 0 .01v.01h-.01v.02h-.01v.01a.31.31 0 0 1 0 .01l-.01.01v.02h-.01v.02h-.01v.02h-.01v.02h-.01v.02h-.01v.01a.14.14 0 0 0 0 .01h-.01v.02h-.01v.01a2.69 2.69 0 0 1-.03.06v.01h-.01v.02h-.01v.02h-.01v.01l-.01.01v.01h-.01v.02h-.01v.01l-.01.01v.01h-.01v.02h-.01v.02h-.01v.01l-.01.01v.01h-.01a.6.6 0 0 0 0 .01v.01h-.01v.01l-.01.01v.01h-.01v.01l-.01.01v.01h-.01v.02h-.01v.01h-.01v.01l-.01.01v.01h-.01v.01a4.28 4.28 0 0 1-.93.98h-.01v.01h-.01l-.01.01a.51.51 0 0 1-.01.01h-.01v.01h-.02v.01a.37.37 0 0 0-.01 0v.01h-.01v.01h-.02l.28.42a4.47 4.47 0 0 0 1.83-2.74l-.49-.11Zm-1.62-4.72-.25.43a4 4 0 0 1 1.8 2.31l.48-.14a4.49 4.49 0 0 0-2.03-2.6Zm-2.29-.63v.5h.01a3.95 3.95 0 0 1 .13 0l.02-.5h-.16ZM9 8.47a3 3 0 1 1 0 6 3 3 0 0 1 0-6m0-1-.25.01a4 4 0 1 0 .26 0Zm.57 16.49a3.5 3.5 0 1 1 0-7.01 3.5 3.5 0 0 1 0 7Z"/>
  <path d="M9.57 17.46a3 3 0 1 1 0 6 3 3 0 0 1 0-6m0-1a4.04 4.04 0 0 0-3 1.35 4 4 0 1 0 3-1.35Zm1.13 25.46a3.5 3.5 0 1 1 0-7.01 3.5 3.5 0 0 1 0 7.01Z"/>
</svg>
