<svg xmlns="http://www.w3.org/2000/svg" viewBox="0 0 44 57">
  <path d="M4.27 9.25c-6.37 22.83.97 37.69 18.27 45.37a4.5 4.5 0 0 0 6.07-2.67L42.16 12.4a4.5 4.5 0 0 0-2.8-5.71l-2.84-.98a4.5 4.5 0 0 0-5.72 2.8 4.5 4.5 0 0 1-5.71 2.8L10.07 6.17a4.52 4.52 0 0 0-5.8 3.08Z" fill="var(--c-ocarina, #ceb3a1)" stroke="#000"/>
  <g fill="#fff">
    <circle class="cls-1" cx="38.24" cy="41.42" r="4"/>
    <circle class="cls-1" cx="25.24" cy="5.42" r="4"/>
    <path class="cls-1" d="M10.13 32.7a3.5 3.5 0 1 1 .02-7 3.5 3.5 0 0 1-.02 7Zm7.42-10.48a2.5 2.5 0 0 1-.16-5h.16a2.5 2.5 0 0 1 .16 5h-.16Zm4.69 10.7a2.5 2.5 0 1 1 0-5 2.5 2.5 0 0 1 0 5Zm1.74 20.62a3.5 3.5 0 1 1 0-7 3.5 3.5 0 0 1 0 7Zm2.92-8.51a3.5 3.5 0 1 1 0-7 3.5 3.5 0 0 1 0 7Zm2.91-8.51a3.5 3.5 0 1 1 0-7 3.5 3.5 0 0 1 0 7ZM32.73 28a3.5 3.5 0 1 1 0-7 3.5 3.5 0 0 1 0 7ZM9 14.74a3.5 3.5 0 1 1 .01-7 3.5 3.5 0 0 1 0 7H9Zm.56 8.98a3.5 3.5 0 1 1 .02-7 3.5 3.5 0 0 1-.01 7Z"/>
  </g>
  <path d="M38.24 36.92a4.5 4.5 0 0 0-3.06 1.2l.34.37a6.24 6.24 0 0 1 .33-.28h.02v-.01a1.95 1.95 0 0 1 .02-.01v-.01h.02a.23.23 0 0 1 0-.01h.01l.01-.01.01-.01h.01v-.01h.01l.01-.01h.01v-.01H36v-.01a.09.09 0 0 0 .01 0l.01-.01h.01v-.01h.02v-.01h.01v-.01h.02v-.01h.01l.01-.01h.01v-.01h.01l.01-.01h.01v-.01h.02V38h.01l.01-.01h.01v-.01h.02v-.01h.01l.01-.01h.01v-.01h.02a.11.11 0 0 1 0-.01h.02v-.01h.01l.01-.01h.01v-.01h.02v-.01h.02v-.01h.02v-.01a.8.8 0 0 1 .02 0v-.01h.01l.01-.01h.01l.01-.01h.01l.02-.01.01-.01h.01l.01-.01h.01a.26.26 0 0 1 .01 0v-.01h.02v-.01h.02v-.01h.02v-.01h.01l.02-.01a3.09 3.09 0 0 1 .03-.01 2.98 2.98 0 0 1 .02-.01l.02-.01h.01l.02-.01.02-.01.02-.01h.01l.02-.01.03-.01a4.01 4.01 0 0 1 1.28-.27h.02a1.64 1.64 0 0 1 .03 0h.01a.19.19 0 0 1 .02 0 4.21 4.21 0 0 1 .02 0h.01v-.01h.03a2.65 2.65 0 0 1 .02 0h.01v-.5ZM33.97 40a4.48 4.48 0 0 0 .18 3.3l.46-.21a3.84 3.84 0 0 1-.05-.11v-.01l-.01-.01v-.02h-.01v-.02l-.01-.01a.05.05 0 0 1 0-.01v-.01h-.01v-.02l-.01-.01v-.02h-.01v-.03h-.01v-.02l-.01-.01v-.02h-.01v-.01a.25.25 0 0 1 0-.01v-.01l-.01-.01v-.02h-.01v-.02l-.02-.04v-.02a3.98 3.98 0 0 1 .02-2.46l-.48-.16Zm1.88 4.63-.3.4a4.5 4.5 0 0 0 3.18.87l-.06-.5h-.03l-.21.02a4.38 4.38 0 0 1-.02 0h-.09a2.58 2.58 0 0 1-.01 0h-.03a.22.22 0 0 1-.01 0h-.02a4 4 0 0 1-1.3-.21h-.01v-.01h-.02a2.85 2.85 0 0 1-.01 0v-.01h-.01a4 4 0 0 1-1.05-.56Zm6.3-2.36c-.03.14-.07.29-.12.43v.03h-.01v.03H42v.05l-.01.01v.02h-.01v.03h-.01v.01a.09.09 0 0 1 0 .01l-.01.01v.02h-.01v.02h-.01v.03h-.01V43h-.01v.02l-.01.01a.05.05 0 0 0 0 .01v.01h-.01v.02h-.01v.02h-.01v.02h-.01v.02a.16.16 0 0 0-.01.01v.01l-.01.01v.02h-.01v.01l-.01.01v.01a4 4 0 0 1-.08.15v.01h-.01v.02h-.01v.01l-.01.01v.01l-.01.01v.01h-.01v.02h-.01v.01l-.01.01v.01h-.01v.01a.28.28 0 0 0-.01.01v.01h-.01a.26.26 0 0 1 0 .02h-.01v.01l-.01.02-.02.03c-.3.45-.66.82-1.08 1.11l.28.41a4.47 4.47 0 0 0 1.83-2.74l-.49-.1Zm-1.62-4.72-.25.43.16.1h.01v.01h.02v.01h.01l.01.01a.13.13 0 0 0 .01 0v.01h.01l.01.01h.01v.01h.01l.01.01.01.01h.01v.01h.01v.01h.01l.01.01h.01v.01l.02.01a4 4 0 0 1 1.45 2.08l.48-.14a4.49 4.49 0 0 0-2.03-2.6Zm-2.29-.63v.5h.14l.02-.5h-.16ZM10.14 26.2a3 3 0 1 1-.01 6 3 3 0 0 1 0-6m0-1a4.04 4.04 0 0 0-3 1.36 4 4 0 1 0 3-1.35Zm.57 9.99a3 3 0 1 1 0 6 3 3 0 0 1 0-6m0-1a4.04 4.04 0 0 0-3 1.35 4 4 0 1 0 3-1.35Zm6.85-16.47a2 2 0 1 1 0 4 2 2 0 0 1 0-4m0-1a3.02 3.02 0 0 0-2.25 1.02 3 3 0 1 0 2.25-1.02Zm4.69 11.7a2 2 0 1 1 0 4 2 2 0 0 1 0-4m0-1a3 3 0 1 0 0 6 3 3 0 0 0 0-6Zm1.74 19.62a3 3 0 1 1 0 6 3 3 0 0 1 0-6m0-1a4 4 0 1 0 0 8 4 4 0 0 0 0-8ZM25.24.92a4.5 4.5 0 0 0-3.07 1.2l.34.37a3.97 3.97 0 0 1 2.55-1.07h.03a1.5 1.5 0 0 1 .02 0h.04a3.96 3.96 0 0 1 .02 0h.07v-.5ZM20.97 4a4.48 4.48 0 0 0 .18 3.3l.45-.21a3.99 3.99 0 0 1-.16-2.93L20.97 4Zm1.88 4.63-.3.4a4.5 4.5 0 0 0 3.18.87l-.06-.5h-.03l-.22.02h-.17a4 4 0 0 1-1.3-.21h-.01l-.01-.01h-.01a6.02 6.02 0 0 1-.01 0l-.01-.01h-.01a4.01 4.01 0 0 1-.67-.32h-.02v-.01a.04.04 0 0 1-.01 0l-.01-.01h-.01v-.01h-.02v-.01h-.01l-.01-.01h-.01V8.8h-.01l-.01-.01h-.01l-.01-.01h-.01v-.01h-.01l-.01-.01-.2-.14Zm6.3-2.36-.1.36v.03l-.01.01v.03h-.01v.02l-.01.01v.02l-.01.01a.09.09 0 0 0 0 .02.06.06 0 0 1-.01.01v.02h-.01v.03h-.01v.02h-.01a.1.1 0 0 1 0 .01v.02h-.01v.02h-.01v.03h-.01v.02h-.01V7h-.01v.02h-.01v.02h-.01v.02l-.01.01v.02h-.01v.02h-.01v.02h-.01v.02h-.01v.02h-.01v.02h-.01l-.01.03-.07.14-.01.01v.01l-.01.01v.01h-.01v.02h-.01v.01l-.01.01v.01l-.01.01v.01h-.01v.02a.23.23 0 0 1-.01 0v.01l-.01.01v.01a.26.26 0 0 0-.01 0v.01l-.01.01v.01h-.01v.02h-.01v.01l-.01.01v.01h-.01v.01l-.01.01v.01h-.01l-.2.28v.01h-.01v.01l-.01.01-.01.01-.01.01v.01h-.01v.01h-.01v.01L28.3 8l-.01.01v.01h-.01v.01h-.01v.01h-.01v.01l-.01.01-.01.01-.01.01v.01h-.01v.01h-.01v.01h-.01a4 4 0 0 1-.14.15l-.01.01-.01.01-.01.01-.01.01-.01.01-.01.01a3.06 3.06 0 0 1-.01 0v.01a.22.22 0 0 1-.01 0v.01h-.01v.01h-.01v.01h-.01v.01h-.01v.01h-.01v.01h-.01v.01h-.01l-.01.01h-.01v.01h-.01v.01h-.01v.01h-.01v.01h-.01v.01h-.01l-.01.01-.01.01h-.01v.01h-.01v.01h-.01v.01h-.01l-.01.01a.2.2 0 0 0-.01.01h-.01v.01h-.01v.01h-.01l-.01.01-.01.01a.35.35 0 0 1-.02.01v.01h-.02v.01h-.01v.01h-.01v.01h-.01l-.01.01h-.01v.01h-.01v.01h-.02v.01h-.01v.01h-.01l-.01.01h-.01v.01h-.01v.01h-.01l.28.41a4.47 4.47 0 0 0 1.83-2.74l-.49-.1Zm-1.62-4.72-.25.43c.26.15.5.33.72.54v.01h.01v.01h.01l.01.01v.01h.01l.01.01v.01h.01v.01h.01l.01.01v.01h.01l.01.01v.01h.01v.01h.01v.01h.01v.01h.01v.01h.01v.01a.15.15 0 0 1 .01 0v.01h.01a4 4 0 0 1 0 .01h.01v.01h.01v.01h.01v.01l.01.01a.17.17 0 0 1 0 .01h.01l.01.01v.01a.1.1 0 0 1 .01 0v.01h.01v.01h.01v.01l.01.01h.01v.01l.01.01v.01h.01l.01.02.01.01.01.01.01.01c.34.41.59.89.74 1.4l.48-.14a4.49 4.49 0 0 0-2.03-2.6ZM25.24.92v.5h.01a3.96 3.96 0 0 1 .13 0l.01-.5h-.15Zm1.66 37.61a3 3 0 1 1 0 5.99 3 3 0 0 1 0-6m0-1a4 4 0 1 0 0 8 4 4 0 0 0 0-8Zm2.91-7.51a3 3 0 1 1 0 6 3 3 0 0 1 0-6m0-1a4 4 0 1 0 0 8 4 4 0 0 0 0-8Zm2.92-7.51a3 3 0 1 1 0 5.99 3 3 0 0 1 0-6m0-1a4 4 0 1 0 0 8.01 4 4 0 0 0 0-8ZM9 8.24a3 3 0 1 1 0 6 3 3 0 0 1 0-6m0-1a4.04 4.04 0 0 0-3 1.35 4 4 0 1 0 3-1.35Z"/>
  <path d="M9.57 17.22a3 3 0 1 1 0 6 3 3 0 0 1 0-6m0-1a4.04 4.04 0 0 0-3 1.36 4 4 0 1 0 3-1.35Zm1.13 25.47a3.5 3.5 0 1 1 0-7.01 3.5 3.5 0 0 1 0 7Z"/>
</svg>
