<svg xmlns="http://www.w3.org/2000/svg" viewBox="0 0 44 57">
  <path d="M4.27 9.48c-6.37 22.84.97 37.69 18.27 45.37a4.5 4.5 0 0 0 6.07-2.67l13.55-39.54a4.5 4.5 0 0 0-2.8-5.72l-2.84-.97a4.5 4.5 0 0 0-5.72 2.8 4.5 4.5 0 0 1-5.71 2.8L10.07 6.4a4.52 4.52 0 0 0-5.8 3.07Z" fill="color-mix(in hsl, var(--c-ocarina, #ad7d59), black 25%)" stroke="#000"/>
  <g fill="#fff">
    <circle cx="38.24" cy="41.66" r="4"/>
    <circle cx="25.24" cy="5.66" r="4"/>
    <path d="M10.13 32.94a3.5 3.5 0 1 1 .01-7.01 3.5 3.5 0 0 1 0 7h-.01Zm7.42-10.48a2.5 2.5 0 0 1-.15-5h.15a2.5 2.5 0 0 1 .16 4.99h-.16Zm4.69 10.7a2.5 2.5 0 1 1 0-5 2.5 2.5 0 0 1 0 5Zm1.74 20.62a3.49 3.49 0 0 1-3.31-4.64 3.5 3.5 0 1 1 3.31 4.64Zm5.83-17.03a3.49 3.49 0 0 1-3.3-4.64 3.5 3.5 0 1 1 3.3 4.64Zm2.92-8.52a3.5 3.5 0 1 1 0-7 3.5 3.5 0 0 1 0 7ZM9 14.97a3.5 3.5 0 1 1 .01-7 3.5 3.5 0 0 1 0 7H9Zm.56 8.99a3.5 3.5 0 1 1 .02-7.01 3.5 3.5 0 0 1-.01 7Z"/>
  </g>
  <path d="M10.14 26.44a3 3 0 1 1-.01 6 3 3 0 0 1 0-6m0-1a4.03 4.03 0 0 0-3 1.35 4 4 0 1 0 3-1.35Zm.57 9.98a3 3 0 1 1 0 6 3 3 0 0 1 0-6m0-1a4.03 4.03 0 0 0-3 1.36 4 4 0 1 0 3-1.35Zm6.85-16.47a2 2 0 1 1 0 4 2 2 0 0 1 0-4m0-1-.19.01a3 3 0 1 0 .2 0Zm4.69 11.71a2 2 0 1 1 0 3.99 2 2 0 0 1 0-4m0-1a3 3 0 1 0 0 6 3 3 0 0 0 0-6Zm1.74 19.63a3 3 0 1 1 0 5.99 3 3 0 0 1 0-6m0-1a4 4 0 1 0 0 8 4 4 0 0 0 0-8Zm2.92-1.01a3.5 3.5 0 1 1 0-6.98 3.5 3.5 0 0 1 0 6.98ZM25.24 1.15a4.5 4.5 0 0 0-3.07 1.21l.34.37h.01v-.01h.01l.01-.02h.01v-.01h.01v-.01h.01v-.01h.01v-.01h.01l.01-.01h.01v-.02h.02l.01-.01.01-.01.01-.01c.68-.58 1.54-.9 2.43-.94h.16v-.5Zm-4.27 3.09a4.48 4.48 0 0 0 .18 3.29l.45-.21a3.99 3.99 0 0 1-.27-2.5v-.04l.01-.01v-.02l.01-.03v-.03h.01v-.03l.01-.01v-.02a.38.38 0 0 0 0-.01l.01-.01v-.03h.01v-.03l.01-.01V4.5h.01v-.03h.01v-.03a.27.27 0 0 1 .01-.01v-.02l.01-.01-.47-.16Zm1.88 4.62-.3.4a4.5 4.5 0 0 0 3.18.87l-.06-.5c-.12.02-.25.02-.38.03h-.04a4 4 0 0 1-1.3-.22h-.01a.17.17 0 0 0-.01 0l-.01-.01h-.02l-.01-.01h-.02V9.4h-.06v-.01a.07.07 0 0 1-.01 0h-.01v-.01h-.03v-.01h-.02v-.01h-.02l-.01-.01h-.02v-.01h-.02v-.01h-.01a.1.1 0 0 0-.01 0h-.01v-.01h-.02V9.3h-.02l-.01-.01h-.01a.5.5 0 0 1-.01-.01h-.02v-.01h-.01l-.01-.01h-.02v-.01h-.02v-.01h-.02v-.01h-.02v-.01h-.02v-.01h-.02V9.2l-.04-.02a3.98 3.98 0 0 1-.24-.14 1.72 1.72 0 0 0-.02 0v-.01h-.01l-.01-.01a.57.57 0 0 0-.01 0v-.01h-.01V9h-.03v-.01h-.02v-.01H23v-.02l-.15-.11Zm6.3-2.36-.02.1v.02l-.01.01v.03h-.01v.04h-.01v.04h-.01v.03l-.06.16v.03h-.01V7H29v.02l-.01.01v.02l-.01.01v.02h-.01v.03h-.01v.02h-.01v.02l-.01.01v.02l-.01.01c-.29.7-.75 1.28-1.33 1.7h-.01v.01a.26.26 0 0 0-.01 0l-.01.01h-.01v.01h-.01v.01h-.01l-.01.01h-.01l.28.42a4.47 4.47 0 0 0 1.83-2.74l-.49-.11Zm-1.62-4.72-.25.43c.63.38 1.14.91 1.48 1.54v.02h.01v.01l.02.03v.01l.01.01v.01h.01v.02h.01v.02l.01.01v.01l.01.01v.01l.01.01v.01l.01.01v.02h.01V4h.01v.02h.01v.02h.01v.03a.1.1 0 0 1 .01 0v.02l.01.01v.01h.01a.3.3 0 0 0 0 .02v.01h.01v.01c.06.13.1.26.14.38l.48-.14a4.49 4.49 0 0 0-2.03-2.6Zm-2.29-.63v.5h.13l.02-.5h-.15Z"/>
  <path d="M26.9 38.76a3 3 0 1 1 0 6 3 3 0 0 1 0-6m0-1a4 4 0 1 0 0 8 4 4 0 0 0 0-8Zm2.91-7.51a3 3 0 1 1 0 5.99 3 3 0 0 1 0-6m0-1a4 4 0 1 0 0 8 4 4 0 0 0 0-8Zm2.92-7.51a3 3 0 1 1 0 6 3 3 0 0 1 0-6m0-1a4 4 0 1 0 0 8 4 4 0 0 0 0-8Zm5.51 16.42a4.5 4.5 0 0 0-3.06 1.21l.34.37v-.01h.01l.01-.02h.01l.01-.02h.01l.01-.01h.01v-.01l.01-.01h.01l.01-.02h.01l.01-.01.01-.01.01-.01a.29.29 0 0 0 .01 0v-.01h.01v-.01h.01l.01-.01.01-.01.01-.01.01-.01h.01a.32.32 0 0 1 0-.01h.01l.01-.01h.01v-.01l.01-.01h.01v-.01h.01l.01-.01.02-.01v-.01h.01v-.01h.01l.02-.01v-.01l.02-.01h.01l.01-.01v-.01h.01l.01-.01h.01l.01-.01.01-.01a2.24 2.24 0 0 1 .02-.01l.02-.01v-.01a2.3 2.3 0 0 1 .02-.01h.01l.01-.01.01-.01h.01v-.01h.01l.01-.01a.57.57 0 0 1 .01 0l.02-.02.02-.01.02-.02.03-.01.04-.03h.02v-.01l.03-.01.02-.02a4 4 0 0 1 1.78-.5h.17v-.5Zm-4.27 3.09a4.48 4.48 0 0 0 .18 3.29l.46-.21a4.04 4.04 0 0 1-.08-.17v-.02l-.01-.01v-.01a.38.38 0 0 1-.01-.02v-.02h-.01v-.02l-.01-.01a.2.2 0 0 0 0-.01v-.01h-.01v-.03h-.01v-.02a.4.4 0 0 1 0-.01h-.01v-.03h-.01v-.03h-.01v-.03h-.01v-.03h-.01a.26.26 0 0 0 0-.01v-.02l-.01-.01v-.02l-.01-.01v-.03a.32.32 0 0 0-.01-.01v-.01l-.01-.03v-.02l-.01-.03v-.01l-.01-.01v-.01l-.01-.04-.02-.08a4.1 4.1 0 0 1-.01-1.6v-.06h.01v-.04l.01-.01v-.03l.01-.03v-.02h.01v-.04a.34.34 0 0 1 .01 0v-.03a1.05 1.05 0 0 1 .01-.01v-.03h.01v-.03l.01-.01v-.03h.01v-.03l.01-.01v-.02l.01-.01a.18.18 0 0 1 0-.01v-.02h.01v-.02l-.47-.16Zm1.88 4.62-.3.4a4.5 4.5 0 0 0 3.18.87l-.06-.5c-.12.02-.25.02-.38.03h-.04a4 4 0 0 1-1.3-.22h-.02l-.01-.01h-.02v-.01h-.03v-.01h-.02a.12.12 0 0 1-.01 0v-.01h-.01a.12.12 0 0 0-.01 0l-.01-.01h-.02v-.01a.1.1 0 0 1-.02 0l-.01-.01h-.02v-.01h-.02v-.01h-.03v-.01h-.02v-.01h-.02l-.01-.01h-.02v-.01h-.02v-.01h-.02l-.01-.01h-.01v-.01h-.02a.24.24 0 0 1-.02-.01l-.01-.01h-.02v-.01h-.02v-.01h-.02v-.01h-.01c-.21-.11-.4-.23-.6-.37Zm6.3-2.36a1.33 1.33 0 0 1-.04.16v.03l-.08.25v.03h-.01V43H42v.02a.2.2 0 0 0-.01 0v.03h-.01v.02l-.01.01v.02l-.01.01v.01l-.01.01v.02h-.01v.03h-.01v.02h-.01v.01l-.01.02v.02h-.01c-.3.7-.79 1.28-1.38 1.69l.28.4a4.47 4.47 0 0 0 1.83-2.73l-.49-.11Zm-1.62-4.72-.25.43a4 4 0 0 1 .11.07h.01v.01h.02v.01h.01v.01h.02v.01h.01l.01.01h.01v.01a.26.26 0 0 1 .01 0v.01h.02v.01a.14.14 0 0 0 .01 0v.01h.01l.01.01h.01v.01h.01v.01h.02v.01h.01v.01h.01l.01.01h.01a.36.36 0 0 0 0 .01h.01a4 4 0 0 1 1.45 2.08l.48-.14a4.49 4.49 0 0 0-2.03-2.6Zm-2.29-.63v.5h.02a4.07 4.07 0 0 1 .12 0l.02-.5h-.16ZM9 8.47a3 3 0 1 1 0 6 3 3 0 0 1 0-6m0-1a4.03 4.03 0 0 0-3 1.36 4 4 0 1 0 3-1.35Zm.57 9.99a3 3 0 1 1 0 6 3 3 0 0 1 0-6m0-1h-.25a4 4 0 1 0 .25 0Zm1.13 25.46a3.5 3.5 0 1 1 0-7.01 3.5 3.5 0 0 1 0 7.01Z"/>
</svg>
