<svg xmlns="http://www.w3.org/2000/svg" viewBox="0 0 44 57">
  <path d="M4.27 9.25c-6.37 22.83.97 37.69 18.27 45.37a4.5 4.5 0 0 0 6.07-2.67L42.16 12.4a4.5 4.5 0 0 0-2.8-5.71l-2.84-.98a4.5 4.5 0 0 0-5.72 2.8 4.5 4.5 0 0 1-5.71 2.8L10.07 6.17a4.52 4.52 0 0 0-5.8 3.08Z" fill="var(--c-ocarina, #ceb3a1)" stroke="#000"/>
  <circle cx="25.24" cy="5.42" r="4"/>
  <circle cx="38.24" cy="41.42" r="4"/>
  <path d="M10.14 26.2a3 3 0 1 1-.01 6 3 3 0 0 1 0-6m0-1a4.05 4.05 0 0 0-3 1.36 4 4 0 1 0 3-1.35Z"/>
  <path d="M10.7 35.19a3 3 0 1 1 0 6 3 3 0 0 1 0-6m0-1a4.05 4.05 0 0 0-3 1.35 4 4 0 1 0 3-1.35Zm-.57-1.49a3.5 3.5 0 1 1 .01-7 3.5 3.5 0 0 1 0 7Zm7.42-14.98a2 2 0 1 1 0 4 2 2 0 0 1 0-4m0-1a3.02 3.02 0 0 0-2.25 1.02 3 3 0 1 0 2.25-1.02Zm4.69 11.7a2 2 0 1 1 0 4 2 2 0 0 1 0-4m0-1a3 3 0 1 0 0 6 3 3 0 0 0 0-6ZM9 14.74a3.5 3.5 0 1 1 .01-7 3.5 3.5 0 0 1 0 7H9Zm14.98 32.3a3 3 0 1 1 0 6 3 3 0 0 1 0-6m0-1a4 4 0 1 0 0 8 4 4 0 0 0 0-8ZM25.24.92a4.5 4.5 0 0 0-3.07 1.2l.34.37a3.98 3.98 0 0 1 2.58-1.07h.05a.6.6 0 0 1 .01 0 3.96 3.96 0 0 1 .02 0 1.41 1.41 0 0 0 .02 0h.05v-.5ZM20.97 4a4.48 4.48 0 0 0 .18 3.3l.45-.21a3.99 3.99 0 0 1-.26-2.54V4.5l.01-.02a.72.72 0 0 1 0-.01v-.02h.01v-.04h.01v-.04h.01v-.03l.01-.01v-.01a.09.09 0 0 0 0-.01V4.3a.16.16 0 0 1 .01 0v-.02a.15.15 0 0 0 0-.01.36.36 0 0 1 .01-.01v-.03h.01V4.2h.01a.3.3 0 0 0 0-.02v-.01h.01v-.02L20.97 4Zm1.88 4.63-.3.4a4.5 4.5 0 0 0 3.18.87l-.06-.5-.3.02a5.56 5.56 0 0 1-.01 0h-.05a1.21 1.21 0 0 1-.01 0 .95.95 0 0 0-.02 0h-.02a.31.31 0 0 0-.01 0 4 4 0 0 1-1.3-.22h-.04l-.46-.2h-.01l-.01-.01h-.01v-.01h-.02v-.01h-.02v-.01h-.02v-.01h-.01l-.02-.01c-.17-.1-.33-.2-.48-.31Zm6.3-2.36v.04h-.01v.01l-.04.14v.04h-.01v.04l-.01.02-.05.14v.01l-.01.02v.02l-.01.01v.02L29 6.8c-.3.8-.81 1.44-1.46 1.9h-.01l.28.41a4.47 4.47 0 0 0 1.83-2.74l-.49-.1Zm-1.62-4.72-.25.43c.45.27.84.62 1.15 1.03l.01.01v.01h.01v.01h.01v.01a5.4 5.4 0 0 1 .02.03l.01.01a.55.55 0 0 1 0 .01h.01v.01h.01v.01h.01v.01l.01.02.01.01v.01h.01v.01a.37.37 0 0 0 .01.01v.01h.01a.34.34 0 0 0 0 .01h.01v.01a.1.1 0 0 0 .01.01v.01l.01.01v.01h.01a.31.31 0 0 1 0 .01l.01.01v.01h.01v.02h.01v.01l.01.01v.01h.01v.01l.01.01v.01l.01.01v.01h.01v.01a.42.42 0 0 1 0 .01h.01v.01l.01.01v.01l.01.01v.01h.01v.02h.01v.01l.01.01v.01l.01.01a.56.56 0 0 1 0 .01h.01v.02h.01v.02h.01a.71.71 0 0 1 0 .01v.01h.01v.01a.66.66 0 0 1 .01.01v.02c.11.21.2.43.27.66l.48-.14a4.49 4.49 0 0 0-2.03-2.6ZM25.24.92v.5h.13l.02-.5h-.15ZM32.73 28a3.5 3.5 0 1 1 0-7 3.5 3.5 0 0 1 0 7ZM26.9 38.53a3 3 0 1 1 0 5.99 3 3 0 0 1 0-6m0-1a4 4 0 1 0 0 8 4 4 0 0 0 0-8Zm2.91-7.51a3 3 0 1 1 0 6 3 3 0 0 1 0-6m0-1a4 4 0 1 0 0 8 4 4 0 0 0 0-8Z"/>
  <path d="M17.55 22.22a2.5 2.5 0 0 1-.15-5h.15a2.5 2.5 0 0 1 .16 5h-.16Zm4.69 10.7a2.5 2.5 0 1 1 0-5 2.5 2.5 0 0 1 0 5Zm1.74 20.62a3.5 3.5 0 1 1 0-7 3.5 3.5 0 0 1 0 7Zm2.92-8.51a3.5 3.5 0 1 1 0-7.01 3.5 3.5 0 0 1 0 7.01Zm2.91-8.51a3.5 3.5 0 1 1 0-7 3.5 3.5 0 0 1 0 7Z" fill="#fff"/>
  <path d="M32.73 21.5a3 3 0 1 1 0 5.99 3 3 0 0 1 0-6m0-1a4 4 0 1 0 0 8.01 4 4 0 0 0 0-8ZM9 8.24a3 3 0 1 1 0 6 3 3 0 0 1 0-6m0-1a4.05 4.05 0 0 0-3 1.35 4 4 0 1 0 3-1.35Zm.56 16.48a3.5 3.5 0 1 1 .02-7 3.5 3.5 0 0 1-.01 7Zm28.68 13.2a4.5 4.5 0 0 0-3.06 1.2l.34.37a4.01 4.01 0 0 1 2.52-1.06 3.88 3.88 0 0 1 .03 0 3.98 3.98 0 0 1 .02 0 6.27 6.27 0 0 1 .03 0 .96.96 0 0 0 .01 0h.05a2.75 2.75 0 0 1 .01-.01h.01a4.43 4.43 0 0 1 .02 0h.02v-.5ZM33.97 40a4.48 4.48 0 0 0 .18 3.3l.46-.21a3.99 3.99 0 0 1-.28-2.5v-.04h.01v-.02l.01-.04v-.02l.01-.01v-.03l.01-.01v-.03h.01a.63.63 0 0 0 0-.01v-.03h.01v-.03h.01v-.03l.01-.01v-.03h.01v-.03h.01v-.03h.01v-.03l-.47-.16Zm1.88 4.63-.3.4a4.5 4.5 0 0 0 3.18.87l-.06-.5-.26.02a3.34 3.34 0 0 1-.01 0 3.24 3.24 0 0 1-.01 0h-.07a1 1 0 0 1-.01 0 .32.32 0 0 1-.01 0h-.03a.24.24 0 0 1-.01 0h-.02a4 4 0 0 1-1.3-.21h-.01v-.01a2.31 2.31 0 0 0-.03 0 4 4 0 0 1-1.06-.57Zm6.3-2.36v.05l-.04.14-.01.02v.03h-.01v.03l-.01.02-.05.14v.03h-.01v.03a.23.23 0 0 1-.01 0v.03H42v.02l-.01.01v.02h-.01v.03h-.01v.02l-.01.01v.02h-.01v.02a.12.12 0 0 1-.01 0v.03h-.01v.01a.15.15 0 0 1 0 .01h-.01a.2.2 0 0 0 0 .01v.01l-.01.01v.02h-.01v.02a.12.12 0 0 0-.01 0v.02h-.01v.02h-.01v.02a.09.09 0 0 1-.01.01v.01l-.01.01v.02h-.01v.02h-.01v.02h-.01a.37.37 0 0 1 0 .01v.01h-.01v.01a2.07 2.07 0 0 1-.04.07v.01h-.01v.02h-.01v.02h-.01v.02h-.01a.08.08 0 0 0 0 .02h-.01v.01l-.01.01v.01h-.01v.02h-.01v.01h-.01v.01a.05.05 0 0 1 0 .01h-.01v.02h-.01v.01h-.01v.02h-.01v.01l-.01.01v.01h-.01v.02h-.01v.01h-.01v.02h-.01v.01l-.01.01c-.28.43-.64.79-1.05 1.07l.28.41a4.47 4.47 0 0 0 1.83-2.74l-.49-.1Zm-1.62-4.72-.25.43c.46.27.85.62 1.16 1.03v.01l.01.01.01.01v.01a5.4 5.4 0 0 1 .02.03h.01v.01a.55.55 0 0 1 .01.01v.01h.01v.01h.01v.01l.01.02h.01v.01l.01.01v.01a.37.37 0 0 0 .01.01l.01.01a.34.34 0 0 0 0 .01h.01v.01a.1.1 0 0 0 .01.01v.01h.01v.02h.01a.31.31 0 0 1 0 .01h.01v.02h.01v.01l.01.01v.01h.01v.01l.01.01v.01h.01v.02h.01v.02h.01v.01a.42.42 0 0 1 .01.01v.01h.01v.02h.01v.02h.01v.01l.01.01v.01h.01v.02h.01v.01a.56.56 0 0 1 0 .01h.01v.01l.01.01v.01l.01.01a.71.71 0 0 1 0 .01l.01.01v.01a.66.66 0 0 1 .01.01v.01l.01.01c.1.21.2.43.26.66l.48-.14a4.49 4.49 0 0 0-2.03-2.6Zm-2.29-.63v.5h.01a3.97 3.97 0 0 1 .13 0l.02-.5h-.16Z"/>
  <path d="M9.57 17.22a3 3 0 1 1 0 6 3 3 0 0 1 0-6m0-1a4.05 4.05 0 0 0-3 1.36 4 4 0 1 0 3-1.35Zm1.13 25.47a3.5 3.5 0 1 1 0-7.01 3.5 3.5 0 0 1 0 7Z"/>
</svg>
