<svg xmlns="http://www.w3.org/2000/svg" viewBox="0 0 44 57">
  <path d="M4.47 10.48c-6.37 22.84.98 37.69 18.27 45.37a4.5 4.5 0 0 0 6.07-2.67l13.55-39.54a4.5 4.5 0 0 0-2.8-5.72l-2.84-.97A4.5 4.5 0 0 0 31 9.75a4.5 4.5 0 0 1-5.71 2.8L10.28 7.4a4.52 4.52 0 0 0-5.81 3.07Z" fill="color-mix(in hsl, var(--c-ocarina, #ad7d59), black 25%)" stroke="#000"/>
  <circle cx="25.44" cy="6.66" r="4"/>
  <circle cx="38.44" cy="42.66" r="4"/>
  <path d="M10.34 27.44a3 3 0 1 1 0 6 3 3 0 0 1 0-6m0-1a4.04 4.04 0 0 0-3 1.35 4 4 0 1 0 3-1.35Z"/>
  <path d="M10.9 36.42a3 3 0 1 1 0 6 3 3 0 0 1 0-6m0-1h-.25a4 4 0 1 0 .25 0Zm-.57-1.48a3.5 3.5 0 1 1 .01-7.01 3.5 3.5 0 0 1 0 7Zm7.43-14.99a2 2 0 1 1 0 4 2 2 0 0 1 0-4m0-1a3.02 3.02 0 0 0-2.26 1.02 3 3 0 1 0 2.25-1.02Zm4.68 11.71a2 2 0 1 1 0 3.99 2 2 0 0 1 0-4m0-1a3 3 0 1 0 0 6 3 3 0 0 0 0-6ZM9.2 15.97a3.5 3.5 0 1 1 .01-7 3.5 3.5 0 0 1 0 7Zm14.98 32.31a3 3 0 1 1 0 5.99 3 3 0 0 1 0-6m0-1a4 4 0 1 0 0 8 4 4 0 0 0 0-8Zm2.92-1.01a3.5 3.5 0 1 1 0-6.98 3.5 3.5 0 0 1 0 6.98ZM25.44 2.15a4.5 4.5 0 0 0-3.07 1.21l.35.37a4.04 4.04 0 0 1 2.55-1.07h.07a.52.52 0 0 0 .01 0h.09v-.5Zm-4.27 3.09a4.48 4.48 0 0 0 .18 3.29l.46-.21a3.99 3.99 0 0 1-.25-2.62v-.02l.01-.03v-.02a.65.65 0 0 1 .01-.01v-.03l.01-.01v-.03h.01v-.03l.01-.01V5.5a.24.24 0 0 0 0-.01v-.01h.01v-.01a.18.18 0 0 1 0-.01v-.01h.01v-.01a.32.32 0 0 0 0-.01v-.01h.01V5.4l-.47-.16Zm1.88 4.62-.3.4a4.5 4.5 0 0 0 3.18.87l-.06-.5-.3.02h-.07a.25.25 0 0 1-.01 0h-.05a4 4 0 0 1-1.3-.21h-.02l-.01-.01a1.14 1.14 0 0 0-.01 0h-.01v-.01a4 4 0 0 1-1.05-.56Zm6.3-2.36v.05l-.04.14v.01l-.01.01v.03l-.01.01v.02l-.01.02-.05.14v.04h-.01V8h-.02v.02l-.01.01v.01a4 4 0 0 1-1.45 1.89h-.02l.28.42a4.47 4.47 0 0 0 1.83-2.74l-.49-.11Zm-1.62-4.72-.25.43.02.01.01.01.04.03h.02v.01h.01l.01.01h.01a.5.5 0 0 0 .01.01.38.38 0 0 0 .01 0v.01h.01v.01h.02v.01h.01v.01h.02v.01h.01v.01h.02v.01a.13.13 0 0 1 .01 0v.01h.01l.01.01h.01v.01h.01v.01h.02v.01h.01v.01h.01l.01.01h.01v.01h.01a1.18 1.18 0 0 1 .01.01l.01.01h.01a2.8 2.8 0 0 1 .01.02h.01l.01.01.01.01h.01a.88.88 0 0 1 0 .01h.01l.01.01a.98.98 0 0 1 .01.01h.01v.01h.01v.01a.64.64 0 0 1 .02 0 .6.6 0 0 1 0 .01l.01.01H28v.01a1.02 1.02 0 0 0 .01.01h.01l.02.02a1.78 1.78 0 0 1 0 .01h.01l.01.01h.01v.01h.01v.01h.01l.02.02.01.01v.01h.01l.01.01.01.01.03.03a.97.97 0 0 1 .01.01h.01v.01h.01v.01h.01l.01.02h.01v.01h.01v.01h.01v.01h.01v.01h.01l.03.03v.01h.01v.01h.01v.01l.01.01h.01v.01l.01.01h.01v.01l.01.01.01.01v.01h.01l.01.01.01.02h.01V4h.01v.01h.01v.01a1.76 1.76 0 0 1 .01.01l.01.01.01.01v.01a.76.76 0 0 1 .01 0v.01h.01v.01h.01v.01l.01.01v.01h.01l.01.01v.01h.01v.01l.01.01.01.01.01.01v.01h.01a.5.5 0 0 0 0 .01l.01.01v.01h.01v.01h.01v.01h.01v.01l.01.01v.01h.01v.01a.66.66 0 0 1 .01.01 1.8 1.8 0 0 1 0 .01h.01v.01h.01a.64.64 0 0 0 0 .02h.01v.01h.01v.01l.01.01v.01h.01v.01a.16.16 0 0 1 .01 0v.02h.01v.01h.01v.01l.01.01v.01h.01v.01a.12.12 0 0 0 .01.01v.01h.01v.01l.01.01v.01h.01v.02h.01v.01l.01.01a.46.46 0 0 0 0 .01h.01v.01l.01.01v.01h.01v.02h.01v.01h.01v.02h.01v.02h.01v.02h.01v.01h.01v.02l.01.01v.01l.02.02v.01l.01.01v.01l.01.01v.01l.03.04v.02c.12.22.21.45.28.68l.48-.14a4.49 4.49 0 0 0-2.03-2.6Zm-2.29-.63v.5h.13l.02-.5h-.15Z"/>
  <path d="M17.75 23.46a2.5 2.5 0 0 1-.15-5h.16a2.5 2.5 0 0 1 .15 4.99h-.16Zm4.7 10.7a2.5 2.5 0 1 1 0-5 2.5 2.5 0 0 1 0 5Zm1.73 20.62a3.49 3.49 0 0 1-3.3-4.64 3.5 3.5 0 1 1 3.3 4.64Zm5.83-17.03a3.49 3.49 0 0 1-3.3-4.64 3.5 3.5 0 1 1 3.3 4.64Zm2.92-8.52a3.49 3.49 0 0 1-3.31-4.63 3.5 3.5 0 1 1 3.31 4.63Z" fill="#fff"/>
  <path d="M27.1 39.76a3 3 0 1 1 0 6 3 3 0 0 1 0-6m0-1a4 4 0 1 0 0 8 4 4 0 0 0 0-8Zm2.91-7.51a3 3 0 1 1 0 5.99 3 3 0 0 1 0-6m0-1a4 4 0 1 0 0 8 4 4 0 0 0 0-8Zm2.92-7.51a3 3 0 1 1 0 6 3 3 0 0 1 0-6m0-1a4 4 0 1 0 0 8 4 4 0 0 0 0-8ZM9.2 9.47a3 3 0 1 1 0 6 3 3 0 0 1 0-6m0-1a4.05 4.05 0 0 0-3 1.36 4 4 0 1 0 3-1.35Zm.57 16.49a3.5 3.5 0 1 1 .01-7.01 3.5 3.5 0 0 1-.01 7Zm28.67 13.19a4.5 4.5 0 0 0-3.06 1.21l.34.37a4.03 4.03 0 0 1 2.55-1.07h.14a9.04 9.04 0 0 1 .01 0h.02v-.5Zm-4.27 3.09a4.48 4.48 0 0 0 .18 3.29l.46-.21a3.99 3.99 0 0 1-.28-2.5l.01-.04v-.02l.01-.04v-.01l.01-.01v-.03l.01-.01v-.03h.01v-.01a.63.63 0 0 0 0-.01v-.01l.01-.01v-.03h.01v-.01a.08.08 0 0 1 0-.01.42.42 0 0 0 0-.01l.01-.01v-.03h.01v-.03h.01v-.03h.01v-.03l-.47-.16Zm1.88 4.62-.3.4a4.5 4.5 0 0 0 3.18.87l-.05-.5-.27.02a3.34 3.34 0 0 1-.01 0 3.24 3.24 0 0 1-.01 0h-.07a1 1 0 0 1-.01 0 .32.32 0 0 1-.01 0h-.03a.24.24 0 0 1-.01 0h-.02a4 4 0 0 1-1.3-.21h-.01a2.31 2.31 0 0 0-.03-.01 4 4 0 0 1-1.06-.57Zm6.3-2.36v.05l-.04.14v.02l-.01.01v.03l-.01.01v.03l-.06.14v.04h-.01V44a.23.23 0 0 1 0 .01h-.01a.12.12 0 0 0 0 .01v.02h-.01v.01a.14.14 0 0 1 0 .01l-.01.01v.02h-.01v.01a.11.11 0 0 0 0 .01v.01h-.01v.02h-.01v.03h-.01v.01a.12.12 0 0 1 0 .01h-.01v.03h-.01v.02a.2.2 0 0 0-.01 0v.02h-.01v.02l-.01.01v.01a.12.12 0 0 0-.01.01v.02h-.01v.02h-.01v.01a.09.09 0 0 1 0 .01h-.01a.11.11 0 0 0 0 .01v.01l-.01.01v.01l-.01.01v.01l-.01.01v.01h-.01v.02l-.01.02a4 4 0 0 1-.03.05v.01h-.01v.02h-.01v.02h-.01v.01l-.01.01v.01h-.01v.02h-.01v.02h-.01v.02h-.01v.01l-.01.01v.01h-.01v.01l-.01.01v.01l-.01.01v.01h-.01v.02h-.01v.01h-.01v.02h-.01v.01l-.01.01v.01h-.01v.01h-.01v.02h-.01c-.28.43-.64.8-1.05 1.08l.29.4a4.47 4.47 0 0 0 1.82-2.73l-.49-.11Zm-1.62-4.72-.25.43c.46.27.85.62 1.16 1.03v.01l.01.01v.01h.01v.01a5.4 5.4 0 0 1 .03.03v.01l.01.01v.01h.01v.01h.01v.01l.02.02v.01a.42.42 0 0 1 .01.01v.01h.01v.02h.01v.01h.01v.02h.01v.01h.01v.01l.01.01a.31.31 0 0 1 0 .01h.01v.02h.01v.01l.01.01v.01h.01v.01a.3.3 0 0 0 .01.01v.01l.01.01v.01h.01v.02h.01v.01l.01.01v.01h.01v.02h.01v.01a.48.48 0 0 0 0 .01h.01v.01l.01.01v.01l.01.01v.01h.01v.02a.56.56 0 0 1 .01 0v.02h.01v.01l.01.02.01.01v.01l.01.01v.01l.01.01c.1.22.2.44.26.66l.48-.14a4.49 4.49 0 0 0-2.03-2.6Zm-2.29-.63v.5h.14l.02-.5h-.16Z"/>
  <path d="M9.77 18.46a3 3 0 1 1 0 6 3 3 0 0 1 0-6m0-1a4.04 4.04 0 0 0-3 1.35 4 4 0 1 0 3-1.35Zm1.13 25.46a3.5 3.5 0 1 1 .01-7.01 3.5 3.5 0 0 1-.01 7.01Z"/>
</svg>
