<svg xmlns="http://www.w3.org/2000/svg" viewBox="0 0 44 57">
  <path d="M4.27 9.25c-6.37 22.83.97 37.69 18.27 45.37a4.5 4.5 0 0 0 6.07-2.67L42.16 12.4a4.5 4.5 0 0 0-2.8-5.71l-2.84-.98a4.5 4.5 0 0 0-5.72 2.8 4.5 4.5 0 0 1-5.71 2.8L10.07 6.17a4.52 4.52 0 0 0-5.8 3.08Z" fill="var(--c-ocarina, #ceb3a1)" stroke="#000"/>
  <circle cx="25.24" cy="5.42" r="4"/>
  <circle cx="38.24" cy="41.42" r="4"/>
  <path d="M10.14 26.2a3 3 0 1 1-.01 6 3 3 0 0 1 0-6m0-1a4.05 4.05 0 0 0-3 1.36 4 4 0 1 0 3-1.35Zm7.42-7.48a2 2 0 1 1 0 4 2 2 0 0 1 0-4m0-1h-.19a3 3 0 1 0 .2 0Z"/>
  <path d="M10.7 35.19a3 3 0 1 1 0 6 3 3 0 0 1 0-6m0-1a4.05 4.05 0 0 0-3 1.35 4 4 0 1 0 3-1.35Zm-.57-1.49a3.5 3.5 0 1 1 .01-7 3.5 3.5 0 0 1-.01 7ZM25.24.92a4.5 4.5 0 0 0-3.07 1.2l.34.37a4.08 4.08 0 0 1 2.5-1.07h.24v-.5ZM20.97 4a4.48 4.48 0 0 0 .18 3.3l.45-.21a4 4 0 0 1-.33-1.17v-.05a.54.54 0 0 0 0-.01v-.03h-.01v-.11a.26.26 0 0 1 0-.01h-.01v-.09a.45.45 0 0 1 0-.01V5.5h-.01v-.07a4 4 0 0 1 .2-1.27L20.97 4Zm1.88 4.63-.3.4a4.5 4.5 0 0 0 3.18.87l-.06-.5h-.02a.4.4 0 0 0-.01 0 3.97 3.97 0 0 1-.23.02 4.02 4.02 0 0 1-.02 0h-.07a2.37 2.37 0 0 1-.01 0h-.07a4 4 0 0 1-1.3-.21h-.01l-.01-.01h-.02l-.01-.01a3 3 0 0 1-.01 0 4 4 0 0 1-1.04-.56Zm6.3-2.36a4.04 4.04 0 0 1-.1.36v.03l-.01.01v.01a.17.17 0 0 1 0 .02h-.01v.02l-.01.01v.02l-.01.01v.02H29v.03a.14.14 0 0 1-.01 0v.03h-.01v.02h-.01v.03h-.01v.02h-.01v.03a.18.18 0 0 1-.01 0v.02h-.01v.02a.17.17 0 0 1-.01.01.2.2 0 0 0 0 .01v.01h-.01v.02h-.01v.02l-.01.01v.02h-.01v.02h-.01v.02a.1.1 0 0 1-.01.01.1.1 0 0 0 0 .01h-.01v.02h-.01v.02h-.01v.02h-.01v.01a.39.39 0 0 1 0 .01h-.01v.02a14.66 14.66 0 0 1-.04.07v.01h-.01v.02h-.01v.01l-.01.01v.01l-.01.01a.08.08 0 0 0 0 .02h-.01v.01h-.01v.02h-.01v.01l-.01.01v.01h-.01v.01a.06.06 0 0 1 0 .01h-.01v.01h-.01v.02h-.01v.01a.34.34 0 0 0-.01.01v.01h-.01v.02h-.01v.01l-.01.01v.01h-.01v.01l-.01.01v.01h-.01v.01l-.01.01c-.28.42-.64.78-1.04 1.06l.28.41a4.47 4.47 0 0 0 1.83-2.74l-.49-.1Zm-1.62-4.72-.25.43.3.2h.01l.01.01h.01v.01h.01v.01h.01l.01.01a.26.26 0 0 0 .01 0v.01a.26.26 0 0 1 .01 0v.01h.01l.01.01h.01v.01h.01v.01h.01v.01h.02a.57.57 0 0 1 0 .01h.01v.01h.01v.01h.01l.01.01h.01v.01l.01.01h.01v.01a1.08 1.08 0 0 0 .01 0l.01.01.01.01.01.01.01.01h.01v.01h.01v.01a4 4 0 0 1 .75.87v.01h.01l.03.06v.01h.01v.01l.01.01v.01h.01v.01l.01.02.01.01v.01l.01.01v.01a8.96 8.96 0 0 1 .01 0v.02h.01v.01l.01.01v.01l.01.01v.01h.01v.02h.01v.02h.01v.02h.01v.02h.01a.4.4 0 0 0 0 .01v.01h.01v.02h.01v.02h.01v.02h.01v.02h.01v.02a.1.1 0 0 0 .01.01.3.3 0 0 1 0 .01l.01.01v.01l.01.01a.49.49 0 0 1 0 .01.59.59 0 0 1 0 .01h.01v.01a12.67 12.67 0 0 1 0 .01h.01v.01l.02.05c.06.13.1.27.15.4l.48-.13a4.49 4.49 0 0 0-2.03-2.6ZM25.24.92v.5h.13l.02-.5h-.15Zm7.49 20.58a3 3 0 1 1 0 5.99 3 3 0 0 1 0-6m0-1a4 4 0 1 0 0 8.01 4 4 0 0 0 0-8Zm-2.92 9.52a3 3 0 1 1 0 6 3 3 0 0 1 0-6m0-1a4 4 0 1 0 0 8 4 4 0 0 0 0-8Zm-5.83 18.03a3 3 0 1 1 0 6 3 3 0 0 1 0-6m0-1a4 4 0 1 0 0 8 4 4 0 0 0 0-8Zm2.92-7.51a3 3 0 1 1 0 5.99 3 3 0 0 1 0-6m0-1a4 4 0 1 0 0 8 4 4 0 0 0 0-8Zm-4.66-9.1a2 2 0 1 1 0 4 2 2 0 0 1 0-4m0-1a3 3 0 1 0 0 6 3 3 0 0 0 0-6ZM9 14.74a3.5 3.5 0 1 1 .01-7.01 3.5 3.5 0 0 1 0 7.01H9Z"/>
  <path d="M32.73 28a3.5 3.5 0 1 1 0-7 3.5 3.5 0 0 1 0 7Zm-2.92 8.52a3.5 3.5 0 1 1 0-7 3.5 3.5 0 0 1 0 7Zm-5.83 17.02a3.5 3.5 0 1 1 0-7 3.5 3.5 0 0 1 0 7Zm2.92-8.51a3.5 3.5 0 1 1 0-7 3.5 3.5 0 0 1 0 7Zm-4.66-12.11a2.5 2.5 0 1 1 0-5 2.5 2.5 0 0 1 0 5Zm-4.69-10.7a2.5 2.5 0 0 1-.15-5h.15a2.5 2.5 0 0 1 .16 5h-.16Z" fill="#fff"/>
  <path d="M38.24 36.92a4.5 4.5 0 0 0-3.06 1.2l.34.37a2.92 2.92 0 0 1 .33-.28h.02v-.01h.01v-.01h.01l.01-.01h.01v-.01h.01v-.01h.02v-.01h.01v-.01h.01a3.1 3.1 0 0 1 .02-.01v-.01l.02-.01.02-.02a3.94 3.94 0 0 1 2.04-.67h.1a4.6 4.6 0 0 1 .02 0h.01a2.75 2.75 0 0 1 .01 0h.05v-.5ZM33.97 40a4.48 4.48 0 0 0 .18 3.3l.46-.21v-.01h-.01v-.02l-.01-.01v-.01l-.01-.01V43h-.01v-.02h-.01v-.01a.16.16 0 0 0 0-.01l-.01-.01v-.02h-.01v-.03h-.01v-.02h-.01v-.02l-.01-.01v-.02h-.01v-.03h-.01v-.02l-.01-.01v-.01a.09.09 0 0 0 0-.01.32.32 0 0 0-.01-.01v-.02h-.01v-.03h-.01v-.03h-.01v-.03h-.01v-.02a.23.23 0 0 1 0-.01l-.01-.01v-.03h-.01v-.02a.17.17 0 0 0 0-.01h-.01v-.04h-.01v-.03a.3.3 0 0 1-.01-.01v-.03h-.01v-.04h-.01v-.04h-.01a.12.12 0 0 1 0-.01v-.03l-.01-.01v-.04h-.01a.26.26 0 0 1 0-.01v-.04h-.01v-.05h-.01v-.05l-.01-.01v-.05l-.01-.01v-.06h-.01v-.01a.5.5 0 0 1 0-.02v-.05h-.01v-.06a4.9 4.9 0 0 1 0-.02v-.01a.53.53 0 0 1-.01-.01v-.09a.49.49 0 0 1-.01-.03v-.15a.5.5 0 0 1 0-.01v-.01a.34.34 0 0 0 0-.01v-.31a.28.28 0 0 0 0-.01v-.03a.21.21 0 0 1 0-.01v-.09h.01v-.06a.05.05 0 0 1 0-.01v-.02h.01v-.02a.48.48 0 0 1 0-.01v-.05a.59.59 0 0 1 .01-.01v-.05l.01-.01v-.03l.01-.06c.04-.18.08-.37.15-.56l-.48-.16Zm1.88 4.63-.3.4a4.5 4.5 0 0 0 3.18.87l-.06-.5a.36.36 0 0 1-.01 0h-.02l-.21.02h-.11a2.95 2.95 0 0 1-.01 0h-.03a.25.25 0 0 1-.01 0h-.02a4 4 0 0 1-1.3-.21h-.01v-.01a2.7 2.7 0 0 1-.01 0h-.02v-.01a.83.83 0 0 1-.01 0 4.2 4.2 0 0 1-.63-.3h-.03l-.01-.01h-.01v-.01h-.02v-.01h-.01v-.01h-.02v-.01a.61.61 0 0 1-.01 0l-.01-.01h-.01v-.01h-.02v-.01h-.01a3.97 3.97 0 0 1-.26-.18Zm6.3-2.36c-.03.14-.07.29-.12.43v.03l-.01.01v.01a.54.54 0 0 0 0 .01H42v.05a4 4 0 0 1-.66 1.14v.01h-.01v.01l-.01.01-.01.01V44h-.01v.01h-.01a.51.51 0 0 1 0 .01h-.01v.01l-.01.01-.01.01-.01.01v.01h-.01v.01h-.01v.01h-.01v.01h-.01v.01h-.01v.01h-.01v.01h-.01v.01h-.01v.01l-.01.01-.01.01v.01h-.01a3.99 3.99 0 0 1-.08.08l-.02.03-.03.02-.01.01-.02.02a4 4 0 0 1-.45.36l.28.41a4.47 4.47 0 0 0 1.83-2.74l-.49-.1Zm-1.62-4.72-.25.43h.02V38h.01l.04.02h.01v.01h.01a.78.78 0 0 1 .01.01h.01v.01h.02v.01h.01l.01.01h.01v.01h.01l.01.01h.01v.01h.01l.01.01h.01v.01h.01l.01.01h.01v.01h.01l.01.01.01.01a.72.72 0 0 1 .01 0v.01h.01v.01h.01l.01.01a7.26 7.26 0 0 1 .02.01l.01.01h.01v.01h.01v.01h.01a4 4 0 0 1 1.4 1.97v.02a5.28 5.28 0 0 1 0 .02v.01h.01v.03h.01l.48-.13a4.49 4.49 0 0 0-2.03-2.6Zm-2.29-.63v.5h.01a3.96 3.96 0 0 1 .13 0l.02-.5h-.16ZM9 8.24a3 3 0 1 1 0 6 3 3 0 0 1 0-6m0-1a4.05 4.05 0 0 0-3 1.35 4 4 0 1 0 3-1.35Zm.56 16.48a3.5 3.5 0 1 1 .02-7 3.5 3.5 0 0 1-.01 7Z"/>
  <path d="M9.57 17.22a3 3 0 1 1 0 6 3 3 0 0 1 0-6m0-1a4.05 4.05 0 0 0-3 1.36 4 4 0 1 0 3-1.35Zm1.13 25.47a3.5 3.5 0 1 1 0-7.01 3.5 3.5 0 0 1 0 7Z"/>
</svg>
