<svg xmlns="http://www.w3.org/2000/svg" viewBox="0 0 27 200">
  <path fill="#15262D" d="M1.5 189.8h.1v.1zm0-136h.1v.1zm8.9 138.1v.2l-.1-.1c0-.1 0-.2.1-.1zm1.1-27.2h.2l.1.2h-.1c-.2 0-.2 0-.2-.2zm0-136h.2l.1.2h-.1c-.2 0-.2 0-.2-.2zm11.2 168.9v-.3l.2-.1c.4-.4.5-1 .4-1.6v-.7c.3-.4.6-.7 1-.9l.5-.3.2-.2.5-.4c.2 0 .3 0 .4.2l-.1.7-.4.2c-.4.2-.7.5-1 .9-.3.3-.4.7-.4 1.2a1.7 1.7 0 0 1-.7 1.7c-.2.2-.5.1-.6-.2v-.2zm3-4c0-.3 0-.3-.2-.2-.2 0-.3.1-.3.2l-.2.2-.7.5c-.5.3-.8.7-.7 1.3a2 2 0 0 1-.5 1.8H23v.5h.2c.3-.3.5-.6.6-1v-.8c0-.3 0-.6.2-1 .4-.4.8-.9 1.3-1.2l.3-.1.1-.3zm-12.9-30.3l-.1.5s-.1.1 0 .2c.2 0 .2.2.3.4 0 .1 0 .2.2.2 0 0 .2 0 .2.2-.3-.1-.4 0-.5.3 0 .2-.2.4-.4.5-.2.1-.2.3-.1.5l-.1-.2H12c-.4.2-.8.1-1-.2l-.2-.1v-.2a1 1 0 0 1 0-.6c0-.2 0-.3-.2-.4l-.2-.2.4.1.3-.3c.2-.3.5-.4 1-.2l.3-.1c0-.2.2-.3.3-.5zm-.6 2c.2-.2.4-.4.4-.6v-.3c-.2-.1-.3-.2-.4 0 0-.2-.1-.2-.2-.2h-.6l-.2.2v.3s0 .1 0 0l-.1.2v.3l.1.1c.1 0 .2 0 .1.2h.1c.2.2.4.2.6 0l-.2-.2v-.1c0-.1.1 0 .2 0l.2.2zm7.2-14.1c0 .6-.1 1.2-.3 1.7l-.3.5c-.2.3-.5.2-.7.1l-.2-.2v-.4l.3-.4.3-1.2a1 1 0 0 0-.3-.7 1 1 0 0 1-.2-.4c0-.2 0-.4.2-.5h.6c.4.5.6 1 .6 1.5zm-.3 0c0-.6-.3-.9-.5-1.2 0-.1-.2-.2-.2 0-.1 0-.2 0-.1.2l.1.2.2.2c.2.4.2.8.1 1.2 0 .4-.2.7-.4 1l-.1.4c0 .1 0 .2.2.2l.2-.3c.2-.2.2-.4.3-.7l.2-1.3zM4 171.5l.2.4c.2 0 .2-.1.1-.2v-.3h.3l.2.1c0 .3-.2.7-.5.8-.2.1-.5-.1-.5-.4l.3-.4zm16.4-28.8l.1-.5.2-.1h.1v.4c0 .1 0 .1 0 0l.2-.1h.2v.1c0 .2-.2.6-.4.6-.3 0-.4-.1-.4-.4zm.4 0v-.1zm-15.5 3.1a3 3 0 0 1-.5.8l-.4.2c-.2.1-.3 0-.5-.1v-.2l-.3-.2h-.2v-.2h.1c.3 0 .5.2.6.4h.3l.4-.2.4-.5h.1zM1.6 190c0 .1 0 .3.2.4.1.1.2.1.4 0 .3-.2.5-.4.6-.8 0 .5-.2.8-.5 1-.3.2-.5.2-.7 0l-.2-.3.1-.4zm22.7-3.5c0 .2 0 .4-.3.6-.1 0-.3 0-.3-.2l.1-.7s0-.1.1 0h.4v.3zm-.4.2l.2-.3H24v.3zm-7-6.8v-.3c-.1-.4-.4-.7-.6-1 0-.2-.2-.2-.3-.2-.3-.2-.4-.3-.3-.7 0 .3 0 .4.3.5.5.2.8.7.9 1.2v.5zM12.8 27.3l-.1.5s-.1.1 0 .2c.2 0 .2.2.3.4 0 .1 0 .2.2.2 0 0 .2 0 .2.2-.3-.1-.4 0-.5.3 0 .2-.2.4-.4.5-.2.1-.2.3-.1.5l-.1-.2H12c-.4.2-.8.1-1-.2l-.2-.1v-.2a1 1 0 0 1 0-.6c0-.2 0-.3-.2-.4l-.2-.2.4.1.3-.3c.2-.3.5-.4 1-.2l.3-.1c0-.2.2-.3.3-.5zm-.6 2c.2-.2.4-.4.4-.6v-.3c-.2-.1-.3-.2-.4 0 0-.2-.1-.2-.2-.2h-.6l-.2.2v.3s0 .1 0 0l-.1.2v.3l.1.1c.1 0 .2 0 .1.2h.1c.2.2.4.2.6 0l-.2-.2v-.1c0-.1.1 0 .2 0l.2.2zm7.2-14.1c0 .6-.1 1.2-.3 1.7l-.3.5c-.2.3-.5.2-.7.1l-.2-.2v-.4l.3-.4.3-1.2a1 1 0 0 0-.3-.7 1 1 0 0 1-.2-.4c0-.2 0-.4.2-.5h.6c.4.5.6 1 .6 1.5zm-.3 0c0-.6-.3-.9-.5-1.2 0-.1-.2-.2-.2 0-.1 0-.2 0-.1.2l.1.2.2.2c.2.4.2.8.1 1.2 0 .4-.2.7-.4 1l-.1.4c0 .1 0 .2.2.2l.2-.3c.2-.2.2-.4.3-.7l.2-1.3zm-.1 53l-.1.4c0 .4-.3.7-.7.8l-.2.2v.4l-.1-.4-.1-.2c-.2 0-.3-.2-.6-.1V68.5c-.4 0-.4-.3-.5-.6l.6.4c.2-.2.4-.3.7-.3l.2-.1v-.3.4c.1.1.3 0 .4.2h.3zm-.7.2c0 .1 0 .2-.2.2v-.1l-.1-.2h-.2c-.2 0-.3 0-.4.3 0 .2.1.5.4.5.2.1.5 0 .6-.2-.1-.2 0-.2 0-.2l.2-.1v-.1l-.3-.1zM14 90l-.1.2-.2.1s-.2 0-.2-.2l.3-.3c.1 0 .2 0 .2.2zm5.5 81.2h.3c.2 0 .3.2.3.4l-.1.6c-.2.2-.4.3-.6.2-.3-.1-.4-.3-.3-.6v-.3c.1-.2.3-.3.4-.3zm5.4-142.5h-.1c-.2 0-.3 0-.3.2h-.2l.1-.4h.3l.2.2zm-9.5 108.8c-.2-.2-.2-.3-.1-.5h.1v.5zM11.8 2.8v-.5c.2 0 .1 0 .1.2v.3zm7.3 81.5c0-.1 0-.3.2-.5.1-.3.3-.4.6-.3l.3.1c.2.1.3.3.2.5 0 .3-.2.7-.5.9-.5.1-.8-.1-.8-.5v-.2zm.3.2c0 .2 0 .3.2.3h.1c.3-.2.4-.4.4-.7V84c-.4-.1-.5 0-.7.3v.3zm-.1 35.9v.3H19v-.3h.3zm-9.4-18.8c-.2 0-.3 0-.4-.3v-.5.4l.4.4zm5.4-94.4l.1.2s0 .2-.2.2v-.4zm9 113.1c-.2 0-.2 0-.2.2l-.1.6h-.1c.1-.2.2-.4.1-.6 0-.3 0-.3.3-.2zm-9.3-46l-.2-.2s0-.2.2-.2l.1.2s0 .2-.2.2zM2.9 71l.3-1.1.3-.7.2-.8v-.2h-.3l-.2.3c0 .2-.2.4-.3.5-.3.3-.6.2-.7-.2-.2-.6 0-1 .4-1.5.5-.4 1-.3 1.4 0 .5.5.6 1 .6 1.7 0 .2 0 .5-.2.7l-.2.6a3 3 0 0 0 0 2.2v.4c0 .3-.2.4-.5.3a1 1 0 0 1-.4-.3l-.3-.7V71zm1.5-2.2v-.4a2 2 0 0 0-.6-1c-.2 0-.4-.2-.7-.1a1 1 0 0 0-.7 1.4c.1.2.2.2.3 0l.2-.4.3-.3c.2-.1.3-.2.5 0 .2 0 .2.2.2.3 0 .4 0 .7-.2 1l-.4 1.3c-.2.6-.1 1.2 0 1.9l.4.4c.1 0 .2.1.2 0 .1 0 0 0 0 0v-.4a3 3 0 0 1-.2-1.6l.5-1.4.2-.7zM21 54.2c-.4 0-.8-.2-1-.5.2 0 .3.2.5.3.2 0 .3 0 .5.2zM3.6 48.7v.5c0 .1 0 0-.1 0s-.2-.3 0-.4v-.2.1zm19.1 12.9v-.3l.2-.1c.4-.4.5-1 .4-1.6V59c.3-.4.6-.7 1-.9l.5-.3.2-.2.5-.4c.2 0 .3 0 .4.2l-.1.7-.4.2c-.4.2-.7.5-1 .9-.3.3-.4.7-.4 1.2a1.7 1.7 0 0 1-.7 1.7c-.2.2-.5.1-.6-.2v-.2zm3-4c0-.3 0-.3-.2-.2-.2 0-.3.1-.3.2l-.2.2-.7.5c-.5.3-.8.7-.7 1.3a2 2 0 0 1-.5 1.8H23v.5h.2c.3-.3.5-.6.6-1v-.8c0-.3 0-.6.2-1 .4-.4.8-.9 1.3-1.2l.3-.1.1-.3zm-.8 107.1h-.1c-.2 0-.3 0-.3.2h-.2l.1-.4h.3l.2.2zM21 190.2c-.4 0-.8-.2-1-.5.2 0 .3.2.5.3.2 0 .3 0 .5.2zm-17.4-5.5v.5c0 .1 0 0-.1 0s-.2-.3 0-.4v-.2.1zm11.7-41.5l.1.2s0 .2-.2.2v-.4zm-3.5-4.4v-.5c.2 0 .1 0 .1.2v.3zm-2.6 5.7h-.4c0-.1 0 0 0 0h.5zm16.3-65.9v-.4c.1.2 0 .3 0 .4zM10.4 55.9v.2l-.1-.1c0-.1 0-.2.1-.1zM3.2 166.5l-.1.3-.3.1-.1-.2v-.3l.1-.2v.4c0 .1.1.1.2 0l.2-.1zm16 .5v-.3c.1-.1.2-.2.3-.1v.2l-.1.4c-.1.1-.1.1-.2 0v-.2zM4.1 116c0 .1 0 .2-.2.3-.2.1-.3 0-.3-.2l.1-.4c.2-.1.4 0 .4.2zm10.9-1.4l-.2.4h-.2v-.2l.2-.4h.2v.2zM3.2 30.5l-.1.3-.3.1-.1-.2v-.3l.1-.2v.4c0 .1.1.1.2 0l.2-.1zm16 .5v-.3c.1-.1.2-.2.3-.1v.2l-.1.4c-.1.1-.1.1-.2 0V31zM5.6 3.4c0 .5-.2.9-.5 1.2-.5.4-1.4.3-1.8 0l-.5-.7a2 2 0 0 1-.2-1.4c0-.4.1-.7.3-1 .2-.4.5-.7 1-.7.4 0 .8.1 1 .5l.1.1h.2c.2 0 .3.2.2.4 0 .5-.6.6-1 .3-.1-.1-.3-.2-.5 0-.3 0-.4.2-.4.4 0 .6.1 1 .5 1.4h.5c.1 0 .2-.1.2-.3V3c0-.2.2-.3.3-.4.2 0 .4 0 .5.3l.1.5zm-.4-1.7H5c-.2 0-.3-.1-.3-.3v-.2c-.3-.1-.8-.3-1.2 0l-.4.5-.3.9c-.1.6 0 1.1.4 1.6.3.2.5.4.9.4.8 0 1.4-.7 1.2-1.4V3s-.1-.1-.2 0H5v.5c0 .3-.2.5-.5.7-.3 0-.5 0-.7-.3a2 2 0 0 1-.6-1.4c0-.4.2-.6.5-.8.3-.1.6-.1.9.1.1.2.3.2.4 0 .1 0 .2 0 .2-.2zM19 86.3a2 2 0 0 1-.5-.1c-.2 0-.2-.2-.2-.4v-.4c0-.4 0-.7-.2-1a2 2 0 0 0-.2-.4c-.5-.5-.5-1-.3-1.6 0-.2 0-.3.2-.5.1-.2.4-.3.7-.3l.9.3.2.3c0 .2.2.3.5.4.8.2 1.2.6 1 1.5 0 .6-.2 1-.6 1.4l-.9.6a1 1 0 0 1-.5.2zm0-.3c.1 0 .3 0 .5-.2l.8-.6c.4-.4.5-.9.6-1.4 0-.4-.2-.7-.6-.8h-.4c-.3-.2-.5-.3-.6-.7 0-.2-.2-.3-.4-.4h-.3c-.4-.1-.6 0-.7.4-.2.6-.2 1.1.2 1.7.4.4.5 1 .4 1.5 0 .4 0 .5.5.5zM4.8 136.3l.5.1c.4.1.7 0 1-.2.4-.3.6-.7.6-1.2 0-.4.1-.8.4-1.2l.4-.2.3.1v.6c-.3.5-.4 1-.4 1.4v.1c-.2.7-.5 1-1.3 1.2H4.7c-.2.1-.2.2-.2.4v.4c.1.2 0 .3-.1.4-.1 0-.3 0-.4-.2l-.2-.1v-.4c0-.6.5-1 1-1zm1.2.3h.7c.2 0 .4-.2.5-.5l.1-.6.4-1.1.1-.3v-.3l-.3.1c-.2.2-.4.5-.4.9v.5c0 .5-.3.9-.8 1.1l-.3.2zm-.8 0h-.3l-.7.1c-.3.2-.3.5 0 .8 0-.5.1-.6.4-.7l.3-.1h.3zm-1.3 1.2v-.6.6zm.3-.2zm4.3-45.4h.3c.2 0 .3.2.3.4l-.1.6c-.2.2-.4.3-.6.2-.3-.1-.4-.3-.3-.6v-.3c.1-.2.3-.3.4-.3zm-7.2 36.4l.1-.6.3-.3.4.1.2.3c.1.3 0 .6-.3.8h-.2c-.2.3-.5.1-.5-.2zm.6-.2c0-.1-.1 0-.1 0zm11.7 8h-.3c-.3 0-.6-.2-.8-.4a.6.6 0 0 1-.3-.4l.1-1.2s0-.1.2 0v.8c0 .3 0 .6.3.7l.8.5zM2 102.5c0 .4.3.6.5.8l.2.2c.2.1.3.3.3.5l-.1.6c-.1.2-.3.3-.5.3s-.3-.2-.3-.4c.3.2.5.2.6-.1 0-.4 0-.6-.2-.9l-.3-.3a1 1 0 0 1-.3-.7zm2-67l.2.4c.2 0 .2-.1.1-.2v-.3h.3l.2.1c0 .3-.2.7-.5.8-.2.1-.5-.1-.5-.4l.3-.4zm.3 44.9l.3-.5h.5c.1.1.2.3 0 .5l-.3.4h-.3l-.2-.4zm.4 0v-.2.2zm21.5 7.4a1 1 0 0 0 0-1c-.3-.5-.3-1.1-.1-1.8l.1.3.1 1.4c.1.2.2.4.1.6 0 .2 0 .4-.2.6v-.1zM20.4 6.7l.1-.5.2-.1h.1v.4c0 .1 0 .1 0 0l.2-.1h.2v.1c0 .2-.2.6-.4.6-.3 0-.4-.1-.4-.4zm.4 0v-.1zM5.3 9.8a3 3 0 0 1-.5.8l-.4.2c-.2.1-.3 0-.5-.1v-.2l-.3-.2h-.2V10h.1c.3 0 .5.2.6.4h.3l.4-.2.4-.5h.1zm17.5 115c.3.1.5.4.4.7l-.1.3c-.2.1-.5 0-.5-.3v-.3c.2-.1.2-.2.2-.4zM1.6 54c0 .1 0 .3.2.4.1.1.2.1.4 0 .3-.2.5-.4.6-.8 0 .5-.2.8-.5 1-.3.2-.5.2-.7 0l-.2-.3.1-.4zm22.7-3.5c0 .2 0 .4-.3.6-.1 0-.3 0-.3-.2l.1-.7s0-.1.1 0h.4v.3zm-.4.2l.2-.3H24v.3zm-7-6.8v-.3c-.1-.4-.4-.7-.6-1 0-.2-.2-.2-.3-.2-.3-.2-.4-.3-.3-.7 0 .3 0 .4.3.5.5.2.8.7.9 1.2v.5zM9.2 8.5h-.4c0-.1 0 0 0 0h.5z"/>
  <path fill="#67815C" d="M12.7 194.2l.4-.1a1 1 0 0 1 1.1 0c.1.2.2.2.3.1l.3-.1-.3.3s-.1 0 0 .1v.6l-.2.2-.3.2c.1.4 0 .5-.2.7v-.6h-.2a.6.6 0 0 1-.5-.4c0-.2-.1-.2-.2-.1h-.3c.1 0 .3 0 .3-.2.1-.1 0-.2 0-.4s0-.2-.2-.2zm.6.5h.2v.2c-.1 0-.1 0 0 0v.2c0 .2.2.3.4.2.2-.1.4-.3.3-.6 0-.2-.3-.5-.5-.4h-.1c0 .2-.1.1-.2 0h-.1s-.1 0 0 .2v.2zm3.9-63c-.1-.2-.1-.3 0-.4h.1l-.1.4zm-9.3-60h-.2s-.1-.1 0-.2l.2.2zM2.4 99.3v.4h-.1v-.4zm.6-9.5a.6.6 0 0 1-.4-.5l.4.5zm23.2-2c0 .2-.2.2-.4.3l.4-.3zm-3.7-62.2h.2v.1h-.2v-.1zM5.3 9.8l.3-.3-.3.3zm4.6 91.8l.2.2v.3l-.2-.5zM6 22.6c-.2-.1-.2-.2-.1-.4v.4zm3.2 96l-.1.1v-.2.1zm1.5-13.8h.4-.4zm2.1-77.5v-.1c0-.1 0-.2.2-.3l-.2.4zm4.1 16.6l-.1.4v-.4zm.8 69.6l-.3-.1.2-.2v.3zm1.2 43.5a2.8 2.8 0 0 1-1 .7h-.2v-.2a22.6 22.6 0 0 0 1.2-.5zm0-136a2.8 2.8 0 0 1-1 .7h-.2v-.2A22.6 22.6 0 0 0 19 21zm1.7 85.6l.5-.2h.1v.2h-.6zm-1.7-13.5l-.2.2-.2-.2.2-.2.2.2zm2.1 41.2l-.1.2h-.2v-.1l.2-.2h.1zm.2-16.9H21c0-.1 0-.1.1 0h.1zM9.2 8.5l.3-.2c0 .1-.1.2-.3.2zm2.1 4.3l-.1.1v-.1zM11 29.6l-.2.2.1-.2zm4.7 12.1l.1-.3v.3zM24 14v.1zM9.6 3.8c0-.1 0 0 0 0zm11.6 50.4h-.3.3zm-10.7-26h-.1c0-.1.1 0 .1 0zM8.6 66.4zM3 18.5v-.2.2zm12.2 42.3v.1c-.1 0 0 0 0 0zm1.3-11.3zM12.3 30c.1.1.1.2 0 .2V30zM12 98.8h.1v.1zm5.8-2c-.1.1-.1 0-.1 0zM1.6 53.3v-.1.1zm2.2-32.6h-.1zm21.7 57.9zm-24-24.8l.2-.1v.2h-.2zm2.1-5.1a215.3 215.3 0 0 1 0-.2v.2zM19 68.1zm5.3 52.2h.2-.2zm-22-94.7zM2.8 88v-.2.1zm21.7 32.3zM6 22.6zm15 86.1zM18.9 21zm5.1 86.7zM3.7 48.5zm-.9 39.4zm18.4-48.5l.1-.4c.1-.5 0-1-.3-1.3l-.2-.5c-.3-.6-.1-1.2.2-1.7.3-.4.8-.5 1.3-.3l.8.5c.1.2.3.4.6.4.4 0 .6.2.7.6v.7l-.6 1.8c0 .3-.2.6-.4 1-.4.4-1 .6-1.6.3-.4-.2-.6-.5-.6-1zm.3.1c0 .3.2.5.4.7.5.2 1 .1 1.3-.4.2-.2.2-.5.3-.7l.5-1.7.2-.5c0-.3-.2-.5-.5-.5h-.3c-.2 0-.3 0-.4-.3v-.2l-1-.5c-.5 0-.8.1-1 .5-.1.5-.1 1 .2 1.4l.1.2c.3.5.4 1 .3 1.5v.5zM22 107h.3v.1H22zm.5 54.6h.2v.1h-.2v-.1zM5.3 145.8l.3-.3-.3.3zm.7 12.8c-.2-.1-.2-.2-.1-.4v.4zm6.8 4.7v-.1c0-.1 0-.2.2-.3l-.2.4zm4.1 16.6l-.1.4v-.4zm6.6-5.7c0 .3-.2.7-.5 1l-.2.2c-.3.2-.6 0-.7-.2v-.2l.1-1 .3-.3c.1-.1.2-.2.4-.1h.2c.3.1.4.2.4.6zm-1.2.6v.2s0 .2.2.2l.2-.1c.3-.3.4-.6.5-1v-.1a.4.4 0 0 0-.6 0c-.2.2-.3.5-.3.8zm1.7-67.1c-.1.1-.2.2-.4.1h-.1l-.4.5v.2l.4 1.4-.4-.8-.2-.3-.1-.2h-.3a1 1 0 0 1-.8-.2c-.2-.1-.2-.1-.4 0l-.3.3c0-.2.2-.4.3-.5v-1.7l.6-.7.2-.3.1-.2c0 .3 0 .4.3.4h.5l.1-.1.4-.6-.2.6v.2c.4.1.5.4.6.7 0 .3 0 .3.3.2l-.4.6-.2.4h.4zm-2.4.2h.1c.1-.1.2-.2.3-.1l-.1.2c-.1 0-.1.1 0 .2.2.2.4.2.7 0 .5-.2.7-.6 1-1.1h-.2l-.1-.1v-.2h.1c.2 0 .2-.1.2-.3l-.2-.3-.2-.1-.1.4-.2-.3c0-.2 0-.2-.2-.2l-.7.1c-.1 0-.3.1-.3.3a2 2 0 0 0-.2 1.2l.1.3zM3 89.9c.3.3.3.7.4 1v.5l-.1-.6c0-.3-.1-.6-.3-.8v-.1zm15-15.7l.2-.2c.1 0 .3.1.3.3h-.1l-.2.1v.1H18v-.3zM1.5 121l-.3.8c0 .2-.1.4.1.6-.2 0-.2 0-.2-.2v-.3l.4-.9zM3 89.9zm1.2 47.7zm-2.3-9.2h-.1s0-.1 0 0zm21.6-90.2c0 .3-.2.7-.5 1l-.2.2c-.3.2-.6 0-.7-.2V39l.1-1 .3-.3c.1-.1.2-.2.4-.1h.2c.3.1.4.2.4.6zm-1.2.6v.2s0 .2.2.2l.2-.1c.3-.3.4-.6.5-1V38a.4.4 0 0 0-.6 0c-.2.2-.3.5-.3.8zM3.4 143.3v.3c-.1.4-.4.6-.8.8h-.4l-.5-.2v-.1H2l.2.1h.5c.3 0 .5-.2.6-.5l.2-.4zm-.7 19.3c0 .1 0 .2-.2.3l-.2.1-.5-.1c-.1-.2-.2-.4 0-.6l.1-.3.3-.3-.1.2-.3.5.1.4c.1 0 .2.1.4 0 .1 0 .3 0 .4-.2zM3.4 7.3v.3c-.1.4-.4.6-.8.8h-.4l-.5-.2V8H2l.2.1h.5c.3 0 .5-.2.6-.5l.2-.4zm-.5 80.4a3 3 0 0 1 1-.8h.3c.2 0 .3 0 .3.3v.4c-.2-.1-.1-.2-.1-.3 0-.3-.1-.3-.4-.3-.2 0-.4.2-.5.3l-.6.4zm-.2-61.1c0 .1 0 .2-.2.3l-.2.1-.5-.1c-.1-.2-.2-.4 0-.6l.1-.3.3-.3-.1.2-.3.5.1.4c.1 0 .2.1.4 0 .1 0 .3 0 .4-.2zm2.7 39.8v-.2h-.1v.5H6l.3-.3.3-.1c-.2 0-.3.2-.5.3a1 1 0 0 1-.4.2c-.2 0-.4 0-.4-.4V66h.2v.5zm2.3 117c0-.5.1-1 .4-1.4l.1-.2c.2-.5.1-1-.3-1.3l-.3-.2a.5.5 0 0 1 0-.7c.2-.3.5-.3.7 0l.2.2.5.9c.2.3.2.7.1 1 0 .4-.2.6-.3 1v1.3c0 .3-.5.5-.8.3a1 1 0 0 1-.3-.7v-.3zm.8-2c0 .3 0 .5-.2.8-.3.4-.3 1-.4 1.5l.2.5h.3c.1 0 .2-.1.2-.3v-1.5l.2-.6c.1-.3.1-.6 0-.8a101.7 101.7 0 0 0-.8-1.3h-.2c-.2 0-.2.2-.1.4l.3.2c.4.3.5.6.5 1.1zm-.8-134c0-.5.1-1 .4-1.4l.1-.2c.2-.5.1-1-.3-1.3l-.3-.2a.5.5 0 0 1 0-.7c.2-.3.5-.3.7 0l.2.2.5.9c.2.3.2.7.1 1 0 .4-.2.6-.3 1V48c0 .3-.5.5-.8.3a1 1 0 0 1-.3-.7v-.3zm.8-2c0 .3 0 .5-.2.8-.3.4-.3 1-.4 1.5l.2.5h.3c.1 0 .2-.1.2-.3v-1.5l.2-.6c.1-.3.1-.6 0-.8a101.9 101.9 0 0 0-.8-1.3h-.2c-.2 0-.2.2-.1.4l.3.2c.4.3.5.6.5 1.1zm.7 99.1l.3-.2c0 .1-.1.2-.3.2zm2.1 4.3l-.1.1v-.1zm-.3 16.8l-.2.2.1-.2zm4.7 12.1l.1-.3v.3zM24 150v-.1.1zM9.6 139.8c0-.1 0 0 0 0zm11.6 50.4h-.3.3zm-10.7-26h-.1c0-.1.1 0 .1 0zM3 154.5v-.2.2zm12.2 42.3v.1c-.1 0 0 0 0 0zm1.3-11.3zM12.3 166c.1.1.1.2 0 .2v-.2zM1.6 189.3v-.1.1zm2.2-32.6h-.1zm-2.3 33.1l.2-.1v.2h-.2zm2.1-5.1a168.8 168.8 0 0 1 0-.2v.2zm-1.3-23.1zm3.7-3zm12.9-1.6zM3.7 184.5z"/>
</svg>
