<svg xmlns="http://www.w3.org/2000/svg" viewBox="0 0 27 200">
  <path fill="#FFF" d="M1.27 117.02l1.27.66s-.29 2.73-2.54 6.27c-.08-.29-.04-5.41-.04-5.41l1.31-1.52zm.4-3.5c-1.04.59-2.1 2.33-.8 3.62 1.27 1.28 5.9 1.63 7.09 1.56s.08-2-1.3-3.37-3.72-2.54-5-1.81z"/>
  <path fill="#656E72" d="M27.03 148.11v7.6c-.07 0-.1.06-.14.1-.09.08-.18.18-.3.22-.37.11-.7.31-1.04.48-.42.2-.83.2-1.23-.06a5.93 5.93 0 0 1-.7-.56c-.16-.14-.3-.31-.5-.42a1.3 1.3 0 0 0-.37-.35c-.07-.16-.22-.26-.34-.38a1.89 1.89 0 0 0-.86-.54c-.28-.07-.57-.09-.86-.12a3.87 3.87 0 0 1-.72-.16c-.11-.03-.21-.1-.35-.1a.26.26 0 0 1-.2-.1c-.08-.09-.18-.18-.25-.28-.2-.3-.44-.57-.57-.93a3.3 3.3 0 0 1-.11-1.74c.03-.16 0-.35.1-.5.07-.07.1-.17.14-.26.08-.22.19-.44.3-.64.28-.51.6-.96 1.14-1.24.5-.27 1.01-.46 1.6-.25.11.05.23.09.36.12.28.07.58.06.87.11.22.04.44.1.67.12.38.02.73-.08 1.1-.16.23-.05.47-.12.71-.09.15.02.3.06.45-.04.07-.05.18-.05.27-.06.3 0 .57.09.83.23zm-2.6-1.94c.13.19.27.37.39.56.13.2.07.4-.13.48a.3.3 0 0 1-.25-.04c-.3-.18-.63-.26-.96-.34-.14-.04-.29-.07-.42-.13-.05-.03-.1-.02-.14-.02-.2.01-.3-.12-.25-.31l.13-.35c.08-.04.12-.12.18-.17.26-.24.52-.29.84-.15.2.1.4.21.53.4l.08.07zm-4.18 9.9c0-.13.06-.26.1-.38.06-.15.24-.2.34-.1.36.38.83.45 1.3.52.12.02.25.05.36.11.15.09.17.19.05.31-.1.1-.15.23-.23.35-.22.21-.48.16-.74.1-.07-.02-.14-.04-.21 0-.08.04-.16.01-.24-.02-.33-.14-.6-.36-.67-.74l-.06-.15z"/>
  <path fill="#281F34" d="M27.03 148.11a1.55 1.55 0 0 0-.83-.23c-.1 0-.2 0-.27.06-.15.1-.3.06-.45.04-.24-.03-.48.04-.71.09-.37.08-.72.18-1.1.16-.23-.02-.45-.08-.67-.12-.29-.05-.59-.04-.87-.11a3.71 3.71 0 0 1-.37-.12c-.58-.2-1.08-.02-1.6.25-.52.28-.85.73-1.13 1.24-.11.2-.22.42-.3.64-.04.1-.07.19-.13.27-.12.14-.08.33-.11.5a3.3 3.3 0 0 0 .11 1.73c.13.36.37.63.57.93.07.1.17.19.25.29.06.06.13.1.2.1.14-.01.24.06.35.1.24.06.48.13.72.15.29.03.58.05.86.12.34.1.61.3.86.54.12.12.27.22.34.38-.04 0-.08-.04-.13-.02l.44.38c.03.03.05.02.07-.01.19.1.33.28.49.42.22.2.45.4.7.56.4.25.81.26 1.23.06.35-.17.67-.37 1.04-.48.12-.04.21-.14.3-.23.04-.03.07-.1.14-.09v6.49c-.2.03-.34-.06-.48-.2a9.91 9.91 0 0 1-2.18-3.45l-.26-.63a.28.28 0 0 0-.16-.15l-1.29-.6a2.32 2.32 0 0 1-.49-.29c.08-.12.13-.25.23-.35.12-.12.1-.22-.05-.3a.96.96 0 0 0-.36-.12c-.47-.07-.94-.14-1.3-.51-.1-.11-.28-.06-.33.09-.05.12-.1.25-.1.38a5.86 5.86 0 0 1-1.68-1.27c-.42-.42-.78-.9-1.12-1.4a.42.42 0 0 0-.16-.15 1 1 0 0 1-.37-.34 7.52 7.52 0 0 1-1.26-2.69c-.11-.5-.09-1.02.18-1.48.18-.3.31-.64.59-.88.3-.28.64-.5 1.02-.67.7-.31 1.4-.66 2.16-.86a7.7 7.7 0 0 1 1.57-.25l.96-.08c.21-.02.43.02.65.02-.04.12-.1.23-.13.35-.05.19.06.32.25.31.05 0 .1 0 .14.02.13.06.28.1.42.13.33.08.66.16.96.34.07.05.15.07.25.04.2-.07.26-.27.13-.48-.12-.2-.26-.37-.4-.56.9.15 1.77.39 2.6.71v1.23z"/>
  <path fill="#E88431" d="M18.97 89.6c-.04-.13-.06-.25 0-.38.02-.04.01-.1.02-.15.02-.38.1-.75.16-1.13.02-.21 0-.42.06-.63.17-.59.5-1.1.84-1.59.3-.43.63-.84.98-1.24.34-.4.77-.69 1.26-.89 0 .05-.02.1-.04.14-.07.12-.1.26-.13.4-.01.1.02.2.1.25.07.04.14.04.2-.02.05-.06.11-.07.2-.05h.18c.23-.05.47-.06.7-.09.28-.03.57-.03.8-.22.14-.1.18-.17.13-.34-.04-.17-.13-.32-.2-.48.12-.02.25-.02.36-.1a.33.33 0 0 1 .21-.03c.5.05.97.15 1.44.3.05.02.1.05.16.03.21-.07.4-.14.6-.06v2.8c-.06-.05-.1-.01-.15-.06-.38-.3-.77-.6-1.26-.7a41.5 41.5 0 0 0-1.12-.25c-.3-.06-.6-.05-.89.03-.37.1-.73.22-1.08.38-.32.15-.6.35-.81.63-.54.7-.85 1.46-.8 2.35 0 .16.01.33-.01.5-.05.32.01.64.1.95.13.4.38.74.66 1.06.37.43.8.77 1.37.91.25.06.51.06.76.09.36.03.7.04 1.05-.07.8-.23 1.5-.7 2.18-1.2V93c-.2-.03-.36.11-.48.27-.18.25-.4.46-.51.76-.1.27-.15.54-.1.83.04.16.15.28.18.44-.37.02-.74 0-1.1-.07-.4-.08-.8-.12-1.2-.22-.38-.1-.74-.24-1.08-.44-.19-.12-.4-.18-.6-.27a3.63 3.63 0 0 1-1.17-.87c-.4-.4-.76-.85-1.13-1.3l-.07-.1c.17.02.34.07.52.03.24-.05.33-.16.23-.39-.21-.5-.37-1.02-.56-1.53a2.48 2.48 0 0 1-.14-.5c-.02-.2-.14-.3-.32-.3-.14-.01-.24.05-.33.13-.05.05-.1.1-.17.13z"/>
  <path fill="#FEC325" d="M27 90.75c-.67.5-1.38.96-2.18 1.2-.34.1-.7.1-1.05.06-.25-.03-.5-.03-.76-.09-.56-.14-1-.48-1.37-.91a3.03 3.03 0 0 1-.65-1.06c-.1-.31-.16-.63-.11-.95.02-.17.01-.34 0-.5a3.5 3.5 0 0 1 .8-2.35c.22-.28.5-.48.82-.63a6.4 6.4 0 0 1 1.08-.38c.3-.08.6-.09.89-.03l1.12.24c.5.11.88.41 1.26.71.06.05.09.01.15.06v4.63zm-1.7-1.66c.02.16.08.3.23.37.15.09.32.03.41-.15.08-.15.04-.34-.1-.41-.1-.11-.23-.14-.38-.08-.12.05-.17.14-.15.27zm-1.07-5.91c.07.16.16.31.2.48.05.17.01.24-.12.34-.24.2-.53.19-.81.22-.23.03-.47.04-.7.09a.48.48 0 0 1-.19 0c-.08-.02-.14-.01-.2.05-.05.06-.12.06-.18.02a.23.23 0 0 1-.1-.25c.02-.14.05-.28.12-.4a.24.24 0 0 0 .04-.14l.08-.13c.2-.36.49-.58.87-.7.04-.01.08 0 .1-.05h.17c.13.04.25.08.35.16l.37.3zm1.86 12.12c-.03-.16-.14-.28-.18-.44-.05-.3 0-.56.1-.83.1-.3.33-.51.51-.76.12-.16.28-.3.48-.27v2.83c-.35 0-.54-.14-.76-.36-.05-.06-.08-.13-.15-.17zm-7.12-5.7c.07-.02.12-.08.17-.13.1-.08.2-.14.33-.13.18 0 .3.1.32.3.03.17.08.33.14.5.2.5.35 1.03.56 1.53.1.23 0 .34-.23.4-.18.03-.35-.02-.52-.04l-.33-.16a1.47 1.47 0 0 1-.72-1.72c.05-.2.13-.4.28-.55z"/>
  <path fill="#F75429" d="M0 119.13c.08-.02.18 0 .25.03.47.26.95.49 1.34.87.23.22.25.4.1.65-.22.42-.4.87-.6 1.3l-.09.17c-.1.15-.23.2-.4.1-.19-.1-.41-.19-.6-.3v-2.82zm0-2.8c.16-.02.3.05.4.16.17.21.3.44.46.65.03.04.04.1.1.1.14.04.12.14.06.23-.29.45-.53.93-.86 1.35a.47.47 0 0 1-.16.14v-2.63zm.84-4c.14-1.16.3-2.3.96-3.32.13-.19.25-.38.44-.52.14-.11.27-.09.37.07l.03.04c.32.23.36.57.4.91.04.37 0 .73-.07 1.08l-.48 2.14c-.08.35-.25.59-.61.68a.95.95 0 0 0-.37.22c-.16.14-.28.1-.36-.09l-.16-.38a2 2 0 0 1-.15-.83zm5.9-1.76c.1 0 .18.01.26.03.21.03.3.17.27.38-.03.2-.11.37-.22.53a5.65 5.65 0 0 1-2.33 2.15c-.18.09-.33.08-.54-.02-.3-.16-.28-.39-.27-.62.04-.8.41-1.42 1.1-1.83.42-.26.86-.5 1.36-.58l.37-.04zm2.01 6.93c.4-.06.65.25.55.63-.05.24-.08.5-.34.64l-.03.06c-.09.24-.36.3-.54.1-.04-.04-.08-.09-.15-.12a.65.65 0 0 1-.1-1.11c.18-.14.39-.2.61-.2zm17.09-28.6c.14.07.18.26.1.41-.1.18-.26.24-.41.15a.43.43 0 0 1-.22-.37c.2-.28.26-.3.53-.2z"/>
  <path fill="#060606" d="M27.03 146.91c-.33.02-.65-.1-.97-.16-.34-.06-.67-.15-1.01-.23-.07-.02-.1-.01-.09.08.03.2 0 .38-.04.58-.08.28-.19.34-.5.19a6.85 6.85 0 0 0-.8-.35 2.14 2.14 0 0 0-1-.17c-.1.02-.15-.03-.17-.12a.7.7 0 0 1 .03-.37l.06-.19a14.26 14.26 0 0 0-4.6 1.05c-.49.2-.93.48-1.3.85-.4.37-.7.8-.79 1.36-.05.36.05.7.16 1.04.58 1.77 1.53 3.3 2.91 4.57.35.32.74.6 1.13.88a.9.9 0 0 1 .21-.45c.11-.14.2-.13.32 0a2.95 2.95 0 0 0 1.9.58c.17 0 .31.18.26.33-.06.2-.14.39-.28.54-.07.07-.06.1.03.12.53.19 1.06.37 1.58.58.15.05.23.13.27.27.3.86.7 1.67 1.23 2.4.43.6.9 1.18 1.4 1.73.02.02.03.04.06.03v.83c-.4-.32-.73-.72-1.05-1.12a14.9 14.9 0 0 1-1.52-2.5 6.8 6.8 0 0 1-.44-1.15.33.33 0 0 0-.23-.24l-1.22-.45a2 2 0 0 1-.33-.16c-.09-.07-.16-.06-.26-.03-.52.2-1.2.06-1.59-.33a1.1 1.1 0 0 1-.27-.5.39.39 0 0 0-.18-.24 9.74 9.74 0 0 1-1.79-1.46 11.23 11.23 0 0 1-2.3-3.83c-.18-.5-.29-1-.3-1.53-.02-.42.18-.74.4-1.05a4.06 4.06 0 0 1 1.76-1.35 13.69 13.69 0 0 1 5.02-1.12c.27-.37.66-.37 1.06-.33.44.05.78.26 1.01.64.03.03.04.06.1.07.59.04 1.17.18 1.75.29.13.02.24.03.3-.11.02-.02.03-.07.08-.04v.57zm-2.5.18a.64.64 0 0 0 .06-.42 1.05 1.05 0 0 0-1.07-.87c-.25 0-.46.05-.58.28-.08.12-.13.26-.18.4-.03.08 0 .1.07.1.17-.02.34-.01.51.04.41.12.83.24 1.2.47zm-2.13 9.24c-.75.11-1.33-.27-1.9-.64-.24.29-.08.92.27 1.1.31.16.63.22.97.14.32-.08.58-.24.66-.6zm4.63-.53c-.1.03-.17.12-.25.18-.62.47-1.28.8-2.1.67a3.04 3.04 0 0 1-1.7-.94c-.3-.3-.54-.64-.85-.93l-.12-.11c-.21-.18-.43-.3-.73-.28-.18.02-.37-.01-.55 0a1.93 1.93 0 0 1-1.56-.66 3 3 0 0 1-.87-2.19 4.52 4.52 0 0 1 1.45-3.24c.62-.61 1.36-.7 2.16-.52.34.08.67.2 1 .3.55.18 1.1.19 1.63-.08.47-.24.97-.4 1.51-.35.28.03.54.1.8.19.06.02.11.06.18.04v.43c-.24-.1-.48-.18-.73-.23-.52-.1-1-.02-1.46.21-.6.3-1.19.33-1.8.1a7.71 7.71 0 0 0-1.29-.35 2.1 2.1 0 0 0-2.22.9 4.91 4.91 0 0 0-.8 1.63 3.5 3.5 0 0 0-.13 1.42c.14.9.6 1.59 1.48 1.93.3.12.65.14.98.13a1.8 1.8 0 0 1 1.41.6c.24.26.47.54.7.81.35.4.76.7 1.28.86.7.22 1.34.07 1.94-.34.2-.13.38-.27.54-.42.03-.02.04-.09.1-.05v.29zm-2.78-1.18h-.4c-.09 0-.08-.07-.08-.13.02-.18.07-.36.12-.53.43-1.38.83-2.77 1.23-4.16l.14-.5c.05-.18.16-.23.32-.15.27.13.5.32.63.58a3.65 3.65 0 0 1-.26 4.1c-.41.55-.96.8-1.7.8zm-2.39-2.19c.23 0 .43.2.42.42 0 .2-.23.42-.42.42-.2 0-.43-.25-.43-.46 0-.2.2-.38.43-.38zm1.22-2.57c0 .2-.16.4-.34.4-.19 0-.46-.22-.46-.49 0-.19.15-.33.37-.33.23 0 .43.2.43.42zm.08 1.3c0-.14.09-.23.2-.22.12 0 .22.12.21.25 0 .1-.1.19-.22.18-.12 0-.2-.08-.19-.21zm.06.84c-.11 0-.2-.1-.2-.22 0-.1.09-.17.19-.16.12.01.2.12.2.22-.02.1-.08.16-.2.16z"/>
  <path fill="#591708" d="M27 83.57c-.49-.15-.96-.2-1.47-.27a8.47 8.47 0 0 0-1-.07c-.1 0-.11.02-.07.1.07.16.14.33.14.5 0 .19-.04.24-.22.28l-1.63.3c-.15.02-.3.08-.46.12-.18.05-.22.01-.25-.16-.02-.15-.02-.3.02-.48a4.45 4.45 0 0 0-1.63 1.52c-.33.49-.7.95-.92 1.5a6.2 6.2 0 0 0-.47 2.4c0 .12.03.14.14.07.19-.1.4-.13.6-.13.12 0 .14.09.16.17l.2.83c.15.54.33 1.08.47 1.62.05.22-.02.31-.25.28h-.2l-.2-.01c.94 1.78 3.91 3.25 5.86 2.97-.2-.5-.15-1 .15-1.44.25-.38.58-.68 1.03-.75v.34c-.49.13-.76.55-.9 1.01-.16.5.06.89.4 1.22.15.15.3.13.5.14V96c-.41-.06-.71-.17-.95-.52-.03-.04-.07-.05-.12-.05-1.04.06-2-.26-2.94-.64a6.39 6.39 0 0 1-3.2-2.6.32.32 0 0 0-.19-.14c-.74-.24-1.12-.93-1-1.77.04-.2.09-.4.2-.59.05-.06.03-.13.02-.19a6 6 0 0 1 .66-3.12 7.2 7.2 0 0 1 1.74-2.34c.28-.23.59-.43.92-.6.08-.04.14-.1.19-.18.2-.33.5-.53.86-.66.3-.1.56 0 .8.16.1.07.2.1.34.1.88-.05 1.73.12 2.56.4.04.02.06-.01.11-.06v.37zm-6.64 8.36v-.05c-.2-.78-.53-1.53-.67-2.33 0-.03-.02-.05-.05-.06-.11-.03-.55.15-.6.25a1.8 1.8 0 0 0-.23 1.12c.12.67.81 1.15 1.55 1.07zm3.12-9.08a.72.72 0 0 0-.22.03c-.6.22-.85.7-.97 1.27-.03.1 0 .12.1.1l1.6-.3c.12-.02.32.01.35-.08.04-.1-.04-.25-.09-.37-.18-.46-.38-.6-.77-.65zm3.52 8.1c-.32.26-.62.59-1 .76-.65.29-1.34.48-2.05.5a3 3 0 0 1-2.24-.88 3.4 3.4 0 0 1-1.01-2.95c.05-.61.18-1.21.5-1.74a3.3 3.3 0 0 1 3.13-1.7 4.7 4.7 0 0 1 2.65 1.08c.02.02 0-.06.02-.05v.29a4.36 4.36 0 0 0-2.56-1.08 3 3 0 0 0-2.53.92 3.39 3.39 0 0 0-.96 2.16c-.07.59-.05 1.17.16 1.73a2.9 2.9 0 0 0 3.18 1.94c.97-.13 1.84-.5 2.58-1.15.05-.05.05-.2.13-.2v.37zm-.02-1.69c0 .51-.26.88-.69 1.14a.5.5 0 0 1-.29.07c-.06 0-.12-.04-.13-.1 0-.07.06-.09.1-.1.25-.07.4-.26.54-.45.05-.06.04-.1-.03-.13l-.42-.16c-.07-.03-.09.03-.13.05-.18.14-.38.1-.56.01a.42.42 0 0 1-.23-.44c.01-.15.08-.27.23-.33.1-.03.18-.12.3-.1.2.01.42.24.42.47 0 .12.05.16.15.2l.3.15c.08.04.11.02.14-.05.08-.25.08-.5 0-.74-.02-.05-.06-.11-.01-.15.06-.04.1.04.13.08.15.16.19.37.18.58zm-1.4.2c.16 0 .28-.12.28-.28 0-.13-.09-.21-.22-.21-.17 0-.28.09-.29.24 0 .15.09.25.23.25zm-.69.34c0 .14-.1.24-.24.25-.18 0-.3-.14-.3-.36 0-.13.12-.24.25-.24.16 0 .3.16.29.35zm.88-1.73c0 .13-.1.22-.23.22-.15 0-.3-.14-.29-.29 0-.13.13-.26.25-.26.14 0 .27.16.27.33z"/>
  <path fill="#2C2472" d="M7.89 118.86c-.37.02-.73.02-1.1 0-1.37-.06-2.7-.3-4.03-.64-.1-.03-.13-.01-.15.09-.16.7-.38 1.38-.65 2.05-.1-.09-.25-.12-.28-.28.1.08.14.05.17-.06l.1-.29.41-1.55c.03-.1-.03-.1-.08-.12-.3-.11-.6-.23-.88-.37-.1-.05-.17-.13-.28-.15l-.18-.1c.01-.06-.04-.07-.07-.1a2.84 2.84 0 0 1-.63-.76c-.06-.1-.14-.13-.24-.11v-.2c.03 0 .1-.05.1-.08.01-.14.04-.29.04-.43 0-.73.3-1.33.8-1.84l.15-.16c.1 0 .17.05.26.06-.1.1-.2.18-.28.28a3.05 3.05 0 0 0-.73 1.85.8.8 0 0 0 .14.56c.23.33.5.64.85.85.5.3 1.05.51 1.62.66 1.57.41 3.18.63 4.8.57.11.06.14.16.14.27zM0 123.53c.07-.03.11-.12.14-.18l.44-.76c.02-.04.06-.08.05-.14.1-.02.2.02.29.06a18.2 18.2 0 0 1-.9 1.54l-.02.02v-.54zm3.8-10.2l.25.12c.08.1.23.1.32.18l.37.13c0 .07.06.07.1.1a8.6 8.6 0 0 1 2.42 1.98c.42.48.83.98 1.2 1.52a.42.42 0 0 1-.25.09l-.24-.34c-.52-.73-1.1-1.4-1.75-2a7.93 7.93 0 0 0-1.95-1.28 3.3 3.3 0 0 0-2.08-.42c.07-.15.18-.26.27-.39-.04.16-.04.16.12.16.37 0 .72.05 1.07.16.04.01.1.09.14 0zm-.44 2.55c-.3 0-.55-.29-.55-.63 0-.31.3-.63.6-.6.3.03.6.2.59.58 0 .35-.3.65-.64.65z"/>
  <path fill="#54210B" d="M0 121.67c.22.16.47.31.69.5.05.04.08.07.12-.01.3-.55.6-1.08.85-1.65.04-.1.01-.14-.08-.19-.4-.19-.72-.47-1.07-.72-.16-.11-.33-.24-.51-.3v-.46c.06 0 .1-.09.12-.13.27-.42.53-.86.82-1.26l.18.09c-.28.41-.54.84-.8 1.27-.1.17-.1.17.06.3l1.3.97c.03.16.18.2.28.28-.18.45-.37.9-.6 1.34-.15.27-.27.55-.44.81-.1-.04-.19-.08-.3-.06-.2-.15-.42-.27-.62-.4v-.38zm1.35-7.85c-.09-.01-.17-.06-.26-.06-.28-.22-.34-.55-.37-.87a6.56 6.56 0 0 1 .8-3.72c.13-.24.25-.48.41-.7.29-.39.7-.37.94.05.19.3.26.66.3 1.01.02.4 0 .8-.08 1.18-.16.74-.35 1.47-.58 2.2l-.04.08a88.74 88.74 0 0 0-.01.03c-.09.13-.2.24-.27.39-.3.08-.58.23-.84.41zm-.4-1.6c.01.18.01.33.03.48.03.28.07.57.23.81.05.07.08.1.17.04.2-.14.43-.23.67-.3.05-.01.08-.02.1-.07.01-.14.07-.26.12-.38.18-.49.26-1 .42-1.5.2-.62.25-1.27.17-1.92a1.5 1.5 0 0 0-.32-.8c-.12-.14-.24-.14-.36 0a1.4 1.4 0 0 0-.2.24 7.33 7.33 0 0 0-1.03 3.4zm2.85 1.11c-.13-.51 0-.99.31-1.4a3.8 3.8 0 0 1 2.41-1.47c.2-.03.4-.02.6.04.24.08.33.22.28.47-.07.38-.25.7-.5 1-.34.41-.7.81-1.1 1.18-.3.29-.67.46-1.06.61l-.37-.13c.14 0 .26-.06.38-.12.88-.4 1.6-.98 2.12-1.8.15-.24.3-.48.36-.77.04-.17-.01-.25-.18-.3a1.05 1.05 0 0 0-.4-.03 3.4 3.4 0 0 0-2.13 1.16 1.8 1.8 0 0 0-.47 1.68l-.26-.12zm4.4 4.12c.1 0 .18-.04.26-.1a.92.92 0 0 1 1.1.75.65.65 0 0 1-.07.39c-.12.26-.31.47-.57.62a.74.74 0 0 1-1.03-.25c0-.11-.03-.21-.13-.27l-.01-.19a.88.88 0 0 1 .26-.79l.2-.16zm1.03.7c.02-.36-.3-.58-.62-.57a.68.68 0 0 0-.62.7c.01.35.28.65.59.64.35 0 .67-.38.65-.77z"/>
</svg>
