<svg xmlns="http://www.w3.org/2000/svg" viewBox="0 0 9 20">
	<path fill="#FFDA3E" d="M3.65 0c0 .04.01.08.03.11.11.3-.02.64-.24.8-.2.13-.4.1-.57-.05a.8.8 0 0 1-.22-.32.56.56 0 0 1 0-.36c0-.06.04-.11.04-.17h.96zM6.7 0v.1c0 .12-.03.21-.07.31-.04.1-.1.2-.17.28a.62.62 0 0 1-.53.2.4.4 0 0 1-.33-.26.71.71 0 0 1 .03-.6l.01-.02H6.7zM0 4.04l.05-.16a.5.5 0 0 1 .24-.27.31.31 0 0 1 .37.08l.14.1c.12.11.17.24.16.4 0 .11-.04.21-.12.3a.4.4 0 0 1-.37.13.53.53 0 0 1-.43-.34l-.03-.13v-.11zM9 .79l-.09.03a.62.62 0 0 1-.42 0A.45.45 0 0 1 8.2.49a.91.91 0 0 1 0-.4L8.23 0h.75c.02 0 .03 0 .03.02v.76zM.69 0C.77.28.7.52.52.72.42.82.3.86.14.83L.01.8V.03C0 .01 0 .01.03.01H.7zM9 17.26c-.04.03-.08.07-.13.09a.37.37 0 0 1-.25 0l-.1-.04c-.1-.06-.1-.15-.05-.23.06-.07.15-.1.24-.11h.13a.2.2 0 0 1 .17.06v.23zM0 13.91h.03a.24.24 0 0 1 .19-.02c.1.05.21.09.26.21.02.08 0 .15-.06.2-.1.08-.26.08-.38 0L0 14.3v-.38zM9 11.53l-.1.02a.27.27 0 0 1-.22-.07c-.08-.06-.08-.18-.01-.27a.32.32 0 0 1 .23-.12l.1-.02v.46zM5.97 20c-.06-.04-.07-.11 0-.18a.26.26 0 0 1 .26-.04c.02 0 .04.02.05.04l.03.03c.06.04.07.1 0 .14v.02h-.34zM.73 20c-.05-.07-.02-.15.05-.19a.22.22 0 0 1 .2-.02l.09.04.05.04c.04.04.04.08.02.14h-.4zM0 11.26c.1.05.15.13.19.22.05.14-.03.3-.17.36H.01v-.58zM2.57 20h-.01c-.06-.07-.06-.14.01-.19a.23.23 0 0 1 .25 0c.02 0 .04.02.05.03.07.04.08.1.03.16h-.33zM7.48 20c.04-.05.1-.07.15-.1a.4.4 0 0 0 .06-.02.3.3 0 0 1 .23-.03c.08.02.11.06.12.16h-.56zM4.4 20l.02-.05c.05-.1.2-.14.29-.07.04.03.1.06.1.13h-.4zM9 8.7a.22.22 0 0 1-.1-.23.36.36 0 0 1 .1-.21v.43zM0 18.8c.03.01.05.02.06.04.08.05.08.14.02.2a.22.22 0 0 1-.07.05v-.28zM9 15.21c-.04-.04-.06-.1-.04-.17a.27.27 0 0 1 .05-.07v.24zM8.02 1.82a.7.7 0 0 1-.3.53.61.61 0 0 1-.36.11.45.45 0 0 1-.44-.32.66.66 0 0 1 .02-.5.38.38 0 0 1 .16-.19c.08-.04.15-.1.22-.16a.4.4 0 0 1 .49-.01c.1.07.15.17.18.28.02.08.03.16.03.26zM4.68 2.68a.48.48 0 0 1-.34-.15.62.62 0 0 1-.18-.57.67.67 0 0 1 .14-.31.37.37 0 0 1 .3-.15c.07 0 .14.03.19.08.03.03.06.04.1.05.19.02.3.18.34.34.06.29-.17.6-.41.69a.4.4 0 0 1-.14.02zM1.4 2.1c0-.08-.02-.2.02-.31.04-.1.1-.18.2-.22a.2.2 0 0 1 .15.01c.02.01.04.02.06.01a.3.3 0 0 1 .16.04c.08.04.16.07.22.14a.5.5 0 0 1 .14.42.46.46 0 0 1-.2.34.54.54 0 0 1-.45.1.32.32 0 0 1-.2-.16.67.67 0 0 1-.1-.37zM3.29 4.4a.48.48 0 0 1-.49-.52c.02-.18.1-.34.26-.44a.3.3 0 0 1 .22-.05h.14a.4.4 0 0 1 .2.1c.08.07.15.15.18.26.05.16.02.3-.08.44-.1.13-.26.2-.43.2zM5.95 4.23c-.29 0-.48-.18-.49-.43 0-.12.05-.23.12-.33a.54.54 0 0 1 .33-.25c.12-.03.23 0 .33.08.04.04.1.07.12.12a.5.5 0 0 1 .01.54.51.51 0 0 1-.42.27zM8.42 4.1c-.14 0-.26-.05-.34-.18a.4.4 0 0 1-.03-.34.59.59 0 0 1 .37-.38.4.4 0 0 1 .42.07c.07.06.12.13.15.21.03.11 0 .21-.04.3a.56.56 0 0 1-.53.32zM6.67 5.44a.4.4 0 0 1 .21-.34c.02 0 .03-.02.04-.03.16-.15.38-.16.56-.02.14.1.2.25.16.41a.5.5 0 0 1-.36.4.5.5 0 0 1-.54-.19.43.43 0 0 1-.07-.23zM4.65 5.05c.08 0 .15.02.2.06l.19.1c.17.13.21.33.1.51a.5.5 0 0 1-.73.15.42.42 0 0 1-.16-.3.47.47 0 0 1 .14-.41c.07-.08.16-.11.26-.11zM2.06 6.04c-.21-.01-.37-.1-.46-.3a.37.37 0 0 1 .09-.41l.18-.14a.27.27 0 0 1 .2-.05c.12.02.23.05.32.13.11.1.16.22.14.38-.03.2-.16.31-.34.38a.51.51 0 0 1-.09.01h-.04zM3.9 6.91c0 .12-.06.22-.14.3-.1.1-.22.15-.36.15-.19 0-.36-.1-.41-.28-.06-.16.03-.43.23-.5.05-.02.1-.02.16-.02h.03c.18-.1.36.01.44.16.03.06.05.12.05.2zM8.02 10.42a.45.45 0 0 1-.25-.08.3.3 0 0 1-.12-.33c.05-.2.17-.34.36-.4.22-.07.46.04.53.25.05.13.02.24-.06.34a.57.57 0 0 1-.46.22zM.33 7.1c0-.27.23-.42.45-.32h.07c.14.03.26.08.35.2.12.17.05.4-.15.5-.2.1-.37.06-.54-.06a.44.44 0 0 1-.18-.32zM5.88 7.25a.48.48 0 0 1-.34-.16.33.33 0 0 1-.07-.3c.03-.13.1-.23.23-.28a.9.9 0 0 1 .22-.07c.05 0 .1 0 .14.02.11.05.2.14.24.25.06.14.02.27-.07.39-.09.1-.2.15-.35.15zM4.7 9c-.17-.02-.3-.08-.38-.24-.09-.2 0-.43.22-.5l.05-.03c.17-.1.4-.03.49.13.17.28-.02.58-.3.62L4.7 9zM5.86 10.37c-.05 0-.11 0-.17-.03a.32.32 0 0 1-.2-.26c-.03-.13 0-.24.11-.32a.48.48 0 0 1 .18-.09.52.52 0 0 1 .34 0c.15.06.23.22.2.37a.4.4 0 0 1-.23.28.53.53 0 0 1-.23.05zM8.2 7.32a.36.36 0 0 1-.37-.36c0-.2.2-.43.41-.42a.5.5 0 0 1 .3.14c.1.08.12.18.1.3a.44.44 0 0 1-.23.28.44.44 0 0 1-.21.06zM6.98 8.87c-.11 0-.2-.05-.28-.12a.3.3 0 0 1-.11-.2c0-.04 0-.07.02-.11a.9.9 0 0 1 .05-.14c.06-.1.16-.16.28-.18a.4.4 0 0 1 .4.16c.09.1.09.27 0 .4a.44.44 0 0 1-.36.2zM3.66 10.4c-.2 0-.35-.11-.38-.28v-.03c-.01-.07 0-.14.01-.2.02-.1.09-.15.17-.18a.5.5 0 0 1 .4 0c.2.1.27.34.13.53a.42.42 0 0 1-.33.17zM1.35 10.07c0 .17-.11.3-.27.34a.37.37 0 0 1-.43-.2.24.24 0 0 1-.03-.1A.27.27 0 0 0 .6 10a.23.23 0 0 1 .11-.3.4.4 0 0 1 .35 0c.12.06.22.13.27.26.02.04.02.08.02.11zM2.44 11.87a.54.54 0 0 1-.26-.07c-.15-.09-.18-.23-.11-.38.06-.14.3-.27.5-.2.08.03.16.08.2.15.12.15.08.34-.1.44a.49.49 0 0 1-.23.06zM1.22 13.26a.58.58 0 0 1-.32-.12c-.1-.07-.17-.25-.1-.37a.3.3 0 0 1 .3-.14c.04 0 .09.01.13.04.04.02.08.01.12.02.06.02.12.04.17.1.12.1.1.27-.01.37a.44.44 0 0 1-.29.1zM7.69 13.13a.59.59 0 0 1-.25-.07c-.13-.07-.17-.22-.08-.35.07-.12.25-.19.37-.15h.08c.07 0 .15 0 .21.04.15.08.17.25.05.38a.5.5 0 0 1-.38.15zM6.82 11.72a.5.5 0 0 1-.27-.08c-.1-.07-.14-.18-.1-.3.06-.13.16-.22.31-.24.09 0 .18 0 .26.03.12.04.2.11.2.24.02.08-.02.15-.07.21-.1.1-.2.14-.33.14zM2.62 8.72c0 .11-.05.2-.13.26-.15.12-.4.1-.5-.06a.25.25 0 0 1-.05-.22v-.1c.02-.11.08-.18.18-.2.19-.07.42.05.48.22.02.03.03.07.02.1zM2.08 14.13c0-.14.07-.23.18-.26a.64.64 0 0 1 .25-.03c.09 0 .16.04.23.1.11.1.11.25 0 .35a.48.48 0 0 1-.57 0 .23.23 0 0 1-.09-.16zM4.85 11.78a.33.33 0 0 1-.25-.11.24.24 0 0 1-.04-.24c.04-.16.2-.27.36-.27.07 0 .14.02.18.08.05.07.1.15.1.25.01.1-.05.18-.13.23a.4.4 0 0 1-.22.06zM7.45 15.33c-.05 0-.1 0-.13-.02-.1-.03-.18-.1-.2-.2-.03-.12.02-.2.1-.28.1-.07.21-.1.34-.07.07.02.12.06.14.14l.03.03c.1.06.12.18.04.27-.09.1-.2.12-.32.13zM5.86 13.14a.64.64 0 0 1-.21-.04c-.08-.04-.14-.1-.15-.18 0-.1.03-.16.1-.21a.31.31 0 0 1 .18-.06c.06 0 .13-.02.2-.01.04 0 .08.01.12.04.15.07.17.25.04.36a.43.43 0 0 1-.28.1zM5.67 15.32a.54.54 0 0 1-.2-.03c-.15-.07-.19-.2-.1-.35a.37.37 0 0 1 .4-.14l.03.01.17.13c.1.08.08.2-.02.29a.44.44 0 0 1-.28.1zM3.78 13.14a.33.33 0 0 1-.23-.1c-.1-.1-.09-.24.02-.34.1-.1.22-.11.35-.07l.1.04c.1.04.16.13.15.22-.01.08-.06.14-.13.19a.48.48 0 0 1-.26.06zM6.59 14.3c-.05 0-.12-.01-.17-.03-.08-.04-.14-.09-.15-.17 0-.1.04-.16.1-.21a.2.2 0 0 1 .1-.04l.15-.05a.3.3 0 0 1 .23.03c.16.08.18.26.04.37a.48.48 0 0 1-.3.1zM4.67 13.87c.06 0 .13.02.19.05.16.08.18.27.03.37a.4.4 0 0 1-.45.01c-.11-.07-.13-.2-.05-.3.07-.09.16-.13.28-.13zM3.64 15.45a.42.42 0 0 1-.2-.05.2.2 0 0 1-.08-.27c.08-.17.38-.23.52-.1a.3.3 0 0 1 .08.12c.03.08 0 .15-.05.2a.4.4 0 0 1-.27.1zM6.47 16.24c-.06 0-.13 0-.2-.03-.06-.03-.12-.07-.13-.15 0-.07.03-.13.09-.17a.24.24 0 0 1 .12-.06c.08 0 .16-.04.25-.03.07.01.13.03.19.08.07.06.07.15.02.22a.35.35 0 0 1-.2.13.56.56 0 0 1-.14.01zM4.52 16.33a.39.39 0 0 1-.23-.07c-.06-.04-.1-.1-.1-.2.02-.08.07-.14.16-.17a.3.3 0 0 1 .16-.01c.06 0 .13 0 .2.04.05.02.1.05.13.11.04.07.02.17-.06.22a.43.43 0 0 1-.26.08zM1.64 17.47a.4.4 0 0 1-.25-.08c-.12-.09-.1-.23.02-.31l.04-.02c.08-.03.16-.06.25-.05.1.02.18.07.24.16.05.08.03.16-.04.22a.39.39 0 0 1-.2.07h-.06zM3.62 17.47a.38.38 0 0 1-.22-.06c-.06-.04-.1-.1-.1-.18.01-.08.06-.13.13-.16a.3.3 0 0 1 .17-.03h.07c.1 0 .19.02.25.11.05.07.05.15-.01.21a.39.39 0 0 1-.3.11zM2.55 15.86c.05 0 .1 0 .13.02.07.03.11.07.13.14l.02.1c0 .06-.03.1-.08.13a.38.38 0 0 1-.4.04c-.07-.03-.12-.08-.12-.17 0-.09.04-.15.11-.2a.37.37 0 0 1 .21-.06zM8.5 14.21a.36.36 0 0 1-.2-.06.15.15 0 0 1-.05-.18c.08-.2.33-.27.5-.14.1.06.1.19.02.28a.35.35 0 0 1-.27.1zM7.23 17.44c-.08 0-.16 0-.23-.05-.12-.05-.13-.17-.03-.25a.34.34 0 0 1 .21-.07l.07-.01c.1-.03.2 0 .26.1.05.06.05.12 0 .18-.08.08-.18.1-.28.1zM.55 16.5a.34.34 0 0 1-.26-.11c-.08-.1-.06-.22.04-.28.07-.05.14-.05.22-.04.1.02.17.05.22.13.07.1.05.2-.06.26a.33.33 0 0 1-.16.03zM1.37 14.91c.06.01.14.02.21.06.13.07.14.22.01.3a.35.35 0 0 1-.39-.01c-.11-.1-.1-.26.05-.33a.28.28 0 0 1 .12-.02zM8.13 16.31c-.05 0-.1 0-.14-.03-.06-.03-.08-.07-.07-.13.01-.05.03-.1.07-.13.09-.08.2-.13.32-.1.04.01.09.03.12.06.08.08.08.17 0 .24a.45.45 0 0 1-.22.09h-.08zM6.2 18.3c-.05 0-.1 0-.14-.02-.07-.02-.12-.08-.12-.14 0-.07.04-.13.11-.15.1-.02.19-.05.29-.04.06 0 .11.03.15.07.07.05.07.13.01.19a.3.3 0 0 1-.15.07.57.57 0 0 1-.15.02zM5.44 18.8c.1 0 .17.03.23.09.07.06.06.15-.02.2a.23.23 0 0 1-.07.04.51.51 0 0 1-.28.01.2.2 0 0 1-.05-.02c-.1-.05-.1-.14-.02-.21l.04-.05c.05-.04.11-.05.17-.06zM2.59 18.33c-.06 0-.1 0-.15-.03-.06-.03-.1-.07-.1-.13 0-.07.03-.11.09-.15a.18.18 0 0 1 .06-.03c.09-.01.17-.03.26 0 .07.04.1.1.1.17s-.04.11-.1.14a.44.44 0 0 1-.16.03zM5.57 17.39c-.06 0-.13-.01-.19-.06-.06-.04-.07-.12-.02-.18a.3.3 0 0 1 .38-.06l.06.04c.06.06.06.12 0 .18-.04.05-.12.08-.23.08zM4.53 18.29a.3.3 0 0 1-.17-.06c-.09-.07-.09-.18.02-.23.1-.06.22-.08.34-.01.08.04.1.12.07.19a.21.21 0 0 1-.13.09.38.38 0 0 1-.13.02zM7.07 18.8c.07 0 .13 0 .17.05.06.06.06.13 0 .19-.07.08-.17.1-.27.08a.24.24 0 0 1-.12-.04c-.08-.05-.08-.13-.02-.2.05-.04.17-.09.24-.09zM3.69 18.82c.06 0 .12.02.18.05.06.05.07.13 0 .19a.29.29 0 0 1-.33.02c-.04-.03-.06-.07-.04-.12 0-.04 0-.07.04-.1a.3.3 0 0 1 .15-.04zM1.53 19.1c-.08 0-.16-.03-.2-.1-.04-.06-.02-.11.02-.15a.24.24 0 0 1 .31.02l.05.04c.04.05.04.1-.01.14a.26.26 0 0 1-.17.05zM7.9 18.32c-.04 0-.08 0-.12-.03-.07-.04-.09-.1-.03-.18a.23.23 0 0 1 .04-.04c.01 0 .03-.01.01-.03l.01-.01c.07 0 .14-.02.2 0 .06.01.12.03.12.1.01.05-.02.1-.07.14a.3.3 0 0 1-.16.05zM.69 18.28a.26.26 0 0 1-.18-.06c-.07-.06-.06-.14.01-.19.1-.08.3-.01.35.07.03.06.02.1-.03.14a.28.28 0 0 1-.15.04zM8.65 19.06a.3.3 0 0 1-.17-.06c-.06-.03-.06-.09-.02-.14.05-.04.1-.05.16-.07.08-.01.15 0 .2.04.07.04.07.11.01.16a.27.27 0 0 1-.18.07z"/>
</svg>
