<?xml version="1.0" encoding="utf-8"?>
<!-- Generator: Adobe Illustrator 23.0.1, SVG Export Plug-In . SVG Version: 6.00 Build 0)  -->
<svg version="1.1" id="Layer_1" xmlns="http://www.w3.org/2000/svg" xmlns:xlink="http://www.w3.org/1999/xlink" x="0px" y="0px"
	 viewBox="0 0 27 200" style="enable-background:new 0 0 27 200;" xml:space="preserve">
<style type="text/css">
	.st0{fill:#190B0A;}
	.st1{fill:#D6CFFF;}
	.st2{fill:#EE296E;}
	.st3{fill:#F1AB4B;}
	.st4{fill:#A20F23;}
</style>
<path class="st0" d="M4.336,168.215l3.402-2.041l10.112-1.15l5.937,4.528l-0.071,0.868l-1.431,1.314l-4.106,1.08l-7.344,0.868
	l-3.989-1.103C6.846,172.579,4.336,168.215,4.336,168.215z"/>
<path class="st1" d="M4.57,167.7c0,0.07-0.05,0.1-0.09,0.14c-0.79,0.19-1.55,0.46-2.28,0.82c-0.5,0.24-0.93,0.61-1.36,1.06
	c0.16-0.27,0.55-0.65,0.88-0.88c0.32-0.22,0.66-0.39,1.01-0.53c0.6-0.25,1.2-0.46,1.84-0.6V167.7z M25.02,174.28
	c-0.2,0.19-0.45,0.3-0.7,0.42c-0.97,0.44-1.99,0.7-3.03,0.9c-1.73,0.34-3.49,0.56-5.25,0.73c-3.222,0.308-6.472,0.18-9.66-0.38
	c-1.461-0.245-2.862-0.764-4.13-1.53c-0.02-0.02-0.07-0.02-0.06-0.1l0.65,0.35c0.9,0.5,1.88,0.79,2.87,1.03
	c0.896,0.213,1.804,0.366,2.72,0.46c1.55,0.18,3.11,0.24,4.68,0.22c1.41-0.03,2.83-0.13,4.24-0.3c0.94-0.11,1.88-0.22,2.82-0.37
	C21.863,175.547,23.509,175.061,25.02,174.28z"/>
<path class="st1" d="M23.8,170.68c0-0.03,0.01-0.05,0.04-0.07c0.55,0.11,0.7,0.9,0.43,1.32c-0.12,0.19-0.27,0.34-0.44,0.48
	c-0.22,0.18-0.46,0.32-0.7,0.43c-2.13,1.021-4.434,1.629-6.79,1.79l-1.3,0.13c-0.096,0.011-0.193-0.007-0.28-0.05l0.76-0.08
	c1.615-0.118,3.215-0.386,4.78-0.8c1-0.3,1.95-0.7,2.89-1.14c0.32-0.15,0.6-0.35,0.85-0.61c0.218-0.237,0.304-0.567,0.23-0.88
	C24.236,170.946,24.049,170.74,23.8,170.68L23.8,170.68z M10.7,175.18c-0.47-0.05-0.92-0.1-1.37-0.13c-0.65-0.05-1.29-0.1-1.92-0.25
	c-0.3-0.06-0.59-0.15-0.87-0.26c-0.702-0.26-1.278-0.779-1.61-1.45c-0.12-0.21-0.2-0.43-0.3-0.65c-0.1-0.21-0.2-0.41-0.33-0.6
	c-0.28-0.4-0.62-0.65-1.08-0.8c0.2-0.03,0.23-0.03,0.4,0.06c0.46,0.26,0.8,0.63,1.02,1.09l0.28,0.62
	c0.344,0.822,1.026,1.456,1.87,1.74c0.57,0.2,1.15,0.29,1.75,0.36c0.63,0.08,1.26,0.12,1.9,0.19c0.08,0,0.17,0,0.27,0.08H10.7z"/>
<path class="st1" d="M24.01,169.54v-0.1c0.6,0.29,1.2,0.62,1.7,1.08c0.33,0.32,0.41,0.68,0.24,1.11c-0.2,0.5-0.57,0.8-1.01,1.04
	c-0.58,0.3-1.17,0.57-1.77,0.79c-0.26,0.1-0.52,0.18-0.8,0.23c0-0.05,0.04-0.05,0.06-0.06c0.86-0.23,1.66-0.61,2.44-1.02
	c0.476-0.211,0.845-0.609,1.02-1.1c0.1-0.32,0.06-0.6-0.17-0.84c-0.51-0.453-1.082-0.83-1.7-1.12L24.01,169.54L24.01,169.54z
	 M3.76,168.96c0,0.06-0.04,0.1-0.07,0.14c-0.47,0.17-0.92,0.39-1.35,0.66c-0.64,0.42-0.8,1.15-0.4,1.82
	c0.07,0.13,0.17,0.26,0.27,0.4c-0.2-0.1-0.41-0.36-0.49-0.63c-0.19-0.65-0.1-1.24,0.54-1.64C2.73,169.4,3.23,169.16,3.76,168.96z
	 M23.76,168.08c-0.03-0.03-0.04-0.06-0.03-0.1c0.7,0.24,1.34,0.6,1.89,1.1C25.049,168.663,24.423,168.326,23.76,168.08z
	 M2.69,172.38l0.5,0.26C2.999,172.612,2.823,172.52,2.69,172.38z M2.53,172.3c-0.08-0.05-0.18-0.07-0.22-0.18
	C2.44,172.13,2.47,172.24,2.53,172.3z"/>
<path class="st2" d="M4.62,168.27c0.044-1.041,2.592-3.908,9.629-3.927c8.74-0.023,9.608,3.379,9.401,5.407l-0.32,0.46
	c-0.4,0.55-0.93,0.87-1.6,0.95c-0.37,0.05-0.74,0-1.1-0.03c-0.48-0.04-0.91,0.06-1.32,0.3c-0.2,0.13-0.4,0.26-0.57,0.43
	c-0.395,0.439-1.023,0.583-1.57,0.36c-0.6-0.2-1.2-0.14-1.78,0.13c-0.3,0.15-0.63,0.26-0.95,0.39c-0.704,0.262-1.482,0.24-2.17-0.06
	c-0.178-0.066-0.351-0.143-0.52-0.23c-0.39-0.21-0.8-0.33-1.23-0.45c-0.506-0.183-1.059-0.19-1.57-0.02
	c-0.13,0.05-0.15-0.03-0.18-0.13s0.04-0.14,0.1-0.2c0.229-0.249,0.254-0.623,0.06-0.9c-0.08-0.11-0.06-0.19-0.03-0.3
	c0.09-0.37-0.03-0.69-0.31-0.87c-0.12-0.08-0.28-0.06-0.37-0.14c-0.1-0.09-0.04-0.26-0.12-0.37c-0.21-0.28-0.49-0.42-0.84-0.37
	c-0.12,0.02-0.19,0-0.26-0.1c-0.26-0.319-0.693-0.439-1.08-0.3c-0.17,0.06-0.28,0.07-0.4-0.1c-0.06-0.08-0.18-0.1-0.29-0.1
	c-0.15-0.01-0.47,0.12-0.62,0.17C4.61,168.27,4.62,168.27,4.62,168.27z M19.37,167.1c-0.126-0.07-0.266-0.111-0.41-0.12
	c-0.511-0.067-1.006-0.227-1.46-0.47c-0.84-0.4-1.7-0.44-2.55,0c-0.08,0.03-0.17,0.07-0.25,0.12c-0.37,0.2-0.75,0.26-1.16,0.2
	c-0.477-0.102-0.973-0.081-1.44,0.06c-0.3,0.11-0.63,0.1-0.96,0.05c-0.45-0.05-0.89-0.2-1.35-0.22c-0.52-0.03-1,0.06-1.4,0.43
	L8,167.44c-0.2-0.18-0.22-0.25-0.1-0.46c0.08-0.16,0.22-0.28,0.36-0.4c0.06-0.04,0.14-0.05,0.16-0.18
	c-0.34,0.15-0.58,0.37-0.76,0.66c-0.09,0.14-0.05,0.3,0.04,0.43c0.18,0.25,0.42,0.4,0.73,0.45c0.1,0.01,0.2,0.01,0.29,0.03
	c1.13,0.23,2.28,0.33,3.43,0.3c0.8-0.02,1.61-0.1,2.42-0.13c0.85-0.02,1.7-0.09,2.53-0.2c0.76-0.1,1.52-0.13,2.22-0.48
	c0.3-0.14,0.46-0.34,0.5-0.65c0.036-0.293-0.116-0.577-0.38-0.71c-0.2-0.12-0.43-0.2-0.67-0.24c-0.04,0-0.1-0.05-0.14,0.05
	c0.12,0.08,0.26,0.1,0.4,0.15c0.15,0.06,0.3,0.12,0.42,0.23C19.7,166.53,19.65,166.95,19.37,167.1L19.37,167.1z M8.56,166.36v0.02
	l0.02-0.01L8.56,166.36L8.56,166.36z"/>
<path class="st3" d="M23.55,170.26c0.424,2.249-6.333,4.241-12.504,4.173c-2.135-0.023-3.803-0.919-4.757-1.736
	c-0.287-0.246-0.07-1.267-1.795-2.182c-1.226-0.65-0.393-2.018,0.026-2.224L5,168.24c0.19-0.02,0.36-0.04,0.49,0.15
	c0.14,0.2,0.14,0.2,0.36,0.1c0.34-0.16,0.84-0.04,1.03,0.24c0.13,0.2,0.13,0.2,0.36,0.15c0.37-0.07,0.73,0.18,0.76,0.54
	c0.01,0.15,0.07,0.22,0.22,0.23c0.12,0,0.22,0.06,0.31,0.13c0.23,0.2,0.28,0.41,0.15,0.72c-0.07,0.15-0.1,0.27,0.08,0.36
	c0.1,0.06,0.11,0.18,0.1,0.28c-0.03,0.2-0.1,0.37-0.3,0.47c-0.07,0.04-0.17,0.1-0.12,0.19c0.1,0.14,0.04,0.24-0.03,0.35
	c-0.05,0.09,0.01,0.15,0.12,0.12l0.27-0.08c0.4-0.11,0.8-0.24,1.23-0.14c0.49,0.1,0.97,0.23,1.41,0.45
	c0.33,0.17,0.67,0.32,1.02,0.44c0.5,0.16,0.98,0.2,1.5,0.1c0.526-0.12,1.039-0.295,1.53-0.52c0.56-0.24,1.11-0.3,1.7-0.12
	c0.56,0.18,1.08,0.1,1.54-0.3c0.23-0.2,0.46-0.37,0.71-0.53c0.39-0.24,0.8-0.34,1.26-0.28l0.56,0.07c0.7,0.05,1.32-0.14,1.86-0.58
	C23.3,170.63,23.42,170.43,23.55,170.26z"/>
<path class="st4" d="M19.37,167.1c0.29-0.15,0.33-0.57,0.08-0.8c-0.122-0.108-0.265-0.19-0.42-0.24c-0.14-0.05-0.28-0.07-0.4-0.15
	c0.03-0.1,0.1-0.06,0.14-0.05c0.24,0.04,0.46,0.11,0.67,0.23c0.28,0.16,0.4,0.41,0.37,0.72c-0.03,0.3-0.2,0.5-0.49,0.65
	c-0.7,0.35-1.47,0.38-2.22,0.48c-0.84,0.11-1.68,0.18-2.53,0.2c-0.8,0.02-1.61,0.1-2.42,0.13c-1.16,0.03-2.3-0.07-3.43-0.3
	l-0.29-0.04c-0.3-0.04-0.55-0.19-0.73-0.45c-0.1-0.13-0.13-0.28-0.04-0.43c0.18-0.29,0.42-0.5,0.76-0.65
	c-0.02,0.13-0.1,0.14-0.16,0.18c-0.147,0.107-0.269,0.243-0.36,0.4c-0.12,0.21-0.1,0.28,0.1,0.46c0.01,0.08,0.08,0.08,0.14,0.1
	c0.15,0.11,0.33,0.14,0.5,0.17c1.04,0.17,2.08,0.25,3.12,0.28c0.57,0.01,1.14-0.08,1.7-0.1c1.54-0.035,3.078-0.135,4.61-0.3
	c0.4-0.05,0.8-0.09,1.14-0.33C19.3,167.25,19.38,167.22,19.37,167.1L19.37,167.1z M8.56,166.36l0.02,0.01l-0.02,0.01V166.36
	L8.56,166.36z"/>
<path class="st3" d="M8.14,167.54l0.42-0.34c0.23-0.17,0.5-0.27,0.79-0.3c0.33-0.02,0.66,0.01,0.99,0.09l0.66,0.14
	c0.42,0.09,0.83,0.1,1.24-0.06c0.33-0.13,0.67-0.13,1.01-0.08c0.14,0.02,0.29,0.03,0.43,0.06c0.37,0.07,0.71-0.01,1.04-0.2
	c0.22-0.12,0.45-0.24,0.69-0.34c0.58-0.24,1.15-0.2,1.7,0.06c0.26,0.11,0.5,0.24,0.75,0.36c0.3,0.13,0.6,0.2,0.9,0.23
	c0.16,0.02,0.31,0.03,0.45,0.1c-0.34,0.24-0.74,0.29-1.14,0.33c-1.53,0.17-3.06,0.26-4.6,0.3c-0.57,0.02-1.14,0.11-1.7,0.1
	c-1.05-0.03-2.1-0.1-3.13-0.28C8.47,167.68,8.29,167.66,8.14,167.54L8.14,167.54z"/>
<path class="st4" d="M21.76,172.58c-0.97,0.48-2,0.82-3.06,1.06c-0.8,0.18-1.6,0.39-2.4,0.55c-0.65,0.14-1.31,0.22-1.97,0.26
	c-0.67,0.04-1.33,0.12-2,0.14c-1.1,0.02-2.19,0-3.25-0.31c-0.975-0.23-1.895-0.648-2.71-1.23c-0.26-0.2-0.44-0.44-0.48-0.78
	c-0.067-0.34-0.243-0.648-0.5-0.88c-0.194-0.209-0.42-0.384-0.67-0.52c-0.26-0.14-0.5-0.3-0.74-0.48c-0.33-0.28-0.39-0.68-0.35-1.05
	s0.55-1.3,1.5-2.28c0.666-0.692,1.479-1.226,2.38-1.56c1.43-0.47,2.86-0.9,4.36-1.1c1.86-0.24,3.72-0.3,5.58-0.11
	c0.54,0.05,1.05,0.2,1.56,0.35c0.7,0.2,1.41,0.4,2.08,0.7c0.87,0.4,1.61,0.95,2.16,1.76c0.54,0.8,0.98,2.44,0.59,3.5
	C23.47,171.59,22.63,172.16,21.76,172.58L21.76,172.58z M4.04,169.24c-0.1,0.35-0.1,0.63,0.22,0.9c0.13,0.1,0.28,0.2,0.43,0.27
	c0.2,0.1,0.39,0.2,0.56,0.34c0.53,0.43,0.98,0.92,1.05,1.64c0.03,0.23,0.14,0.38,0.3,0.52c0.3,0.23,0.6,0.44,0.95,0.58
	c0.9,0.37,1.83,0.66,2.8,0.75c1.15,0.1,2.29,0.05,3.43-0.03c1.29-0.09,2.57-0.28,3.83-0.6c1.27-0.34,2.54-0.65,3.76-1.15
	c0.658-0.264,1.252-0.666,1.74-1.18c0.6-0.74,0.55-2.02,0.37-2.77c-0.184-0.793-0.611-1.51-1.22-2.05
	c-0.457-0.376-0.97-0.68-1.52-0.9c-0.96-0.41-1.96-0.68-2.98-0.87c-1.01-0.2-2.05-0.16-3.07-0.22c-0.65-0.05-1.29,0.08-1.93,0.16
	c-1.24,0.14-2.47,0.31-3.67,0.7c-0.67,0.2-1.92,0.72-2.72,1.2c-0.947,0.738-1.739,1.655-2.33,2.7
	C4.04,169.23,4.04,169.24,4.04,169.24z"/>
</svg>
