<svg xmlns="http://www.w3.org/2000/svg" viewBox="0 0 650 2650">
  <path d="M479 2526l-2 1-4 4-1 1h-3l-1-2 2-9 1-4-5 2-5 4h-3c-1 1-2-1-2-2l1-3 1-8 2-10 4-5v-1h3v2l-1 2-1 2 5-1c2 0 3 2 4 3l4-2 4-2c2 0 4 0 5 2l3 7 1 7 2 6c0 2 0 4-2 5l-3 2-4 5-3 1-1-2v-5h-1zm-158-15h-5l-6 5c-1 1-2 0-3-1v-2l1-5-4 3-2 1-4 1v-4l2-5 9-12 3-2h2l2-2 8-11c3-2 5-2 7 0v1l4 2v3c1 3-1 5-3 6l-6 2h-3c1 2 0 4 2 6l1 3v11c0 2-1 3-2 3l-2-2-1-1zm26-14c5 2 4 9 5 13l-1 4-16 14-1-3 1-14c1-5 1-9 3-13 1-3 3-5 6-5s3 1 3 4zm48-1l2 2c1 1 2 3 0 4l-2 3c-4 2-6 5-7 9l-1 5c0 2-1 3-2 3-3-2-4-5-4-9-1-4-2-9-1-13 0-3 1-5 4-6l10-2c1-1 2 0 2 1v2l-1 1zm62-14c2-1 4-2 6-1 0 3-2 5-3 6l1 2c2 2 1 6-1 8l-2 1-11 6h-3v-3l3-11 6-7c1-2 2-2 4-1zm28-11c-2 1-4 2-6 1v-3l2-3 9-5c2 0 4 0 5 2l2 4c0 2 0 4-2 4l-7 2-2-1-1-1z" fill="#6d654f"/>
  <path d="M288 2434l37-6 58-55 20 14-25 73-9 7-5 14h-13l-23-7 5 12-22 3 4 7 4-4 4 10 1 12 12-4 5-17 4 6 4 18 12-8 10-3 9 2v-12l8-1 6 5v11l19-11 2-11 5-3-2-13 99-63 42 22-5 8-14 4-9 13-38 4-18 10h-4l-19 11 4 6 1 6-2 7 8-2 9 9 4-6 9 1 2 5 3 6 1 10-3 3h8l7-10 9-6 32-1 56-39 28-29 23-2 1-176-111-12-160-27-54 33-3 9-7-1-16 23-18 14-1 46-5 50 2 31 9 4z" fill="#837c3f"/>
  <path d="M414 2331l3-13c1-8 1-15-1-23v-1c1-1 1 0 1 1 2 3 3 7 3 10l1 14v5l-1 29-2 15 1 10v1c-2 1-6-2-9 0-2 0-3-1-3-2-1-2-3-4-3-7-1-4 0-7 3-10l6-6 2-7v-8h-1c-2 5-6 9-9 13l-8 10-2 2h2l6-1c-1 4-5 8-7 10l-1 1h1c5 2 12 4 15 9l4 1h2l2-2 11-5-1-4c0-1 1-2 3-2l9 2h6l1-7 1-4c2-3 3-5 3-9 2 1 2 3 2 5l-1 4 1 6c1 3 2 6 1 9h3l16-1 9 2 6 3 6 5 3 3v-10l1-3 5-6c3-3 4-7 5-11l1-5 1-1 1 1v3l-1 9-1 7-4 12c0 3-3 5-4 8-3 3-7 4-12 5h-2c-4-3-11-5-17-6h-6l-2 1 7 2 10 4c3 2 5 3 8 3h9c5 0 9-3 11-7 3-4 5-9 5-14l2-21c0-6 1-12 3-17l5-11-2 8-1 14 1 17 4 9 8 11 5 5 3 2 6 5 8 5 1 1c3-1 7-2 6 3v6l-2 7c-1 3-3 4-7 3l-9-1-10-1-11-1-9-1-7-1h-1l-1 2c-1 2-3 2-5 3-2 0-4 0-6 2-3 2-9 5-13 1v1l-4 10v1l-1 4c0 2-2 4-5 3h-7l-5-2h-5l-2 4-4 8-3 2-1 1c-1-1-2 0-3 1l-4 4-4 1c-4 1-6 4-9 6l-5 3 1 9h-1l-4 2-1 1c0 2 0 3-2 4-4 3 1 8-6 10-2 0-3 1-3 2-1 1-1 2-2 1l-2 3v-2l-1 1c-2 2-4 2-5 0-3 2-5 5-5 8l-1 4-1 1-1-1 1-9v-13h1v1h7l1 1v7h1c1-2 3-4 2-6v-6c2 2 4 4 4 6h1l3-2c2 0 3-1 3-3-2-4-1-8 1-10l8-2-3-4-1-7c0-4 0-7 2-9l4-7 3-5 3-4-1-6c-2-3-6-6-11-6l-16 4-3 3-2 4-10 9-3 2c-3 1-4 0-3-3l1-2c0-7 2-13 3-20l4-16v-2l1-4 3-7 10-17 3-2h2v-1c-7-2-14-1-20 1-2 1-4 0-5-1l-4-4c-1-2 0-3 1-4h1l7-9 12-13c6-5 11-11 15-17l1-1-2-15c0-1 0-2 1-1l1 1 1 4 1 5zm22 59h3l2-1 8-3 7-2h2l1-4-9 2c-3 3-7 5-11 6l-3 2zm-10-6l-10 4h6c0-3 1-3 4-4zm45-3l-5-1 5 1zm180 63l-12-2h-3l-6-3-6 6s-27 30-30 36l-8 2-25 13-9 7-8 7-7-1-21 1h-4l-2 1c-1 3-4 4-6 5l-3 1v1l-1 3-2 2c-1 2-3 3-6 4h-1c-1 1-2 1-3-1l-1 1-4 6-1 1c-2 2-2-2-1-3l7-15c3 0 4 2 2 5l3 1 1-1c3-2 4-4 4-8l2-1h3l4-3 2-5c1-2 2-2 4-2 8 1 16-3 23-6 3-1 4-2 4-5l-1-7 1-1h1l12 4c3 1 5 1 7-1l16-10c3-2 5-5 7-9l4-6 11-7 15-10 13-8c5-2 9-6 13-9l8-6 4-9v32zm-250-110l-4 4-7 10-21 24-10 13c-5 7-10 12-16 16l-9 8-1 3h2l2-2 17-12 5-2 6-2-2 2-6 6-8 5-11 9-7 5-2 1-2 1c2 1 2 2 1 4l-6 5-4 4c-1 2-2 3-5 3-1 2-1 2-4 1-2 2-3 2-5 0v-6l3-3 4-1 5-5v-1c1-4 3-7 6-9l6-7 17-17 10-7c3-6 8-11 12-16l12-14 10-11 9-8 2-2 1 1zm40-2l-4-7c-1-2-2-4-1-6l2-4 3-3c2-2 2-5 2-8 1-10-1-19-4-28s-8-18-13-26c-1-2 1-6 3-3h-1l1 2 5 6c7 9 12 18 16 27l6 27-2 6c-2 6-8 3-10 8l-3 8v1zm141 61l-4 6-2 3-8 11-2 2c-1 2-2 1-3-1l1-2v-3l1-3-1-1c0 1-2 2-3 1-6 0-11-2-16-5-5-4-18-14-14-22v-1l-3-8v-2l2 1 11 19 16 11 6 4 1-6 2-10v-1h1l1 1-1 3-1 12c0 2 1 3 3 2l7-5 5-6h1zm-113-140l1 1c5 4 8 10 10 16l6 23c1 5 3 11 6 16l1 2 2 3c-4 2-10 2-14 2l-3 1-1-1 1-2 4-1 1-2c1-5 0-11-3-16-4-7-6-16-7-24 0-5-1-9-3-13l-1-4v-1zm-133 29l-4 7-5 8-25 56-10 34-3 21h-1c-1-5 0-11 1-16l5-23c6-32 21-62 42-87zm247 18l3 2 4 3c3 5 8 7 11 11l1 1h-5l-4-2c-1 1-2 2-3 1l-1 3h-6l-5 1h-6l-9-3-12-6-2-1c-5 0-10 1-14 3l-9 4h-1l2-2 7-5c6-2 12-4 18-4 2-1 3 0 4 1l5 3 17 5 6 2c2 0 4 2 5-2l-1-4c-1-3-2-6-5-9v-2zm-253 54c-1-5-2-10-1-15l2-14c3-4 4-8 3-12l-3-3h5v1l3-2c1-1 5-6 7-4l17-7c7-2 13-6 19-10l3-3c1-1-10 12-7 13s5 3 7 6l1 1-2-1c-3-3-7-4-11-5-8-1-19 4-26 8l-6 4c-6 9-9 18-10 28l-1 15zm309-75l1 2 3 14 3 6c2 2 2 5 2 8l-2 11 1 8v4l-2-1h-2l-1-1-3-2c-1 1-1 0-2-1l1-7 2-6 2-11-1-2-2-13v-9zm-359 54v-10c3-3 2 7 2 8l3-3c6-8 13-15 20-21 2 3-14 23-16 26l-4 7v2l-2 4c-2 0-4-11-3-13zm68 182l-9 9-3 3-2 1 1-2 3-4c1-3 4-5 6-7l2-4 1-1 1 3c0-2 2-2 4-4v-1l2-1 2-1v-1c2-4 3 2 3 3l3-2 1-3c3-4 7-5 11-3l4 2 1 2c-1 2-3 2-4 2-4-1-7 0-10 2h-1l-1 1-4 1-2-1-4 6h-5zm54-227v-6h1l3 7c2 3 3 6 2 9v8l-1 10c0 3-1 4-2 5l-2-1-2-8v-18l-1-4 2-2zm-49 57l-2 4-2 3c-3 4-7 5-12 4v-1l3-1 4-4 5-10c0-5 3-4 4-2 1-1 1-2 2-1 2 0 2 5 4 6 4 2 1 3-1 5 0 1-1 2-2 1-2 0-3-1-3-2v-2zm-32 165l-4 1-8 6h-2v-2c4-3 7-6 12-8 4-2 0-10 0-13h1l2 5 2 8 4 1 6-2c2 0 2 1 1 3l-5 2-5 3c-2 1-6-2-4-4zm134-183c-1-1-2 0-3 1l-3 5c-4 4-5 9-6 14l-2 11c0 2 0 5-2 8h-3l-3 1h-3l-2-1 1-1 4-1 2-2c1-2 3-4 3-7l3-11 3-6 5-8 2-3 2-2c1 0 2 0 2 2zm60-11l-1-9 1-9v-1l3-5 1-1c2 4 3 9 3 14l-4 8-3 3zm-236 88v5l-1 1c-2-2 1-5-1-7-2-1 0-7 1-9 1-3-1-11 1-13l1-1c3 6 1 16 4 24l3 7 1 1c-2 0-4-2-5-3l-4-5zm90-47c-2 3-5 4-8 6-5 2-10 2-14 2-5-1-9 0-13 1l-1 1c-2 0 8-7 9-8h2c4 2 8 2 12 2 5 0 9-2 12-4h1zm-8-92v1c2 5 22 3 26 3l12 2h-14l-37 4 6-3 3-1 2-4 2-2zm99 58h9l4 1 8 3 4 1-1 1-6 1c-3 0-7 0-10-2l-8-4v-1zm-107 10l1-1 5-8c4-4 9-6 14-7h1v1l-7 6-11 8-1 2-2-1zm157-5c-3 2-7 2-11 2-3 0-7-2-10-5h2c4-2 8-2 12 0l7 3zm0 139c-3 2-5 3-8 3h-8l-2-1-5 2h-3l2-2c2 0 4-1 5-3h3c3 2 7 2 11 2l4-1h1zm-176-202c-5 8-9-8-5-7 3 1 6 3 8 6 1 2-2 1-3 1zm-6 210l1 1v4l7 4v1h-2l-2 1h-5l-2 1h-2l1-2c2-1 3-3 3-5l1-5zm-35-42l-4-1v2l-2-2c-2 2-3 1-3-2 2-5 2-10 2-16h1c4 6-2 13 4 17l3 2h-1zm177 83l-3 3c-4 0-6 2-9 4l-1 1h-2v-1l1-1c2-2 4-5 8-6h6zm10 7l-3 3-7 6c-1 1-1 2-2 1v-2c2-4 5-7 9-8h3zm-189-112v-1l5-4 12-8-1 2-5 5-8 5-2 1-1 1v-1zm164 86c-2 2-7 7-11 7l1-1 5-4 5-6 1-2 1 1v1l-2 4zm196-155h-12 1l4-2 2-1 3 2 2 1zm-196 155h3l4-1h1l-4 3-2 1c-2 1-2-1-2-3zm212-141l-1-2 1 2z" fill="#6e571e"/>
  <path d="M370 2248c2 2 3 5 2 8-2 6-8 2-12 6l-9 2c-2 0-3 1-4-1l-6 1c3 3 0 7-3 4-1-2 0-3 2-4-7 0-12 4-19 6 4 2 4 5 3 8l-1 5 3 2c3-3 7-9 7-12-1 2-3 2-4 0l1-4c3-2 7 0 8 3l-1 6c-1 3-3 6-6 8l-2 2 6 4 4-1c2 0 5-5 7-6-1-3 1-6 4-7 1-1 3 0 4 1 5 5-5 6-6 8-2 2-4 4-4 7-1 2-2 3-4 3l-5 2-2 1c-1 2-3 1-4 0-3-4-9-1-6-8 1-3-3-6-5-4l-6 6-3 2 1 3h1c2-1 6 0 8 3v10l4 2c3-2 9-5 7 2v7h1c2 0 3 1 2 3-1 3-6 3-8 0l-2-6-4-2-1 1-6 3-2-1c-1-2 1-3 4-4l2-2h-3c-4 0-8-3-8-7v-10l-2-3c-1-2-2-2-5-2h-1l3-3c3-2 6 2 7 3l-4-6 5-7 4-6 2-3c3-4 8-3 12-3h2v-6l3-2 7-2h7l4 1h2l5-1 2-1v-5l-6-2-4-3 8-2-2-2 5-2c2 2 1 4 1 6l2 1c1-5 4-5 6-1l2 1zm-57 37h1l6-6v-2l-1-2c-2 0-3 1-3 3l-2 6-1 1zm-3 24l1 1c2 1 4 0 4-2l-2-3-2 1-1 3zm53-55c1 2 3 2 5 0-1-3-3-3-5 0zm-56 31l1 1 6-10c-1-1-2 0-2 1l-5 8zm179-2l-1 4-1 3c-2 2-5 4-8 3h-1l-1 2c-2 4-5 7-10 8l-8-1h-7c-5 1-9 0-13-1h-5c-3 1-6 2-9 1 3-4 10-8 15-7 3 2 6 2 10 2 3-1 10-2 13-1 4 2 9-1 10-5 0-3 2-5 5-4 2 0 5 1 6-2v-3c0-3 2-4 5-4 4 1 8 1 11-1h5c0 3-2 4-5 5-2 1-5 2-8 1h-3zm73-27l-4 1-5 1-5 4c-1 3-3 5-6 6v2c1 4-1 7-3 9l-4 2-8 5-14 11-2 3c0 4-2 6-4 9-2 2-4 2-6 0s-4-2-6-1l-3 1v-3c0-2 2-3 4-4 2 0 5 0 7 2l1 1c2-2 3-4 3-7l3-4 6-5 10-7-4-1c-1 0-2 0-1-1l1-2c2-1 4-2 7-1 3 0 5-1 7-3l1-3v-1c0-2 0-4 2-5 3-2 5-4 6-7 5-5 11-3 17-3v1zm-113 31l1-2c1-2 3-4 5-4l9 1c3 0 6-2 8-4l2-4c2-4 6-7 12-6 2 1 2 1 4-2 1-3 3-5 7-6l34-10 7 2-4 1-23 6-14 4c-1 1-3 2-3 4l-1 3c-1 3-4 5-7 4l-5-1-1 2-4 6-6 5c-3 3-5 3-9 2-3-2-6-2-9-1h-3zm-59-48l1 2-1 4c-2 1-4 0-5-2-2 1-4 0-5-2 0-1 0-2 2-3 5-3 6-5 13-4 3 1 6-4 9-3l15 3c-5 0-11 0-15 2h-1c6 2 14 0 21 2l8 1 10 5 1 1-6-1c-5 0-9-1-13-3h-24c-3-2-6-2-10-2zm130 9c-3 2-6 3-10 3s-7 2-11 4l-12 5-2 1-8 3-6 6-5 3-4 4-4 1c-1 0-2-1-1-3l1-1 10-8c3-2 5-3 6-6l10-3 3-2 10-4 6-2 8-2h1l8 1zm-78 74l2-2 5-5c3-2 6-3 9-2 8 2 15-6 23-5 4-1 6-3 8-6l3-3h2l-7 11c-2 2-3 3-5 3l-10 2-5 2c-3 2-7 3-10 1-4 1-8 2-11 5l-4-1zm105-68l-7 4-4 5-4 8c-2 2-4 4-7 3h-8l-2 2c-1 3-3 3-5 0 0-3 1-5 4-6 4-2 12 1 15-4l5-7 7-6 6 1zm-90-8c0-3 2-5 4-5l12 1c2 0 4 0 5 2s0 4-2 5c-4 3-9-2-13 1l-11 4c-1 0-10 2-11 0l1-2 3-1 8-2 8-2c4-2 9 0 12-2l-6-3-4 1-3 2-3 1zm-68 30l-3 5c-3 4-4-2-5-4-1-3-4-4-8-3h-1c2 1-5-11-5-10 0-3 7-1 8 1l1 1 3 3c3 0 6 2 7 5l2 2h1zm2 13l1-3 1-2 1-2c2-2 3-1 4 1s1 4-1 7l-6 4c0 5-3 13-8 14l-1-2 2-3 3-12-1-2v-1l1-2c2 0 3 1 4 3zm-64 49c3-1 5-1 6 1 1 1 0 3-2 4s-3 0-5-2h-3c-2 2-2 5 1 7 2 1 2 3 1 5l-1 2c-3 2-5 1-6-2v-6c-1-3 0-5 2-7l2-4c2-2 3-2 4 0l1 2zm98-90l2 3c-3 2-6 2-9 1-2 0-2-1-2-3l-4-1v-2l4-1c5-1 10-2 16 0l5 2c0 3-2 3-4 2l-7-1h-1zm-52-15l7-4c1 0 12-4 13-1l8 2-7 3c-4 0-18 5-21 0zm-22 73l-5 1c-2 0-4 1-5 4 0 1-3 5-4 2v-4c1-4 3-5 6-6l8-2c2-1 3-1 3 1v5l-3-1zm67-22c-11-1 2-13 1-1l4-2 2-1 1 1v2c-2 3-4 5-7 6l-2 1-3-2 4-4zm-54 25c0 3 0 5-2 7-1 2-2 3-5 4l-1 1-5 5h-3c-6-6 4-4 6-7l4-5 4-4 2-1zm9-61l-1-3-2-3h-5c-1-1 0-2 1-2l2-3 3-2c2 1 2 3 2 5l4 5h4c1 3-1 4-4 2l-4 1zm-14 50l-2 1h-3v-3l7-4c2-1 3 0 3 2l4 5v2l-2 2c-3-1-5-2-6-4l-1-1zm23-36l2 2 1 2c-1 2-7 0-7-1 0-2 1-3 2-3-2-3-2-4 0-6v-5l3 1 2 2 1 3c-1 2-1 4-4 5zm11-15c1-3 1-3 3-2 10 7-8 9-9 8v-3c1-2 3-3 6-3zm-36 22l6 2c4-1-1 9-4 6l-1-2-3-3c-2-2-1-5 1-6h2v2l-1 1zm56 6c0 1-6 6-5 0 0-2 1-3 4-3v-1c3-3 5-3 6 1-1 3-3 3-5 3zm-75 56l5-2c0 2 0 4-2 6s-5 1-6-1v-3h3zm33-42v3c-2 1-3 1-4-2l1-6h4v4l-1 1zm-61 97l-2 4c-5 2-6-6-1-7 2-1 3 1 3 3zm99-106v1l-2 3-2-2c-2-1-2-3-2-5s1-3 2-2c2 1 4 3 4 5zm-14-20l-3-1c-2-3 6-6 7-4v3l-4 2zm4 7c-1-1-1-3 1-4s4-1 5 1v3l-3 1-3-1zm-23 28l1-4c2-1 3-1 4 1l-2 6h-2l-1-1v-2zm-66 36c-2 0-3-1-3-3 0-9 12 3 3 3zm81-67c2 0 3 1 3 3 0 8-11-3-3-3zm12-15c-7 0 3-11 3-3 0 2-1 3-3 3zm-99 118c4 0 2 6 0 6-4 0-4-6 0-6zm95-100l2 2v2l-2 2c-1 1-2 0-3-1 0-2 0-3 2-4l1-1zm8-16l2 3c0 3-5 3-5 0 0-1 1-3 3-3zm-31 29c-3 0-4-1-5-3 2-2 7 0 7 2l-2 1zm-4 15l2 2c-1 3-3 3-5 0 0-1 1-2 3-2zm7-9l-1 2c-2 3-4-2-2-4l2 1 1 1zm29-21l-2-2c1-2 2-2 4 0l-2 2z" opacity=".6" fill="#005aa0"/>
  <path d="M292 2462c-2 0-10 24-10 26l-11 33c-2 4-9 60-9 60l-3 9-7 12-2 3h-2c-1-1-1-3 1-4l5-11c3-5 4-32 4-32l-1-15s-22 36-30 45l-5 3v-3l5-13 19-32 28-79s5-6 7-5l1 2c2 1 3-1 5-2s5 3 5 3z" fill="#2e444f"/>
  <path d="M292 2463l-2-2-3-1c-3 1-3 3-6 2h-4l-3 4-1-3 2-3 3-9 1-2 2-6 4-5c1-2 2-3 4-3 1 0 16-5 12 3l-6 14-3 12v-1z" fill="#522e56"/>
  <path d="M278 2472l2-4 4-14 3-12c1-4 0-4-2-6l-1-1s18-3 19-1l-4 6c-1 5-2 9-5 14v-1 1l-10 27-13 39-3 13-3 22c-1 9 0 19-2 28-2 7-5 13-10 18l-5 6-1-1 3-4 6-12c3-5 4-11 4-17l1-16 2-15 5-25 13-37c2-3 2-7 3-10 2-9 7-17 11-25 1-3 0-5-2-7s-4 10-5 11c-1 6-4 11-7 17l-3 7v-1zm-20 64v5l-14 22-8 11-8 11-10 9 10-12 23-38 6-15 11-26-10 33zm19-57v1l-5 13h-1l5-14h1z" fill="#1e1e1e"/>
  <path d="M373 2321c3 1 0 28-13 23-12-5 10-24 13-23z" fill="#9a5b17"/>
  <path d="M652 2337c-10-2-20-9-29-13l-17-5-19 1-16 2-9 2h-2l1-2 7-2 24-5c9-1 19 0 28 3 11 3 22 7 32 14v5zm0 111l-16-4-5-1s-23 22-32 34l-4 6-4 2c-6 0-11 2-16 5l-11 8-15 12-1 1c-1 2-3 2-5 2h-9l-13-1h-7c-2 5-5 6-9 6l-6 9c-1 2-2 2-4 2h-5l-3 1-4 6c-1 1-1 2-2 1l-1-1-2-6v-1l-4 3-5 3-1 1h-2v-3l1-11v-1l-4 2-7 3-1 1c-1 0-2 0-1-2l1-7 1-10 1-5h-6l-7 5-1 1-1-1c0-6 0-12 3-18l5-8 1-1 16-10 3-2h4l3-1 7-5 7-5 5-1c6 2 12 1 19 1l12-1 4-2 8-12 3-2 9-2 2-1 3-6h-1c-7-2-13-4-19-4l-19-3c-3 0-5 0-8 2-7 4-15 7-24 8l-3 1-2 3-3 11-3 1h-7l-9-2-8 13-3 3-9 4-17 11-1 1 1 2 1 2c1 2 1 2-1 3-3 1-5 3-6 6v3c0 2 0 4-2 5l-10 6-4 4c-1 1-2 2-4 1h-3l-3 4-1 8v2h-2l-2-3-5-10-1-5-6-1h-5c-3 1-3 4-8 3l-3 2-1 2c-1 2-2 2-4 2-3 1-6 3-8 6l-7 7c-3 0-4-2-3-4v-14l-4 2-4 2-3-1-2-2-5 3-7 3-2 1v-8l-7 3c-2 1-3 0-3-2l2-11 10-14 3-1h1l3-2 10-12 4-1 3 1c6 3 13 5 20 6h8l3-1 2-8v-2c1-3 3-5 5-6 4-1 5-3 5-6l2-11 3-22 2-8 5-10 9-14 3-4h-5l-11 2-5-1-4-4h-1l-10 14c-1 3-3 5-6 6l-15 12-3 2-16 16-5 5-4 3-11 1c-3 0-23 54-23 54-4 13-9 27-11 41l-2 15-1 25-5 15c-5 9-11 16-19 22l-7 2h1l14-24 4-14 2-30-2 2-8 15-11 16-8 8-5 4-8 5h-2c-2 0-2-1-1-2l4-3 6-7 7-15 11-21c5-8 37-99 43-114l1-3-2-2c-3 0-3-2-4-4l-2-23c-1-7 1-16 2-24l2-20 1-10v-3l-1-15 1-19c1-5 1-14 6-17l6-4c4-2 8-6 11-10l11-16c1-3 3-3 5-3l4 1 2-7 5-4 23-15c8-6 15-11 24-15 9-5 26 0 35 2l30 7 24 3 67 11 11 2 19 2 14 1c13 3 26 4 39 5l16 2 20 2v7l-28-3c-32-1-64-5-95-12l-22-3-29-3-39-7-21-3-28-8c-3-1-6-2-9-1l-9 6-29 18-11 6-2 3-1 4h5l4-1 1 1-1 1c-7 2-12 3-20 2l-2 4-10 14-1 5v3s-3-3-5-1l-12 8-2 4-2 12v26l5-9v1l-4 12-1 6-1 8-2 23-2 15v5l3 22c0 2 1 3 3 3 2 2 4 2 7 2l15-3 2-1 5-4 19-20 16-16 12-15 14-15 13-14 12-10-3 4-17 18-14 16-15 19-3 3-39 40c-3 1-3 2-4 4l8-1 2-2 43-38 20-24 19-21 11-13 1-2 1-9v-8l1-2 3 12v7c1 2 0 3-1 4l-11 12-5 6-15 15-4 6-1 1 4 5 9-2h10l10 2 5 2c6-2 14-7 19 0l-5-1-4 1 1 1 5 2h3l9-5 15-5 7-1h18l9 3h-2c-8-1-16-2-24 0l-9 3-17 8-4 3h-3l-2-1-10-5h-6c-3 1-6 1-8-1l-5-2-2 4-10 17-2 2-4 19-3 20-1 7-1 2 4-1-4 4-5 4-4 5-5 12-1 2-1-1h-2l-8 1h-3l-1-1h2c-7-1-13-5-20-7l1 7c-2 0-2-2-2-3l-2-4-9 10 7-1h7l7-1 6-1c0 2-1 2-2 2l-12 3-11 2h-3l-4 1v3l-3-3c-5 6-10 12-12 20l7-3 2-2c0-4 2-7 5-9l5-7h13l9 1 4-1c4-2 9-4 14-4h1l-8 4-8 4 2 5c-1-1-2-3-4-3l-1 2-4 19v9l2-2 9-9v-2l-1-8v-2l1 1 1 5 1 2v-3h1l1 7 4-5 4-5v3h4l3-2 3-1h9v-6c1-2 1-4 3-4l1-1 9-12 1-3v-2l4-3h1v1l-2 3c-1 1-2 1-2 3l3 1v4l-1-3c-3 5-6 8-10 11l3 1-5 2c-1 0-2 1-2 3 0 7 1 13 4 19l1 2v-2c0-5 2-8 6-11 2-2 2-3 2-6v-2c2 1 2 2 2 3v4l-2 3 3-1 2-2c1-2 2-3 4-2v-1l7-4c1-1 2-2 1-4l1-6 2-2 5-3-2-5c-1-4-1-8 1-12l10-21 2-1v1l-3 5-6 15c-2 3-2 6-2 10l2-1c6-5 13-9 20-12l2-2c3 0 4-2 5-4 3-7 8-12 13-17l5-5-3-2-10-5-5-2h-2l-11 11-1 2-1-2 2-3c2-4 5-7 9-10v-1c-2-1-2-3-3-5l-6-12c-2-4-6-8-10-10l-5-4v-1l3 1c4 1 7 4 10 7l5 5 2 3 4 8c1 4 4 6 8 8l7 3 12 8c2 2 2 4 1 7l-3-5c-4 2-6 5-8 8l12 2 2-3 5-13 6-7h1v2l-3 5c3 0 15-4 20-7h-1l-11-1c-2-1-4-1-5-3-9-7-19-12-29-18l-6-2-1-1 2-1 5 2 7 3c6 4 12 6 18 11l6 4 2 1 9 1h7l15 2 16 2 19 3 4-17-9-2-6-3-9-9c-5-4-8-10-9-16v-16l1-6 1 7 2 12 4 11c3 5 13 13 13 13 4 4 8 3 13 3v-5c0-6 1-13 4-19l3-5 20-18 16-10 7-1h3l-5 4-15 10-17 13c-6 6-9 13-11 21l-2 20v1l22-31-1 2v1l-8 15-17 28-3 8 6-1c0 2-1 2-2 3-3 1-6 3-10 3l-6 1c-3 0-4 2-6 4l-8 11-5 6-1 1c-1-2 1-3 1-6l-20 2-11-1-2 7-2-6-11 7h9l15-1c2 0 3 0 3-2l2-1 6-2h1l-6 4 5-1-4 3c-7 2-14 4-22 3l-7 1-10-1-3 1-8 4-9 6c1 2 3 3 3 5l-4-4c-5 6-6 13-7 19l2-1 7-4 2-1 1-3c1 2 1 2-1 6h1l2-1c0-2 2-3 3-4l9-8 5-6 3-1h8l-1 1-5 1c-3 0-5 2-6 4l-11 11v1l4 6-6-4c-3 7-3 14-5 21h1l8-3 3-3 3-12 4-5c2 0 4-2 5-3l5-5 6-4 5-2h1l-2 2-4 3-13 11 1 2 5-5 10-9c3-2 6-3 10-3h1l-1 1-5 1-2 2-11 9-2 3 2 7-3-5c-2 2-2 4-2 6l-1 16v4l1 4 1-2 7-8v-9l2 6v2c1 2 1 2-1 3l-1 1c4 1 5 0 7-2l2-3c2-2 2-3 2-6v-1c3 2 5 1 7-2h1c-1-2 1-2 2-3h32l2-1 4-3 7-7 19-13 2-1c4-2 8-3 13-3 4-7 10-13 15-19l16-17 26-26 4-14v15l-3 4-15 16 20 4-1 4zm-383 54l-1 1-4 13-1 4c-3 21-3 43-6 64l-6 15-1 3 2-2 6-12c2-4 4-8 3-13l2-14 2-17 2-12c2-10 5-21 9-31l10-30 3-7 11-27v-2c-4 1-9 2-13 1l-4 9-3 8-3 7-8 23-7 19-10 28-7 18c-8 13-14 26-20 39l6-6 13-20c4-7 8-15 13-21v-2l2-9 9-26 1-1zm50-8c-6 6-9 13-11 21h2l5-3c3-2 5-3 8-3v-6l2 6-1 3h1l9-4 4-15h-16l1 8h-1l-3-7zm158 31l1-11 2-11h-2c-1 0-2 0-3 2l-2 5-3 18-1 3 8-6zm-122-173c0-1-1 4-2 1l-1-2v-13l-3 3-5 12-3 2-2 1h-3l1-1-1-1h3l3-2 7-15 1-3 1 1v1l3-3c-1 0 3-5 1-6l1-1 1-1 7-4 2-1c0 2-1 2-2 3l-4 3-3 2-2 4 5-4c3-3 9-7 13-8 2 0 3 1 3 3v11l-3 6-5 4-13 8zm0-4l5-2-2-3-2-3h-1v8zm3-11l2 5c1 2 3 3 5 1-3-1-5-3-7-6zm13-12l2 2-2-2zm148 3l-1 4-4 20-2 17-6 21-4 6-3 3c-3 2-5 2-8 1l-9-2-18-4-6-1 2-1c6-2 16 0 23 2l8 2c2 1 4 0 6-1 3-3 6-7 7-11 5-15 5-31 11-46l4-9v-1zm-113-5h-1c-4-4-5-10-6-15-1-9 0-17 2-25l2-2v2l1 29 2 11zm38 21v1l-1 19c0 3-2 5-5 5l-3-1-5-1-2-1c1-2 9-1 10-1 2-1 3-2 2-3l1-10 2-7 1-1zm-130 54l-5 13c1 1 1 2-1 3l-1-1c-2-2-1-7 1-9l4-4 2-2zm59-54l-3 4-13 9h-6l2-1c5-1 9-4 14-7l6-6v1zm-36-33l-3-1 5-2 7-4 4-1-2 2-8 5-2 2-2 4 1-5zm317 30l-2 2c-2 1-4 2-6 1l-7-1-1-1 15-1h1zm-355-23l1-3 5-6c2-2 2-5 1-8v-1l1 7c0 2-6 9-7 10v1h-1zm209 162c3-2 7-3 11-3-2 2-7 4-11 3zm-9-3c-2 1-5 3-8 3 2-2 4-3 8-3zm-109 18h2-2zm-121 7v-1 1z" fill="#272400"/>
  <path d="M364 2333c3 1 1 6-2 5s-1-6 2-5zm0 7c2 2-3 4-3 1 1-1 2-2 3-1z" fill="#ffffcb"/>
</svg>
