<svg xmlns="http://www.w3.org/2000/svg" viewBox="0 0 27 200">
  <style>
    .st0{fill:none;stroke:#4a2209;stroke-width:.2224;stroke-linecap:round;stroke-linejoin:round;stroke-miterlimit:10}.st2{fill:#af7200}.st3{fill:#ce0100}.st4{fill:#680100}.st5,.st6{stroke-width:.1483;stroke-miterlimit:10}.st5{stroke-linejoin:round;fill:#af7200;stroke:#4a2209}.st6{fill:#ce0100;stroke:#680100}
  </style>
  <path class="st0" d="M13.31 79.12c.52.36 1.45.83 1.8.87-.02.43.04.86.04.86"/>
  <path d="M30.99 86.42c-8.66-2.92-11.12-4.68-32.25-6.35v-.97c21.13 1.67 23.59 3.2 32.25 6.1v1.22z" fill="#5fb13a" stroke="#484d00" stroke-width=".3" stroke-miterlimit="10"/>
  <path class="st2" d="M5.55 75.64c.01.04.03.08.07.1l.86.46c.06.03.19.01.24.04.07.04.04.12.1.15l.73.42c.03.02.22.03.24.04.07.04.06.16.11.2.82.56.48.6 1.06.44.64-.17.54-.4.54-.4l-1.31-.62c-.05-.02-.14.06-.2.04-.05-.03-.06-.16-.12-.18l-.8-.39c-.06-.03-.15.07-.21.04s-.08-.18-.14-.2l-.83-.41c-.03-.02-.07-.01-.1 0"/>
  <path class="st3" d="M6.68 76.24l.91.65c-.15-.25-.64-1.18-.9-.65h-.01zm-.8-.8c-.2 0-.28.06-.23.23l-.17-.1.2-.2.2.07z"/>
  <path class="st4" d="M5.8 75.44h.08c.13-.01.26 0 .38.03l-.34-.17c-.05-.03-.1-.02-.15 0l.03.14zm-.15.23a.17.17 0 0 1-.03-.05c-.04-.08-.17 0-.14.06.02.05.05.1.1.12l.34.19s-.25-.17-.27-.32z"/>
  <path class="st5" d="M12.84 77.45c.1-.2.23-.37.43-.37s.8.54.8.75c0 .2-.18.61-.18.61"/>
  <path class="st6" d="M13.43 78.08s.62.19.7.32c.17.3-.5 1.61-1.26.86"/>
  <path class="st2" d="M13.77 78.55c-.08.02-.11.2-.02.26.06.04.13.02.17-.03v-.01l.01-.04c.02-.1-.06-.2-.16-.18zm.03.36c-.04 0-.07.03-.06.06.02.03.07.03.08.01s.01-.06-.02-.07z"/>
  <path d="M5.55 75.64c.01.04.03.08.07.1l.86.46c.06.03.19.01.24.04.07.04.04.12.1.15l.73.42c.03.02.22.03.24.04.07.04.06.16.11.2.82.56.48.6 1.06.44.64-.17.54-.4.54-.4l-1.31-.62c-.05-.02-.14.06-.2.04-.05-.03-.06-.16-.12-.18l-.8-.39c-.06-.03-.15.07-.21.04s-.08-.18-.14-.2l-.83-.41c-.03-.02-.07-.01-.1 0" fill="none" stroke="#4a2209" stroke-width=".15" stroke-linejoin="round" stroke-miterlimit="10"/>
  <path class="st5" d="M12.78 77.39c-.24.05-.77 1.2-.54 1.66.14.25.54.38.67.3s.84-.85.81-1.23c-.03-.37-.44-.84-.94-.73zm-.31.4s-.79-.95-1.15-1.09l-.18.07-.1-.15s-1.3.25-1.78.5c-.31.3-.4.47-.42.6.72-.03 1.31.79 3.35 1.06"/>
  <path class="st6" d="M5.78 75.36c-.04.01-.07.02-.1 0-.06-.02-.08-.14-.13-.17-.3-.15-.59-.3-.84-.45-.06-.03-.17 0-.23-.03-.06-.04-.07-.14-.13-.18a9.95 9.95 0 0 1-.99-.67c-.06-.05-.18.02-.23-.02-.05-.04-.03-.2-.07-.24a2.85 2.85 0 0 1-.95-1.68c-.06-.37-.98-.48-.96-.22.02.25.09 1.66.87 2.12l.57.31c.07.04.25-.03.32 0 .06.04.01.18.08.22l1.1.58c.05.03.2-.02.26.01.07.04.06.16.13.2l.76.4c.06.03.18-.01.24.02l.07.08"/>
  <path d="M8.09 76.72c-.1.04-.08.23 0 .26.1.04.22-.02.22-.13 0-.1-.12-.18-.21-.13h-.01zm-.94-.52c-.08.03-.04.2.04.25.09.04.17.01.16-.1 0-.1-.12-.19-.2-.16v.01zm5.26 1.79l-1.15-1.1.38.64c.2.1.74.5.74.5l.03-.04z" fill="#4a2209"/>
  <path class="st0" d="M10.42 78.63c-.26.57-.97.99-.97.99m2.46-1.3s.32.65.35 1.5a4.8 4.8 0 0 0 1.75.68c-.02.43.23.8.23.8"/>
  <path class="st4" d="M5.16 75.47c.08-.19-.13-.4-.32-.2m-.92-1.01c-.18.2-.56 0-.45-.28m.35.42c-.07-.01-.13.06-.1.12s.15.08.18.03c.04-.06 0-.14-.08-.15zm-1-1.03c-.24.14-.6-.02-.35-.49m-1.1.17c.55-.14 1.07-.22.58.78m.35-1.28c-.43.09-.5-.22-.35-.4-.28-.21-.68-.19-.4.28.1.17-.18.42-.18.42l-.21-1.28.79.05.35.93zM9.56 84c.11-.9.16-1.88.2-2.83.03-1.32.14-2.63.34-3.94l.01-.08-.07-.03c-.08-.05-.22-.04-.3.02-.43.47-.88.58-1.36.69-.64.14-1.3.29-1.9 1.22l-.01.04c-.11.53-.08 1.05-.12 1.52-.05 2.85 2.38 8.27 2.97 5.55.12-.72.3-1.46.24-2.15V84zm-1.45-2.18c.43.6-.16 1.33-.3 1.05-.37-.74-.79-1.81.04-2.61-.17.38-.26.82.26 1.56zm7.44 4.3c-.44-.83-1.13-1.6-1.74-2.29l-.38-.43c-.5-.9-.85-2-1.21-3.17-.3-.99-.62-2-1.07-3.04l-.01-.05v-.12l-.02-.03a.2.2 0 0 0-.18-.08h-.04l-.03.04c-.06.08-.1.2-.18.37-.1.27-.25.64-.52.94l-.04.05.03.07c.21.48.42 3.64.54 5.58.61 1.93 2.5 4 4.85 2.16z"/>
  <path class="st3" d="M13.05 77.74c-.19.07-.2.48.03.58.17.06.35-.02.36-.23.02-.25-.18-.42-.4-.35h.01zm.21.69c-.08 0-.14.1-.1.15.05.06.16.05.18 0 .02-.04 0-.14-.08-.15zm-4.82 1.54l-.17-.05c-1.2.49-1.19 1.73-.46 2.95-.33-.85-.9-2.17.63-2.9zm.28 7.23c-.35 0-.94-1.23-1.1-1.68.52.96.84 1.16 1.1 1.21m.62-.23c-.1-.3-.58-.59-.58-.59s.11 1.78-.53 3.55m6.82-3.93c-.14.05-.27.13-.32.26.69 1.3.97 1.54.92 3.1.37-1.18.36-1.98-.6-3.36z"/>
  <path d="M6.57 79.1a9.37 9.37 0 0 0 .36 5.54c.47 1.32-.09 5.25.6 5.26.84 0 2.1-3.3 1.92-5.89m3.89-.54c1.01 1.17 2.66 2.76 2.53 4.4-.1 1.38-.96 2.66-2.7.99s-2.22-2.78-2.26-3.26c-.05-.76-.34-6.57-.65-7.27" fill="none" stroke="#680100" stroke-width=".22" stroke-miterlimit="10"/>
  <path d="M8.29 89.14s.98-2.28.14-5.5c.77-1.63 0-3.13 1.44-6.18.1-.2.12-.34.14-.4 0 0-.95 2.3-1.65 2.88.42 1.61-.25 4.08-1.2 4.51m1.28-.81c.3 0 .67.14.88.29.13.08.24.08.24.08m6.1 4.7c-.01-1.53-.34-2.54-2.83-5-1.09-1.96-2.13-5.26-1.78-6.83m-.03 1.39c-.09.35-.2.5-.28.63.25 1.08.37 2.19.35 3.3.43.92 1.35 3.87 1.19 4.12m-1.19-4.12l-.5.01m2.24 1.5c.36-.12.51-.26.6-.32" fill="none" stroke="#ce0100" stroke-width=".15" stroke-miterlimit="10"/>
</svg>
