<svg xmlns="http://www.w3.org/2000/svg" viewBox="0 0 27 200">
  <path fill="#F94BFF" d="M0 148.7c.3.1.4.3.5.5l1.7 2.8.3 1.4v.3c-.2-1-.5-1.7-1-2.4l-1.1-2-.2-.4H0v-.2zM27 79.4l-.2.3a23.3 23.3 0 0 0-2 2.8l-.2.2v-.3l.1-.3c.7-1 1.5-2 2.4-2.8v.1zM0 160l.2-.1 1-2.8.5-.9.1-.2c.1.1 0 .2 0 .2-.7 1.3-1.1 2.7-1.6 4l-.1.2v-.3zM27 85.2l-2-.5c-.1 0-.3 0-.3-.2H25.6l1.3.5h.2v.2zM27 82.6l-1.6.8-.6.3-.1.1-.1-.1.2-.2 1.1-.6 1.2-.4v.1zM27 87.6l-.5-.7-1.4-1.3-.5-.3h.4l.7.6 1.3 1.4V87.6zM0 153.4c.6 0 1 .2 1.4.5.2 0 .3.1.3.3 0 .1 0 .1 0 0h-.2c-.4-.3-.9-.4-1.3-.6H0v-.2zM0 155.2h.4l.7-.2h.4l-.2.1-1.2.3v-.2zM18 82.6h1c1 0 1.9.1 2.8.3l1 .4.2.3v.1h-.1-.1A4 4 0 0 0 21 83a23 23 0 0 0-3-.4zM8.7 152.1l-1.4.5a49.5 49.5 0 0 0-4 1.6l.2-.1 1.1-.6a32.8 32.8 0 0 1 4-1.4zM21.3 78.1l.6.8c.6.8 1 1.6 1.5 2.5l.4 1.4v.4l-.1-.2c-.1-.8-.5-1.6-.9-2.4a29.8 29.8 0 0 0-1.5-2.5zM6.7 149.2l-.6.5a18.4 18.4 0 0 0-2.7 3.4v.1c-.2 0-.1 0-.1-.2a15.7 15.7 0 0 1 3.4-3.9zM7.3 156.3l-.5-.2-1.6-.5a8.9 8.9 0 0 0-1.7-.4v-.2H4c.4 0 .7.2 1 .3.7.2 1.4.4 2 .8.1 0 .3 0 .4.2zM7.4 160.2l-1.5-2c-.6-.6-1.1-1.3-1.8-1.8l-.8-.5c.2-.1.3 0 .4 0l.8.6 1.7 2 1.1 1.5.1.2zM23.1 85.5l-.5 1.2a28.4 28.4 0 0 0-1 2.4l-.4 1.2V90l.9-2.4.5-1.5.3-.5.2-.1zM18.6 86a6 6 0 0 1 1.5-.8 19.2 19.2 0 0 1 2.5-.8h.1v.1h-.1c-1.2.3-2.4.7-3.5 1.2l-.5.3zM24.1 85.5l.3 1a4 4 0 0 1-.4-1h.1zM2.8 156l.4 1c-.2-.2-.3-.6-.4-1zM2.8 156zM24 85.4z"/>
  <path fill="#FFF353" d="M0 56.7h.2l4-1.4 3-.4h.3c0 .2-.2.1-.3.2-2 .1-4 .6-5.8 1.3-.4 0-.8.2-1.1.3l-.2.1v-.1zM0 59.9l.3-.1A57.6 57.6 0 0 1 5 56h.4l-.2.1a16 16 0 0 0-3.3 2.3L.1 60.1V60zM0 52.6c1.5.1 3 .2 4.5.5.4 0 .8.2 1.2.4 0 .1-.2.1-.4 0l-1-.2a30.3 30.3 0 0 0-4-.5H.1v-.2zM0 49.4l1 .4 1.6.7s.2 0 .1.2h-.2L1.1 50l-.8-.3H.1v-.3zM27 117.5l-.6.8-.6.7s0 .2-.1.1c-.1 0 0-.1 0-.2 0-.2.3-.4.4-.6l1-1v.2zM27 126.2l-1.1-2.9.2.2 1 2.2v.5zM27 114.7c-.3.3-.5.8-.7 1.2l-.3.5v-.3l.5-.9.6-.9v.4zM27 121.8c-.3-.3-.6-.7-1.1-.9h.3l.7.5h.2v.4zM27 119c-.2.1-.6.3-.8.7-.1 0 0-.1 0-.2l.1-.2c.3-.2.5-.5.8-.6v.2zM27 120.3l-.6.1c.2-.1.2-.2.7-.2v.1zM27 108.3v-.1.1zM0 63.3zM9.2 55.7c.2-.1.3 0 .4 0l.7.6c1.2 1 2 2 2.9 3.3l1.8 3.1.9 1.6.2.5-.6-1c-.8-1.4-1.6-2.9-2.5-4.2A16.2 16.2 0 0 0 9.8 56l-.6-.3zM.2 63.2c0-.2.2-.3.3-.4l2.5-3 1.6-1.6c.7-.8 1.4-1.4 2.2-2l.7-.7c.1 0 .2-.2.3 0l-.2.2A94 94 0 0 0 1.2 62l-1 1.1zM17 128.4a81 81 0 0 1 2.8-3.3l1.5-1.7 2.1-2 .8-.7s.2-.2.3 0l-.2.2a94 94 0 0 0-6.4 6.4l-1 1.1zM17.4 111.8l1.1.8a56.8 56.8 0 0 1 4 3.6 13.7 13.7 0 0 1 1.8 2.7v.2l-.1-.1c-.5-1.1-1.2-2-2-2.8-1-1.2-2.3-2.3-3.5-3.3l-1.4-1h.1zM.8 46.6l1 .8a56.8 56.8 0 0 1 4 3.6 13.7 13.7 0 0 1 1.8 2.7v.2l-.1-.1c-.5-1.1-1.2-2-2-2.8-1-1.2-2.3-2.3-3.5-3.3l-1.4-1h.2zM16.5 47.6l-.2.2-3.7 2.6c-1.3 1-2.4 2-3.3 3.2l-.2.3H9c0-.2 0-.4.2-.5l.8-1c1-1.1 2.3-2 3.6-3l2.6-1.7.3-.1zM17.8 51.5L15 52 12 53c-.7.3-1.4.6-2 1.1a2 2 0 0 0-.5.5v-.2l.3-.4c.9-.7 1.8-1 2.8-1.4l4.3-1h1zM15.8 44l-1 1-.8.7-2.3 2.2a13 13 0 0 0-1.9 2.4l-.3.6c0 .1 0 .2-.2.3V51l.5-1 1.3-1.7a55.7 55.7 0 0 1 4.4-4.1l.3-.2zM19.7 108.5l.2.2c.8 1.2 1.7 2.4 2.4 3.7.5.8.8 1.6 1 2.5l.3.9v.4l-.1-.4a18.6 18.6 0 0 0-2.3-5l-1.5-2.1v-.2zM7 51l-.3-.8a15 15 0 0 0-1.8-3.8l-1.8-3H3c.1 0 .2 0 .2.2l1.9 2.7c.8 1.3 1.4 2.7 1.8 4.1v.5zM16.5 122l1-.4a24.6 24.6 0 0 1 6.4-1.5h.3c0 .2-.2.1-.3.1-2.4.3-4.7 1-7 1.7l-.4.2zM6.7 64.9c.3-2.6.8-5.2 1.2-7.7 0-.4 0-.7.2-1l.1-.3v.3l-.8 4.4-.6 4v.2zM23.4 130l1.2-7.6c0-.4 0-.7.2-1l.1-.3v.3l-.8 4.4-.6 4v.2h-.1zM14.6 117.8h2.8a92.1 92.1 0 0 1 4.9.8l.1.1c0 .1-.2.1-.4 0l-1-.2a97.7 97.7 0 0 0-6.4-.7zM26.1 110.7l-.1.6a52.1 52.1 0 0 0-1 7.2V118.8c-.2 0-.2-.1-.2-.2v-2.4l1.1-5 .2-.5zM9.4 45.5v.6a52.1 52.1 0 0 0-1.1 7.2V53.6c-.2 0-.1-.1-.2-.2V51l1.1-5 .2-.5zM6 59l-.1.4-1.5 2.7a100 100 0 0 0-2 4.4l-1 2.3-.2.4c0-.6 4.3-9.8 4.8-10.2zM22.6 124.2v.3l-1.1 2.2-.8 1.6-.7 1.4a121 121 0 0 0-2.1 4.6l.5-1.4.7-1.5a96 96 0 0 1 1.3-2.9l.8-1.4.7-1.5.7-1.4zM13.4 57l.3.2 1 .7 1.9 1.8 2 2 .4.5-.2-.1a89.5 89.5 0 0 0-5-4.7l-.3-.3h-.1zM17 56.5l-1.7-.5a23 23 0 0 0-4.6-.9 3 3 0 0 0-.7.1h-.2v-.1c.4-.1.7-.2 1-.1.9 0 1.7.1 2.5.3l3.5 1 .3.2zM16 125.8l1.3-1.2 2-1.7c.8-.6 1.5-1.1 2.4-1.5l.4-.1-.2.1c-1.2.6-2.3 1.4-3.3 2.3l-2.3 2-.1.1H16zM12 65.7l-.7-2.2c-.5-1.6-1.1-3-1.8-4.5l-.3-.7v-.1h.1c1 2.1 1.8 4.3 2.5 6.4 0 .4.2.7.3 1zM3 154.8c0 .4-.2.7-.5.8a.5.5 0 0 1-.6-.4c0-.3 0-.6.2-.8.1-.2.3-.3.5-.2.2 0 .3.2.4.4v.2zm-.6-.1l-.2.2c0 .2.1.3.3.3 0 0 .2-.1.2-.3 0-.1-.1-.2-.3-.2zM24.3 84.2c0 .4-.2.7-.6.8a.5.5 0 0 1-.5-.4c0-.3 0-.5.2-.8l.5-.2c.2 0 .3.2.4.4v.2zm-.4.2c0-.2 0-.3-.2-.3-.1 0-.2.1-.2.3 0 0 0 .2.2.2l.2-.2zM25 120.6a.6.6 0 0 1-.5-.7c0-.2.2-.4.3-.5l.2-.1c.2 0 .5.2.6.5.1.3 0 .5-.2.7H25zm.2-.8l-.3.1.2.2s.2 0 .2-.2l-.1-.1zM15.1 114.2l.6.1 2.8 1 .8.4v.1h.1v.1h-.2c-1.2-.7-2.4-1.1-3.7-1.5l-.4-.2zM18.3 49l-1.1.5c-1.2.4-2.3.8-3.4 1.4l-.7.4H13v-.1l.4-.3 2-.8 2.5-1s.2-.1.4 0zM23.4 130v1l-.3 1.6-.2 2v1l-.1.2v-.3-1.2l.2-1.5.2-1.6c0-.4 0-.8.2-1.1zM6.7 64.9v1l-.2 1.5-.3 2v1.2c-.2-.1-.1-.2-.1-.3V69l.2-1.5.2-1.6c0-.4 0-.8.2-1.1zM15.8 53.9H12h.1l.7-.2a25 25 0 0 1 3 .2zM12 65.7v-.1c.2 0 .2.2.2.3l.6 2.1v.3l-.8-2.5v-.1zM17.8 51.5c.3-.2.6-.2.9-.2h2c-.8 0-1.6 0-2.5.2h-.4zM16.6 53.8c.9 0 1.8.2 2.6.5h-.4L17 54h-.6l.2-.2zM9.4 45.5l.2-.7.7-1.7c0-.1 0-.2.2-.2v.1c-.5.8-.7 1.5-1 2.3v.2zM26.1 110.7l.2-.7c.1-.5.3-1 .6-1.4l.1-.3-.2.7-.6 1.5v.2zM17 56.5c.6.1 1.7.6 2 .8h-.2l-1.7-.7zM16.5 47.6c.1-.2.3-.2.4-.3l1.2-.7c.1 0 .3-.1.4 0a17.5 17.5 0 0 0-1.8 1h-.2zM16 125.8h.2c-.4.4-.7.8-1.2 1.1l1-1zM14.6 117.8h-.1l-1.7.1.3-.1h1.5zM16.5 122c-.4.3-.8.4-1.1.5l1.1-.5zM18.4 49a3 3 0 0 1 1.1-.4l-1.1.4zM.8 46.6H.6a.6.6 0 0 1-.3-.3l.5.3zM17.4 111.8a.6.6 0 0 1-.4-.3l.4.3zM15.8 53.9v-.1h.3v.1h-.3zM15.8 44s.1-.2.3-.2l-.3.3zM16.1 53.9v-.1h.5l-.2.1h-.3zM16.9 128.5v-.1zM16.9 128.5zM17 111.5zM.3 46.3zM.2 63.2zM16 43.8z"/>
  <path fill="#59B6FF" d="M27 112.4l-.6 1.5-.1.2c-.1 0 0 0 0-.1 0-.4.1-.8.3-1.1l.5-.8v.3zM0 156.2l.3-.1.5-.4s.2-.1.2 0v.1l-.7.7-.2.1v-.4zM27 81.3l-1 .7-.2.1s0 .1 0 0c-.1 0 0 0 0 0 .2-.3.5-.6.8-.7l.5-.3v.2zM0 48.7c.2 0 .4.2.5.3l1.5.8.2.1h-.3L.5 49 .1 49v-.2zM0 54.8h.3l1.3-.3H2l-.7.2-.7.1-.6.2v-.2zM27 83.9h-.8-.1v-.1h.3l.7-.1v.2zM0 154.3h.6v.1l-.2.1H.1v-.2zM0 58.2l.2-.1.2-.2h.1v.1l-.4.4v-.2zM0 152.1h.1s.2 0 .2.2H0v-.2zM27 86.2v-.1-.1.2zM12.9 43l-.9 1.4-1.9 3.3a9 9 0 0 0-.5 1v.2c-.1 0 0 0 0-.1 0-.5.2-1 .4-1.3.8-1.3 1.5-2.6 2.4-3.8l.4-.6zM14 64.7l-1-1.9a37.3 37.3 0 0 0-2.2-4.2v-.3a47.8 47.8 0 0 1 3.2 6.4zM17.2 131.4l.5-1a44.4 44.4 0 0 1 2.8-4.6l.3-.3v.2c-1.3 1.7-2.4 3.7-3.4 5.6h-.2zM.5 66.2l.5-1a44.4 44.4 0 0 1 2.8-4.6l.3-.3v.2C2.8 62.2 1.7 64.2.7 66H.4zM8.3 54.1c.4 0 .7.3.7.7 0 .3-.3.6-.6.6s-.6-.3-.6-.6.3-.8.5-.7zm.3.6l-.2-.1-.1.1.1.2c.1 0 .2 0 .2-.2zM19.3 88l.7-.8a23.5 23.5 0 0 1 2.1-2.1h.2v.1l-.2.2-2.2 2.2-.5.5zM4.6 66.6l.2-1a54 54 0 0 1 1.4-4.3l-.9 2.8-.7 2.5zM21.3 131.8c0-.3 0-.7.2-1a54 54 0 0 1 1.4-4.3l-1 2.9-.6 2.4zM8.3 150.7a27.8 27.8 0 0 0-3.6 1.9l-.2.1v-.1l.7-.6c1-.5 1.8-1 2.8-1.3h.3zM17.2 45.5L14.7 47l-.8.6c-.1 0-.2 0-.2.2h-.2v-.1l.2-.2c1-.8 2.2-1.5 3.4-2l.1-.1zM24 112.1v-.2l-.2-2.7-.3-2.4v-.5.2c.2.7.3 1.5.3 2.2l.2 2.2.1 1.2zM7.3 47v-.3L7 44l-.3-2.4V41v.2c.2.7.3 1.5.3 2.2l.2 2.2.1 1.2zM9.6 66.4L9 63.8c0-.5-.2-1-.3-1.4v-.5l.1.1.8 4v.4zM26.2 131.6l-.5-2.6c0-.5-.2-1-.3-1.4v-.5l.1.1.8 4v.4zM2.2 159.9l-.2-1.7v-1-.3h.2V159.9zM23.4 89.3l-.1-1.7v-1-.3h.2V89.3zM8 158.4l-.7-.5L6 157a.9.9 0 0 1-.3-.3v-.1H6l1.6 1.2.5.5zM18.7 84.5l.6-.3a7.7 7.7 0 0 1 2.5-.5l.1.1-.1.1h-.2c-1 0-1.9.2-2.8.6zM2.5 45.1l1.3 2.3.5.9s.1.1 0 .2A35.6 35.6 0 0 1 2.6 45zM3.5 149c-.3 1-.4 2.1-.6 3.2-.2 0-.1-.2-.1-.3.1-1 .3-1.9.6-2.8h.1zM24.8 78.5l-.7 3.1v-.3c0-1 .3-1.9.6-2.8zM19.1 110.3l1.4 2.3.5.9v.2l-2-3.4h.1zM16 61.2l-1-1-1-1.7-.3-.5h.2c.5 1 1.2 2 2 3v.2zM15.2 125.2l.6-.7 1.2-1.3s.1-.1.2 0l-.1.1-1.4 1.5-.4.4zM7.5 154.3l-2.4.2h-.3c0-.2.2-.2.2-.2a8.7 8.7 0 0 1 2.5 0zM16 120.3c.7-.3 1.5-.5 2.3-.6h.4l-2.4.6H16zM9.6 66.4c.2.3.2.6.2.9l.2 2V69l-.4-2.4v-.1zM26.2 131.6h.1l.2.9.2 2V135.1l-.1-1c0-.8-.2-1.6-.4-2.4v-.1zM19.2 52.8h-1.8l-.3.1H17l.2-.2h2.1zM7.5 47.5V49.3h-.2v-.1c.2-.5 0-1 0-1.4v-.3h.2zM24.1 112.7l.2 1.4-.1.4H24v-.1c.2-.5 0-1 0-1.4v-.3h.1zM19.3 47.4l-.2.1-2 1H17l.1-.2 2.1-.9zM19.8 56.2l-2-.7c.3-.1.3-.1 1 .2.4.1.7.2 1 .5zM19.8 81a6.7 6.7 0 0 1 1.7.6v.1h-.2a15.8 15.8 0 0 0-1.5-.7zM17.3 114.2l1.5.9c0 .1 0 0-.1 0l-1.5-.8zM.9 152.2l.8 1v.2h-.1l-.2-.3-.6-.9zM22.1 81.6l.8 1v.2l-.2-.3-.6-.8zM21.3 131.8l-.3 1.5-.1.5c-.1 0 0 0 0-.1 0-.6.1-1.1.3-1.6v-.3zM19.1 110.3c-.3-.2-.5-.6-.7-.9l-.3-.6h.1l1 1.5zM4.6 66.6l-.3 1.5-.1.5v-.1c0-.6.2-1.1.3-1.6v-.3zM2.5 45.1h-.1c-.3-.2-.5-.6-.7-.9l-.3-.6h.1l1 1.5zM17.2 45.5v-.1l.2-.1 1.4-.7v.1l-1.6.8zM14 64.7h.1l.5 1.4-.6-1.4zM16 120.3l-.4.2-1 .3h-.2l1.5-.5zM17.1 58.2l-.8-.9c.2 0 .6.5.9.8zM17.2 114.3l-1-.7c.2 0 .4.2.5.3l.6.3v.1zM25.3 88.3l-.2-1 .2 1zM4 158.9l-.2-1c.2.2.2.5.3 1zM12.9 43c0-.2.3-.4.5-.7h.1l-.6.8zM19.2 52.8v-.1l1 .1v.1l-1-.1zM23.4 89.3h.1l.1 1-.2-1zM2.2 159.9zM24.7 89.5l-.2-.8.2.8zM3.4 160.1l-.2-.8c.2.1.2.4.3.8zM3.5 149l.4-.8-.2.5-.2.4zM24.8 78.5h-.1c0-.3.2-.6.4-.9l-.1.5-.2.4zM22 81.7l-.4-.7.5.6zM.8 152.2l-.5-.6c.2.2.5.3.6.6zM19.2 88.4l-.5.7c0-.3.3-.6.5-.8zM18 59l-.6-.5v-.1c.3.1.5.3.6.6zM16 61.2l.4.6c-.2-.2-.4-.3-.5-.6zM13.6 42.1l.5-.5a1 1 0 0 1-.5.5zM17.2 131.4h.1c0 .2-.2.3-.3.5l.2-.5zM19.8 81h-.6v-.1l.6.1zM.5 66.2h.1c0 .2-.2.3-.3.5l.2-.5zM17 62.6l-.3-.4c.2 0 .3.3.4.4zM8 158.3l.4.5-.4-.4zM14.6 125.9c0-.2.2-.3.3-.4 0 .2 0 .3-.3.4zM4 158.9c.2 0 .2.2.2.4l-.2-.4zM25.3 88.3l.2.4c-.2-.1-.2-.3-.2-.4zM15.3 125.2l-.3.3c0-.2.1-.3.2-.3zM3.4 160.1c.2.1.2.2.2.4a.5.5 0 0 1-.2-.4zM7.3 47h.1V46.8zM24 112.1h.1v0zM24.7 89.5l.1.3-.1-.3zM18.4 59.3l.2.1-.2-.1zM8.3 150.7c0-.1.1-.2.3-.1h-.3zM18.3 59.2l-.2-.1.2.1zM16.5 62h.2c-.2.1-.2 0-.2 0zM16 113.4v0zM15.8 113.2v.1zM15.5 113.1h.1zM14.5 126c0 .1 0 .2-.2.2l.2-.1zM14.3 126.2v.1zM18 108.7zM1.4 43.5h-.1zM13.6 42.1v.1zM14.6 126v-.1.1zM16.5 62c0-.1 0 0 0 0zM24 112.6h.1zM14.1 41.6zM17.2 58.2zM17.2 58.3v-.1zM7.4 47.4zM18.3 59.2zM19.2 88.3zM18 59zM17.3 58.3zM19.3 88.2zM19.4 88.1v.1h-.1V88zM17.4 58.4zM17.3 58.3h.1v.1zM14.5 126z"/>
</svg>
