<svg xmlns="http://www.w3.org/2000/svg" viewBox="0 0 9 20">
  <path fill="#281F34" d="M6.87 21H1.92v-.03V19l.01-1.69c0-.9-.03-1.8-.09-2.7l-.05-1.12c-.01-.48-.02-.97-.05-1.45a36.2 36.2 0 0 1-.1-2.85v-.42c.01-.27.02-.54.01-.82 0-.76-.04-1.52-.06-2.28L1.5 4l-.05-1.33v-.28c.01-.11.06-.16.16-.17a20.39 20.39 0 0 1 2.15-.13h.91l.72-.02h.53l.7-.01c.24 0 .8-.02.8 0 .02.07.02.2.02.26l.05 1c.01.36.03.72.02 1.09 0 .73-.03 1.46-.07 2.2l-.08 1.44-.06 1.47c-.02.42-.06.83-.1 1.25l-.07.95-.04.61-.06 1.28-.03.63c0 .36-.02.72-.03 1.07l-.03 1.46-.05 2.05c0 .4-.01 1.8-.03 2.19z"/>
  <path fill="#F7FFAE" d="M4.9 3.95a.77.77 0 0 1-.07-.39v-.33-.12a.7.7 0 0 1 .26-.05h.53c-.03.02-.03.05-.03.09v.38l-.01.36-.23.06H4.9zM6.69 10.86c-.2-.02-.34-.02-.5-.02h-.06a.8.8 0 0 0-.13 0v-.16-.41l.01-.11.29-.04.35-.07v.14c.02.1.02.22.02.33v.13c0 .07 0 .14.02.2zM4.1 18.63l-.17-.01-.27-.02-.03-.34a2.51 2.51 0 0 0-.02-.22l.22-.02h.44c.05.11.05.18.05.25v.4l-.22-.04z"/>
  <path fill="#8C6B28" d="M3.44 6.25l.02-.6v-.2l.33-.02h.15l.26-.01.13-.02v.22l-.01.12c0 .12-.02.23-.01.35l-.01.15a1.1 1.1 0 0 0-.27-.04l-.45.03-.13.02zM5.96 8.57a6.28 6.28 0 0 1 .02-.7l-.01-.11h.46l.32-.01-.02.32v.48l-.14-.01c-.15.02-.3.03-.46.03h-.17zM4.33 10.89a1.82 1.82 0 0 0-.83-.04c.02-.1.03-.2.03-.31.01-.18.02-.28 0-.39l.79-.02a61.77 61.77 0 0 0 0 .46V10.88zM5.35 10.85h-.21a.1.1 0 0 0-.05.01h-.26l-.02-.2-.02-.14a2.5 2.5 0 0 1 0-.39c.06.02.1.02.13.02l.36-.01h.16l.11-.01c-.02.06-.02.13-.03.2v.12l-.02.22v.21l-.15-.03zM5 14.89l-.22-.01-.02-.24-.01-.4c.1-.04.18-.04.25-.05l.26-.01c.08 0 .16 0 .24-.02l-.02.12V14.85L5 14.9zM5.38 13.02L5.06 13l-.22-.02a.6.6 0 0 1-.04-.22 6.2 6.2 0 0 1 .02-.42h.07l.3-.03.26-.03c.06.03.06.1.05.17l-.03.41v.15h-.09zM2.4 14.46l-.01-.2.3-.05.37-.06-.02.35v.28l-.1.04c-.18 0-.36.02-.53.04l-.01-.4z"/>
  <path fill="#342E49" d="M6.05 3.9l.03-.11.02-.65v-.12l.57-.11.13-.03c-.03.02-.02.07-.02.11v.71l.02.14-.35.02-.15.01-.24.02zM4.27 3.95l-.48-.02-.32-.03.02-.13c0-.11 0-.23.02-.34l.03-.27v-.13l.11.05H4.1l.19.02-.04.22.03.49v.14zM2.14 3.99v-.12a3.3 3.3 0 0 0-.02-.62l.04-.1a.61.61 0 0 1 .18-.05l.53-.06-.04.42v.43c-.23.05-.44.08-.66.09h-.03zM6.06 5.47v-.13c.12 0 .25-.02.38-.04l.3-.06c-.03.05-.03.11-.03.18v.59l.02.13H6.52a4 4 0 0 0-.49.05l.03-.72zM4.85 6.23l.02-.1-.02-.54v-.12c.06-.04.14-.05.22-.06l.33-.03h.13a4.96 4.96 0 0 0-.02.85l-.09-.02-.4.02h-.17zM2.2 6.2c.01-.21.02-.42 0-.63.05-.1.14-.12.23-.13l.48-.05a.48.48 0 0 0-.05.25v.54c-.2.05-.42.08-.63.09H2.2V6.2zM4.28 8.59c-.15 0-.3-.01-.44-.03l-.32-.02.03-.12c0-.09 0-.18.02-.27l.03-.34.11.02h.15a2.96 2.96 0 0 1 .42.02L4.25 8l.03.5v.09zM5.4 8.56l-.34.02H4.9l-.06-.59v-.14l.26-.04.11-.01.24-.02h.1a.67.67 0 0 0-.08.34c0 .17-.02.32.01.48l-.08-.04zM2.27 8.52c.01-.2.02-.39-.01-.56a.5.5 0 0 1 .31-.13l.2-.01.19-.03-.05.26v.5c-.19.02-.38.05-.58.06h-.06a.7.7 0 0 1 0-.09zM2.34 10.83c0-.2.01-.37-.02-.54.13-.08.21-.09.3-.1l.19-.02c.06 0 .13 0 .19-.02l-.05.35v.35c-.2.03-.39.05-.59.06h-.03v-.08zM5.87 12.97l.04-.14h-.08c.04 0 .09-.05.09-.1l.01-.3v-.15l.28-.01.26-.05c.05.06.05.15.04.25 0 .2 0 .33.03.46h-.18a5.3 5.3 0 0 0-.47.04h-.02zM4.28 13.02c-.14 0-.28-.02-.41-.03l-.3-.02c.04-.14.04-.29.06-.43l.03-.24.1.06h.15a2.84 2.84 0 0 1 .38.02l-.03.18.02.27v.19zM2.4 12.94c0-.16.01-.35-.02-.53l.2-.04.25-.02.21-.02-.05.21v.44l-.55.05H2.4v-.1zM5.83 14.8l.04-.22a.09.09 0 0 0 .02-.06v-.15-.23l.12.01.34-.03.14-.03a2.14 2.14 0 0 0 0 .68H6.3l-.47.04zM4.3 14.85l-.2-.01-.5-.04c.03-.14.04-.29.06-.44l.02-.17.14.04a4.72 4.72 0 0 1 .47.02l-.04.12.03.41.03.07zM5.8 16.7l.05-.07v-.31c.01-.13.02-.2 0-.26.05.02.1.02.16.02l.3-.03.14-.02c-.04.02-.04.07-.04.13v.12c0 .15 0 .28.02.4l-.14-.02-.28.02-.17.01H5.8zM4.3 16.73c-.27 0-.47-.02-.67-.04l.04-.3.02-.24H3.98l.17.01.15.02-.04.11.03.4.02.04zM5.3 16.72h-.48v-.27V16.16h.02l.17-.01.13-.01.17-.01h.12c-.06.05-.07.15-.07.25-.01.13-.02.25 0 .38l-.07-.04zM2.5 16.67c.02-.16.02-.32-.01-.48l.62-.06-.05.1v.48c-.17 0-.35.03-.53.04H2.5v-.08zM5.82 18.47v-.29-.2l.14.01c.09 0 .19-.01.28-.03l.15-.02c-.03.04-.04.11-.04.19 0 .19 0 .3.03.42l-.27-.01-.23.02H5.8l.02-.1zM5.28 18.58l-.33.01h-.09l-.04-.1v-.16a.33.33 0 0 0-.04-.1l.02.02v-.19h.05l.2-.01.36-.02c-.06.04-.08.14-.08.23 0 .14-.01.25.01.37l-.06-.05zM2.56 18.53c0-.14.01-.3-.02-.45h.02l.18-.01.3-.03.05.07v.47l-.52.03h-.01v-.08z"/>
</svg>
