<?xml version="1.0" encoding="utf-8"?>
<!-- Generator: Adobe Illustrator 22.1.0, SVG Export Plug-In . SVG Version: 6.00 Build 0)  -->
<svg version="1.1" xmlns="http://www.w3.org/2000/svg" xmlns:xlink="http://www.w3.org/1999/xlink" x="0px" y="0px"
	 viewBox="0 0 27 140" style="enable-background:new 0 0 27 140;" xml:space="preserve">
<style type="text/css">
	.st0{fill:#FCE61B;}
	.st1{fill:#FFFEF2;}
</style>
<path class="st0" d="M14.8,114.5c0,0.3-0.2,0.7-0.5,0.8c-0.3,0.1-0.5,0-0.7-0.2c-0.2-0.3-0.2-0.7,0-0.9c0.1-0.2,0.5-0.3,0.8-0.2
	C14.7,114,14.8,114.2,14.8,114.5z"/>
<path class="st1" d="M14.2,115.1c-0.3,0-0.5-0.2-0.5-0.5c0-0.3,0.2-0.5,0.4-0.5c0.3,0,0.6,0.2,0.6,0.5
	C14.7,114.9,14.4,115.1,14.2,115.1z"/>
<path class="st0" d="M2.2,18.6c0,0.1,0,0.2-0.1,0.3c-0.2,0.2-0.4,0.3-0.6,0.3c-0.2-0.1-0.4-0.3-0.4-0.6c0-0.1,0-0.2,0.1-0.3
	C1.3,18.1,1.6,18,1.8,18C2,18.1,2.2,18.3,2.2,18.6z"/>
<path class="st1" d="M1.7,18.2c0.2,0,0.4,0.1,0.4,0.3c0,0.2-0.2,0.4-0.4,0.5c-0.2,0-0.4-0.2-0.4-0.3C1.2,18.4,1.5,18.2,1.7,18.2z"/>
<path class="st0" d="M24.7,64.5c0,0.5-0.5,1.1-1,1.1c-0.6,0-1.1-0.5-1.1-1.1c0-0.5,0.4-1,1-1C24.2,63.5,24.6,63.9,24.7,64.5z"/>
<path class="st1" d="M23.6,63.7c0.5,0.1,0.9,0.5,0.8,0.9c-0.1,0.4-0.5,0.8-0.9,0.8c-0.4,0-0.8-0.5-0.7-1
	C22.9,63.9,23.2,63.6,23.6,63.7z"/>
</svg>
