<svg version="1" xmlns="http://www.w3.org/2000/svg" viewBox="0 0 161 250">
  <path fill="#261215" d="M154 41l-2 1-6 3-3 1h2-2l-3 1-6 2-3 1-3 1a142 142 0 0 0 8 0l3-1 6-2 6-2 7-1-3 1-11 3-3 1v1h-3l5 1h4l6-1-5 2 11 2h-4l-5-1h-4l-7 1-3 1 8 5-3-1-4-2-5-2-2 1-5 1s-1 0 0 0v1l1 1 1 1 6 1h-12l1 4 1 2 1 1-1-1-6-2-7-2h-1v-1h-1l-3-1-2 1 2 1 1 1 6 3 3 1v1l-10-4-1-1-2-1-2 3v1h5l7 2 7 2h1c-3 0-6 0-9-2l-6-1h-5l-1 1a51 51 0 0 0-4 17l-1 10v15a741 741 0 0 1 0 25l2 24 1 7a441 441 0 0 1 1 16v7l1 12 1 12 1 12 1 9 2 12 1 2h-1l-1-4-1-5-1-4v-4l-1-3v-6l-1-3v-6l-1-4v-12l-1-4v-8l-1-12v-6l-1 7-1 1v5l-1 3v5l-1 7v17a463 463 0 0 1 1 23l1 5v8h-1v-8l-1-6v-15l-1-4v-11l-1 4v3l-1 4v1l-1 6-2 11-2 7-1 5v3h-1v-5l-1-10-1-10a632 632 0 0 1-1-26v-14 1a269 269 0 0 0-2 6v1l-3 11-1 1v9l-1 9v13l-1 13v1h-1v-19l1-10v-6l1-4h-1l-1 5-1 3-1 3v1l-7 15v1l-2 10v1h-1v-3l2-12 1-11v-5l1-4v-3l1-4a450 450 0 0 1-1 3l-1 5-2 8-1 7v2l-1 6-3 11h-1l1-5 4-21 3-14v-2l-1 5-3 9-2 4-1 3v5l-1 4-1 5-1 5v2h-1v-3l2-10 1-7a255 255 0 0 1 3-19l1-7v-6l1-5v-1l1-16 1-7 1-8 1-13 1-14 1-14 2-11V87l-1-10-2-10v-1l-1-1-3 3-1 1v-1l-1 1-2 1 2-2v-3c-1 0-1 2-3 2h-3l4-1-1-1-5-2-3 3 1-1 2-3-2-2-1-2h-1l-7 3-3 1-1 1 1-1 14-7h4v-1l-3-1h-2l-8 1v-1l7-1h1l-3-1H35c-1 0 0 0 0 0l1-1h3c4 0 8 0 11 2h1l3 2-2-2h-1c-5-3-9-4-14-5l-1-1h1l6 1 8 4-1-2-1-2h-1l-1-1a65 65 0 0 0-27-2l-6 1-6 1v-1h1l7-2a78 78 0 0 1 26 1h1l-1-1-6-2-1-1h-3l-7 1h-1l-1-1-7-3-2-1v-1h1l7 4h9l-4-2h-1l-11-2-11-2-1-1 7 1 9 2 10 1 5 1 3 1h1l-1-2h-1c-8-5-17-8-25-11l-12-2v-1l7 1 5 1 12 4 13 6-11-6-4-3-1-1c-5 0-9-2-13-4l-8-5v-1l2 1 6 4 4 2c4 2 8 2 12 2 0 0 1 0 0 0l-5-3a58 58 0 0 1-12-6l-7-2v-1l4 1 7 1 5 2 4 1h1l8 4 7 4 6 5 5 3s0 1 0 0l-6-6A543 543 0 0 1 5 5l-6-3V1c1 0 15 7 11 6l9 4 13 7-2-1-13-9-9-9h2l4 5 3 2h5l2-1-6-6h1l1 2 4 3 3 1h-1v1l8 8 5 9 1 1 4 4 8 9v1c-1 0-1 0 0 0l1 2 4 9 3 5v1h1l1 3 1 5 1 2 1 5 1 7 1 9v2l1-2 1-4-1-3 1-2a78 78 0 0 0-1-6v-2a112 112 0 0 0-14-38v-1l-4-6-1-1v-1l-5-6-7-8-9-7-1-2h1l7 7c4 3 7 5 9 9l1 1h1l5 8 6 9v-2c-2-8-5-16-11-23l-5-9h1l5 8 5 8 3 5a86 86 0 0 0 9 15v-1c-2-7-5-13-9-19L48 2l-1-3h1l2 5 5 8 7 14V15l-1-5V9l-3-8v-2h1v2a69 69 0 0 0 6 13l5 8 1 1-1-1-1-8a784 784 0 0 1-1-15h1v2a4595 4595 0 0 0 2 17l1 7 2 13h1v-2l1-4v-2l2-9 1-5V-1l1 4 1 17 2 11 1 2 1 3V24l1-2V9a124 124 0 0 1 1-10h1v8l-1 11-1 7v1h1l2-6 5-9 3-9 1-3h1l-2 8-1 1v10l1 4v3l4-10 7-16h1v2l-2 2-4 8-8 26 8-12 2-2 6-10a219 219 0 0 0 8-14h1v2l-2 2v1l-1 1-3 4v1l3-3 1-1 3-2 5-5h1v2l-2 4-3 7 12-13h2l-6 7a94 94 0 0 0-11 12l-2 3v-1l-2 3-5 10h-1l4-3h1l1-2 2-2h1l1-2 2-2 2-4v-1h1l4-6 10-10v-2h1l-6 8a21 21 0 0 0-3 3s0 1 0 0h1l1-1c2-3 6-5 9-7l4-3h1l-10 7-1 1v1h-1l-2 2h-1v1h-1v1h-1l-1 1-3 4v1h-1l-3 5 1-1 1-1a117 117 0 0 1 16-12l9-7h1V1l2-2h1v2l-8 5h-1 1l6-2 12-4v1l-10 4-5 1-1 1-6 6-8 8h1l9-6 15-9 5-3v1l-1 1-16 9-15 10-1 1h-1l-2 2 1-1a196 196 0 0 1 22-10l3-2 10-5-13 9-3 2-5 5 9-4 11-5h1v1l-5 3-4 4-2 1-6 4-7 4-2 2 1-1a141 141 0 0 1 23-7l2-1v1l-3 2-11 6h-1l4 1 3 1 3 1h2l2-1-3 2c-2-1-3 0-4 1v1zm-33-16h-1l-2 2s0 1 0 0l-1 1-3 2-2 2-1 1-3 3a827 827 0 0 0-14 36v2l1-1v-3l2-7 4-9 2-4h1v-1l3-5 1-1 4-5 3-4 5-9a19 19 0 0 0 1 0zm0-2zm-6 11h1l2-2a92 92 0 0 1 11-9l3-4 11-11h1-2l-18 13-1 2-1 1-6 9v1h-1zM92 60zm28-28v-1 1zM93 60v-1l2-1v1h-1l-4 5v2l1 2 1 1 1 2v-1l1-3 2-7v-1l1-3 3-6v-2l-2 5h-1l-1 3-1 1-2 3zM56 49l-1-1-1-1-1-1-1-1-4-2h-1l-5-2h-1l2 2 1 1 4 1 3 2 4 2h1zM37 22zm73 31v1l-2 1 3-1h1l8-2 4-1 4-1 3-1a110 110 0 0 0 6-3l-8 1h-6l-6 2h-1l-5 3v1h-1zm-3 0zM44 38l9 6v-1a70 70 0 0 0-3-4 142 142 0 0 0-18-12s-1 0 0 0l-3-1-1-1h-6 1l11 7 2 1 4 3 2 1 2 1zm58 7zm8 4l-2 4 4-4 1-1 4-3a91 91 0 0 1 14-8l10-7-4 1h-1l-5 2a43 43 0 0 0-8 3 59 59 0 0 0-13 12v1zm4-38l-2 2-1 2-2 3-2 4-2 3-1 5v2l-1 6-1 2v2l-1 3 7-12 3-6 8-11 7-14V1l-2 2-9 7-1 1zm12 22h2a53 53 0 0 1 8-2l1-1h3l1-1h2l3-2 3-2h1l1-1 4-4-1 1a176 176 0 0 1-18 7 30 30 0 0 0-10 5zm-89 1h-1 1zm62 32l1-2 2-3 1-4 1-1 1-1a351 351 0 0 1 15-23c-4 3-8 6-11 11a62 62 0 0 0-5 8l-1 3-4 8-3 10v2l2-4 1-4zM58 54l1 1v-1l-2-3-1-1-2-1-4-2v1l2 2 2 2 4 2zm33 48V88a76 76 0 0 1 0-4l1-2v-3a8786 8786 0 0 0-1 1v1l-1 1-1 2-1 2v8l1 4 1 2 1 3v-1zm1 3zM49 42h-1l-5-3h-1v-1l-3-1h-1v-1 1l1 1h1l3 2h1c0 1 4 3 5 2v1h2s0 1 0 0l-2-1zm59 14l-2 2 1-1h16l-12 1h-5l-2 1v1c-1 0 0 0 0 0l1 1 8-2 5-1 8-2h-5l-7-1h-2a78 78 0 0 0-4 1zM86 90l1 1v-3l-1 1v1zM37 40l3 1-1-1h-2zm24 20h-1v1l-2 2v4l4-3-1-3v-1zm-5-6c-1 0 0 0 0 0v1l4 2-1-1-3-2zm8-22h1v1l2 6 1 2v2l1 3 1 6 3 14v2l3-7v-5l-1-6-2-11-2-13v-1l-8-13v16l1 4zm17 68l-2 3 1 1v2l1 1v-8 1zm-13 4v-1a237380 237380 0 0 0 1-8v-9 1l-1 4v1l-1 8 1 5v-1zm21 32l-1-1v-1l-1-2v-2 15l1 3v2l1-3v-2l1-3v-2l-1-2v-2zM51 61l-1 1v1l2 1c4 1 4 2 6-3l1-1 1-1-2 1h-4l-3 1zm26 23l-1 2-1 2v2l1 3v1l1 1V84zm15 7l1 8v-1a88 88 0 0 1 0-10v-3l1-3v-6l-1 1v5l-1 3v6zm-19 68v-11l2-16-1-1-1-4-1-3-1 10-1 10-1 14-1 12v7l3-10v-2l2-6zm-8 31l1-6 1-11v-8l1-4v-15l1-4v-6l1-2v-13h1l-1-3-1-4v-1l-1 1v13l-1 7v10l-1 8-1 8-2 15-3 16v1l-1 4v4l-1 3v3l-1 4v2l-1 4v4l-1 2 1-1 2-8 4-12 1-5 1-5 1-1zM25 23h3l-1-1-3-2h1l4 3c1 1 3 3 5 3l2 1-1 1c5 2 9 6 14 9l-1-2-2-1-4-3-8-6-6-4-5-2h-1l-4-2-1-1-7-1-3-1 6 3 11 6h1zm67 54l1-3v-1l-2-3-1-2-1-1v9l-1 2v5l1-1 1-1 2-4zm32-18h-7l-5 1-5 1 2 1h8l9-1-2-2zM75 40v2l1 8 1 8v-1l1-1 2-5 3-7 1-1v-6l-1-3-3-16h-1a550 550 0 0 0-3 16v2l-1 4zm2 41V66l-1-4v2h-1l-2 6v14l1 3 1-2 2-4zm79-52l-3 1-15 5h8l8-4 2-2h1-1zM81 89l1-3V75l-1 2-2 3v1l-1 17 1 4a39 39 0 0 0 2-6l1-4-1-3zM70 76l1-4 1-2-1-3v-2l-1-6a68 68 0 0 0-2-13v2l-1 3v8l2 14 1 4v-1zm19 91v1l1 8 1 15 1-6 1-5v-4l1-4a137 137 0 0 1 1-7v-4l-2-14-2-3v-1 1l-1 4-1 2-1 1v7l1 2v7zm-19-53l1 2v-15l1-4V74l-2 6v2a106 106 0 0 1 0 17l-1 11 1 4zm20-11l-1-2-1-4-1 4v26l1 3v2l2 5 1 2 1-3 1-2-1-11v-11l-1-5-1-3v-1zm6-76V10h-1l-5 11a74 74 0 0 0-4 9v4l-1 13-1 7v17l5-6v-3l1-4v-4l1-7a139 139 0 0 1 5-20zM75 92l-1-2-1 6-1 10v13l1 4 1 5 1 1v-3a267 267 0 0 0 1-29l-1-5zm-9 47v-13a231 231 0 0 1 1-19v-1 5l-1 8-1 12-1 8-1 8v3l-1 7v4l-1 3v8l-1 2a427 427 0 0 0-1 12v1l1-2 1-5v-5l2-8 1-11 2-12v-5zm13 1l1 1v-16l1-13-1-2v-3l-1-2-1-2v6l-1 15-1 7v2l2 3v1l1 2v1zm7 5v-11l-1-8v-3l-3-8v1l-2 60 4-14h1v-3l1-4 1-2-1-6v-2zM35 20h1l-5-7-6-7h-8l18 14zm50 99v3l1-2V92l-1-1-2 5v1a453 453 0 0 0 1 20l1 2zm-6 24l-1-4-2-5-1 2v13l-1 4v1l1 1-1 2v42l3-13 2-5v-22l1-7v-8l-1-1zm-8 66l1-3v-24l1-10v-8l-1 1-1 4v3h-1a112 112 0 0 0-5 27l-2 15-1 7-1 12v1a181 181 0 0 0 10-25zm15-49l-1 4-1 3v1l-3 12-1 1 1 10a755 755 0 0 0 0 25l1 15 1 11v1a322 322 0 0 0 4-19l2-11v-8h1v-17l-1-8-1-10v-8l-1-5-1 3zM57 27v-1 1l1 6 1 5 7 17v-3l1-7v-3l-2-4-1-2-6-7-1-2zm24 48l1-2 1-9V48l1-3-1 1-1 4a832 832 0 0 0-4 12l1 16s-1 0 0 0l2-3zm10-13l2-4 3-4v-1h1l2-4 1-2 1-7 1-4 1-5 1-5-1 1a90 90 0 0 0-8 13l-1 2-2 8-1 5v1l-1 5v2l1-1zm34-18l7-2 7-1 14-3h1l-6-1-7-1-10 2-1 1-2 1-3 3v1zm-7-6l2-2a51 51 0 0 1 17-10h1l6-5 2-2h-1l-3 1-18 9h-1l-5 8v1zm2 9l2-1 10-1 8 1 1-1 10-3 1-1 1-2-7 1a679 679 0 0 1-26 7zM86 88l1-4a103 103 0 0 1 1-10v-7l-4 6a16 16 0 0 0-1 9l2 5 1 1zm43-36l-4 1h-4l-4 1h-2l5 1h15l7-1 2-1h-3a24 24 0 0 0-10 0h-1l-1-1zm-83 6l4 2c0 1 0 1 0 0h3l2-1-3-2-2-1-4 2zm66 5l2 1 7 3-1-4v-1l-5 1h-3zm14-22l-13 8h1l4-2c6-3 5-1 8-6 0 0 1 0 0 0zM59 59l-1-1-2-1c-1-2-3-1-5-1h1l4 3h3zm24 25v10l2-5-1-2-1-3zM30 37a63 63 0 0 1 5 2h4l-9-2zm63 101l-1 2v2l1 2v-6zm0-38zM73 87zm30-25l1-1-1 1zM29 25l-1-1 1 1zm126 13h-1 1zm-53 7zm39-15zm5-12zM56 49zm57 0zm-12-1zm-61-7zm17-8zm52 0zm16 11zm-74 0zm11-18zm91 14l2 1 7 3v1l-8-3-1-2zm-28 29zm33-24zm-42 25zm0 0zm0 0zM27 5zm0 0zm68 53zM48 45z"/>
  <path fill="#262908" d="M77 250v-60l2-4v-1 50l-1 15h-1zm23 0v-4l-1-8-1-10-1-9-2-13-2-14v-7l1 5 2 11a2659 2659 0 0 1 4 39l1 10h-1zm2 0v-3l-1-7-1-9-1-9-1-9a281 281 0 0 1-2-21l-2-10v-5l1-1v3l2 10v6l1 4v12l1 4v6l1 3v6l1 3v4l1 4 1 5v4h-1zM71-1v2l2 9 2 10 1 8v4l-1 4v-3l-1-7-2-9a216 216 0 0 0-3-18h2zM58 233v-2l1-7 2-8 1-5a260 260 0 0 1 1-3l-1 4v3l-1 4v5l-1 5-3 17-1 4h-1l2-11 1-6zm12-17l-1 10-1 7v8l-1 8-1 1h-1v-2l1-9 1-10 1-7 1-3 1-3zM34-1c4 3 7 8 10 12l7 13-5-8a3390 3390 0 0 1-1 0v-1l-5-7c-3-3-5-7-9-9h3zm50 34l1-29v-5h1v23l-1 2v12l-1-3zm67-34l-2 2v1h-1a225 225 0 0 0-20 12l-3 4v-1l3-4 1-1h1v-1h1v-1h1l16-11h3zM62 23l-2-5c-1-6-4-11-6-16l-1-3h1l1 2a824 824 0 0 0 7 22zm34-5l2-4 3-12 1-1v-2h2v2l-7 21-1-4zM57 222l-1 4a676 676 0 0 1-4 21l-1 3v-2l1-5 1-5 1-4v-5l1-3a59 59 0 0 0 2-4zM117 7l-3 3V9l3-4 1-1 3-3 1-2h1l-4 6-2 2zM93 237l1 3 1 8v2h-1v-8l-1-5zM49 47l1 2-4-1-9-2-3-1c-1-1 1-1 1-1l5 1 8 2h1zm10 21l3-3 1 1-4 2h1l-1 1v-1zm-9-19zm81 1l3-1h2l3 1-3 1-5-1zm-29 18h-2v-1l4-2 1 1-3 1v1zm6-5h1v1l-2 1h-1l-1-1 3-1zm35-11l-5-1h5v1zm-18 7v-1h2v1h-2zm-65-4l1 1a390 390 0 0 0-11-32l-1-1 1 1 4 6v2l2 4 7 21 1 3h2l-2 1 4 8v3l-1-2 1 5v4l1 3-1 4v-1l-2-12-1-3-1-5-1-2-1-5-1-3h-1zm2 146v-4l1-13 1-10 1-6 1-10 1-9a1198 1198 0 0 0 3-24v-7l1 3h-1v13l-1 2v6l-1 4v15l-1 4v5l-1 10-1 6v4l-1 1-1 5-1 5zm27 12l-1-7a937 937 0 0 1-2-18l-1-7a184 184 0 0 1-1-14l1-3 1-4v5l1 11v6l1 8v6l1 9v8zm-21 4l1-4v-13l1-7v-14l1-7v-3l1-4v27l-1 6v11l-3 8zm9-31v-15l1-20v-12a33 33 0 0 1 1 4v38l-2 5zm-6-19v-16l1-10 1-12v-2l1 4v4a366 366 0 0 0-1 18v6l-2 6v2zm13-5v-38l1-1v3l1 8v21l-1 4v3h-1zm-5-57l1 2v30l-1 3v-1l-1-2v-10a608 608 0 0 1 1-16v-6zm-18 71v4l-1 5-1 2v-1l1-6v-6l1-2v-8l1-3v-4l1-7v-3l1-8 2-10v-3 13a362 362 0 0 0-4 29l-1 8zm13-48l-1-5v-4l1-7v-6l1-8v-6l1 5v6l-1 8v12l-1 5zm14 3v-1l-1-3v-26l1-4 1 4v10l-1 9v11zm1-66l1-12a195 195 0 0 1 5-31l1-1v6l-1 4a76 76 0 0 0-4 16l-1 7v4l-1 4v3zm2 42v2a391 391 0 0 0-1 23v5l-2-5 1-11v-9l1-9v1l1 3zm0 37l1 8 1 9 1 10v1l-1 4v1l-1-12-2-17 1-4zM70 80l2-6v23l-1 4v15l-1-2 1-9-1-25zm67-49a97 97 0 0 0-24 16v1l-1 1-4 4a13 13 0 0 1 2-4v-1h1l14-11 6-4 5-2h1zM93 180l-1 5v-2l-2-12-1-4v-7l-1-2v-7l1-1v5l2 12 1 9 1 4zM81 77l1-2v11l-1 3v8l-2 5v-4l1-11v-5l1-5zm33-66l-5 11-7 17v1l1-2 1-6v-2l1-1 4-10v-1l2-3 1-2 2-2zM70 76v-4a208 208 0 0 0-2-23v-3a159 159 0 0 1 2 13l1 6v2l1 3-1 2-1 4zM60 191v4l-1 11-1 6v1l-2 8-1 1 1-2v-4l1-4v-2l1-4v-3l1-3v-4l1-4v-1zm44-140l-1 2-2 7h1l1-3 1-1-1 1-1 4-2 3-1 2-1 4-2 4v-2l3-10 4-8 1-3zM63 20l2 5 4 20v1l-1-3v-2l-1-2-2-6v-1h-1l-1-6v-6zm12 65v-4l1-8V62l1 4v15l-2 4zm17 151v-3l-2-11-1-5 1-4v-3 1l1 8 1 2v15zM76 34l1 2v22l-1-8-1-8v-2l1-4v-2zm35 19l11-4h9l-3 1c-4 0-8 0-12 2l-5 2-3 1 2-1v-1h1zm3-23v1c-2 3-5 7-6 12 0 0-1 0 0 0l-1 1-3 5v1l1-5 5-11 1-1 1-1 2-2zM95 59v-2l1-1 1-3h1v1l-2 5v1l-2 7-1 3v1l-1-2v-2l3-8zm-6 25l1-2 1-1v-1 2l-1 11-1 5-1-4v-3l1-7zm0 63l-1 3v-2l-1-3v-15 2l1 2v6l1 7zM32 27l7 7 5 4-2-1-2-1-4-3a15 15 0 0 1-2-1l-5-5-1-2 1 1 3 1zm53 92v-14l1-9v-4 28l-1 2v-3zm-4-44l1-7v-7l1-9v-6l1-1-1 3v16a160 160 0 0 1-1 9l-1 2zM15 15L8 9 6 7l6 4 7 5-4-1zm99 47h-5l5-1 4-2h6l-6 2-4 1zm-1-32l1-2 9-11v1l-2 4-2 2-1 2h-1l-2 2-1 2h-1zM96 53l6-16v-1l-1 4-1 7-1 2-2 4h-1zm40-22v-1l10-4 4-1h-1l-3 2-5 2-1 1h-3l-1 1zM90 81l1-11 2 3-1 4-2 4zM25 23l-1-1-5-4-1-1 4 2h1l1 1 3 2 1 1h-3zm27 27l-2-2 3 1h1l2 1 1 1 2 3v1l-1-1-2-2a15 15 0 0 0-4-2zm42 27v5l-1 3v4l-1 2v-6l1-3v-1l1-4zm-4 23l1-7v-3 13l-1-3zm-14-6v-1l-1-3v-2l1-2 1-2v7l-1 3zM58 61l-6 1-2 1v-1l1-1h1l7-1-1 1zm10 30l1-4v-1 9l-1 8V91zm22-23l-1 9v5l-1 1v-5l1-2v-9l1 1zm-21 46l-1 11v2-13l1-1v1zM51 47l-3-4h-1 1l4 2 1 1 1 1 1 2-4-2zm102-23l5-1 1 1h-3l-5 1 2-1zM89 136v2l1 2v2l-1 3v-9zm-8-29l-1-1v-2l-1-1 2-3v7zM44 40l-2-1h1l5 3h1a201 201 0 0 0-5-3v1zm47 15v7l-1 1v-2l1-5v-1zm15 3l-2 2s-1 0 0 0v-1l2-1zm-45 3h-1v-1h1v1zm25 28l1-1v3l-1-1v-1zm22-33l-1 1-1 1 2-2zm-18 8v2-2zM29 25l-1-1 1 1zm47 36v-3 3zm-17-6zm46-5l-1 1 1-1zm19-33zm1 1h-1 1zm-76 5zm86 8zm-67 73v-1 1zm46-93zM44 38zm10 11zm49 1zm-5 3zm26-36zm0 0zm-17 36zm17-35zm0 0zm-17 35zm-52-4zm1 0zm-1 0zm60-39l-1 1 1-1zm-2 20zM91 80zM42 39v-1 1zm2-1zm7-14zm9 30zm44 2zM28 25zm80 31zM47 43zm2-1z"/>
</svg>
