<svg xmlns="http://www.w3.org/2000/svg" viewBox="0 0 27 70">
  <path fill="#5f401c" d="M26.3 17.4l-.1-.1.2-.1.3.2.4.6v.6l-.1-.1v-.3l-.1-.2-1.1 1-.9 1.2V20l.7-1.1 1-1c.2-.1.2-.1 0-.3v-.1c-.1-.1-.1-.1-.2 0l-1.6 1-.9.3-.1-.1c1-.3 1.8-.8 2.6-1.4l-.1.1zM27 17.5l-.4-.4-.3-.1c-.2 0-.3.1-.3.3l-.1.1c-.1-.3 0-.5.3-.5l.2-.1.5-.4v.2l-.4.4.4.4.1.1z"/>
  <path d="M26 17.4c-.2.2-.6.2-.9.1h-.4l-.9.2a2 2 0 0 0-.6.4l-.4 1.1c0 .6.1 1.2.6 1.6.4.4 1 .5 1.5.3l.5-.3c.2-.2.5-.5.6-.8l.3-.9c.1-.3.3-.6.6-.8.1-.1 0-.2 0-.2l-.5.4c-.3.3-.4.7-.5 1l-.4.8-.2.2c-.4.3-.8.5-1.3.3l-.1-.1-.7-.8-.1-.3c0-.5 0-.9.3-1.3l.3-.3c.4-.3.9-.4 1.3-.4s.8 0 1.1-.2c.1 0 .2-.1.1-.2.1.1-.1.1-.2.2z" fill="#f0f4f5"/>
</svg>
