<?xml version="1.0" encoding="utf-8"?>
<!-- Generator: Adobe Illustrator 18.1.1, SVG Export Plug-In . SVG Version: 6.00 Build 0)  -->
<svg version="1.0" xmlns="http://www.w3.org/2000/svg" xmlns:xlink="http://www.w3.org/1999/xlink" x="0px" y="0px"
	 viewBox="0 0 44 44" enable-background="new 0 0 44 44" xml:space="preserve">
<g id="BUNSYou">
	<path fill="#DDDDDD" d="M37,14.5H7c-0.6,0-1-0.4-1-1v-3c0-0.6,0.4-1,1-1h30c0.6,0,1,0.4,1,1v3C38,14.1,37.6,14.5,37,14.5z"/>
	<path fill="#DDDDDD" d="M37,34.5H7c-0.6,0-1-0.4-1-1v-3c0-0.6,0.4-1,1-1h30c0.6,0,1,0.4,1,1v3C38,34.1,37.6,34.5,37,34.5z"/>
	<path fill="#DDDDDD" d="M37,24.5H7c-0.6,0-1-0.4-1-1v-3c0-0.6,0.4-1,1-1h30c0.6,0,1,0.4,1,1v3C38,24.1,37.6,24.5,37,24.5z"/>
</g>
<g id="BUNSMe">
</g>
<g id="Layer_3">
</g>
</svg>
