<?xml version="1.0" encoding="utf-8"?>
<!-- Generator: Adobe Illustrator 18.1.1, SVG Export Plug-In . SVG Version: 6.00 Build 0)  -->
<svg version="1.0" xmlns="http://www.w3.org/2000/svg" xmlns:xlink="http://www.w3.org/1999/xlink" x="0px" y="0px"
	 viewBox="0 0 44 44" enable-background="new 0 0 44 44" xml:space="preserve">
<g id="BUNSYou">
</g>
<g id="BUNSMe">
</g>
<g id="Layer_3">
	<path fill="#FFFFFF" d="M8.4,14.5L8.4,14.5c-1.4,0-2.5-1.1-2.5-2.5v0c0-1.4,1.1-2.5,2.5-2.5h0c1.4,0,2.5,1.1,2.5,2.5v0
		C10.9,13.4,9.8,14.5,8.4,14.5z"/>
	<path fill="#FFFFFF" d="M8.4,34.5L8.4,34.5c-1.4,0-2.5-1.1-2.5-2.5v0c0-1.4,1.1-2.5,2.5-2.5h0c1.4,0,2.5,1.1,2.5,2.5v0
		C10.9,33.4,9.8,34.5,8.4,34.5z"/>
	<path fill="#FFFFFF" d="M8.4,24.5L8.4,24.5c-1.4,0-2.5-1.1-2.5-2.5v0c0-1.4,1.1-2.5,2.5-2.5h0c1.4,0,2.5,1.1,2.5,2.5v0
		C10.9,23.4,9.8,24.5,8.4,24.5z"/>
	<path fill="#FFFFFF" d="M37,14.5H15c-0.6,0-1-0.4-1-1v-3c0-0.6,0.4-1,1-1h22c0.6,0,1,0.4,1,1v3C38,14.1,37.6,14.5,37,14.5z"/>
	<path fill="#FFFFFF" d="M37,34.5H15c-0.6,0-1-0.4-1-1v-3c0-0.6,0.4-1,1-1h22c0.6,0,1,0.4,1,1v3C38,34.1,37.6,34.5,37,34.5z"/>
	<path fill="#FFFFFF" d="M37,24.5H15c-0.6,0-1-0.4-1-1v-3c0-0.6,0.4-1,1-1h22c0.6,0,1,0.4,1,1v3C38,24.1,37.6,24.5,37,24.5z"/>
</g>
</svg>
