<?xml version="1.0" encoding="utf-8"?>
<!-- Generator: Adobe Illustrator 21.1.0, SVG Export Plug-In . SVG Version: 6.00 Build 0)  -->
<svg version="1.1" xmlns="http://www.w3.org/2000/svg" xmlns:xlink="http://www.w3.org/1999/xlink" x="0px" y="0px"
	 viewBox="0 0 1500 1500" style="enable-background:new 0 0 1500 1500;" xml:space="preserve">
<style type="text/css">
	.st0{fill:#D3822D;}
	.st1{fill:#FED55F;}
</style>
<g>
	<g>
		<path class="st0" d="M1346.1,508.1c10.6,58.3,24.3,121.9,10.6,180.7c-8,34.2-37.3,53.6-70.7,59.3c-8.4,1.4-17.3,3.5-25.9,3.5
			c-6.4,0-18.9-4.8-24.2-0.6c-15.5,12.1,8.1,20.7,16.2,25.8c43.2,26.9,73.3,74.9,98.2,118.2c7,12.2,12.2,26,18.2,38.8
			c8,17,16.1,37.8,19.9,56.3c2.5,12.2,2.9,24.6,4.7,36.7c3.1,20.9,7.7,42.7,5.8,64c-3.9,42.7-7.8,82.2-24.5,122.3
			c-14.1,34-28.6,69.6-54.2,96.8c-25.2,26.8-51,51.2-81.2,72.3c-27.7,19.4-63.6,32.2-96.1,40.7c-29.4,7.7-59.5,11.4-89.7,14.7
			c-19.4,2.1-38.5-0.1-57.8-1.1c-9.2-0.5-18.3,0-27-3.2c-9.9-3.6-19.4-8.3-29.4-11.9c-37.5-13.6-77.4-24-112-44
			c-17.2-9.9-33.7-21.1-52.3-28.1c-18.6-7-35.4-16.4-55.6-18.3c-20.5-1.9-40.6-6.2-61.3-7.2c-21.1-1.1-42.6,0.1-63.8-0.1
			c-44.9-0.6-90.1-4.4-134.7-9.1c-20.2-2.1-39.7-6.8-59.7-10.3c-21.5-3.8-43.2-6.3-64.6-10.1c-40.5-7.3-77.4-27.9-110-52.1
			c-12.6-9.3-26.4-16.1-37.4-27.6c-13.8-14.5-23.4-32.8-32.2-50.7c-19.2-39.4-32.3-78.7-42.5-121.2c-19.3-80.5-9.1-162.2,18.7-239.1
			c13.5-37.4,32.7-72.1,61.9-99.3c28.7-26.7,64.4-51.9,102.1-64.3c17.6-5.8,36.8-6.6,54.9-2.4c4.5,1,9,2.4,13.3,4.2
			c2.3,0.9,8.9,5.9,11.2,5.6c6.7-0.9,10.1-18.2,12.2-24.1c14.5-39.6,28.1-80,49.7-116.4c4.3-7.2,13.3-16.7,15-24.9
			c1.7-8.2-4.8-11.2-8.4-18.5c-9.7-19.5-12.5-42-10.2-63.4c4.3-39.5,33.4-66.8,62.6-90.8c34.8-28.6,72.2-53.9,108.7-80.3
			c31.1-22.5,64.9-39.9,97.8-59.6c36.7-21.8,70.8-47.7,108.6-67.6c34-18,76.4-32.3,114.6-37.5c39.2-5.3,84.8,2.7,116.1,28.6
			c7.8,6.5,10.4,9.3,20.7,9.4c8.1,0.1,16.1,0.1,24.1,1.1c19.8,2.5,39.2,10.2,55.8,21.1c28.7,18.8,55.5,41.7,74.5,70.3
			c19.8,29.9,35.7,62.8,53,94.2c26.7,48.3,48.3,102.2,62.4,155.6C1337.7,464.8,1344.3,486.7,1346.1,508.1z"/>
		<path class="st1" d="M143,976.6c0-41.1-2-82.5,7.6-122.9c9.8-41.3,31.2-78.9,59.7-110.1c25.5-27.8,57.2-59.1,94.5-69.5
			c9.9-2.8,20.5-4.1,30.8-3.6c7,0.3,23.9,1.5,28.1,8.3c3.4,5.4-4.8,18.6-6.7,24.1c-3.5,10-5.9,20.1-7.7,30.6
			c-3.8,21.9-10.3,43.2-14.1,65c-3.7,21-4.7,41.6-9.8,62.5c-5.3,21.9-6.9,44.7-9.3,67c-1.1,10.5-2.2,21-2.9,31.5
			c-0.4,5.6-3.2,26,2,29.9c8.5,6.4,7.3-17.1,7.8-21.2c1.4-11.1,4-22,6.5-32.9c5.2-22.2,10-44.5,15.6-66.6
			c10.7-42.8,25.4-85.5,42.5-126.2c17-40.6,28.9-83.1,47.6-123.1c18.3-39,39.1-77.5,59.9-115.2c21.5-38.9,45.9-74.9,64-115.8
			c4.8-10.8,19.9-40.5-0.9-44.4c-16.5-3.1-32.2,18.2-41,29.1c-13,16.1-26.9,34.5-36.7,52.7c-3.5,6.5-3.2,10.5-7.2,4.2
			c-4.6-7.2-3.2-21.6-2.2-29.6c4.9-37.7,42.1-68.9,70.3-90.9c35.5-27.7,74.9-49.5,112.1-74.8c37.5-25.6,75.3-50,115.4-71.5
			c38.5-20.6,79.9-38,121.6-51c20.1-6.3,41-11.1,62-12.3c10.9-0.6,22-0.2,32.7,1.9c3.6,0.7,23.8,4,24.7,8.2
			c1.1,4.9-36.8,22.6-41.9,29.7c-7.3,10.2,0.4,14.8,10.4,12.2c10.7-2.8,21-6.3,31.9-8.5c40-8.1,89.4-3,124.1,20
			c17.1,11.4,31.4,27.1,46,41.5c14.4,14.2,26.4,29.1,36.4,46.7c22.1,39,42.5,79.5,56.7,122.1c29,86.6,46.3,174.5,46.5,266.1
			c0,17.9,1,42-9.3,57.7c-9.8,15-34.4,10-49,6.6c-20.2-4.7-40.7-12.6-60.4-19.4c-7.5-2.6-17.2-9.7-25.1-5.1
			c-9.1,5.4-5,15.8-1.4,23.2c4.1,8.4,9.7,16.1,16.3,22.7c5.2,5.2,13.1,12.9,1.3,17.8c-5.8,2.4-20.1-4.1-26.6-5.2
			c-12.3-2.1-24.7-3-37.1-3.2c-10.4-0.2-20.5-0.1-30.7,2.3c-8,1.8-22.4,3.9-27.8,10.6c-15.5,19.4,29.8,17,37,17.5
			c42.5,2.9,81.6,11.8,119.2,32.6c36.2,19.9,64.5,53.6,83.8,89.6c39.3,73.4,60.2,166.1,43,248.4c-4.7,22.5-8.6,44.8-15.2,66.9
			c-6.6,21.8-15.6,36-31.2,52.2c-29.8,30.9-60,64.1-94.6,89.7c-71.4,52.9-158.8,68.9-245.2,51.7c-20.2-4-42.9-6.5-62.2-13.9
			c-19.9-7.6-38.6-20.3-57-31.1c-38.1-22.4-76.1-44.5-113.4-68.2c-36.1-23-74-40.3-115.9-49.4c-20.8-4.5-42.3-9.2-63.6-10.1
			c-2.3-0.1-21.8-4.1-18.3,3.9c1.9,4.4,20.2,7.2,24.6,8.5c18.5,5.5,34.9,11.6,50.8,22.6c4.9,3.4,51.4,26.9,51.1,28.4
			c-0.3,1.2-57.7-8.4-63.3-9.3c-25.1-4-50.5-3.2-75.7-5.2c-24.9-1.9-48.5-2.2-73.4-0.8c-24.3,1.3-49,1.2-73-3.1
			c-12.1-2.2-24.2-5.4-36.1-8.5c-10.5-2.7-17-6.8-25.9-12.6c-18.2-11.8-39.8-16.7-58.1-28.6c-35.5-23.3-67.7-56.2-90-92.4
			C139.5,1081.1,145.2,1028,143,976.6z"/>
		<path class="st0" d="M597.9,573.7c-0.7,12.5-7.1,25.3-10.3,37.3c-3.7,13.8-6.7,27.7-9.3,41.7c-4.9,26.6-9.3,53.1-15.8,79.4
			c-12.8,52.1-29.9,102.6-40.5,155.4c-2.5,12.2-4.3,24.3-6.3,36.5c-0.4,2.3-0.5,7.8-2.6,9.6c-5,4.2-2.6-1.7-3.1-4.2
			c-2.4-11.4,0.9-27.7,2-39.2c1.4-14.3,2.6-28.6,3.5-42.9c1.7-25.1,0.6-51.2,4.3-76c3.8-25.3,7.7-49,14.3-73.7
			c7.8-29.1,16.7-56.7,30.5-83.6c6.6-12.8,12.2-27.3,20.3-39.3C590,567.2,597.9,561,597.9,573.7z"/>
	</g>
</g>
</svg>
