<?xml version="1.0" encoding="utf-8"?>
<!-- Generator: Adobe Illustrator 21.1.0, SVG Export Plug-In . SVG Version: 6.00 Build 0)  -->
<svg version="1.1" id="Layer_1" xmlns="http://www.w3.org/2000/svg" xmlns:xlink="http://www.w3.org/1999/xlink" x="0px" y="0px"
	 viewBox="0 0 1500 1500" style="enable-background:new 0 0 1500 1500;" xml:space="preserve">
<style type="text/css">
	.st0{fill:#D3802A;}
	.st1{fill:#FED55F;}
</style>
<g>
	<g>
		<path class="st0" d="M805.1,1263c-25.7,2.8-51.4,0.3-77.1,0.2c-24.6,0-48.9,0-73.5-1.2c-48.9-2.5-95.3-17.2-138.2-40.4
			c-74.1-40.1-143.9-96.4-182.9-172.6c-45.9-89.6-41.9-196.9-24.8-293.6c17.4-98.3,59.3-187.1,129.1-259
			c141.7-145.8,370.2-189.9,554.6-102.6c41.8,19.8,87.2,43.6,118.4,78.3c33.2,37,58.7,79.1,78.8,124.3
			c20.9,47.1,35.1,96.7,51.4,145.5c16.1,48.2,28.4,95.2,27.6,146.4c-1.7,97.2-49.2,184.7-122.2,247.5
			c-35.9,30.9-78.2,52.7-121.4,71.6c-46,20.1-94,35.9-143.4,45.1C856.1,1257.2,830.7,1260.5,805.1,1263z"/>
		<path class="st1" d="M676.2,1207.1c-85.1,5.5-174.7-42.3-234.6-99.9c-29.2-28.1-56-64.2-72.6-101.3
			c-17.4-38.9-23.9-80.4-26.5-122.6c-5.4-87.6,10.8-186.9,53.5-264.3c42.1-76.5,108.7-133.2,186.3-171.7
			c40-19.8,81.5-32.4,125.1-41.3c21.8-4.5,44.6-9.1,66.9-10.1c22.8-1,45.7,3.8,68.2,6.2c44.8,4.8,84.2,9.6,124.4,31.4
			c38.5,20.9,76.7,43.2,110.8,70.9c16,13,27,27.7,37.7,45.1c11.6,18.8,25.1,36.5,35.1,56.2c19.6,39,30.4,84.2,41.6,126.1
			c5.8,21.8,13.1,43.2,19.3,64.9c6.3,21.9,8.5,43.6,11,66.1c4.5,41.7-6.1,90.1-24.3,127.5c-17.9,36.8-47.6,69.3-78.2,96.2
			c-33.5,29.4-73.8,47.9-114.6,64.8c-42.3,17.5-84.8,32-129.7,41.3c-46,9.5-91.6,11.2-138.3,12.9
			C716.8,1206.3,696.5,1207.2,676.2,1207.1z"/>
	</g>
</g>
</svg>
