<?xml version="1.0" encoding="utf-8"?>
<!-- Generator: Adobe Illustrator 21.1.0, SVG Export Plug-In . SVG Version: 6.00 Build 0)  -->
<svg version="1.1" xmlns="http://www.w3.org/2000/svg" xmlns:xlink="http://www.w3.org/1999/xlink" x="0px" y="0px"
	 viewBox="0 0 1500 1500" style="enable-background:new 0 0 1500 1500;" xml:space="preserve">
<style type="text/css">
	.st0{fill:#D3832E;}
	.st1{fill:#1B9CD1;}
</style>
<path class="st0" d="M874.9,716.8c12.9-0.6,27.8,0.1,42.4,4.5c4.1,1.3,8.8,2.2,8.6,8.1c-0.2,6-5.1,5.8-9.3,6.9
	c-21.9,6.3-45.6,4.8-66.7,14.3c-25.3,11.4-48.3,26.1-67.5,46.5c-1,1.1-3.2,2.3-1.7,4c1.3,1.6,3.1-0.1,4.5-0.8
	c36-16.7,74.3-24.8,113.7-25.9c20.5-0.6,41.3,1.1,61.4,6.8c11.7,3.3,21.9,9.3,26.7,21.3c2.6,6.4,2.4,12.8-3,18.1
	c-5.2,5.1-11.8,5.8-17.6,2.8c-25.5-12.8-52.9-10.3-79.8-10.3c-48.1,0.1-91.8,15.5-133,39.2c-8.7,5-17.3,9.9-25.5,15.7
	c-6.8,4.8-12.5,2.7-14.6-5.5c-2.5-9.9,0.1-19.4,3.9-28.2c23.8-54.5,62.7-93.6,118.9-114.4C847.8,715.6,860.4,716.7,874.9,716.8z"/>
<path class="st0" d="M374.1,833.5c13.6-0.4,26.9,1.2,39.6,6.7c0.8,0.4,1.8,0.3,2.8,0.4c-0.3-0.9-0.4-2-0.9-2.6
	c-11-13.7-19.7-29.4-34.4-40c-8.5-6.1-15.8-13.3-21-22.5c-2.1-3.7-3.4-7.7-0.2-11.1c3.3-3.7,7.6-2.9,11.5-0.8
	c12.1,6.7,24.9,11.8,38.1,16.3c28.2,9.6,43.4,31.6,54.1,57.8c5.9,14.4,9.5,29.4,12.1,44.7c2.5,14.6-1.3,21.9-13.5,26.2
	c-8.2,2.9-15.2-1-20.5-6.1c-12.9-12.5-28.4-21.5-42.7-32c-15.6-11.5-33.8-14.3-52.4-15.4c-4.4-0.3-8.1-1-9.5-5.6
	c-1.5-5,1.1-8.2,5.4-10.6C352.4,833.6,363.3,833.7,374.1,833.5z"/>
<path class="st0" d="M893.8,872.3c-1.3,4.3-3.8,3.9-6.8,2.9c-14.5-4.9-29.1-10.3-44.4-11.4c-21.9-1.6-43.6-0.3-63.8,10
	c-2.5,1.3-5.7,2.7-7.8-0.1c-2.2-2.9,0.3-5.5,2.2-7.4c10.6-10.8,24-15.1,38.7-17.8c29.5-5.4,54.9,3.2,78.3,20.1
	C891.7,869.6,892.7,871.1,893.8,872.3z"/>
<path class="st0" d="M376.5,871.6c19.4,1.1,34,11.9,40.5,30c1.3,3.7,1.9,7.3-1.7,9.9c-3.4,2.5-7.1,1.9-10-0.9
	c-9.5-8.8-20.7-13.2-33.4-15.3c-9.9-1.6-14.3-8.4-11.8-16.1C362.8,871.4,369.5,871,376.5,871.6z"/>
<path class="st1" d="M948.1,776.5c7.6-6.8,17-8.8,26.4-8c44.5,3.6,85.2,16.1,116.5,50.7c22.2,24.5,34.4,53,36.9,85.8
	c2.2,28.4-15,53.9-39.2,67.6c-31,17.7-55.2,4.1-79.2-12.9c-20.1-14.2-31-51.6-20.2-77.4c4-9.5,8.3-19.1,8.8-29.9
	c0.7-14-7.4-24-14.2-34.7c-6-3.8-9.7-9.8-14.3-14.9c-5.6-6.3-11.2-12.6-18.2-17.4C948.6,783.3,945.2,780.9,948.1,776.5z"/>
<path class="st1" d="M351,851c-13.5,14.3-18.3,32-20,51c-2,22.1,7,42.2,11.6,63c6,27.2-1.9,50.2-20.7,68.8
	c-12.2,12.1-29.1,16.8-46.7,16.2c-5.9-0.2-11.9-1.1-17.8-2.4c-23.8-5.1-29.5-25-35.4-44.4c-6.5-21.4-1.8-42.1,6.1-61.9
	c17.7-44.4,47.5-79.1,88.3-103.8c15.7-9.5,33.4-11.5,51.4-5.5c3.2,2,3,4.8,0.2,6.2c-5.9,2.9-10.9,6.7-14.7,12
	C352.8,850.8,351.7,850.4,351,851z"/>
</svg>
