<?xml version="1.0" encoding="utf-8"?>
<!-- Generator: Adobe Illustrator 21.1.0, SVG Export Plug-In . SVG Version: 6.00 Build 0)  -->
<svg version="1.1" id="Layer_1" xmlns="http://www.w3.org/2000/svg" xmlns:xlink="http://www.w3.org/1999/xlink" x="0px" y="0px"
	 viewBox="0 0 1500 1500" style="enable-background:new 0 0 1500 1500;" xml:space="preserve">
<style type="text/css">
	.st0{fill:#6692B2;}
</style>
<g>
	<path class="st0" d="M766.6,797.2c2.3-34.3,3.2-93.7,46.6-103.1c13-2.8,27.8-1,36.7,9.8c12.1,14.6,9.9,40,10.7,57.5
		c0.9,22.1,1.2,43.6-4.3,65.3c-2.3,9-4.2,20.7-7.8,29.2c-3.1,7.4-9.7,8.9-16.6,12C786.8,887.8,766.8,832.7,766.6,797.2z"/>
	<path class="st0" d="M467.4,843.4c1,30.3-13.3,78.6-53.5,61.6c-34.3-14.4-41.2-63.4-37.3-95.5c3.5-28.7,22.3-82.6,61.9-62
		c14.4,7.5,18.9,26.6,22.8,41C466.1,806.5,467.3,824.9,467.4,843.4z"/>
</g>
</svg>
