<?xml version="1.0" encoding="utf-8"?>
<!-- Generator: Adobe Illustrator 21.1.0, SVG Export Plug-In . SVG Version: 6.00 Build 0)  -->
<svg version="1.1" id="Layer_1" xmlns="http://www.w3.org/2000/svg" xmlns:xlink="http://www.w3.org/1999/xlink" x="0px" y="0px"
	 viewBox="0 0 1500 1500" style="enable-background:new 0 0 1500 1500;" xml:space="preserve">
<style type="text/css">
	.st0{fill:#FED55F;}
	.st1{fill:#D3802A;}
</style>
<g>
	<path class="st0" d="M852.3,876.8c8.3,9.8,4.7,27.4-8,36.7c-14.1,10.3-30.5,15-47.4,18.7c-27.1,6-51-29.1-47.9-46.8
		c0.4-2.3,1.3-4.4,2-6.6C761.5,868.5,804.5,850,852.3,876.8z"/>
	<path class="st1" d="M826.5,674.8c33.7,1.1,70.8,20.6,85.6,52.6c4.8,10.3,9,20.7,9.9,32.1c0.1,1.2,0.7,2.9-0.8,3.6
		c-1.9,0.9-2.5-1.2-3.3-2.2c-5.1-6.7-10.4-13.4-15.2-20.3c-17.8-25.5-48-29.9-68-28.5s-36.8,11.1-48.1,21.8
		c-15.4,14.4-23.9,32.9-28.4,52.4c-4.4,18.9-2.2,36.9,0.5,55.3c0.3,2.2,1,4.5-1.5,5.6c-2.7,1.2-4-0.9-5.6-2.8
		c-13.3-16.1-17.5-35.3-18.5-55.3c-1.8-36.2,11.9-66.5,38.7-90C788,684.7,807.4,675.4,826.5,674.8z"/>
	<path class="st1" d="M360.6,819.5c0.6-19.9,7.1-41.5,24.9-56.4c24.8-20.8,61-16.5,80.4,9.4c14,18.8,21.5,39.6,22.8,63.2
		c0.7,12.6,2.4,26.6,2,39.2c4.5-1.2,12.4-3,18.1-2.4c3.8,0.4,7.4,1.5,8.2,5.9c0.8,4.7-2.5,6.6-6.2,7.7c-4.4,1.3-9,2.1-13.6,3.2
		c-18.6,4.4-31.9,16.4-43.9,30.4c-1.8,2.1-2.9,4.5-5.5,3.7s-2.2-5-1-7.5c7-14.9,19.8-28.5,34.1-36.2c-0.2-11.6-1.7-29.7-5-40.7
		c-6.9-22.7-21.1-43-46-54.3c-0.9-0.4-1.8-0.9-2.7-1.2c-12.5-4.5-34.3-2.6-45.6,8.4c-7.2,7-13.6,18.7-16.9,29
		C361.5,831.2,360.3,829.8,360.6,819.5z"/>
	<path class="st1" d="M852.3,876.8c-1.3-0.1-2.8,0.2-3.9-0.2c-29.5-11.9-58.4-8.7-86.9,3.6c-3.9,1.7-7.4,1.8-10.5-1.4
		c-2.9-7.3,1.4-11.4,6.7-14.8c8.3-5.4,17.9-7.4,27.6-7.9c17.4-0.8,34.6,1.1,51.4,5.8c5.3,1.5,10.1,4.1,14.1,8.2
		C852.6,872.1,853.5,874.2,852.3,876.8z"/>
</g>
</svg>
