<?xml version="1.0" encoding="utf-8"?>
<!-- Generator: Adobe Illustrator 21.1.0, SVG Export Plug-In . SVG Version: 6.00 Build 0)  -->
<svg version="1.1" xmlns="http://www.w3.org/2000/svg" xmlns:xlink="http://www.w3.org/1999/xlink" x="0px" y="0px"
	 viewBox="0 0 1500 1500" style="enable-background:new 0 0 1500 1500;" xml:space="preserve">
<style type="text/css">
	.st0{fill:#DF574D;}
	.st1{fill:#FEA0CE;}
</style>
<g>
	<g>
		<path class="st0" d="M926.5,688.1c-3.7,39.6-30.4,66.1-57.8,92.2c-27.7,26.4-56.4,50.9-85.7,75.4c-27.4,22.9-57.3,49.5-71.1,83.4
			c-1.5,3.7-2.9,6.9-2.6,11c0.1,1.6,2.4,5.8,1.9,7.1c-1.9,4.4-10.1,1.7-13.3-1c-2.3-1.8-2.2-4.5-4.2-6.4c-2.1-1.9-5.8-2.6-8.2-4.3
			c-7.1-5.1-12.8-13-18.7-19.3c-26.7-28.7-57.8-53.3-88.9-77c-6.6-5-13.1-10-19.5-15.4c-8.1-6.9-8.9-11.3-16.1-2.3
			c-13.2,16.7-25.9,33.9-38.8,50.8c-23.4,30.8-42.6,63.6-57.3,99.4c-4.2,10.1-13.4,42.6-28.6,38.3c-5.9-1.7-12.4-11-17.1-15.1
			c-9.2-8-19.2-15.2-28.9-22.8c-14.7-11.5-26.5-26.1-39.6-39.4c-15.2-15.4-31-30.2-46.4-45.3c-14.8-14.5-28.6-30.4-42.2-45.9
			c-12.2-13.8-22-28.4-26.7-46.5c-8.2-31.5-2.7-75.5,24.4-96.9c27.5-21.8,70.3-12.8,91.6,13.4c1.7,2.1,8.1,15.8,10.2,16.4
			c5.2,1.4,6.5-11.6,8.2-16.4c6.5-17.4,16.2-32.8,29.6-45.8c23.7-23.1,57.6-36.6,90.7-30.4c2.7,0.5,10.7,3.7,13.6,2.2
			c2.9-1.5,3.8-10.4,4.6-13c5.6-16.9,14.7-32.6,28.3-44.4c12.1-10.5,26.5-16.5,41.9-20.3c8.7-2.2,18-4.9,27.1-4.3
			c9.7,0.7,18.8,6.4,28,9.7c17.7,6.3,36.3,17.7,50.1,30.7c5.9,5.6,10.6,12.4,14.9,19.3c2.6,4.1,8.3,19.5,13.3,15.8
			c3-2.2,6.6-19.4,8.8-23.6c5-9.4,11.6-17.5,18.8-25.3c13.1-14.1,26.6-27.4,44.3-35.6c38.3-17.6,80.7-9.5,112.2,17.2
			c14.6,12.4,22.2,29.2,28.9,46.6C914.1,641.6,926.6,665.1,926.5,688.1z"/>
		<path class="st1" d="M580.3,593.4c38.4,0.5,61.5,18.2,81.7,49.2c7.6,11.7,23.1,41,38.4,21.6c6.3-8,8.3-18.7,13.1-27.5
			c4.3-7.8,10.3-15.6,16.4-22.2c12.8-13.9,31.3-23,47.9-31.7c19.4-10.1,36.6-10,57.8-4.9c19.1,4.6,26.5,24.3,35.9,40.1
			c11.2,19,22.2,39.7,24.2,62c4,45.2-32.4,76.3-64.3,101.4c-33.9,26.6-72.9,48.2-102.1,80.1c-12.8,14-23.1,28.6-29.6,46.5
			c-3.7,10-4.2,7.4-9.7-0.9c-5.5-8.3-12.1-15.8-19.4-22.5c-33.1-30.9-74.5-51.2-109-80.2c-37.9-31.9-63.2-68.3-60.3-119.9
			c1.2-21.3,7-48.3,21-65.1C534,605.2,561.8,590.9,580.3,593.4z"/>
		<path class="st1" d="M277.2,714.9c14.6,1.2,27.3,8.8,37,19.5c6,6.7,10.8,14.3,15.1,22.2c3.9,7.2,6.9,18.9,14.5,23.1
			c16,8.9,17.8-16.9,20.5-26.8c4.6-16.8,8.3-33.6,17.9-48.5c19-29.6,53.7-42.3,88-36.3c9.9,1.7,11.5,2.4,11.1,12.1
			c-0.3,8.1-0.9,16.1-0.8,24.2c0.3,19.4,3.6,38.7,12.1,56.3c3.4,7,7.5,13.7,12,20c5.1,7.1,14.2,13.7,18.2,21.2
			c6.4,11.8-10.8,28.7-18.2,38.4c-11,14.6-23.5,28-34.4,42.6c-11.9,16.2-21.7,34.2-30.9,52c-7.5,14.4-16.2,29.9-19.2,46
			c-1,5,1.1,12.2-3.9,9.9c-1.5-0.7-5-6.4-6.4-8.2c-4.4-5.3-9-10.5-13.7-15.6c-25.2-27.2-51.7-53.1-78.8-78.4
			c-16.3-15.1-32.3-30.5-46.8-47.4c-12.3-14.3-26.6-29.3-32.2-47.7C228.5,761.4,235.9,716.7,277.2,714.9z"/>
	</g>
</g>
</svg>
