<?xml version="1.0" encoding="utf-8"?>
<!-- Generator: Adobe Illustrator 21.1.0, SVG Export Plug-In . SVG Version: 6.00 Build 0)  -->
<svg version="1.1" id="Layer_1" xmlns="http://www.w3.org/2000/svg" xmlns:xlink="http://www.w3.org/1999/xlink" x="0px" y="0px"
	 viewBox="0 0 1500 1500" style="enable-background:new 0 0 1500 1500;" xml:space="preserve">
<style type="text/css">
	.st0{fill:#6592B2;}
	.st1{fill:#D3802A;}
</style>
<path class="st0" d="M766.7,795.1c2.3-32.9,2.9-83.8,39.9-99.2c49.5-20.7,52.6,38.1,54,70.1c1.4,32.7,3.7,94.3-35.1,104.7
	C781.8,882.4,766.5,827.7,766.7,795.1z"/>
<path class="st1" d="M490.4,875.3c4.5-1.8,10.9-3,15.8-2.9c2.1,0.1,4.4,0.3,6.4,0.9c2.7,0.9,4.4,2.9,4.6,5.9
	c0.2,2.9-1.5,4.6-3.9,5.8c-2.7,1.4-5.5,2.4-8.5,2.8c-21.7,2.8-37.5,15.2-51,31.4c-0.7,0.9-1.4,1.9-2.1,2.8c-1,1.2-2,2.4-3.7,1.5
	c-1.4-0.7-2.1-2-2-3.7c0.2-3.6,1.6-6.8,3.6-9.7c8-11.6,20.4-24.2,32.7-31.5c-3-25.8-4.8-34.4-7.4-40.5
	c-6.9-16.4-15.4-35.9-28.1-45.7s-26.9-15.1-41.8-11.2s-26.1,13.8-29.1,19c-4.6,8.2-10,16.1-12.6,25.4c-0.2,0.7-1.1,1.7-1.5,1.6
	c-1.4-0.2-0.8-5.7-0.8-7.4c0.9-18.3,5.6-35.7,17.3-49.8c26.3-31.8,69-22.3,87,1.5c14.3,19,21,40.1,23.5,64
	C490.2,850.2,490.7,862.7,490.4,875.3z"/>
</svg>
