<?xml version="1.0" encoding="utf-8"?>
<!-- Generator: Adobe Illustrator 21.1.0, SVG Export Plug-In . SVG Version: 6.00 Build 0)  -->
<svg version="1.1" id="Layer_1" xmlns="http://www.w3.org/2000/svg" xmlns:xlink="http://www.w3.org/1999/xlink" x="0px" y="0px"
	 viewBox="0 0 1500 1500" style="enable-background:new 0 0 1500 1500;" xml:space="preserve">
<style type="text/css">
	.st0{fill:#C44828;}
	.st1{fill:#FED55F;}
	.st2{fill:#D27F2A;}
	.st3{fill:#DDC3A3;}
	.st4{fill:#906E5B;}
</style>
<path class="st0" d="M705.3,1173.7c-7,0-13.1-4.3-15.7-10.9c-1.1-2.8-1.2-5.3-1.3-6.7l0-0.3c-3-25.4-10.9-51.2-25.9-83.5l-6.8-14.8
	l15.3-5.6c20-7.3,40.5-11.4,60.3-15.3c15.4-3.1,30-5.9,44.3-10.2c18.2-5.5,36.9-10.4,54.9-15.2c38.9-10.3,79-20.9,115.9-37.4
	c7.7-3.4,13.2-4.9,18.5-4.9c17.7,0,23.9,16.4,26.2,22.6c3.2,8.4,9.1,16.6,17.2,23.5c4.4,3.8,6.3,3.9,6.3,3.9c2.3,0,9.4-6.8,12.1-9.4
	c6.4-6.2,9.7-15,13.5-25.1c1.9-5.2,3.9-10.6,6.5-15.9l28.5,7c-1.3,39.4-1.8,72.4,0.4,105.7c0.5,6.9-2.2,11.2-4.5,13.7
	c-3.1,3.4-7.5,5.2-12.3,5.2c-0.9,0-1.6-0.1-2-0.1c-3.6,0-7.1,0-10.7,0.1c-3.6,0-7.4,0.1-11.1,0.1c-7.1,0-12.8-0.2-18.1-0.5
	c-3.1-0.2-6.4-0.3-9.8-0.3c-14.4,0-28.6,1.9-43.7,3.9c-5.5,0.7-11.3,1.5-16.9,2.1c-46.8,5.3-85.6,10.3-123.9,22.1
	c-33.5,10.3-72,22.9-106.5,43.2C712.1,1172.7,708.7,1173.7,705.3,1173.7z"/>
<path class="st1" d="M852,1192.2c-37.7,24-77.9,43-119,60.5c-11.6,4.9-22.9,10.3-35.1,14c-18.2,5.5-35.5-1.8-43.3-19.2
	c-1.5-3.4,1-5.7,2.4-8.1c12.1-20.4,30.5-33.4,50.9-44.2c19.1,2.5,38.2-0.5,57.2-1.6C794.1,1191.9,823.1,1191.8,852,1192.2z"/>
<path class="st2" d="M1077.6,753c35.5,0,55.9,13.4,60.6,39.5c1.9,10.5,1.2,21.4,1.5,32.2c0.1,2.5-1,5-3.9,5.8
	c-4,1.1-6.5-1.5-8.2-4.3c-6.7-10.6-11.5-22.4-20.5-31.6c-14.5-14.7-31.5-17.8-50.7-11.7c-7.7,2.5-15.5,4.9-23.3,7.2
	c-4.2,1.3-8.4,1.1-11.2-2.9c-2.9-4.2-1.7-8.4,1.1-12c10.9-13.7,26.5-18.1,42.7-21.1C1070.4,753.2,1075.3,753.2,1077.6,753z"/>
<path class="st2" d="M1163.8,1041.8c0.3-0.2,0.7-0.4,1-0.5c0,0.4-0.1,0.8-0.1,1.3C1164.4,1042.3,1164.1,1042,1163.8,1041.8z"/>
<path class="st2" d="M709,1163.5c0.5-5.5-5.3-18.2-5.9-21.7c-3.6-19.6-9.7-38.7-17.1-57.2c-3.2-7.9-8.4-28.7-18-29
	c-4-0.1-18.4,0.7-21,3c-5.5,4.9,2.9,30,5.1,37.5c2.7,9.1,12.2,43.8,14.9,52c2.4,7.3,8.6,36,15.1,36.5S708.5,1169,709,1163.5z"/>
<path class="st3" d="M607.7,1070.5c-7,0-14.8-4.6-16.3-14.8l0,0c-1.4-5.8-2.8-11.6-4.3-17.5l-5.6-22.7l16.2-2.5
	c9.8-1.5,19.7-2.8,29.2-4.1c23.1-3,44.8-5.9,66.4-11.4c6.6-1.7,13.3-3.5,19.8-5.2c16-4.2,32.6-8.6,49.2-12.3
	c51.8-11.4,104.2-30.1,170.2-60.6c34.4-15.9,70.8-33.7,103.5-56.5c4.7-3.3,9.2-6.6,12.2-10.5c2-2.7,4.3-4.2,5.4-4.9l0.1,0l19.9-14.9
	l3.6,24.3c0.4,1.5,1,4.8-0.1,8.7c-3.8,12.8-2.2,26.8-0.6,41.5c0.7,6.3,1.4,12.7,1.7,19.3l0.3,6l-3.9,4.6
	c-14.2,16.6-25.4,38.3-36.5,60.8c-0.8,1.7-1.7,3.1-2.5,4.3c-0.2,0.3-0.4,0.7-0.6,1l-11,18.1l-13.4-16.3c-0.2-0.3-0.5-0.6-0.7-0.9
	c-0.9-1.1-2.1-2.4-3.2-4.1c-1.1-1.7-2.3-3.4-3.4-5.2c-6.8-10.4-12.7-19.4-22-24.2c-1.4-0.7-2.7-1-4.3-1c-3.4,0-7.7,1.5-12.2,3
	c-1.5,0.5-3,1-4.5,1.5c-62,19.6-125.7,37.7-194.8,55.3c-36.6,9.3-76.2,19-124.5,30.3c-6.7,1.6-13.6,4.4-20.8,7.3
	c-1.7,0.7-3.3,1.4-5,2C612.5,1070,610.1,1070.5,607.7,1070.5z"/>
<path class="st4" d="M676,1066c-10.3,2.6-20.7,5.3-31,7.9c-14.5-1.7-18.6,12.8-28.3,18.8c-15.9,9.8-28.1,6.5-32.2-11.7
	c-3.6-16-7.1-32-10.6-48c-0.5-0.6-0.5-1.3,0.1-1.9c8.7-1.1,17.3-2.2,26-3.3c3.2,1.5,3.4,4.8,4.1,7.6c1.2,4.7,2,9.4,3,14.2
	c0.5,2.8,1.8,3.5,4.5,2.4c26-10.2,53.2-15.9,80.8-20c11.8-1.8,22.9-5.8,34.2-9.2c23.1-7,46.3-13.6,70.1-18.1c21-4,41.2-11,61.6-17.2
	c27.3-8.2,55.1-14.8,81.9-24.3c12-4.3,24.2-7.1,36.6-9.5c4.5-0.9,8.3,0.1,12.3,2.2c10.2,5.2,16.9,13.8,23.4,22.7
	c2.4,3.4,4.6,7,6.8,10.5c2.2,3.4,3.1,3.3,4.8-0.5c6.4-14.1,12.4-28.4,19.1-42.3c2.8-5.8,6.5-10.9,10.1-16c1-1.4,8.3-5.3,10.2-5.2
	c0.8,15.7-0.1,24.3,0.7,40c-2.2,5.9-8,22-9.9,28c-3.4,11-9.8,19.9-16.8,28.7c-4.7,5.9-11.2,9.3-17.7,12.7c-4.2,2.2-8.8,1.4-13-0.7
	c-7.4-3.8-13.8-8.8-18.7-15.4c-7.2-9.6-13.4-19.9-18-31c-1.2-3-2.5-4.9-6.3-3c-28,14.1-57.8,22.9-87.9,31
	c-31.2,8.4-62.1,17.7-93.2,26.5c-18.8,5.3-38,8.4-57.2,12.1c-13.9,2.7-27.4,7-41,11C681.9,1065.6,679.1,1066.8,676,1066z"/>
<path class="st1" d="M1151.2,1055.5c-4.6,12.5-6.3,24.7-1.8,38.1c4.7,14.2,10,29.2,9.8,43.8c-0.4,29-14.7,27.2-40.9,30.7
	c-30.7,4.1-60.8-5.4-91.3-4.2c-19-3.2-38.1-1.4-57.2-1.9c-3.3-0.1-4.2-5.1-1.6-6c6.3-2,61.2-25,75.8-41.9
	C1057.6,1117.2,1126.8,1045.2,1151.2,1055.5z"/>
<path class="st2" d="M975,1189.1c-11.9,1.5-23.4,5.2-34.8,8.8c-9,2.9-24.5,10.9-33.8,6.7c4.7-5.8,15.2-8,21.8-10.8
	c9-3.9,18.2-7.4,27.4-10.8c17.5-6.4,36.3-14.6,54.7-18c33.4-6.1,66.4,3.4,100.3,1.8c12.5-0.6,31.9,0,41.4-9.9
	c9.3-9.7,5.1-25.9,2.9-37.5c-3.4-17.3-12.2-33.1-9.1-51.1c1.3-7.6,3-9.8,7.7-15c0.9-1,10.3-14.1,11.3-10.8
	c-12.5,15.9,4.5,26.9,12.8,39.2c9,13.3,11.7,29.1,13.5,44.7c2.8,23.8,8.1,49.7-14.4,65.3c-28.4,19.7-64.5,16.6-97.1,12.7
	c-16.3-2-32.5-5.5-49-7.6C1011.3,1194.5,994.6,1186.9,975,1189.1z"/>
<path class="st2" d="M660.1,1192.2c-6.5,5.7-12.7,12-18.4,18.5c-9.4,10.8-20.9,26.3-20.7,41.3c0.3,23,28.5,49.9,50,53.7
	c33.1,5.8,70.2-11.6,98.1-28.2c30.8-18.3,57.9-41.4,89.6-58.5c17.6-9.5,35.3-18.7,52.6-28.8c7.9-4.6,15.7-9.4,23.4-14.4
	c2.9-1.9,18-9.5,18.2-13.1c0.4-8.1-37.8,3.5-43.4,5.2c-16.8,5.1-33.1,12.1-48.8,20c-34.7,17.4-68.1,37.8-104,53.1
	c-15.9,6.8-31.6,15.5-47.9,20.9c-14.3,4.7-29,9-42-1.3c-29.3-23,22.7-51.6,39.6-63.1c31-21,70.1-33.1,106-44.2
	c75.7-23.4,151.5-46.4,231.7-39.2c7.6,7.7,35.4,3.7,44.4,0.5c12.9-4.6,8.3-20,7.2-30.9c-2.6-24.9-3.1-50.6-2.5-75.7
	c0.8-30.5,7.5-60.8,3.8-91.4c-1.8-14.8-4.3-28.8-4.4-43.7c-0.1-12,1.6-23.9,1.6-35.9c0.1-12.9,1-37.9-18.2-35
	c-23.1,3.5-41.7,29.1-59,42.8c-40.9,32.5-85.9,61.3-134.1,81.8c-46,19.5-94.5,29.6-142.5,42.5c-23.8,6.4-47.8,11.9-71.4,19
	c-22.8,6.8-45.4,13.3-69,16.1c-11.3,1.4-50.3-1.2-49,17c1.5,20.9,50.9,7.5,62.5,6c27.2-3.5,53.5-7.4,80.4-12.8
	c26.3-5.3,51.6-13.1,77.7-19.2c54.2-12.7,106.1-31.8,156.4-55.4c25.8-12.1,51.9-23.1,76.6-37.3c11.4-6.6,22.8-13.4,34-20.5
	c1.7-1.1,21.8-16.4,21.4-16.7c1.2,0.9-1.9,21.3-1.9,24.1c-0.4,13.1-0.3,26.2,0,39.3c0.3,18.3,1.4,36.6,1.6,54.8
	c0.3,21.6-1.2,43.2-1.7,64.8c-0.2,7.1-0.6,14.4-0.3,21.5c0.1,2.7,2,8.4,0.8,10.9c-2.3,5.2-13.5,2.8-18.1,2.6
	c-46.2-1.3-91.4,4.6-137,11.3c-39.9,5.8-78.9,13-116.8,27.2c-18.3,6.8-36.7,13.3-54.5,21.4C727.4,1145.1,665.4,1187.5,660.1,1192.2z
	"/>
</svg>
