<?xml version="1.0" encoding="utf-8"?>
<!-- Generator: Adobe Illustrator 21.1.0, SVG Export Plug-In . SVG Version: 6.00 Build 0)  -->
<svg version="1.1" id="Layer_1" xmlns="http://www.w3.org/2000/svg" xmlns:xlink="http://www.w3.org/1999/xlink" x="0px" y="0px"
	 viewBox="0 0 1500 1500" style="enable-background:new 0 0 1500 1500;" xml:space="preserve">
<style type="text/css">
	.st0{fill:#FED55F;}
	.st1{fill:#D38029;}
	.st2{fill:#DF5449;}
	.st3{fill:#FEA0CF;}
</style>
<g>
	<path class="st0" d="M656.2,981.4c23.5,23.8,50.1,50.2,89.1,59.2c-85.7,89-92.1,106.9-141,101.3c-41-4.7-106.7-51.3-71.3-119.7
		c-16-12.7-33.7-20.7-33.7-47.3c0.3-29.3,26.9-74,71-73.3C614.4,902.3,627.7,938.7,656.2,981.4z"/>
	<path class="st1" d="M656.2,981.4c-20.6,16.7-39.5-23.2-42.8-37.2c-5.4-22.8-25.5-40.7-50.2-37.7c-18.3,2.2-35.6,11.9-45.7,27.5
		c-8.5,13.2-19.5,36.7-13.2,52c3.6,8.7,15.4,17.2,23.7,20.3c7,2.7,27.1,2.7,29.3,11c3.4,12.5-13.2,8.6-18.2,12.9
		c-6,5.2-6.7,17.8-6.5,25c1.6,45.4,44.1,82.3,89.6,70.6c26.1-6.7,47.4-25.9,68.2-42c11-8.5,22.2-17,32.8-26.1
		c4.5-3.9,22.1-26,28-17.8c4.6,6.5-15.3,26-19.3,31.3c-8,10.5-16.1,21-24.9,30.9c-17.7,19.9-38.6,40-63.5,50.5
		c-24.4,10.3-53.2,8.1-77.5-2.3c-20.5-8.8-35.7-30.9-45.1-50.4c-4.7-9.7-7.9-20.2-8.6-31c-1-14,5.3-31.1,9.3-44.7
		c-6.7-3.3-20.2-10.9-25.5-17.2c-7-8.3-9.6-17.8-11.1-28.3c-6.4-44.2,42.2-91.9,84.1-95.9c20.8-1.9,54.9,6.3,57,30.5
		c1.2,13.1,5.2,24.9,12.7,35.9C645.6,959,662.6,968.5,656.2,981.4z"/>
</g>
<g>
	<path class="st2" d="M290,1176.3c-23-0.3-57-6.3-79.6-20.4c-22.3-13.9-41.8-32.5-54.6-55.4c-23.6-42.3-36.3-107.1-2.6-147.2
		c15.3-18.3,50-24.1,65.2-23.1c5.2,0.3,17.2,3.9,21.7,5.2c0.1-7.5,0.8-20.3,2.2-29.1c1.6-9,5.9-23.9,12.8-35.9
		c25-43.6,99-45.7,133.8-12.9c48.9,46.2,38,116.4,20,173.9c9.3,1.7,22.6-6.8,31.1-9.4c15.3-4.7,31-3.9,44.5,5.3
		c13.7,9.3-5.1,11.6-12.3,19.3c-10.1,10.7-14.2,26.7-22.1,39.1c-15.2,23.7-36.9,41.8-60.3,57.1c-13,8.5-28.2,16.8-43.2,22.7
		C332.3,1171,314.4,1176.7,290,1176.3z"/>
	<path class="st3" d="M401.3,942.3c-0.4,16.9-3,33.6-6.5,50.1c-3.1,14.5-7.4,27.6-6.9,42.6c0.4,12,5.6,24.3,15.5,30.2
		c3.3,2,7.4,3.6,14.3,1.3c-4.1-2.9-12.5-11.8-12.2-18.5c13.7,1.6,24.2-2.4,35.2-9.7c8.2-5.5,28-8.4,27.3-4.7
		c-0.5,3-18.3,9.1-28.7,30.7c-7.5,15.5-18.1,28.4-31,39.7c-13.3,11.7-30.4,22-45.5,31.3c-54.8,33.5-142.5,20.2-181.5-31.6
		c-18.8-25-30.2-60-28-91.2c1.6-22.8,9.3-50.2,33.8-56.5c13.3-3.4,29.3-5.6,42.8-1.9c5.4,1.5,9,3.6,11.9,6.4
		c6.1,13.9,10.5,22.3,33.4,43.1c-13-17.5-25.5-68.2-16.2-96.2c5.1-15.6,11.5-33.3,27.6-40.6c19.9-9,34.9-14.1,56.7-7.3
		C382.4,871.7,403.2,901.4,401.3,942.3z"/>
</g>
</svg>
