<?xml version="1.0" encoding="utf-8"?>
<!-- Generator: Adobe Illustrator 21.1.0, SVG Export Plug-In . SVG Version: 6.00 Build 0)  -->
<svg version="1.1" xmlns="http://www.w3.org/2000/svg" xmlns:xlink="http://www.w3.org/1999/xlink" x="0px" y="0px"
	 viewBox="0 0 1500 1500" style="enable-background:new 0 0 1500 1500;" xml:space="preserve">
<style type="text/css">
	.st0{fill:#FED55F;}
	.st1{fill:#D38029;}
</style>
<g>
	<path class="st0" d="M655.2,980.1c23.5,23.8,50.1,50.2,89.1,59.2c-85.7,89-92.1,106.9-141,101.3c-41-4.7-106.7-51.3-71.3-119.7
		c-16-12.7-33.7-20.7-33.7-47.3c0.3-29.3,26.9-74,71-73.3C613.4,901,626.7,937.3,655.2,980.1z"/>
	<path class="st1" d="M655.2,980.1c-20.6,16.7-39.5-23.2-42.8-37.2c-5.4-22.8-25.5-40.7-50.2-37.7c-18.3,2.2-35.6,11.9-45.7,27.5
		c-8.5,13.2-19.5,36.7-13.2,52c3.6,8.7,15.4,17.2,23.7,20.3c7,2.7,27.1,2.7,29.3,11c3.4,12.5-13.2,8.6-18.2,12.9
		c-6,5.2-6.7,17.8-6.5,25c1.6,45.4,44.1,82.3,89.6,70.6c26.1-6.7,47.4-25.9,68.2-42c11-8.5,22.2-17,32.8-26.1
		c4.5-3.9,22.1-26,28-17.8c4.6,6.5-15.3,26-19.3,31.3c-8,10.5-16.1,21-24.9,30.9c-17.7,19.9-38.6,40-63.5,50.5
		c-24.4,10.3-53.2,8.1-77.5-2.3c-20.5-8.8-35.7-30.9-45.1-50.4c-4.7-9.7-7.9-20.2-8.6-31c-1-14,5.3-31.1,9.3-44.7
		c-6.7-3.3-20.2-10.9-25.5-17.2c-7-8.3-9.6-17.8-11.1-28.3c-6.4-44.2,42.2-91.9,84.1-95.9c20.8-1.9,54.9,6.3,57,30.5
		c1.2,13.1,5.2,24.9,12.7,35.9C644.6,957.7,661.6,967.2,655.2,980.1z"/>
</g>
</svg>
