<?xml version="1.0" encoding="utf-8"?>
<!-- Generator: Adobe Illustrator 21.1.0, SVG Export Plug-In . SVG Version: 6.00 Build 0)  -->
<svg version="1.1" xmlns="http://www.w3.org/2000/svg" xmlns:xlink="http://www.w3.org/1999/xlink" x="0px" y="0px"
	 viewBox="0 0 1500 1500" style="enable-background:new 0 0 1500 1500;" xml:space="preserve">
<style type="text/css">
	.st0{fill:#D3802A;}
	.st1{fill:#F38544;}
</style>
<g>
	<g>
		<path class="st0" d="M942.5,887c6.8,12.6,7.7,24.3,9.5,37.5c2.2,16,8.1,31.3,12.9,46.5c3.3,10.4,4.9,22.9,8.8,34.2
			c6,17.1,13,34.1,19.5,51.1c1.9,5,11.3,20,7.6,24.9c-3.7,5-17.1,4.1-22.4,3.8c-8.6-0.4-16.9-2.4-25.6-2.2
			c-9.7,0.3-18.6,3.4-28.3,3.2c-33.8-0.9-70.3,5.8-102.7,15.5c-17.5,5.2-34.9,11.3-51.9,17.7c-7.7,2.9-15.3,5.9-22.7,9.4
			c-6.6,3-17.4,10.8-25.2,9.8c-22.1-3,5.7-22.3,8.2-27.5c3.1-6.3-0.7-17-2.2-23.1c-1.4-5.9-0.9-17.8-5.7-22.3
			c-4.6-4.3-15.1-2.2-20.9-3c-7.3-1-14.6-2.7-21.5-5.3c-6.7-2.5-36-13.2-32.4-22.9c3-8.1,41-5.1,48-6c17.9-2.3,35.6-6.8,52.3-13.7
			c38.4-15.7,73-39.9,105.4-65.5c15.6-12.4,29.8-26.2,43.9-40.2C909.6,896.2,923.3,876.2,942.5,887z"/>
		<path class="st1" d="M955.1,1044.9c-23.4-5.8-51.3,2.9-74.6,6.6c-24.2,3.8-46.9,10.1-70.1,17.8c-13.2,4.4-25.9,10.2-38.8,15.4
			c-10.9,4.4-9.9,3.7-10.7-6.7c-0.3-4.2-4.3-13.6-2.7-17.4c1.7-4,9.8-4.3,13.3-5.4c11.9-3.6,23.5-8,34.8-13.3
			c21-9.8,41.4-24,58.6-39.6c16.9-15.4,27.9-35.8,41.3-54.1c2-2.7,6.8-12.4,10-13.2c3.8-1,4.4,4.8,5.7,8.1
			c4.7,12,8.9,24.2,13.1,36.3c4.1,11.7,8.3,23.4,12.1,35.3c1.9,6.1,3.8,12.3,6.1,18.3C954,1034.8,960.6,1045.8,955.1,1044.9z"/>
	</g>
</g>
</svg>
