<?xml version="1.0" encoding="utf-8"?>
<!-- Generator: Adobe Illustrator 21.1.0, SVG Export Plug-In . SVG Version: 6.00 Build 0)  -->
<svg version="1.1" xmlns="http://www.w3.org/2000/svg" xmlns:xlink="http://www.w3.org/1999/xlink" x="0px" y="0px"
	 viewBox="0 0 1500 1500" style="enable-background:new 0 0 1500 1500;" xml:space="preserve">
<style type="text/css">
	.st0{fill:#D3822E;}
</style>
<g>
	<path class="st0" d="M663.5,1086.8c-38.2-0.3-78.3-18.9-94.9-55.1c-3.4-7.4-8.2-19.4-6.1-27.7c2.4-9.3,10.4-10.1,17.1-4.7
		c7.1,5.8,12.2,13.3,20.2,18.3c8.8,5.5,18.6,9,28.7,11.4c23,5.4,46.8,3.1,69.9-0.6c20.7-3.3,40.1-18.2,56.7-30.5
		c8-5.9,15.7-12.4,23-19.2c5.1-4.8,14-17.7,21.7-9.1c11.1,12.5-16.6,42.7-23.2,51.9c-14.1,19.8-23.4,36.2-44.9,48.7
		C712.7,1081.4,686,1090.3,663.5,1086.8z"/>
</g>
</svg>
