<svg id="Layer_1" data-name="Layer 1" xmlns="http://www.w3.org/2000/svg" viewBox="0 0 11.16 18.48"><defs><style>.cls-1{fill:none;stroke:#41679e;stroke-linecap:round;stroke-linejoin:round}.cls-2{fill:#41679e}</style></defs><title>kyle</title><path class="cls-1" d="M.5 17.98l2.46-2.85.87-3.38 2.24-.5 1.73 1.91-1.76 4.09"/><path class="cls-2" d="M2.93 11.75l1.51-6.62h2.38l-.4 5.85-3.49.77z"/><path class="cls-1" d="M6.82 4.88L8.54 8.6l2.12-1.1M4.44 5.13L2.08 8.6l1.65 2.42"/><rect class="cls-2" x="4.76" width="4.12" height="4.13" rx="2.06" ry="2.06"/><path class="cls-2" d="M270.89 441.14a8.27 8.27 0 0 1-.71 4c-2.56.3-3-2.37-3-2.37 1.85.26 2.71-1.42 3.09-2.5z" transform="translate(-265.31 -438.94)"/></svg>