<svg xmlns="http://www.w3.org/2000/svg" viewBox="0 0 23.61 30"><defs><style>.cls-1{isolation:isolate;}.cls-2{mix-blend-mode:screen;}.cls-3{fill:none;stroke:#fff;stroke-miterlimit:10;}</style></defs><title>icon_shek</title><g class="cls-1"><g data-name="Layer 1"><g id="_Group_" data-name="&lt;Group&gt;" class="cls-2"><path id="_Path_" data-name="&lt;Path&gt;" class="cls-3" d="M800.5,281.33a5.83,5.83,0,0,0-6,6A5.83,5.83,0,0,0,800.5,281.33Z" transform="translate(-783 -280.83)"/><path class="cls-3" d="M801.5,296.83a5.5,5.5,0,0,1,3.39-5.08,5.76,5.76,0,0,0-4.39-2.42c-2.07,0-3.78,1-5.5,1s-3.93-1-6-1-5.5,2.88-5.5,8.5,3.73,12.5,6.5,12.5,3.59-1,5-1,2.23,1,5,1c2,0,4.64-3.91,6-8.1A5.5,5.5,0,0,1,801.5,296.83Z" transform="translate(-783 -280.83)"/></g></g></g></svg>
