<svg xmlns="http://www.w3.org/2000/svg" xmlns:xlink="http://www.w3.org/1999/xlink" viewBox="0 0 1224 3025">
  <defs>
    <style>
      .a { fill: none; }
      .b { clip-path: url(#a); }
      .c { fill: url(#b); }
      .d { fill: #67b1cb; }
      .e { fill: #4ea8d6; }
      .f { fill: #4a91c2; }
      .g { fill: #fc9d6c; }
      .h { opacity: 0.9; isolation: isolate; }
      .i { fill: #fff200; }
      .j { fill: #697198; }
      .k { fill: #af7594; }
      .l { fill: #566792; }
    </style>
    <clipPath id="a" transform="translate(60.65)">
      <rect class="a" width="966" height="3025.09" />
    </clipPath>
    <linearGradient id="b"
      x1="483" y1="3026" x2="483" y2="2569.53"
      gradientTransform="matrix(1, 0, 0, -1, 0, 3026)"
      gradientUnits="userSpaceOnUse"
    >
      <stop offset="0" stop-color="#f94a4a" />
      <stop offset="0.2" stop-color="#fa807e" />
      <stop offset="0.51" stop-color="#deab91" />
      <stop offset="0.82" stop-color="#97e4b5" />
      <stop offset="1" stop-color="#fbb040" />
    </linearGradient>
  </defs>
  <g class="b">
    <path class="c" d="M0,0H966V456.47H0V0Z" transform="translate(60.65)" />
    <path class="d"
      d="M0,373.33s66.44-5.36,88.35-3.45c21,1.83,60.34,13.37,81.47,14.27,33.52,1.43,133.08-11.45,133.08-11.45s144.68-8.62,192.78-6.19c16.68,0.84,65.4,8.82,65.4,8.82S677.2,368.2,716,366.5c25.21-1.1,91.79-2.81,101-2.81s42.45,2.81,42.45,2.81L966,374.38V3025.09H0V373.33Z"
      transform="translate(60.65)" />
    <path class="e"
      d="M0,406.26l69.79,10.91s25.06-21.56,123-18.33c15.84,0.52,80.32,15.52,80.32,15.52s27.67-6.08,37.1-7c8.84-.87,35.57-0.33,35.57-0.33L362,396.85l49.42,0.46L469,381.2l68.2-26.5H607l33-5,21.36-8.27,29.69-26,60.62-13.31L796.31,299l26.39-16,54.65,3,23.42,20.41L951.32,411,555.25,515.41H0V406.26Z"
      transform="translate(60.65)" />
    <path class="f"
      d="M0,420l77.26,11.67,18.36-8.26,127-6.27L264,427.73l69.34,2s39.9,1.23,53-.54c12.46-1.68,32.41-14.65,44.52-17.32,13.63-3,66-13.1,66-13.1l83.75,5.82,59.5-19.83S710.24,374.49,734,373c9.88-.62,39.67,0,39.67,0l56.67-4L966,383V3025.09H0V420Z"
      transform="translate(60.65)" />
    <path class="g"
      d="M1017.32,147.51c-54.72,0-102.42,7-127.73,17.43-8.64-.78-17.91-1.2-27.58-1.2a297.62,297.62,0,0,0-36.16,2.11c-4.61-9.12-30.74-16.11-62.28-16.11-34.79,0-63,8.51-63,19a6,6,0,0,0,.31,1.88,200.37,200.37,0,0,0-28-1.88,208.54,208.54,0,0,0-20.87,1,17.35,17.35,0,0,0,3.48-10.15c0-14.84-21-26.87-47-26.87s-47,12-47,26.87a17.17,17.17,0,0,0,3.16,9.69c-1,0-2.1-.06-3.16-0.06a93.83,93.83,0,0,0-16.41,1.41c-19.58-1.21-42.42-1.91-66.84-1.91-41.93,0-79.24,2.06-103.29,5.26-0.9-17.33-33.41-31.26-73.41-31.26-24,0-45.4,5-58.8,12.82a208.8,208.8,0,0,0-46.15-4.82c-35.1,0-65,7.49-76.86,18-18.06.13-34.6,2.47-47.54,6.31C58.25,171.14,38,168.7,15.47,168.7c-42,0-76.12,8.51-76.12,19s34.08,19,76.13,19a279.6,279.6,0,0,0,32.79-1.85c10.15,10.95,39,18.85,73.09,18.85,32.15,0,59.68-7,71.21-17h4c22.11,0,42.16-3,56.94-7.81a94.52,94.52,0,0,0,9.41,3c9.8,8.55,32.64,14.55,59.26,14.55,35.55,0,64.36-10.69,64.36-23.89v-0.3c23.67,2.42,56,3.91,91.69,3.91,12.31,0,24.21-.18,35.5-0.51,2.87,11.71,23.14,20.79,47.74,20.79,26.57,0,48.1-10.58,48.1-23.64a11.75,11.75,0,0,0-.17-2c5.11,9,31.59,15.83,63.51,15.83,35.57,0,64.41-8.51,64.41-19A5.9,5.9,0,0,0,737,186a192.66,192.66,0,0,0,26.54,1.77c5.25,0,10.35-.2,15.23-0.56,3.81,11,39.6,19.56,83.21,19.56a288.24,288.24,0,0,0,41.62-2.86c27,7.71,67.87,12.63,113.69,12.63,81.19,0,147-15.45,147-34.5s-65.79-34.53-147-34.53h0Zm-409.59,39h0.92a5.81,5.81,0,0,0-.16,1.26v0.32a14.78,14.78,0,0,0-.76-1.62v0Z"
      transform="translate(60.65)" />
    <circle xmlns="http://www.w3.org/2000/svg" class="i" cx="350" cy="203" r="46"/>
    <path class="j"
      d="M0,167.76l25.33-18.94,26-4.49H66l18,8L92.67,156l28,11.71H151L227.5,156l39.11,14.63,77.28-10,23.45-.32h42.11s28.89,9.22,31.22,7.48S452,170,452,170l30-1.25,42-3h15.33L552,170h46.67s3.67-6.48,6-8.23,56.67-2.49,56.67-2.49l14-10.47,41.33,0.5H785a27.84,27.84,0,0,1,15.63,4.49l24.43,6.51,16.8,9.69L782,178.72l-131.33-3.49-53.33,5.48-65.33,9-122.55,2-74.78-19.44L212,182.71H37.33l-51.1,2.69Z"
      transform="translate(60.65)" />
    <path class="k"
      d="M-33.5,186.83l166.09-3.5H181.1l56.59,0.78,41.43-.78h33.69l29,3.34L365,190l26.28-11.35L450.93,174s8.42,19,19.87,16.09,44.75-.07,44.75-0.07H552l69.73-7.83s28.3-3.74,33.16,0,33.82,4.37,33.82,4.37,44.18-8.67,49.24-8.67S790.48,174,790.48,174l40.09,12,36.72-3.78H941l4.84,3.72-46.16,9.6h-90l-41.77-5.82-55.6,1.16-82.51,4.65H551l-19.2,7.26H495.39l-31.23-7.26-23.34-4.65s-21.06-4.79-27.29,0l-9.76,7.51-15.5,8.29H346.84l-34.36-5.44-12.13-5.7-55.58,11.15L195.25,216,172,207.44l-2-8.56-39.41-3.37-31.33,5.7h-23L-8,212.89Z"
      transform="translate(60.65)" />
    <path class="l"
      d="M90.81,179.59l72.82-11.41,60.34,5.7L273.2,164l61.47,8.21,27.47-19.74,33.12,1.68,29.82,6.22,27,4.15,21.5,3.11,29.82,3.11s27-.52,31.21-0.52,11.79,1,11.79,1l22.19,8.3,23.58-10.89s2.77-5.19,10.4-5.19a23.13,23.13,0,0,1,12.83,3.89l3.81,2.85,13.87,4.67h22.19c6.94,0,8.32-1,20.11-1a116.43,116.43,0,0,0,24.27-3.11L735.08,163s0.69-10.37,3.47-10.37h6.94l92.93,4.15,16.39,7,129.94,4.89,11.53,8.23a1.69,1.69,0,0,1-.84,3.06l-70.33,6-36.76,5-6.66-5H853l-64.5,5-75.59-5-38.14,5-17.34,3.11H599.84l-40.92,2.07H516.74l-34.1-4.67-8.32-2.59L443.8,186l-31.21,6.54-53.4,6.22H332.84l-23.58-5.19L257.94,186h-95.7l-66.58,2.91L-22,194l4.5-24Z"
      transform="translate(60.65)" />
  </g>
</svg>
