<svg xmlns="http://www.w3.org/2000/svg" viewBox="0 0 37.13 29.06"><defs><style>.cls-1{fill:none;stroke:#fff;stroke-miterlimit:10}</style></defs><title>icon_kyle</title><circle class="cls-1" cx="18.58" cy="15.37" r="12.62"/><path class="cls-1" d="M295.64 295.13s3.06-3.29 11.53-3.29 11.53 3.29 11.53 3.29m-24.16 3.45s3.87-3.29 12.52-3.29 12.52 3.29 12.52 3.29m-.66 6.28c1.58 2 .44 7.84.44 7.84l-.87-.87-1.31.87s.63-3.51-.44-4.35" transform="translate(-288.59 -284.7)"/><path class="cls-1" d="M10.25 9.94l5.28 1.95m11.43-1.95l-5.33 1.95"/><circle class="cls-1" cx="13.79" cy="13.2" r=".87"/><circle class="cls-1" cx="23.37" cy="13.2" r=".87"/><path class="cls-1" d="M299.77 307.47c0-2.89 3.31-5.22 7.4-5.22s7.4 2.34 7.4 5.22h-14.8zm-7.7-7.18a15 15 0 0 1 1.22-5.94 2.41 2.41 0 0 0-1.43-.47h-.33a2.45 2.45 0 0 0-2.44 2.44v7.52a2.45 2.45 0 0 0 2.44 2.44h.33a2.41 2.41 0 0 0 1.3-.38 15 15 0 0 1-1.09-5.61zm1.08 5.61a15.1 15.1 0 1 1 28 0" transform="translate(-288.59 -284.7)"/><path class="cls-1" d="M322.78 293.88h-.33a2.42 2.42 0 0 0-1.41.46 15 15 0 0 1 .13 11.57 2.41 2.41 0 0 0 1.28.37h.33a2.45 2.45 0 0 0 2.44-2.44v-7.52a2.45 2.45 0 0 0-2.44-2.44z" transform="translate(-288.59 -284.7)"/></svg>
