<svg xmlns="http://www.w3.org/2000/svg" version="1" viewBox="0 0 1024 1024"><path d="M500 55c-42 3-58 6-111 19-48 11-73 21-100 35-26 16-50 34-71 55a462 462 0 0 0-102 160c-5 9-8 19-18 51a370 370 0 0 0-7 194l1 9c1 1 0 2-5 4-10 3-20 10-29 18-14 15-19 25-26 53-4 14-4 16-4 28 0 14 2 29 5 37 11 28 43 61 68 69 20 6 44 8 59 4 12-3 29-12 40-20l8-7 10 8 65 53c27 19 58 38 87 52 31 15 35 16 66 17a401 401 0 0 0 85-5c21 0 66-4 83-7 25-5 23-3 112-64l42-28a1569 1569 0 0 1 80-48l4 5c7 15 27 23 55 22a113 113 0 0 0 75-38c20-19 30-38 34-64v-21c-3-15-8-27-20-43a105 105 0 0 0-52-38l-6-2 1-12 3-20c9-33 10-81 4-136a422 422 0 0 0-73-199 350 350 0 0 0-85-78l-15-9a333 333 0 0 0-172-51 532 532 0 0 0-75-3h-16zm83 21c31 3 52 7 78 16l55 19 11 5 5 6c4 7 19 46 23 58 7 25 13 63 15 87a540 540 0 0 1-22 176l-5 22 15 8a593 593 0 0 1 124 82c7 8 15 16 16 19l3 4-3 17c-6 30-13 49-27 80l-12 24c-1 5-2 5-7 7-9 2-52 25-77 40a1580 1580 0 0 0-106 71c-14 8-30 20-39 27-5 4-15 9-30 14a628 628 0 0 1-169 5c-30-2-54-12-101-40a679 679 0 0 1-121-87l-18-15c-17-14-33-33-39-44l-20-55-1-5 3-5c11-17 39-48 57-64a1563 1563 0 0 1 86-72l-11-20c-18-29-28-52-32-71a333 333 0 0 1 41-211l14-20c8-12 12-17 18-19l10-7a603 603 0 0 1 266-52zm347 513c6 3 22 16 32 26 8 8 11 11 14 19 8 15 9 24 2 40a97 97 0 0 1-46 53c-21 11-38 15-50 12-8-3-24-9-23-10l5-4 11-11c5-7 6-8 8-7l11 1c7 0 8 0 14-3 19-9 25-25 15-44-3-6-8-11-13-14-1-1-1-1 1-8l3-7c3 0 15 9 27 21 13 13 13 13 15 10s2-7 1-15c-4-16-15-28-31-34-4-1-8-3-7-4a766 766 0 0 1 6-23l5 2zM98 607l2 7c1 2 0 3-7 9-9 7-13 11-16 18-4 8-5 13-3 21s5 12 10 16l3 2 2-3 2-12c1-10 4-18 11-25 3-3 4-4 5-3l4 12 4 11-3 4c-8 11-15 29-14 38 2 10 10 19 21 24 5 3 8 4 13 3 8 0 16-2 18-6 1-2 1-2 6 2l13 9c9 5 21 14 21 15s-15 10-24 14c-10 4-18 5-32 5-23 1-39-7-60-28a75 75 0 0 1-23-43c-2-17 5-52 14-69 5-9 14-18 22-23 8-4 10-4 11 2zm810 68v7c-2 4-8 7-13 7h-4l3-8 6-12 2-5 3 3 3 8zm-783 9c4 9 9 17 14 24l4 5-3 1h-9c-12-2-20-12-19-21 1-7 7-19 9-17l4 8zm565-105l-9 3c-6 3-14 11-17 17-3 5-3 6-3 13 0 9 1 13 7 19a38 38 0 0 0 59-9c6-12 2-28-8-37-7-6-16-8-29-6zm-5 19c8 5 6 16-4 20-3 1-4 1-7-1-6-3-8-11-2-16 5-5 8-6 13-3zm-372-12c-10 5-17 11-22 21-8 16-1 32 18 40 9 4 17 3 25-1 20-10 26-31 15-48-5-6-11-11-17-12-7-3-12-2-19 0zm0 18l3 5c2 7-3 15-10 15-4 0-9-5-9-9 0-5 1-7 5-9 4-3 8-4 11-2zm222-2c-3 3-2 5 2 15 4 8 4 10 4 16 0 9 2 12 7 12 6 0 14-10 12-17-1-8-10-21-16-25-4-3-7-4-9-1zm-64 0l-11 22c-2 6-2 8-1 11 2 8 9 16 15 18h6c3-3 3-7-3-14-5-9-5-12 0-22 5-8 5-11 2-14-3-2-4-2-8-1zm105 91c-1 2-2 3-2 8 0 11 0 10-15 18l-24 14-11 6-6-1-13-1-12-3-19-7-18-6-4-2v-9c0-8 0-9-2-12l-5-2c-3 0-8 5-8 9-2 9-2 13-1 18 2 6 3 7 8 12 7 6 9 8 27 15 19 9 23 10 31 8l16-1c11 0 11 0 25-8l30-16c10-4 15-9 15-15 1-11-1-21-5-25-2-2-4-3-7 0zm30 71a522 522 0 0 1-123 34c-11 0-15 2-13 6 3 6 32 7 58 1 22-5 50-14 64-21 12-6 24-16 26-20 1-3 1-3-3-3l-9 3z"/></svg>
