<?xml version="1.0" standalone="no"?>
<!DOCTYPE svg PUBLIC "-//W3C//DTD SVG 20010904//EN"
 "http://www.w3.org/TR/2001/REC-SVG-20010904/DTD/svg10.dtd">
<svg version="1.0" xmlns="http://www.w3.org/2000/svg"
 width="1024.000000pt" height="1024.000000pt" viewBox="0 0 1024.000000 1024.000000"
 preserveAspectRatio="xMidYMid meet">
<metadata>
Created by potrace 1.11, written by Peter Selinger 2001-2013
</metadata>
<g transform="translate(0.000000,1024.000000) scale(0.100000,-0.100000)"
fill="#000000" stroke="none">
<path d="M4995 9689 c-419 -30 -578 -57 -1105 -186 -476 -117 -734 -210 -996
-358 -267 -152 -501 -331 -718 -550 -366 -369 -714 -888 -914 -1360 -33 -77
-80 -183 -105 -235 -45 -94 -77 -187 -176 -510 -118 -387 -161 -704 -162
-1175 -1 -264 7 -348 56 -585 13 -63 29 -144 35 -180 6 -36 13 -75 15 -87 4
-18 -3 -24 -57 -42 -97 -33 -196 -98 -283 -185 -145 -145 -196 -247 -266 -524
-36 -140 -39 -165 -39 -287 0 -134 21 -284 52 -365 105 -278 429 -606 682
-689 195 -65 441 -82 591 -42 114 31 290 122 391 203 l85 68 97 -83 c223 -191
520 -429 652 -523 271 -194 585 -382 875 -523 301 -148 347 -159 655 -168 227
-6 495 7 647 32 48 8 141 15 207 15 211 0 658 38 825 70 255 48 229 34 1119
637 180 122 370 251 422 286 115 77 544 337 655 397 44 23 92 51 107 61 14 11
31 19 37 19 6 0 22 -22 36 -50 77 -152 274 -229 555 -217 161 8 228 25 375 96
141 69 230 135 378 280 192 188 292 381 332 641 14 96 14 114 0 207 -23 157
-73 268 -193 430 -58 78 -172 188 -258 249 -74 53 -195 111 -266 129 -40 10
-65 22 -62 29 2 6 8 58 13 116 6 58 21 148 35 200 86 327 97 807 32 1360 -43
366 -95 598 -215 958 -92 276 -137 388 -230 567 -116 223 -168 306 -286 460
-151 196 -309 369 -432 476 -138 119 -325 258 -410 305 -38 21 -106 63 -153
94 -102 68 -364 198 -552 274 -278 113 -600 184 -976 216 -70 6 -154 15 -187
21 -33 6 -206 15 -385 20 -179 5 -345 11 -370 13 -25 2 -99 0 -165 -5z m830
-213 c319 -31 522 -71 785 -154 144 -46 414 -143 545 -197 50 -20 100 -41 112
-46 12 -4 34 -29 49 -55 42 -72 198 -467 233 -589 69 -246 135 -627 150 -867
20 -312 -23 -803 -108 -1233 -22 -110 -45 -229 -51 -265 -6 -36 -34 -154 -61
-264 -27 -109 -49 -205 -49 -212 0 -9 63 -45 153 -87 295 -142 587 -317 897
-540 159 -114 221 -166 335 -281 77 -78 152 -160 168 -182 l27 -40 -35 -175
c-59 -300 -122 -486 -270 -799 -50 -107 -100 -216 -111 -242 -18 -45 -23 -49
-74 -64 -91 -26 -517 -253 -766 -407 -231 -143 -511 -325 -634 -412 -216 -153
-271 -190 -430 -290 -142 -89 -302 -204 -390 -279 -47 -40 -150 -86 -302 -135
-144 -45 -189 -50 -698 -72 -413 -18 -565 -15 -995 20 -294 25 -540 122 -1009
400 -250 148 -343 208 -586 380 -254 180 -366 267 -625 490 -55 48 -136 116
-180 153 -166 138 -329 325 -384 441 -24 51 -129 341 -199 549 l-15 47 35 53
c113 170 388 481 568 642 250 223 668 570 818 679 23 17 42 35 42 40 0 5 -50
92 -111 194 -179 297 -276 520 -314 717 -44 231 -45 654 -1 936 53 340 68 397
188 715 93 247 126 314 221 455 39 58 99 148 134 200 80 119 126 167 183 192
25 11 68 42 95 68 45 43 69 54 255 123 477 177 721 240 1315 342 116 20 237
41 270 47 178 31 528 32 820 4z m3473 -5125 c66 -34 224 -162 323 -261 76 -78
105 -115 141 -186 81 -157 85 -240 19 -401 -106 -257 -252 -425 -465 -534
-203 -105 -377 -145 -493 -116 -86 22 -239 84 -233 94 2 4 25 24 51 44 25 21
72 71 105 113 51 65 62 75 84 70 14 -3 62 -8 107 -11 75 -5 85 -3 138 23 197
99 252 259 152 447 -28 54 -80 111 -123 135 -18 10 -18 13 4 81 13 39 25 71
28 71 30 0 149 -92 270 -208 138 -132 132 -128 149 -106 25 33 27 72 10 151
-35 159 -146 282 -307 342 -40 15 -73 31 -72 36 1 6 12 61 25 123 16 73 28
112 37 112 7 0 30 -9 50 -19z m-8313 -181 c6 -25 15 -57 18 -71 6 -23 -2 -32
-71 -87 -88 -69 -128 -115 -165 -187 -36 -73 -42 -124 -22 -206 19 -77 44
-120 92 -156 l32 -25 17 34 c9 18 21 71 25 117 9 97 44 178 109 251 31 35 42
42 49 31 5 -7 25 -62 46 -122 l37 -109 -29 -37 c-87 -111 -152 -291 -138 -381
15 -100 91 -192 203 -245 56 -27 78 -32 137 -31 79 1 156 28 175 63 11 21 12
20 64 -18 29 -22 87 -61 127 -87 91 -58 209 -145 209 -155 0 -11 -153 -97
-240 -134 -102 -43 -178 -58 -315 -59 -237 -2 -392 70 -606 285 -129 129 -210
280 -228 429 -22 170 51 523 142 690 49 90 139 182 222 227 79 43 96 40 110
-17z m8094 -679 c5 -33 4 -59 -3 -73 -19 -37 -74 -68 -122 -68 -24 0 -44 2
-44 4 0 2 14 34 31 72 17 38 42 93 55 122 l24 54 25 -31 c16 -18 29 -50 34
-80z m-7830 -91 c39 -88 88 -171 141 -239 l39 -49 -31 -11 c-23 -8 -47 -8 -88
0 -115 22 -200 120 -186 212 11 70 70 188 85 171 4 -5 22 -43 40 -84z"/>
<path d="M6899 4450 c-25 -4 -64 -17 -86 -28 -60 -31 -145 -113 -178 -174 -26
-46 -30 -63 -29 -128 1 -88 16 -131 70 -190 46 -51 110 -84 192 -100 162 -32
330 47 399 187 59 121 26 285 -75 374 -71 62 -164 81 -293 59z m-54 -190 c82
-51 64 -155 -34 -196 -29 -12 -37 -12 -68 2 -68 33 -80 115 -25 166 56 52 79
58 127 28z"/>
<path d="M3127 4376 c-102 -42 -170 -106 -219 -204 -82 -165 -9 -326 184 -402
90 -36 163 -33 247 9 196 100 262 311 147 478 -42 62 -104 109 -168 128 -72
21 -123 18 -191 -9z m3 -176 c11 -6 24 -28 31 -49 22 -75 -29 -151 -101 -151
-43 0 -90 49 -90 95 0 48 8 63 49 90 38 26 80 32 111 15z"/>
<path d="M5347 4222 c-25 -28 -21 -56 23 -153 35 -78 40 -98 40 -162 0 -89 15
-117 65 -117 67 0 145 103 129 173 -15 73 -103 207 -165 252 -39 30 -70 32
-92 7z"/>
<path d="M4712 4218 c-25 -13 -76 -113 -112 -222 -20 -60 -21 -73 -10 -110 22
-74 93 -159 147 -177 28 -9 38 -8 58 5 37 25 32 62 -21 141 -55 84 -55 111 0
216 42 80 45 107 13 137 -26 24 -41 26 -75 10z"/>
<path d="M5762 3310 c-17 -16 -22 -33 -23 -78 -2 -109 1 -106 -149 -183 -74
-39 -184 -100 -244 -136 l-108 -66 -62 8 c-33 3 -92 10 -131 14 -40 5 -89 18
-115 31 -25 13 -110 45 -190 71 -80 26 -162 54 -182 63 l-38 16 0 91 c0 82 -2
92 -25 114 -13 14 -35 25 -49 25 -31 0 -73 -49 -80 -93 -14 -92 -15 -127 -2
-182 13 -53 21 -66 75 -116 66 -61 88 -74 266 -149 199 -85 237 -95 310 -81
34 6 108 11 164 11 112 0 111 0 246 80 112 66 217 121 308 159 98 43 146 92
149 154 5 109 -15 210 -48 243 -28 29 -44 30 -72 4z"/>
<path d="M6060 2604 c-134 -62 -432 -159 -719 -233 -348 -90 -380 -97 -514
-107 -111 -8 -148 -25 -129 -60 34 -64 321 -70 586 -13 219 48 500 140 636
210 118 61 244 157 258 199 11 30 11 30 -26 30 -20 0 -62 -12 -92 -26z"/>
</g>
</svg>
