<?xml version="1.0" encoding="utf-8"?>
<!-- Generator: Adobe Illustrator 18.1.1, SVG Export Plug-In . SVG Version: 6.00 Build 0)  -->
<svg version="1.2" baseProfile="tiny" id="Layer_1" xmlns="http://www.w3.org/2000/svg" xmlns:xlink="http://www.w3.org/1999/xlink"
	 x="0px" y="0px" viewBox="0 0 700 100" xml:space="preserve">
<path fill="#594C21" d="M17.1,89c-7.5,0.2,1.1-9.5,2.3-10.9c4.8-5.4,26.7-26.5,25.6-30.5c-0.6-1.9-4.4-4.4-5.7-5.7
	c-3.1-3-18.9-18-23.2-22.9c-1.6-1.8-3.5-5.3-0.2-6.8c3-1.3,4.5,2.7,6,4.5c3.9,4.9,25.1,25.6,29.7,26.4c2.4,0.5,5.3-4.8,7.1-6.4
	c2.5-2.4,17.7-17.9,23.1-22.2c2-1.6,4.7-2.1,5.6,1c0.8,2.7-1.8,4.5-3.5,6.2c-5,4.6-29.2,24.1-27.6,28.8c0.8,2.5,5,5.1,6.9,6.9
	c2.9,2.7,17.7,16.2,21.1,21.1c1.2,1.8,3.3,5.8-0.3,6.6c-3,0.7-6.2-4.9-8-6.7c-5.8-6-12.1-11.5-18.1-17.4c-4.1-4.1-6.7-9.2-11.6-3.5
	C41,63.6,22.4,86.3,16.8,89C17,88.9,18.5,88.9,17.1,89C14,89.1,18.9,88.9,17.1,89z"/>
<path fill="#594C21" d="M231.5,42.1c-6.4-1.8-4.8-5.8-10.3-3.7c-4.4,1.6,4.3,7.7,9.6,9c6.6,1.7,26.9,6.9,30,8.5
	c2.9,1.5,3.3,3.6,5.4,5.7c1.7,1.6,4.3,1.4,5-1.2c0.6-2.4-5-6.3-6.7-7.6C258.3,48.1,239.9,44.5,231.5,42.1z"/>
<path fill="#594C21" d="M247,44.8c3.2,3.1,16.2-7.1,18.6-8.8c2.9-2,17.8-10.5,16.6-14.9c-1.6-6.2-13.8,6.1-15.8,7.5
	C263.7,30.7,243.7,41.6,247,44.8z"/>
<path fill="#594C21" d="M615.8,70.9c1.6-1,5.1-0.7,6.7-0.8c3.7-0.3,42.9,0.2,58.5-1.5c2.1-0.2,4.9-1.2,6.5,0.7
	c2.1,2.5-0.1,4.6-2.4,5.4c-2.1,0.7-62.7,1.2-64,1.2C619.3,75.9,610.3,74.2,615.8,70.9z"/>
<path fill="#594C21" d="M617,28.4c-2-0.1-5.7-0.4-3.7-3.3c1.2-1.7,6.3-1.6,8.1-1.7c8.6-0.4,43.5,0,52.3,0.2
	c3.3,0.1,8.3-0.6,11.5,0.4c2.9,1,3.6,4.5,0.3,5.2c-3.8,0.8-13.7-0.5-24.6-0.7C648.8,28.4,627.5,29.1,617,28.4z"/>
<path fill="#594C21" d="M677.3,46.5c2.1-0.2,6.1-0.9,8.1,0.2c2.5,1.4,2.1,4.1-0.3,5.3c-2.2,1.1-6.2,0.6-8.5,0.8
	c-8.4,0.5-16.8,0.6-25.3,0.5c-4.2,0-37.1,1.9-36.3-4.2c0.5-4,14.7-2,17.4-2C636,47,657.5,48.8,677.3,46.5z"/>
<path fill="#594C21" d="M574.4,23.1c3,0.5,7.7,4,2.7,6.1c-2,0.8-4.8,0-6.8-0.3c-3.4-0.4-6.8-0.5-10.2-0.6c-8.1-0.2-16.3,0-24.3,1.1
	c-3.2,0.4-6.6,0.9-9.5,2.4c-2.9,1.5-4.1,4.7-6.7,6.2c-2.5,1.4-4.4,0.1-4.2-2.7c0.2-2.5,2.6-5.4,4.4-6.8
	C529.1,21.3,560.2,20.8,574.4,23.1z"/>
<path fill="#594C21" d="M331.5,25.6c2.2-1.2,5-0.2,3.4,2.2s-4.6,4.9-6.4,6.6c-5.7,5.6-0.6,7.9,5.1,8.7c8.6,1.1,17.6-1.9,25.1-6.2
	c3.9-2.3,4.5-4,6.7-6.3s6-0.9,4.3,3.1c-2.9,7-11.6,9.5-17.6,12.1c-4.9,2.1-14.7,4-22.1,1.8c-4.9-1.5-8.3-3.6-9.1-6.8
	C319.4,35.2,326.3,28.5,331.5,25.6z"/>
<path fill="#594C21" d="M526.4,75.7c-1.7-0.5-4.8-1.9-3.3-4.3c1.3-2.1,5.2-0.8,7.3-0.8c13.2,0.3,35,0.7,46.7-5.2
	c2.2-1.1,0.9-5.1,3-6.4c5.6-3.7,4.1,7.4,2.1,9.7c-3.5,4.2-10.4,5.3-15.5,6.3C559.8,76.3,532.2,77.4,526.4,75.7z"/>
<path fill="#594C21" d="M421.9,32.1c4.1-3.6,10.9-7,15.9-8.1c3.2-0.7,14.6-3.5,16.5-1.5c4,4.3-5.6,4.2-7.6,4.5
	c-5.6,1-11.9,1.8-17,4.5c-2.8,1.5-9.4,7.2-6.8,10.8c1.2,1.6,6.1,0.5,4.6,3.4c-0.9,1.7-3.1,1.5-3.6,1.5
	C416,47.5,416.2,37.1,421.9,32.1z"/>
<path fill="#594C21" d="M441.3,73.3c0.9-2.8,7.2-1.6,9.4-1.9c5.6-0.8,11.5-1.7,16.9-3.6c1.8-0.7,5.5-2.3,6.9-3.9
	c2.2-2.6,0.2-4-0.4-6.3c-1.4-4.8,4-4.3,6.3-1c2.6,3.7,1.2,8.8-2.1,11.3c-6.2,4.7-19.5,7.7-30.2,8.9
	C445.9,76.9,440.1,77.1,441.3,73.3z"/>
<path fill="#594C21" d="M354.3,54c-2.6-1,0.2-3.6,1.5-3.8c4.8-0.8,19.5,6.3,20.4,11.5c0.9,5.3-4.7,9.1-8.8,11
	c-1.7,0.8-9.8,3.6-8.8-0.8c1.1-4.5,14.3-3.1,11.6-9.8C368.3,57.2,358.6,55.6,354.3,54z"/>
<path fill="#594C21" d="M243.2,63.9c-4.3,3.6-17.7,18.9-21.1,20.7c-3.5,1.8-5.3-1.1-3.6-4.4c1.6-3.1,16.1-15.9,20.2-19.5
	c2.3-2,4.7-4.5,7.4-6c1.1-0.6,6.1-1.9,4.5,1.7C249.7,58.5,245.7,61.8,243.2,63.9z"/>
<path fill="#594C21" d="M458.5,55.1c-3.7,1.5-8.6,3.4-12.3,4.8c-7.9,2.9-12.8,10.8-12.8,4c0-5.3,12.7-9.7,16.2-11.2
	c3.1-1.3,6.3-2.7,9.6-3.5c1-0.2,3.8-1.6,5,1.2C465.2,52.6,462.3,53.6,458.5,55.1z"/>
<path fill="#594C21" d="M349.4,58.6c-6.4,3.8-11.9,8.6-16.7,14.3c-1.3,1.6-3.4,4.9-5.9,3.3c-2.5-1.5-0.6-4,0.7-5.7
	c4.6-6.1,10.9-11.4,17.2-15.5c1.6-1,5.7-3.9,7.5-1.7C354,55.3,351.1,57.6,349.4,58.6z"/>
<path fill="#594C21" d="M560.5,54c-12.2,1.7-14,4.2-14.5,0.6c-0.8-5.5,13.3-6.4,17.1-6.7c0.8-0.1,18.7-1.7,15.8,2.8
	C576.9,54,571.4,52.4,560.5,54z"/>
<path fill="#594C21" d="M540.1,45.2c2.3-1,8.5-5.9,10.9-4.3c5.7,3.9-9.5,9.4-11.5,10.2c-3.6,1.3-15.8,5-18.9,0.8
	c-3.8-5.1,6.8-3.9,6.3-3.9C533.5,48.2,535.9,47,540.1,45.2z"/>
<path fill="#594C21" d="M445.3,47.8c-2.7,1.4-10.2,6-12.2,4.9c-5.9-3.1,6.4-7.9,8.3-8.9c4.1-2.2,12.4-6.8,14.3-8
	c2.9-1.8,5.6,0.6,3.7,2.2C454.8,42,450.4,45.1,445.3,47.8z"/>
<path fill="#594C21" d="M146.6,40.4c-4.2-6.2-14.8-7.9-21.5-5.5c-4,1.4-6.7,4.8-7.4,9c-0.3,1.8-0.2,6.9,3,5.8
	c2.3-0.8,1.9-6.6,3.5-8.5c2.4-2.9,6.4-2.9,9.8-2.5c9.9,1.2,11.7,10.2,15.2,18c2.9,6.7,7.5,13.1,15,14.8c4.1,0.9,8.7-0.1,12.1-2.6
	c1.6-1.2,7.4-7.6,3.4-9.2c-2.5-1-6.1,4.7-8.3,5.8c-3.4,1.6-7.6,1-10.6-1.1C153.3,59.3,151.5,47.6,146.6,40.4z"/>
<path fill="#594C21" d="M154.1,42.5c7.4-7.2,34.7-38,38.6-32.8c-0.2-0.3-0.4-0.6-0.6-0.8c2.5,3.4-5,8-7,10.1
	c-5.6,5.8-24,25.7-28,29.3c-1.5,1.3-3.8,2.8-5.4,0.5C150.2,46.5,152.6,44,154.1,42.5z"/>
<path fill="#594C21" d="M133.3,62.6c-3.8,4-17.9,19.7-21.4,23.4c-1.4,1.4-3,2.4-1.9,4.6c0.9,1.9,2.8,1.9,4.5,1.2
	c2.9-1.2,5-5.1,6.9-7.4c3.6-4.3,19-20.3,22.6-24.2c1.2-1.3,3.4-3.1,2.8-5.1c-0.5-1.8-2.8-1.9-3.4-1.7
	C139.3,55,136.3,59.3,133.3,62.6z"/>
<path fill="#594C21" d="M472,72.5"/>
<path fill="#594C21" d="M472,73.2"/>
<path fill="#594C21" d="M472,72.5"/>
</svg>
