<?xml version="1.0" encoding="utf-8"?>
<svg version="1.2" baseProfile="tiny" id="Layer_1" xmlns="http://www.w3.org/2000/svg" xmlns:xlink="http://www.w3.org/1999/xlink"
	 x="0px" y="0px" viewBox="0 0 200 200" xml:space="preserve">
<path fill="#DFCDAD" d="M13.1,47.5C23.6,29.9,38.6,15.9,57.6,8c18.5-7.8,37.1-7.6,56.8-7.6c20.7,0,42.4,6,57.4,20.9
	c14.3,14.1,23.1,37,26.5,56.4c3.6,20.6,1.1,41.7-6.6,61.1c-7.9,19.9-20.2,37.4-39.2,48.2c-19.8,11.2-40.2,13.3-62.5,12.8
	c-24.5-0.6-46.1-12.9-62.4-31c-7.6-8.5-13.8-18.2-18.5-28.5c-2.8-6.2-4.7-11.6-6.3-18.2C1.4,115.9,1,112,0.2,102S2.9,64.6,13.1,47.5
	z"/>
<path fill="#A7D558" d="M195.5,91.5c1,10.9-1.4,24.6-4.4,34c-6.1,19.5-16.2,38-32.9,50.3c-17.3,12.8-39.6,18.3-60.9,18.2
	c-23.4-0.1-44.9-9-61.6-25.5c-11.5-11.4-17.8-23.9-24.6-38.1c-19-37.8-0.3-89.2,33.3-111.8c18-12.1,40.4-16.5,61.8-16.4
	c21.9,0.1,46.3,4.7,62.5,20.7c7,6.9,11.4,15.6,15.5,24.5c2.4,5.3,4.6,10.6,6.3,16.1c1.3,4,3.3,11.4,3.7,14.8
	C194.7,81.8,195.2,87.5,195.5,91.5z"/>
<path fill="#E5F2CD" d="M189.2,89.6c2.1,0,4.1-0.1,6.1-0.2c-0.1-1.9-0.3-3.6-0.5-5.5c-0.4-0.4-0.5-0.3-0.9-0.7
	c0.2,0,0.5-0.2,0.9-0.4c-0.2-0.6-0.3-1.3-0.5-1.9c-0.3-0.3-0.6-0.3-0.9,0c0,0.9,0,1.5,0.1,1.8c-0.2-0.4-0.4-0.8-0.3-1.4
	c0-0.3-0.1-0.7-0.2-1c0,0-0.1-0.1-0.1-0.1c0.5-0.3,1-0.6,1.1-1.2c-1.5-1.4-1.3,0.6-1.9,1c0,0,0,0,0,0h0c-1.8,2.5-2.6,5.4-3.9,8.1
	C187.7,89.2,188.1,89.6,189.2,89.6z"/>
<path fill="#E5F2CD" d="M16.5,141.1c0.6,1.3,1.1,2.8,2.1,3.9c0.5-1.2,2.3-2.5,1.4-3.6C19.4,140.4,17.7,141,16.5,141.1z"/>
<path fill="#E5F2CD" d="M195.5,91.5c-1,0.5-0.8,0.9,0.2,2.2C195.7,93.1,195.6,92.2,195.5,91.5z"/>
<path fill="#E5F2CD" d="M133.9,64.3c5.9-1.5,11.7-3.2,17.7-4.1c0.9-0.6,2,0.2,2.9-0.5c0.9-0.6,2,0.2,2.9-0.5c1-1.6,0.8-6.1-0.3-7.5
	c-0.4-0.5-1.1-1.2-1.6-0.9c-1.8,1-3.2-0.5-4.8-0.7c-2.2-0.3-4.4-0.9-6.5,0.5c-0.2,0.1-0.7,0.2-0.9,0.1c-3.3-1.9-6.5-0.2-9.8-0.2
	c-1.1,0-1.6,0.5-1.5,1.6c0,3.5,0,7,0,10.6C132,64,132.4,64.7,133.9,64.3z"/>
<path fill="#E5F2CD" d="M123.9,104.8c-1.6,0.5-4.3-0.3-4.6,1.9c-0.2,1.4-0.5,4,1.7,4.7c1.5,0.5,4.1-2.7,4.2-4.9
	C125.1,105.8,125,104.5,123.9,104.8z"/>
<path fill="#E5F2CD" d="M175.7,91.9c-0.7,0.2-1.6-0.6-2.1,0.1c-0.3,0.4,0.2,1,0.6,1.4c0,0,0,0,0,0c0.2,0.8,0.4,1.7,1,2.4
	c0.2,1.3,0.8,2.3,1.9,3.8c0-2,0-3.4,0-4.8c0,0,0,0,0,0C176.9,93.8,178,92.1,175.7,91.9z"/>
<path fill="#E5F2CD" d="M178.3,69.8c1.2,0.1,2.4,0.1,3.5,0.2C180.8,69.3,179.6,68.5,178.3,69.8z"/>
<g>
	<path fill="#E5F2CD" d="M102.9,106.5c-0.9-2.7-0.9-5.7-2.2-8.3c-0.9,1.1,0.3,2.3,0,3.4c-0.2,0.8,0.2,1.7-0.6,2.4
		c0.2-2.6-1.5-5-0.9-7.7c0,0,0,0,0,0c-2.3-0.4-4.4,0.5-6.5,1.4c-2,0.8-2.4,2.4-1.4,4.2c1.3,2.1,2.7,4.2,3.9,6.3
		c0.7,1.2,1.8,1.5,2.9,1.3c1.7-0.4,3.4-0.8,4.7-2.1C103,107.3,103,106.8,102.9,106.5z"/>
</g>
<g>
	<path fill="#E5F2CD" d="M184.7,83.6c0.5-3.7-0.1-4.2-3.7-3.5c-0.3,0.1-0.6,0.2-0.9,0.3c-0.8,0.9-1.6,1.8-2.3,2.7
		c-0.3,0.4-0.5,1.2-1.2,0.6c-0.5-0.4-0.3-1,0.1-1.5c0.3-0.3,0.8-0.5,0.8-0.8c0.2-0.9-0.5-0.4-0.8-0.4c0,0,0,0,0,0
		c-0.5,0.5-1,0.9-1.4,1.4h0c0,0.9,0,1.9,0,3.2c-1.5-1.3-0.5-2.3-0.5-3.2c0-0.3,0-0.7,0-1h0l0,0c-0.5,0-0.9,0-1.4,0
		c-0.3,0.4-0.5,0.9-0.6,1.4c-0.2-0.8-0.6-1.3-1.8-1c-0.6,0.4-2.6-0.9-1.6,1.3c1.1,2.4,2.4,4.6,3.6,6.9c0,0,0,0,0,0v0
		c3.2,0.5,6.4,0.1,9.6-0.1c1.8-0.1,2.7-1,2.2-3C184.3,85.9,184.5,84.7,184.7,83.6z"/>
</g>
<g>
	<path fill="#E5F2CD" d="M186.7,73.7c-0.4,1.1-0.8,2.3-1.2,3.4c-0.1,0-0.3,0-0.4-0.1c0.2-1.8,0.5-3.6,0.7-5.3c0,0,0,0,0,0
		c0,0,0,0,0,0c-0.2-0.9-0.3-2.1-1.4-2.2c-1.4-0.2-1.2,1.1-1.5,2c-0.4,1.3-1.2,0.3-1.7,0.1c-0.8-0.5-1.5-1.3-2.2,0.1
		c-0.1,0-0.3,0.1-0.4,0.1c0,2,0,4.1,0,6.1c-0.7-0.7-0.4-1.9-1.5-2.3c0,0,0,0,0,0c0,0,0,0,0,0c-0.4,1.2-1.1,2.5-0.1,3.5
		c0.8,0.8,2,0.4,3.1-0.1c0,0,0,0,0,0c1.3-0.1,2.7-0.2,4-0.4C188.6,78,188.6,78,186.7,73.7z"/>
</g>
<g>
	<polygon fill="#E5F2CD" points="45.8,74.2 45.8,74.2 45.8,74.2 	"/>
	<path fill="#E5F2CD" d="M46.7,69.9C46.7,69.9,46.7,69.9,46.7,69.9c-0.3,0-0.5,0-0.8,0c0,0,0,0,0,0c0,0.1,0,0.3,0,0.4c0,0,0,0,0,0
		c0.7,1.4,0.7,2.9,0,4.3c0,0,0,0,0,0c0,0,0,0,0,0c-1.3,0.6-0.9-0.4-1-1c0,0,0,0,0,0c0,0,0,0,0,0c-0.7-1.2-0.3-2.5-0.6-3.8
		c0,0,0,0,0,0c-1.3,0-2,0.5-1.8,1.8c0,0,0,0,0,0c0,0,0,0,0,0c0,1-1,1.6-1.1,2.6c-0.4-1.2-0.9-2.3-1.3-3.5c-1.3,1.6-0.9,3.4-1,5.2
		c-0.1,1.8,0.5,3.6-0.4,5.3c-0.2,1.3,0.3,2.6-1,3.8c0-3.3,0-6.7,0-10l0,0c-0.4-0.7-0.5-1.5-0.5-2.3c0-1.9-1.1-1.6-2.3-1.1
		c-1,0.4-1,1.4-1,2.2c-0.1,5.4,0,10.7-0.2,16.1c0,1.6,0.6,2.1,2.2,2c2.6-0.2,5.3-0.3,7.9-0.4c2.9-0.1,3.6-0.7,3.9-3.7
		c0.1-0.7,0.1-1.4,0.1-2.2C48.3,80.4,46.8,75.2,46.7,69.9z"/>
</g>
<g>
	<path fill="#E5F2CD" d="M155,95c-3-0.1-3.1,0-4.1,2.3c-0.3,0.8-1.1,1-1.8,0.9c-1.1-0.1-0.2-0.7-0.2-1.2c-0.1-1.2-0.9-0.5-1.4-0.4
		c-3.4,1-6.5,3-10,3.6c-0.1,0-0.2,0.2-0.3,0.3c0,1.4,0,2.8,0,4.5c-1-1.3-1-2.5-0.9-3.6c0,0,0,0,0,0c0,0,0,0,0,0
		c-0.1-0.7-0.6-1-1.2-0.8c-1.9,0.7-3.7,1.4-5.6,2.2c-1.1,0.5-0.9,1.4-0.3,2.2c1.2,1.8,2.4,3.6,3.9,5.1c0.9,0.9,1.8,1.2,3,0.9
		c5-1.2,10.1-1.7,15.1-2.3c2.1-0.2,2.8-1.1,3.3-3.1C155.3,102.2,154.7,98.6,155,95z"/>
</g>
<g>
	<path fill="#E5F2CD" d="M52,139.6c-0.1,0-0.2,0-0.3,0c-0.2,1.4-0.3,2.9-0.3,4.3c0-1.4,0-2.8,0.3-4.3c-0.2-0.5-0.3-0.9-0.5-1.4
		c0,0,0,0,0,0c-0.4-0.3-0.9-0.6-1.3-0.9c-0.9,0.7,0.9,1.4-0.1,2c-1.1,0.3-0.5-2.1-1.9-1.3c-1.2,1.4-0.9,3.1-0.9,4.8
		c0,2.2,0,4.5,0,7.3c-1.2-1.3-0.9-2.3-0.9-3.2c-0.1-2.4-0.2-4.9-0.2-7.3c0-0.6-0.2-0.9-0.7-1c0,0,0,0,0,0c-1.1,1.8,0.1,3.9-0.9,5.7
		c0,1.2-0.1,2.5-0.1,3.7c0,0,0,0,0,0c0,0,0,0,0,0c0,0,0,0,0,0c-0.5,0.3-0.8,0.3-1,0.1c-0.3-0.1-0.3-0.4-0.4-1.3
		c-0.2-1.8,0.6-3.8-0.5-5.5c0,0,0,0,0,0c0,0,0,0,0,0c-1.2-1.6-2.1-3.7-4.7-1.8c-0.1,0.1-0.4-0.2-0.6-0.3c-2.5-0.6-5-0.8-7.2,1.2
		c-0.6,0.6-1,1.4-1.9,1.8c-0.6-0.5,0.1-1.7-1.1-1.8c0,0,0,0,0,0c0,0,0,0,0,0c-1.7,1-1.3,2.3-0.4,3.6c3.1,4.6,6.6,8.8,10.2,13.1
		c1.4,1.7,2.7,2.5,4.9,1.7c1.8-0.7,3.7-1.2,5.5-1.6c1.3-0.3,2.6-1,4-0.4c0.7,0.6,1.1,0.1,1.4-0.4c0-1.4,0-2.9,0-4.3
		C52.1,147.9,52,143.8,52,139.6C52,139.6,52,139.6,52,139.6z"/>
</g>
<g>
	<path fill="#E5F2CD" d="M71.8,108.5c-0.4-2.6-0.6-5.2-0.5-7.9c0.1-1.8,0.4-3.5,0.4-5.2c0-1.9-1.5-2.5-3-2.8c-1-0.1-2.6-0.8-2.7,1.2
		c0,2.1,0,4.2,0,6.3c0,0,0,0,0,0c0,0.7,0.3,1.4-0.4,1.9c-0.8-0.6-0.5-1.5-0.5-2.2c0-1.8,0-3.7,0-5.5c0-0.7,0-1.5-0.9-1.3
		c-1.4,0.3-3.4,0-3.4,2.4c0.1,2.9-0.2,5.7,0.4,8.5c0.1,0.6,0.3,1.7-0.7,1.8c-1,0-0.7-1-0.7-1.7c0-2.9,0-5.8,0-8.6c0,0,0,0,0,0l0,0
		c-0.9-1.6-5.3-2.6-5.8-1.3c-1,2.9-2.8,0.6-4.1,1.1c-0.5,0.2-0.7-1.1-1.6-1.1c-2.2,0.1-4.4,0-6.6-0.1c-0.5,0.9-1,1.8-1.5,2.6
		c-0.4,0.7-0.9,0.8-1.5,0.2c0,0,0,0,0,0c-0.5-0.7-1.3-1-1.4-2l0,0l0,0c-0.7-1.1-1.8-1.1-2.8-0.7c-1,0.4-0.6,1.4-0.6,2.1
		c0,4.9,0.1,9.8-0.1,14.6c-0.1,2.1,0.6,2.7,2.7,2.7c3-0.1,5.6-1.6,8.6-1.5c8.1,0.2,16.3-0.4,24.4-0.8
		C71.6,111.2,72.1,110.4,71.8,108.5z"/>
</g>
<g>
	<path fill="#E5F2CD" d="M148.7,75.5c-0.2-2.6-0.3-5.3-0.4-7.9c0-1.5,0.2-3.7-1.6-3.8c-1.7,0-4.1-0.7-5.2,1.6c0,1.9,0,3.9,0,5.8
		c-1.2-1-1.4-2.2-1.4-3.4c0-0.8,0.1-1.6-1-1.9c0,0,0,0,0,0c-0.8,0.3-1.6,0.7-2.3,1c0,0,0,0,0,0c-0.2,0.5,0.3,1.4-0.5,1.5
		c-0.6,0.1-0.4-0.7-0.4-1.1c0-0.3,0-0.6,0-1c0,0,0,0,0,0c0,0,0,0,0,0c-0.3-0.2-0.7-0.3-1-0.5c-1.1,0.5-2.6,0.6-2.5,2.4
		c0.2,3.4,0.2,6.7,0.3,10.1c0.1,1.6,0.8,2.3,2.5,1.9c4-1,7.9-1.9,11.9-2.7C148.3,77.4,148.8,76.7,148.7,75.5z"/>
</g>
<g>
	<path fill="#E5F2CD" d="M183,65.4c-1-2.2-2-4.4-2.9-6.6c-1.1-2.7-1.9-3.2-4.9-2.9c0,2.4,0,4.9,0,7.3c-1.2-1.1-0.7-2.5-0.9-3.7
		c-0.1-0.8,0.3-1.9-1-2.1c0,0,0,0,0,0c-2,0.8-1.6,2.8-2.3,4.3c0.4,0.2,0.7,0.4,1.1,0.6c-0.3,0.3-0.6,0.7-1,0.9
		c-0.4,0.3-0.8,0-0.8-0.4c0-0.6-0.5-0.7-0.8-1.1c0,0,0,0,0,0c-2.6,0-3.9,2.2-5.9,3.2c-0.9,0.4-1.4,0.7-1.1,1.7
		c0.3,0.9,0.6,1.9,1.9,1.6c5.8-1.3,11.6-0.7,17.5-0.7C183.8,67.5,183.6,66.8,183,65.4z"/>
</g>
<g>
	<path fill="#E5F2CD" d="M31,133.3c-1.2-2.1-2.9-3.8-4.4-5.6c-1.8-2.3-2.7-5.2-4.8-7.3c-1,1.6,0.2,3.7-1.1,5.9
		c-0.6-2.8-0.3-5.1-0.3-7.4c0,0,0,0,0,0c0,0,0,0,0,0c-1-1-2.1-2-3.3-3.3c-0.6,1.5-1.1,2.9-1.6,4.2c0.1,2-0.2,4.1,0.4,6.1
		c0.1,0.4,0.1,1-0.3,1.3c-0.1,0.1-0.5,0.1-0.6,0c-0.4-0.4-0.1-0.9-0.1-1.3c-0.2-0.9,1.3-2.4-0.8-2.7c0,0,0,0,0,0c0,0,0,0,0,0
		c-0.3,0.8-0.6,1.6-1,2.4c0.2,1,1,2.3-1,2.4c0,0,0,0,0,0c0,0,0,0,0,0c-0.1,0.3-0.3,0.7-0.4,1c-0.2,0.6,0.1,1-0.4,1.5
		c1,2.4,2.1,4.9,3.7,7.7c4.9-1.5,9.4-2.8,14.6-2.5C31.7,135.8,32,135.1,31,133.3z"/>
</g>
<g>
	<path fill="#E5F2CD" d="M156,83.8C156,83.8,156,83.8,156,83.8c0,0.1-0.1,0.3-0.1,0.4c0,0,0,0,0,0c0,0,0,0,0,0
		c-0.3,2-0.8,3.9-1.4,5.8c0,0,0,0,0,0c-0.1,0.3-0.2,0.8-0.5,0.6c-0.8-0.5-0.3-1.1,0-1.6c0.4-1.8,0.8-3.6,1.2-5.5
		c0-0.4,0.2-0.8,0.3-1.2c0-0.3,0.1-0.6,0.1-0.9c-0.2-0.3-0.4-0.7-0.5-1c-0.4,0.5-0.3,1.4-1.3,1.5c-0.4-1.2,0.6-2.2,0.3-3.4
		c0,0,0,0,0,0c-1.7,0.6-3.4,1.1-5.2,1c-0.3,0.7-0.6,1.3-1,2.1c-0.8-0.4-0.5-1.1-0.6-1.6c0,0,0,0,0,0c-0.4-0.3-0.8-0.6-1.4-0.5
		c-0.7,1-0.2,2.2-0.7,3.4c-0.3-1.1-0.5-2-0.7-2.9l0,0c-3.3,0.5-6.6,0.8-9.9,1.7c-1.2,0.3-1.7,1-1.5,2.2c0.5,3.6,0.9,7.3,1.4,10.9
		c0.5,3.2,1.1,3.5,4.4,2.7c5.2-1.3,9.9-4.5,15.5-4.9c0.9-0.1,1.6-0.7,1.7-1.8c0.2-1.8,0.4-3.6,0.5-5.5
		C156.3,84.8,156.2,84.3,156,83.8C156,83.8,156,83.8,156,83.8z"/>
	<path fill="#E5F2CD" d="M156.5,85.3c0.1-0.2,0.1-0.4,0.2-0.6C156.6,84.9,156.6,85.1,156.5,85.3z"/>
</g>
<g>
	<path fill="#E5F2CD" d="M116.7,107.3c-1-1-2.7-0.1-3.9,0.6c-0.1,0.5,0.6,1.4-0.3,1.5c-0.7,0.1-0.6-0.9-0.7-1.5c0,0,0,0,0,0
		c-0.7-0.1-1.3,0.1-1.9,0.5c-0.2,1.2,0.3,2.6-0.5,3.9c-1.1-1.1,0.5-3.4-2-3.5c0,0,0,0,0,0c0,0,0,0,0,0c-1.1,0.2-2.2,0.4-3.3,0.6
		c-1.2,0.7-2.5,1-3.9,0.9c-2.8,1.5-2.8,1.5-1.1,4.2c0.8,1.2,1.6,2.4,2.4,3.6c0.7,1.1,1.6,1.4,2.8,0.8c4-1.9,8.1-3.7,12.2-5.5
		c0.6-0.3,1.3-0.5,1.3-1.3C117.7,110.4,117.7,108.4,116.7,107.3z"/>
</g>
<g>
	<path fill="#E5F2CD" d="M70.9,70.1c0,0.9,0,1.8,0,2.6c-0.5,0.9-0.1,1.9-0.3,2.8c0,0.1-0.1,0.2-0.2,0.3c0.3,0.4,0.3,0.9-0.1,1.3
		c-0.9,1.2,0,2.8-0.9,3.9c0,0,0,0,0,0c-0.3,0.7-0.7,1-0.9,0.1c-0.1-0.5,0.2-1.1,0.4-1.6l0,0c0.2-1.1,0.3-2.2,0.5-3.4
		c0-1.9,0-3.8,0-5.7c0-0.9,0.1-1.8-1-2.1c0,0,0,0,0,0c0,0,0,0,0,0c-1.9,0.1-3.5,0.9-4.8,2.4c0.1,0.4,0.5,0.8,0.2,1.1
		c-0.6,0.4-1-0.6-1.7-0.6c0,0,0,0,0,0c0,0,0,0,0,0c-0.4-0.2-0.8-0.4-0.9-0.9c-0.4-0.2-0.2-1.3-0.9-1c-0.7,0.3-0.4,1.2-0.5,1.9
		c-0.1,0.1-0.1,0.3-0.2,0.4c0.1-0.1,0.1-0.3,0.2-0.4c0,2.3,0,4.5,0,6.8c-1.4-1.9-0.8-3.8-0.4-5.7c-0.1-0.2-0.4-0.4-0.4-0.5
		c0.3-2.4-1.2-2.6-3-2.4c0,0,0,0,0,0c0,0,0,0,0,0l0,0c-1.3,1-0.5,2.7-1.4,3.9c0,0,0,0,0,0c0,0,0,0,0,0c-0.4,0.7-0.3,1.3-0.2,2.1
		c0.1,0.5,0.3,1.3-0.4,1.4c-0.9,0.1-0.8-0.8-0.9-1.4c-0.1-1.8-0.1-3.6-0.1-5.4c0,0,0,0,0,0c-3.1-1.2-3.7-0.8-3.8,2.3
		c0,5.3,0.2,10.5-0.4,15.8c-0.1,0.8-0.3,1.6,0.7,2.1c1,0.5,1.8,0.3,2.6-0.5c0.4-0.3,0.9-0.3,1.4-0.3c-0.5,0.1-0.9,0.2-1.4,0.3
		c5.8,0.1,11.6,0.2,17.4,0.4c1.7,0.1,2.4-0.4,2.4-2.3c-0.1-4.9-0.1-9.7-0.1-14.6c0,0,0,0,0,0c0-0.4,0-0.9,0-1.3
		c0.1-0.2,0.1-0.3,0.2-0.5c0.3-0.8,0.2-1.7,0.3-2.5c0,0,0,0,0,0c0-0.2,0-0.3,0-0.5C71.2,68.4,70.8,69,70.9,70.1z M65.6,89.7
		c0.4,0,0.8,0,1.2,0.1c1,0.1,1.8,0.1,2.4,0C68.4,90,67.2,89.9,65.6,89.7z"/>
</g>
<g>
	<path fill="#E5F2CD" d="M157.9,60.8c-1.4-0.1-1.4,0.9-1.4,1.9c0,0.7,0.3,1.6-1,1.5c0,0,0,0,0,0c0,0,0,0,0,0c0,2,0.2,4.1-0.7,6.3
		c-0.5-2.3,0.4-4.6-1.1-6.4c0.1-1.4,0-2.6-1.9-2.4c0,0,0,0,0,0c-1.9,3.2-0.9,6.7-1,10.1c-0.1,5.5-1.1,5.5,5.3,3.9
		c0.9-0.2,1.9-0.4,2.1-1.6C158.4,69.6,158.7,65.2,157.9,60.8z"/>
</g>
<g>
	<path fill="#E5F2CD" d="M71.9,138.2c-0.1-0.6-0.3-1.1-1-1.1c-0.7,1.2-0.4,2.6-0.5,3.9c-0.1,0-0.1,0.1-0.1,0.1c0,0,0.1-0.1,0.1-0.1
		c-0.1,1.3,0.3,2.6-0.6,4.1c-0.6-1.2-0.3-2.2-0.4-3.2c0-4-0.3-4.3-4.4-4.3c-0.8,0-1.6,0-2.4,0c0.2-0.1,0.4-0.1,0.6-0.2
		c-0.2,0-0.4,0.1-0.6,0.2c-0.2,0.2-0.3,0.3-0.5,0.5c0.1,2,0.2,3.9,0.3,6.1c-1.3-0.4-1.3-1.5-1.3-2.3c0-2.2-0.8-3.8-2.9-4.7
		c0,0,0,0,0,0c-1.6-0.1-3.3-0.3-3.8,1.9c0,1.2,0.2,2.3-0.5,3.4c0,0,0,0,0,0c0,0.1,0,0.3,0,0.4c0,3.8,0,7.6-0.1,11.4
		c-0.1,1.9,0.5,2.8,2.5,2.5c0,0,0,0,0,0c4.4-0.8,8.8-1.5,13.2-2.3c0.9-0.2,2.2-0.2,2.1-1.4C71.6,148.1,73,143.2,71.9,138.2z"/>
</g>
<g>
	<path fill="#E5F2CD" d="M60.9,116.8c0-0.8-0.4-1.4-1.1-1.7c-1.8,0.5-4.1-0.3-5.4,2.4c-0.6-0.8-1-1.3-1.4-1.9c0,0,0,0,0,0
		c-3.6-0.1-7.3-0.3-10.9,0.5c0,0,0,0,0,0c0,0.8,0,1.5,0,2.3c0,0,0,0,0,0c0.8,2.1,0.3,4.2,0.4,6.3c-0.3,1.2,0.9,2.3,0.1,3.8
		c-1.1-1.2-0.5-2.6-0.6-3.8c-0.8-1.4-0.3-2.9-0.4-4.3c0-1.4-0.1-2.8-0.1-4.3c0,0,0,0,0,0c-1.7-0.1-3.4-0.1-5-0.3
		c-1.9-0.3-2.8,0.1-2.7,2.3c0.4,5.1,0.6,10.2-0.5,15.2c-0.4,1.9,0.4,2.2,2,2.1c7.8-0.4,15.6-0.7,23.5-1c2-0.1,3.2-1.1,3-3.2
		C61.5,126.3,61.2,121.6,60.9,116.8z M52.4,128.1c-0.6,0.7-1.2,0.6-2.1,0c0.7-0.7,1.3-1,2-0.6C52.4,127.6,52.5,128,52.4,128.1z
		 M53.2,126.5c0.3-1.1,0.7-1.9,1.9-2.1c0.1,0,0.3,0.2,0.3,0.3C55.1,125.8,54.1,126.1,53.2,126.5z"/>
</g>
<g>
	<path fill="#E5F2CD" d="M112.6,94.8C112.6,94.8,112.6,94.8,112.6,94.8C112.6,94.8,112.6,94.7,112.6,94.8
		C112.6,94.7,112.6,94.8,112.6,94.8z"/>
	<path fill="#E5F2CD" d="M132.3,93.6c-1.6-1.8-3.3-3.4-5.1-5.1c-0.4-0.4-0.8-1.2-1.5-0.3c0.4,0.8,1.7,1.7-0.4,2c0,0,0,0,0,0
		c-0.1,0.4,0.1,1-0.4,1.1c-0.5,0.1-0.8-0.4-1-0.7c-0.2,0-0.4,0-0.6,0c0,0,0,0,0,0c0,0,0,0,0,0c-0.7,0.7-0.2,1.6-0.4,2.4
		c0,0.8,0,1.6-0.1,2.4c0,0.6,0.4,1.5-0.5,1.6c-1,0.1-0.9-0.9-1-1.6c-1,0.7-2,2.2-3.2,0.4c0,0,0,0,0,0c0,0,0,0,0,0
		c0.3-1.8-0.9-3.2-1.3-4.8c-0.2-0.8-1-1.2-1.7-0.8c-2.3,1.2-4.9,1.4-7.1,2.8c0,0,0,0,0,0c0.2,1.4,0.3,2.9,0.5,4.3
		c0.1,0.1,0.1,0.2,0.2,0.3c0.5,1,0.4,2.1,0,3.4c-1-1.1-0.2-2-0.2-2.8c-0.8-0.9-1-2.1-1-3.3c0-1.1-0.4-1.6-1.5-1.6c0,0,0,0,0,0
		c0,0,0,0,0,0c-2.7,0.8-3.4,1.7-2.9,4.5c0.5,2.6,1.8,5.1,1.8,7.9c0,1.1,0.9,1.6,2.2,1.4c4.4-0.6,8.2-2.8,12.5-3.8
		c3.7-0.8,7.2-2.5,10.8-3.5C133.4,98.9,134.4,96,132.3,93.6z M112.6,94.8C112.7,94.8,112.7,94.8,112.6,94.8c0.4,0.4,0.6,0.8,0.3,1.1
		c-0.4,0.4-0.7,0-0.9-0.4c-0.4-0.7-0.5-1.4,0.1-2.1l0,0C114.1,93.2,112.4,94.3,112.6,94.8z M118.7,98.6c-1,0.6-1.8-0.4-2.7-0.2
		c0.8-0.9,1.7-0.8,2.5-0.4C118.7,98.1,118.8,98.6,118.7,98.6z M124.8,98.1c-0.9-1.3-0.6-2.6-0.8-3.7
		C125.2,95.4,125.5,96.5,124.8,98.1z"/>
</g>
<g>
	<path fill="#E5F2CD" d="M105.7,88.4c-0.8-2.6-1.2-5.3-1.3-8c-0.2-3.3-1-3.7-4.1-2.3c0,0.3,0,0.6,0,0.9c0,0,0,0,0,0
		c0.6,0.7,0.4,1.6,0.5,2.4c0.1,0,0.3,0,0.4,0c0.2-0.3,0.3-0.7,0.5-1c0,0,0,0,0,0c1.1,1.3,0.2,2.9,0.5,4.3c0,1,0,1.9,0.1,2.9
		c0.8,2.9-1.6,1.9-2.8,2.3c0,0,0,0,0,0c0,0,0,0,0,0c-0.6-0.3-1.4-0.1-1.7-0.9c0.4-0.7,1.1-0.3,1.7-0.4c0.5-0.3,1-0.6,1.5-0.9
		c0,0,0,0,0,0c0,0,0,0,0,0c0-0.7-0.6-1-1-1.5c0,0,0,0,0,0c0-0.3,0-0.6,0-0.9c0,0,0,0,0,0c-0.1-2.2,0.1-4.5-0.5-6.7c0,0,0,0,0,0
		c-0.5,0-0.9,0-1.4,0c-0.1,0.6-0.1,1.5-1,0.9c-0.8-0.6-1.6-0.4-2.4-0.5c-4.6,1.8-9.4,2.8-14.3,3.9c-1.9,0.4-2.2,1.2-0.9,2.4
		c2.3,2.1,4,4.6,5.6,7.2c1.1,1.7,2.2,3.3,3.6,4.8c0.6,0.6,1.1,0.8,1.9,0.3c4.2-2.6,8.9-4.2,13.6-5.8
		C105.9,91.1,106.2,90.2,105.7,88.4z M90.5,86.1c-0.4-1.3-0.6-2.5,0.1-4.3C91.2,83.6,91.2,84.8,90.5,86.1z"/>
</g>
<g>
	<path fill="#E5F2CD" d="M107.7,71.8c-2-3.5-4-7.1-6-10.6c-1,0.2-1.2,0.9-1.3,1.7c-0.1,0.5,1.2,1.2-0.1,1.4
		c-0.7,0.2-1.3-0.4-1.5-1.2c-0.1-0.4-0.3-0.7-0.5-1.1c0,0,0,0,0,0c0,0,0,0,0,0c-1,0.7-1.9,1.4-2.9,2c0,0,0,0,0,0
		c0.2,1.1,1.1,1.5,2,1.9c0,0.1,0.1,0.1,0.1,0.1c0,0-0.1-0.1-0.1-0.1c1,0.1,2-0.2,3.2,0.3c-0.7,0.9-1.6,0.6-2.2,0.6
		c-0.5,0-1,0.1-1.4,0.5h0c0,0,0,0,0,0c0,2.2,0,4.3,0,6.5c-1.3-2.3-0.7-4.9-1-7.4c-0.5-0.5-0.9-1-1.4-1.4h0c-2.6,2.2-6.6,3.2-6.5,7.9
		c-0.5-2-1.1-1.8-2.4-0.8c-2.7,1.9-3.2,5.5-6,7.4c-0.2,0.1-0.1,0.8,0,1.1c0.1,0.5,0.6,0.4,1,0.3c1.8-0.4,3.6-0.7,5.4-1.3
		c6.9-2.1,13.9-4.3,20.9-5.9C108.2,73.4,108.3,72.9,107.7,71.8z M84.7,75.4c-0.3-0.8,0.1-1.3,0.8-1.9C85.7,74.5,85.5,75,84.7,75.4z"
		/>
</g>
<g>
	<path fill="#E5F2CD" d="M71.4,133.3c0-1.3,0-2.5,0-3.8c0-1.9,0.3-3.9-1.5-5.3c0,0,0,0,0,0l0,0c0,0,0,0,0,0c-1.2-0.2-1-0.8-0.7-1.7
		c0.9,0.4,0.6,1.1,0.7,1.7c0,0,0,0,0,0c0,0,0,0,0,0c1.2,0.5,1.4-0.3,1.6-1c0-0.2,0.1-0.4,0.2-0.5c0-1,0-2.1,0-3.1
		c0.1-6.2,0.1-6.2-6.1-5.3c-1.8,0.3-2.5,1.1-2.4,2.8c0.3,4.6,0.5,9.2,0.8,13.8c0.1,1.8,1.2,2.9,3.2,2.6
		C68.7,133.5,70,133.4,71.4,133.3C71.4,133.3,71.4,133.3,71.4,133.3C71.4,133.3,71.4,133.3,71.4,133.3z"/>
</g>
<g>
	<path fill="#E5F2CD" d="M192,91.8c-1.9-0.1-3.8-0.6-5.7-0.2c-0.2,0.3-0.3,0.6-0.3,1c0-0.3-0.1-0.7-0.3-1c-0.5-0.2-0.9-0.5-1.4-0.1
		l0,0c0,0,0,0,0,0c0,0.8,0,1.6,0,2.5c0,0,0,0,0,0c0,0.8,0,1.6,0,2.4c-1.5-0.4-1.9-2.1-2-2.9c-0.2-1.5-0.9-1.4-1.8-1.4c0,0,0,0,0,0
		c-0.8,0.1-1.5,0.4-1.5,1.2c-0.2,2.3-0.4,4.6-0.4,6.8c0,1.1,0.7,1.4,1.8,1.2c2.5-0.5,5-0.9,7.6-0.7c0.7,0,1.5-0.1,1.8-0.9
		c0.9-2.3,2.3-4.3,2.8-6.8C192.8,92,192.7,91.8,192,91.8z"/>
</g>
<g>
	<path fill="#E5F2CD" d="M175.2,71.1c-0.2-1.4-0.6-2.6-2.5-1.8c0,0,0,0,0,0c0,0,0,0,0,0c0.6,2.1,0.6,4.2,0.3,6.6
		c-1.1-0.9-0.6-1.9-0.7-2.7c-0.9-0.9-0.1-2.2-0.7-3.2c-0.6,1.6,0.2,3.2-0.7,5.1c-0.8-1.5-0.6-2.8-0.4-4.1c0.1-1.4-0.4-1.7-1.6-1.6
		c0,0,0,0,0,0c0,0,0,0,0,0c-0.2,0.1-0.3,0.3-0.5,0.4c0,0.3,0,0.7,0,1c0,0,0,0,0,0c0,0,0,0,0,0c-0.1,0.8,0.3,1.7-0.6,2.5
		c-0.5-1-0.2-2-0.3-3c-1.3-0.9-0.8,1.1-1.7,1c-0.3-0.3-0.3-0.8-0.6-1.1c-0.2,0-0.4-0.1-0.6-0.3c0,0,0,0,0,0l0,0c0,0,0,0,0,0
		c-0.7,0.5-0.4,1.1-0.1,1.7c1,2.5,2.1,5,3.1,7.5c0.3,0.8,0.9,0.9,1.7,1c5.4,0.3,5.6,0.2,5.8-5.3C175.2,73.5,175.4,72.3,175.2,71.1z"
		/>
</g>
<g>
	<path fill="#E5F2CD" d="M114.8,86.1c-1.7-2.4-2.8-5-4-7.6c-0.2,0-0.3,0-0.5,0c0,0,0,0,0,0c-0.1,1.5,0.1,3,0.4,4.4
		c0.1,0.4,0.2,1.1-0.5,1c-0.4-0.1-0.4-0.6-0.4-1c-0.9-2-0.2-4.2-0.5-6.3c0,0,0,0,0,0c-0.7-1-1.6-1.2-2.7-0.6
		c-0.5,0.3-0.9,0.6-0.7,1.3c0.9,3,0.8,6.1,1,9.2c0.3,3.8,0.4,3.9,4.1,2.6c1-0.4,2.1-0.9,3.1-1.2C115.3,87.6,115.6,87.1,114.8,86.1z
		 M108.2,79.6c-0.1-0.1-0.2-0.3-0.2-0.4c0-0.2,0.2-0.3,0.4-0.6c0.1,0.3,0.3,0.5,0.3,0.7C108.6,79.5,108.4,79.5,108.2,79.6z"/>
</g>
</svg>
