<?xml version="1.0" encoding="utf-8"?>
<!-- Generator: Adobe Illustrator 18.1.1, SVG Export Plug-In . SVG Version: 6.00 Build 0)  -->
<svg version="1.2" baseProfile="tiny" xmlns="http://www.w3.org/2000/svg" xmlns:xlink="http://www.w3.org/1999/xlink"
	 x="0px" y="0px" viewBox="0 0 200 200" xml:space="preserve">
<path fill="#E0CEAE" d="M91.5,1.8c51.6-1.7,89.3,15.7,102.7,66.3c13.6,51.2-5.6,88.8-28.5,106.7S97,214.6,44.5,183.5
	C-10.5,151-2,79.3,8.7,55.8C18.8,34,46.6,3.2,91.5,1.8z"/>
<path fill="#D287EA" d="M90,3.5c49.7-1.9,89.5,14,100.8,63.8s-6.5,86.2-28.5,103.5S97.3,208,46.5,178.5C-4.8,148.8-0.3,74.8,13,53.8
	C26.5,32.4,50.2,5,90,3.5z"/>
<path fill="#F1DEF7" d="M84.4,113.1c-3.5,7.2,3.1,21.6-7,30.6c-6.4,5.7-13.6,8.8-30.7-0.1c-5.2-2.8-4.1,2.4-1.4,4.9
	c12.2,11.1,14.7,13.1,24.1,15.5c17.8,4.5,26.7,6.1,39.9,0.3c11.2-4.9,26.7-13.3,30.5-18.9c0.4-6.1-2.6-10.1-3.6-15.8
	c-0.8-4.7-5.9-9-11.5-7.2s-12.8,0.8-16.5-4.4C102.4,110,88.2,112.1,84.4,113.1z"/>
<path fill="#F1DEF7" d="M96.5,95.8c8.1-8.4,16.5-17.9,28.2-12.4s12.8,9.2,11.5,24.3c1.6-1.1,2.5-4.9,2.2-12.6
	c11,6.9,16.4,20.6,11.8,31.8c-0.8-10.8-3.8-13.5-3.8-13.5c1.9,7.4,3.5,21.6-4.3,27.6c-0.8-4.9-2.8-8.8-2.8-8.8
	c3.9-2.9,5.7-11.6,2.2-20c-0.2,7.6-1.9,13.9-3.3,16.5c-0.6-6.3-6.9-10.6-11.4-9.8c-4.5,0.8-4.7,2-10.8,1c1.7-7.8,5.6-17.2,7.8-23.3
	c-5.1,9.2-8.4,15.8-10.1,22.6c-3.3-2.5-3.2-10.1,2.4-19c-5.1,5.7-6.7,9.4-7.3,11.8c-2.8-5.9,3.3-15,8.3-20.2
	c-6.8,5.8-11.2,12-12.4,19.7c-5.3-1.8-7.2-2.7-12.6-2.1c3.2-7.3,7-11.9,9.7-13.4c-7.2,4.1-9.8,8-11.9,13.7c-1.8,0.2-4.5,0.7-5.2,1.1
	c1.1-11.7,5.3-21.8,21.2-27.2C96.7,92.7,96.5,95.8,96.5,95.8z"/>
<path fill="#F1DEF7" d="M139.6,9.3C132,26.9,118.4,67,117.8,70c-0.7,3.3-1.7,7.5,2,8.3c3.4,0.8,15,6.9,17.5,10.2
	c1.7,2.2,5.5,0,7.3-2.8c1.6-2.5,18.1-32,28.3-55C164.1,20.4,152.8,13.4,139.6,9.3z"/>
</svg>
