<?xml version="1.0" encoding="utf-8"?>
<!-- Generator: Adobe Illustrator 18.1.1, SVG Export Plug-In . SVG Version: 6.00 Build 0)  -->
<svg version="1.2" baseProfile="tiny" id="Layer_1" xmlns="http://www.w3.org/2000/svg" xmlns:xlink="http://www.w3.org/1999/xlink"
	 x="0px" y="0px" viewBox="299.8 0 100 100" xml:space="preserve">
<path fill="#DFCDAD" d="M399.8,47.9c0.1-12-2.1-24.9-9.4-33.1c-7.1-7.8-17.6-11.9-27.8-13.5c-9-1.4-19.1-1.5-27.7,1.6
	c-9.5,3.4-17.1,10.8-23,18.8c-12.1,16.6-16,38-5.6,56.5c10.5,18.7,35,25.8,54.8,19.2C392,85.5,399.6,70.1,399.8,47.9z"/>
<path fill="#6BADE5" d="M390.4,71.3c6.1-9.8,7.6-20.7,6.8-32c-0.8-10.2-3-20.1-11.1-27c-14.4-12.3-41.8-15.7-57.7-4.9
	C314.7,16.6,303.2,34,302.2,51c-1.1,21.5,11.5,39.3,32.7,44.6C355.7,100.9,378.8,89.9,390.4,71.3z"/>
<path fill="#E3EDF6" d="M381.2,70.1c-1.3,0.3-1.4,1.9-2.1,2.9c-1.8,2-4.1,4-6.3,5.5c-0.7,0.4-0.9,0.8-0.5,1.6c0.8,1.5,1.8,2.5,2.7,4
	c0.4,0.7,1.4,1.3,1.8,2.1l0,0c1.3-1,2.6-1.9,3.7-3.2c-1.6-0.2-1.9-0.8-2.3-1.9c-0.4-1.2,0.2-2.7,1.8-3.2c2-0.6,3.6,0.8,3.5,2.2
	c0,0,2.4-2.2,3.2-3.6C384.7,74.9,382.5,69.8,381.2,70.1z"/>
<path fill="#E3EDF6" d="M318.8,40.2c3.7-1.7,5.9-6.3,6.5-9.9c0.4-2-0.4-4.1-1.1-5.9c-1.3-3.4-4.1-5.3-7.2-6.8c0,0-2.4,2.7-3.4,4.2
	c0.7,0.1,1.5,0.2,2.1,0.4c4.9,1,6.9,4.2,6.6,8.3c-0.2,4-3.1,7.2-7.2,8.3c-3.1,0.8-6.7,0-9.2-3.7c-0.8,1.2-1.2,2.8-1.5,4.2
	C309.3,41.4,315.3,43,318.8,40.2z"/>
<path fill="#E3EDF6" d="M319.1,48.7c7.3-1.7,12.8-7.7,15.1-14.8c2.2-7.5-4.1-18.7-9.5-23.9c-2.1,1.5-4.2,3.5-6.1,5.6l0,0
	c2.4,1.4,4.6,2.8,6,5.4c1.6,2.9,2.6,5.9,2,9.1c-1,4.7-2.3,9.5-9,12.2c-4.3,1.8-9.8-0.2-13.5-2.4c-0.8,2.4-1.2,4.5-1.6,7
	C308.2,48.5,313.2,50.1,319.1,48.7C325.2,47.2,315.9,49.5,319.1,48.7z"/>
<path fill="#E3EDF6" d="M346,34.5c-8-2.4-6.7-5.8-7.8-12.5c-0.3-1.9,2.2-4.1,3-5.3c0.5-0.7,0.7-1.5,0.1-2.4
	c-1.2-2.1-2.7-5.1-4.4-6.8c-3.3-2.9-5.5,3.2-8.6-0.3c-1,0.6-2,1.2-2.8,2l0,0l0,0c5.6,5,11.1,13.9,10.3,21.6
	c-0.4,4.7-2.1,8.8-4.9,12.3c-6.8,8.8-18.6,9.9-28.6,6.5l0,0c0.1,1.2-0.4,2.2,0,3.4c1,0.3,2,0.8,3,1c1.6,0.3,2.7,7.5,3.1,8.8
	c0.5,1.4,1.2,1.8,2.7,1.5c2.6-0.4,12,0.4,12.8-2.8c0.6-2.8,0.3-5.6,0.6-8.3c0.1-0.8,0.3-1.3,1.1-1.7c2.7-0.8,5.4-4.1,7.9-4.5
	c1.7-0.3,4.8,1.5,6.5,2c0.4,0.1,1-0.2,1.2-0.5c1.7-3.9,3.4-7.7,5.4-11.5C347.2,35.8,346.9,35.2,346,34.5
	C344.2,33.1,346.9,35.2,346,34.5z"/>
<path fill="#E3EDF6" d="M356.3,77.9c-1.3,2.4-8-3.9-9.8-6.7c-2.6-4.1-3.3-9.8-0.5-13.9c0.9,1.7-0.8,5-0.6,7c0.3,2.7,1.3,5.5,3.2,7.4
	C353.3,76.8,356.4,77.7,356.3,77.9z M375,87.4c-1-1.9-8.1-7.9-4.2-9.7c3.3-1.6,5.1-2.9,7.3-6c0.7-1,2.3-4.8,4-3.4
	c2.3,1.8,3.3,5.2,5.4,7.2c0.1-0.2,0.4-0.4,0.4-0.6c-1-1.6-3.3-4.8-4.4-6.2c-0.3-0.3-0.5-0.6-0.6-1c0-0.8,5.1,6,5.5,6.7
	c0.4-0.7,1.4-1.9,1.8-2.8c-1.1-2.6-3.6-5.2-5.2-7.6c-0.2-0.4,1.7,2.5,0,0c-0.9-1.3,1.7,2.5,0,0c-1.2-1.8,1.2-7.4,1.4-9.3
	c0.4-3.5,1-7.5-1.2-10.5c-1.8-2.5-4.1-4.8-6.8-6.3c-3.1-1.8-6.6-1.6-10.1-0.8c-1.5,0.3-2.6,0.4-1.7,1.9c1.6,2.6,3.6,5.4,5,8.2
	c1,1.8-3.8,13.2-5.8,14.1c-1.8,0.8-10,1.6-11.5,1c-3-1.2-4.7-5.3-7.2-7.2c-1.7-1.3-1.8,0.5-2.4,2c-0.8,1.8-1.7,3.5-1.8,5.5
	c-0.4,6.4,3.9,12.5,9.3,15.5c4,2.2,11.4,1.3,12.3,2c2.7,2.1,4.7,7,7.1,9.4c0.1-0.1,0.3-0.2,0.6-0.4c0,0-6.1-7.6-5-7.9
	c0.4-0.1,3,4.6,5.5,7.6C372.9,88.8,374.7,87.7,375,87.4z M368.9,60.9c-1.5-0.6,5-9.7,3.9-13.9c-0.4-2.1-4.9-6.3-4.4-8.5
	c0.5-1.9,2.3,3.6,2.4,3.8c1.3,2.2,3.9,4.4,3,7.1c-1.2,3.7,0.2-1-0.2,0.3C372.9,52.2,370.4,61.5,368.9,60.9z M374.7,37.9
	c0.4,0.7-4.4,1-4.6-0.1C371.3,37.6,374.3,37.2,374.7,37.9z"/>
</svg>
