<?xml version="1.0" encoding="utf-8"?>
<!-- Generator: Adobe Illustrator 18.1.1, SVG Export Plug-In . SVG Version: 6.00 Build 0)  -->
<svg version="1.2" baseProfile="tiny" xmlns="http://www.w3.org/2000/svg" xmlns:xlink="http://www.w3.org/1999/xlink"
	 x="0px" y="0px" viewBox="0 0 200 200" xml:space="preserve">
<g>
	<path fill="#4C3D10" d="M159.2,76.8c0,0,0,12.5,0,42.2c0,43-22.9,72.2-62.5,77.3c29.1-4.6,33.1-34.2,33.1-72.4
		c0-40.1,0-47.1,0-47.1v-0.2c9.8-0.2,20-0.3,29.4-0.5L159.2,76.8z"/>
</g>
<g>
	<path fill="#4C3D10" d="M101.4,4.4C126.8,7.8,143.9,20,143.7,40c-0.3,23.4-17,34.4-49.9,38.3c18.7-2.8,27.5-19,28-39.8
		c0.4-16.6-12.9-35.8-37-34.7C90,3.5,95.4,3.6,101.4,4.4z"/>
</g>
<g>
	<path fill="#4C3D10" d="M92.7,70.9c1,26.1,0,51.5,0,51.5l-29.1,2.3c0,0,1.9-26.8,1.8-52.8C65.2,47.2,63,20.7,63,20.7l25.4-5.9
		C88.4,14.8,91.6,43.2,92.7,70.9z"/>
</g>
<g>
	<path fill="#4C3D10" d="M32.2,108.2c8.9,0,17.4,6.8,17.4,18.8c0,11.9-10.2,14-14.6,14.2c-8.2,0.4-11.3-6-14.9,1.7
		C16.3,151,18,172.7,33,184.1c-16.1-11-23.3-28.3-23.3-48.5C9.6,116,23.3,108.2,32.2,108.2z"/>
</g>
<g>
	<path fill="none" stroke="#4C3D10" stroke-width="4" stroke-linecap="round" stroke-miterlimit="10" d="M84.7,3.9
		c-1.6,0.1-3.2,0.2-4.8,0.5"/>
</g>
<g>
	<path fill="none" stroke="#4C3D10" stroke-width="4" stroke-linecap="round" stroke-miterlimit="10" d="M84.9,3.8
		c5.1-0.4,10.6-0.2,16.5,0.6C126.8,7.8,143.9,20,143.7,40c-0.3,23.4-17,34.4-49.9,38.3c18.7-2.8,27.5-19,28-39.8
		C122.3,21.9,109,2.7,84.9,3.8z"/>
</g>
<g>
	<path fill="none" stroke="#4C3D10" stroke-width="4" stroke-linecap="round" stroke-miterlimit="10" d="M84.9,3.8
		c-0.1,0-0.1,0-0.2,0"/>
</g>
<g>
	<path fill="none" stroke="#4C3D10" stroke-width="4" stroke-linecap="round" stroke-miterlimit="10" d="M39.2,16.9
		C53,12.1,65.2,6.3,79.9,4.4C81.4,4.1,83,4,84.7,3.9"/>
</g>
<g>
	<path fill="none" stroke="#4C3D10" stroke-width="4" stroke-linecap="round" stroke-miterlimit="10" d="M33,184.1
		c-16.1-11-23.3-28.3-23.3-48.5c0-19.7,13.7-27.4,22.6-27.4c8.9,0,17.4,6.8,17.4,18.8c0,11.9-10.2,14-14.6,14.2
		c-8.2,0.4-11.3-6-14.9,1.7C16.3,151,18,172.7,33,184.1z"/>
</g>
<g>
	<path fill="none" stroke="#4C3D10" stroke-width="4" stroke-linecap="round" stroke-miterlimit="10" d="M33,184.1
		C33,184.1,33,184.2,33,184.1"/>
</g>
<g>
	<path fill="none" stroke="#4C3D10" stroke-width="4" stroke-linecap="round" stroke-miterlimit="10" d="M96.6,196.2
		c-4.1,0.5-8.3,0.8-12.7,0.8c-22.2,0-38.9-4.7-50.8-12.8"/>
</g>
<g>
	<path fill="none" stroke="#4C3D10" stroke-width="4" stroke-linecap="round" stroke-miterlimit="10" d="M159.2,76.8
		c0,0,0,12.5,0,42.2c0,43-22.9,72.2-62.5,77.3"/>
</g>
<g>
	<path fill="none" stroke="#4C3D10" stroke-width="4" stroke-linecap="round" stroke-miterlimit="10" d="M63,20.7l25.4-5.9
		c0,0,3.2,28.4,4.3,56c1,26.1,0,51.5,0,51.5l-29.1,2.3c0,0,1.9-26.8,1.8-52.8C65.2,47.2,63,20.7,63,20.7z"/>
</g>
<g>
	<path fill="none" stroke="#4C3D10" stroke-width="4" stroke-linecap="round" stroke-miterlimit="10" d="M96.7,196.2
		C96.6,196.2,96.6,196.2,96.7,196.2"/>
</g>
<g>
	<path fill="none" stroke="#4C3D10" stroke-width="4" stroke-linecap="round" stroke-miterlimit="10" d="M129.8,76.8
		c0,0,0,6.9,0,47.1c0,38.2-4,67.8-33.1,72.4"/>
</g>
<g>
	<path fill="none" stroke="#4C3D10" stroke-width="4" stroke-linecap="round" stroke-miterlimit="10" d="M93.2,78.5
		c7.3-1.2,21.3-1.7,36.6-2c9.8-0.2,20-0.3,29.4-0.5c12.6-0.2,23.6-0.6,29.4-1.5"/>
</g>
</svg>
