<svg xmlns="http://www.w3.org/2000/svg" version="1.1" xmlns:xlink="http://www.w3.org/1999/xlink" xmlns:svgjs="http://svgjs.com/svgjs" width="44" height="57"><svg xmlns="http://www.w3.org/2000/svg" viewBox="0 0 44 57">
  <path d="M4.27 10.48c-6.37 22.84.97 37.69 18.27 45.37a4.5 4.5 0 0 0 6.07-2.67l13.55-39.54a4.5 4.5 0 0 0-2.8-5.72l-2.84-.97a4.5 4.5 0 0 0-5.72 2.8 4.5 4.5 0 0 1-5.71 2.8L10.07 7.4a4.52 4.52 0 0 0-5.8 3.07Z" fill="#ceb3a1" stroke="#000"></path>
  <circle cx="25.24" cy="6.66" r="4"></circle>
  <circle cx="38.24" cy="42.66" r="4"></circle>
  <path d="M10.7 36.42a3 3 0 1 1 0 6 3 3 0 0 1 0-6m0-1h-.25a4 4 0 1 0 .25 0Zm-.56-7.98a3 3 0 1 1-.01 6 3 3 0 0 1 0-6m0-1a4.04 4.04 0 0 0-3 1.35 4 4 0 1 0 3-1.35Zm7.42-7.49a2 2 0 1 1 0 4 2 2 0 0 1 0-4m0-1-.19.01a3 3 0 1 0 .2 0Zm7.69-15.8a4.5 4.5 0 0 0-3.07 1.21l.34.37a5.31 5.31 0 0 1 .31-.26h.01a5.42 5.42 0 0 1 .02-.02l.02-.01v-.01a3.45 3.45 0 0 1 .02-.01l.02-.01a.4.4 0 0 1 0-.01h.01l.01-.01h.01l.01-.01.01-.01h.01v-.01a.3.3 0 0 0 .01 0v-.01H23v-.01h.01v-.01h.02v-.01h.01V3.3h.02a.64.64 0 0 1 .02-.02h.01l.02-.02.02-.01.02-.02a3.84 3.84 0 0 1 1.91-.58h.01a3.68 3.68 0 0 1 .02 0h.01a2.62 2.62 0 0 1 .01 0h.01a.6.6 0 0 1 .02 0h.11v-.5Zm-4.27 3.09a4.48 4.48 0 0 0 .18 3.29l.45-.21a4 4 0 0 1-.33-1.22v-.03l-.01-.02V7a.15.15 0 0 0 0-.01v-.04a.12.12 0 0 1-.01-.01v-.06a.42.42 0 0 0 0-.01v-.14l-.01-.01v-.07a4 4 0 0 1 .2-1.27l-.47-.15Zm1.88 4.62-.3.4a4.5 4.5 0 0 0 3.18.87l-.06-.5h-.03l-.22.02a4.08 4.08 0 0 1-.03 0h-.02a1.38 1.38 0 0 1-.01 0h-.01a8.7 8.7 0 0 0-.01 0h-.09a4 4 0 0 1-1.3-.21h-.02l-.01-.01h-.02l-.01-.01a4 4 0 0 1-1.04-.56Zm6.3-2.36v.03a4.02 4.02 0 0 1-.05.19v.02a.09.09 0 0 0-.01 0v.03l-.01.02-.05.14v.03h-.01V8H29v.02l-.01.01v.02l-.01.01v.02h-.01v.01a.1.1 0 0 0 0 .01l-.01.01v.02h-.01v.01a.1.1 0 0 0 0 .01v.01h-.01v.02h-.01v.02l-.01.01v.02h-.01v.01a.08.08 0 0 1 0 .01h-.01v.02l-.01.01v.02h-.01v.02h-.01v.02l-.01.01v.01h-.01v.02l-.01.01c-.3.65-.77 1.17-1.32 1.56l.28.4a4.47 4.47 0 0 0 1.83-2.73l-.49-.11Zm-1.62-4.72-.25.43.2.13h.01v.01a1.22 1.22 0 0 1 .01 0v.01h.01a3.77 3.77 0 0 1 .03.02l.01.01h.01v.01h.01l.01.01h.01v.01a.11.11 0 0 0 .01 0l.01.01h.01v.01h.01v.01a.06.06 0 0 0 .01 0v.01h.01l.01.01h.01v.01h.01a.83.83 0 0 0 .01.01l.01.01h.01v.01a1.13 1.13 0 0 1 .01 0v.01h.01v.01h.01l.01.01h.01v.01h.01v.01h.01v.01h.01l.01.01h.01v.01h.01v.01h.01v.01h.01v.01h.01l.01.01.01.01h.01v.01h.01v.01h.01v.01h.01v.01h.01a1.37 1.37 0 0 1 0 .01h.01a.6.6 0 0 0 .02.02l.01.01h.01v.01l.01.01.01.01H28v.01h.01v.01h.01v.01a.16.16 0 0 1 .01.01h.01v.01h.01v.01h.01v.01h.01a.15.15 0 0 0 .01.02h.01v.01h.01v.01h.01v.01h.01v.01h.01v.01h.01v.01h.01v.01l.01.01a.66.66 0 0 1 .01.01l.01.01v.01h.01v.01h.01v.01h.01v.01a.64.64 0 0 1 .01 0 .06.06 0 0 1 0 .01h.01V4h.01v.01l.01.01.01.01.01.01v.01a.72.72 0 0 1 .01 0v.01h.01v.01h.01v.01l.01.01a.67.67 0 0 0 .01.01v.01h.01v.01a.72.72 0 0 0 .01 0v.01l.01.01.01.01v.01h.01v.01h.01v.01h.01v.01l.01.01v.01h.01a.07.07 0 0 1 0 .01h.01v.01l.01.01v.01h.01v.01l.01.01v.01h.01v.01h.01v.01h.01v.01l.01.01v.01h.01v.01l.01.01v.01h.01v.01h.01v.01a.67.67 0 0 1 .01.01v.01a.72.72 0 0 0 .02.02v.01h.01v.02h.01v.01l.01.01v.01a1.84 1.84 0 0 1 .01.01l.01.01v.01h.01v.02h.01v.01h.01v.02h.01v.01h.01v.02a.6.6 0 0 0 .01 0v.02h.01v.01a.23.23 0 0 0 .01.01v.01a.36.36 0 0 1 .01.01v.01h.01a.12.12 0 0 1 0 .01v.01h.01v.01h.01v.02h.01v.01a.35.35 0 0 1 0 .01h.01v.01a.13.13 0 0 1 0 .01h.01v.02h.01v.02h.01a.52.52 0 0 0 0 .01l.01.01v.01l.01.01a4.24 4.24 0 0 1 .01.02v.01l.01.01v.01l.01.01v.01l.02.04c.1.19.17.38.23.58l.48-.14a4.49 4.49 0 0 0-2.03-2.6Zm-2.29-.63v.5h.13l.02-.5h-.15Zm1.66 37.61a3 3 0 1 1 0 6 3 3 0 0 1 0-6m0-1a4 4 0 1 0 0 8 4 4 0 0 0 0-8Zm-4.66-9.1a2 2 0 1 1 0 3.99 2 2 0 0 1 0-4m0-1a3 3 0 1 0 0 6 3 3 0 0 0 0-6ZM9 15.97a3.5 3.5 0 1 1 .01-7 3.5 3.5 0 0 1 0 7H9Z"></path>
  <path d="M32.73 22.73a3 3 0 1 1 0 6 3 3 0 0 1 0-6m0-1a4 4 0 1 0 0 8 4 4 0 0 0 0-8Zm-2.92 9.52a3 3 0 1 1 0 5.99 3 3 0 0 1 0-6m0-1a4 4 0 1 0 0 8 4 4 0 0 0 0-8Zm-5.83 18.04a3 3 0 1 1 0 5.99 3 3 0 0 1 0-6m0-1a4 4 0 1 0 0 8 4 4 0 0 0 0-8Zm2.92-1.01a3.49 3.49 0 0 1-3.31-4.63 3.5 3.5 0 1 1 3.3 4.63Z"></path>
  <path d="M32.73 29.23a3.49 3.49 0 0 1-3.31-4.63 3.5 3.5 0 1 1 3.3 4.63Zm-2.92 8.52a3.5 3.5 0 1 1 0-6.99 3.5 3.5 0 0 1 0 6.99Zm-5.83 17.03a3.49 3.49 0 0 1-3.31-4.64 3.5 3.5 0 1 1 3.31 4.64Zm-1.74-20.62a2.5 2.5 0 1 1 0-5 2.5 2.5 0 0 1 0 5Zm-12.11-.22a3.5 3.5 0 1 1 .01-7.01 3.5 3.5 0 0 1-.01 7Zm7.42-10.48a2.5 2.5 0 0 1-.16-5h.16a2.5 2.5 0 0 1 .16 4.99h-.16Z" fill="#fff"></path>
  <path d="M38.24 38.15a4.5 4.5 0 0 0-3.06 1.21l.34.37a3.91 3.91 0 0 1 2.5-1.07h.02a4.28 4.28 0 0 1 .03 0h.03a3.06 3.06 0 0 1 .02 0 .26.26 0 0 1 .01 0h.01a.36.36 0 0 1 .02 0h.08v-.5Zm-4.27 3.09a4.48 4.48 0 0 0 .18 3.29l.46-.21a4 4 0 0 1-.34-1.16v-.12l-.01-.01v-.08a.26.26 0 0 1 0-.01v-.03h-.01v-.02a.06.06 0 0 0 0-.01v-.02a.45.45 0 0 1 0-.02v-.19a4 4 0 0 1 .2-1.27l-.48-.15Zm1.88 4.62-.3.4a4.5 4.5 0 0 0 3.18.87l-.06-.5h-.01a1.3 1.3 0 0 1-.02 0l-.21.02h-.1a.56.56 0 0 1-.01 0 2.3 2.3 0 0 1-.01 0h-.03a.22.22 0 0 1-.01 0h-.02a4 4 0 0 1-1.3-.21h-.02l-.01-.01h-.02v-.01a4 4 0 0 1-1.05-.56Zm6.3-2.36a4.04 4.04 0 0 1-.1.36v.05h-.01v.01a.17.17 0 0 1 0 .01v.01h-.01v.03h-.01V44a.23.23 0 0 1-.02 0 .12.12 0 0 0 0 .01v.03a.14.14 0 0 1 0 .01h-.01v.02l-.01.01v.01a.11.11 0 0 0 0 .01h-.01v.03h-.01v.02h-.01v.02a.12.12 0 0 1 0 .01h-.01v.02h-.01v.02l-.01.01v.02h-.01v.02h-.01v.02a.12.12 0 0 0-.01.01v.01l-.01.01v.02h-.01v.01a.09.09 0 0 1-.01.01.11.11 0 0 0 0 .01v.01h-.01v.02h-.01v.02h-.01v.02h-.01v.02h-.01v.02a4 4 0 0 1-.03.05v.01h-.01v.01l-.01.01v.01l-.01.01v.01h-.01v.02h-.01v.02h-.01v.02h-.01v.01l-.01.01v.01h-.01v.02h-.01v.01h-.01v.02h-.01v.01l-.01.01v.01h-.01v.02h-.01v.02h-.01v.01h-.01v.01l-.01.01v.01h-.01a.52.52 0 0 1 0 .01v.01h-.01v.01c-.29.43-.65.79-1.05 1.07l.28.4a4.47 4.47 0 0 0 1.83-2.73l-.49-.11Zm-1.62-4.72-.25.43.3.2h.01v.01a1.1 1.1 0 0 1 .02 0v.01a.16.16 0 0 0 .01 0v.01h.01a.1.1 0 0 0 0 .01h.01a.26.26 0 0 0 .01.01h.01a.45.45 0 0 1 0 .01h.01v.01h.01l.01.01h.01v.01h.01a.46.46 0 0 0 0 .01h.01l.01.01h.01v.01h.01v.01h.01v.01h.01v.01a2.77 2.77 0 0 1 .01 0l.01.01h.01v.01h.01a.92.92 0 0 0 0 .01h.01l.01.01.01.01.01.01.01.01.02.01a4 4 0 0 1 .74.87v.02h.01l.04.05v.02h.01v.02h.01v.02h.01v.01l.01.01v.01h.01v.02h.01a8.96 8.96 0 0 1 0 .01v.01h.01v.02h.01v.01l.01.01v.01l.01.01v.01h.01v.02h.01v.02h.01v.02h.01v.02h.01v.02h.01v.02h.01v.02h.01v.02h.01v.02l.01.01v.01l.01.01V41l.01.01a.49.49 0 0 1 0 .01v.01a.59.59 0 0 1 .01 0v.02a12.67 12.67 0 0 1 .01 0v.02l.02.04.15.41.48-.14a4.49 4.49 0 0 0-2.03-2.6Zm-2.29-.63v.5h.13l.03-.5h-.16ZM9 9.47a3 3 0 1 1 0 6 3 3 0 0 1 0-6m0-1-.25.01a4 4 0 1 0 .26 0Zm.57 16.49a3.5 3.5 0 1 1 0-7.01 3.5 3.5 0 0 1 0 7Z"></path>
  <path d="M9.57 18.46a3 3 0 1 1 0 6 3 3 0 0 1 0-6m0-1a4.04 4.04 0 0 0-3 1.35 4 4 0 1 0 3-1.35Zm1.13 25.46a3.5 3.5 0 1 1 0-7.01 3.5 3.5 0 0 1 0 7.01Z"></path>
</svg><style>@media (prefers-color-scheme: light) { :root { filter: none; } }
</style></svg>