<svg xmlns="http://www.w3.org/2000/svg" width="1216" height="1216" version="1.0" viewBox="0 0 912 912">
  <path d="M502 35h-6a39 39 0 0 0-9 3l-7 2-5 2c-1 1-14 9-15 11v2l2 3c2 2 2 2 0 4-4 4-10 13-12 18-3 6-3 6-6 5-5-1-5-1-5 2-2 5-2 6-2 12-2 11-1 19 2 28s3 10 7 8l3-2 2 3c3 6 7 11 13 17l5 5-2 3c-2 3-2 3 0 4l3 2 1 1a67 67 0 0 0 36 11c8 0 9-1 8-6l1-3a41 41 0 0 0 12-3l9-4 8-4 1 3 3 3c3 0 13-11 19-19l10-23c-1-1-2-2-7-2v-2c1-5 0-25-1-29-1-1 0-2 3-3 4-1 5-2 3-4l-2-5-4-8-3-5c0-2-19-20-22-20-1 0-2 1-2 3-2 3-5 4-5 2l-2-1-2-1c-1-1-15-5-20-5-4 0-4-1-4-4v-4h-8zM652 101h-7l-1 1-1 1c-1-1-13 4-18 7a84 84 0 0 0-34 40l-1 1-2 5-2 6-3 4a63 63 0 0 1-21 21l-2 1-5 3-4 1c-7 4-23 5-34 3-6-1-31-9-69-23l-12-3-14-5-18-6-30-11-6-2a564 564 0 0 1-61-21l-3-1-13-4a1979 1979 0 0 0-25-8l-1-1-4-1c-14-4-33-3-50 4h-2l-1 1-2 1-4 2-4 3c-5 2-20 17-23 23a97 97 0 0 0-14 34v3l-3 10-2 10-1 3-2 7-2 7-2 9v4l-2 4-2 11-1 5-1 5-1 5-1 6a495 495 0 0 0-9 62l-1 10a528 528 0 0 0-3 93 1029 1029 0 0 0 7 76l2 11a838 838 0 0 0 10 41l1 5a975 975 0 0 1 17 50 177 177 0 0 0 8 19c7 18 25 49 37 68l8 12 6 6 1 3 24 30a629 629 0 0 0 179 133 128 128 0 0 1 15 8l7 3 20 8c8 3 13 3 25 3 17 0 35-6 47-16 6-4 16-16 20-22l12-30 2-5 1-5 1-1 3-9 3-8v-2a153 153 0 0 1 3-7l1-4 2-4 8-24 8-25 2-4 1-3 3-9 4-14 2-4a520 520 0 0 0 18-54 373 373 0 0 1 12-33l3-8v-2a209 209 0 0 1 9-23l2-9a733 733 0 0 0 25-73l3-7a3890 3890 0 0 0 48-141l8-25a11046 11046 0 0 1 34-99l1-2c5-12 7-22 9-29 1-8 0-26-1-26l-1-1v-3l-1-6a86 86 0 0 0-39-46l-2-1-8-3a88 88 0 0 0-17-6l-2-1a835 835 0 0 1-36-11l-5-2c-5-1-20-1-26 1zM711 611h-4l-5 1-3 1-5 1-4 2c-4 1-16 8-21 12-2 2-2 2 0 5l3 3-2 2c-4 4-11 15-13 20s-2 5-5 3c-4-2-5-1-5 2-2 4-2 8-2 11l-1 2c-1 0 0 18 2 24 3 10 6 14 8 11l1-1h1c0-2 5 4 5 5 0 2 6 9 11 14 4 3 5 5 4 6l-1 2c-1 0-2 4 0 5h1l2 1 10 5 2 1 2 2c14 3 27 5 30 3 2-1 2-5 1-7l6-2 15-5 9-5 2 3 2 3 11-9 5-5c5-6 14-27 13-29l-4-1-3-2 1-10-2-20v-2c1 1 7-1 7-2a83 83 0 0 0-11-21c0-2-19-19-21-19-1 0-2 1-2 3-2 3-5 4-5 2l-2-1-2-1-7-3-13-2h-4v-8l-7-1z"/>
</svg>
