<svg xmlns="http://www.w3.org/2000/svg" viewBox="0 0 100 100"><defs><style>.cls-2{fill:#1d172c;stroke:#3d275b;stroke-miterlimit:10;stroke-width:2px}</style></defs><path fill="#1d172c" d="M0 0h100v100H0z"/><path d="M64 61h44l-2 12-43 2 1-14zm-84-32l83-8 6 37-85 13-4-42zm95-54l52-1 4 62-60 2 4-63zM78 22h6l-1 5h-5v-5z" class="cls-2"/><path fill="#1d172c" stroke="#3d275b" stroke-miterlimit="10" stroke-width="2.2" d="M38 57l-59-2-1 22 58 5 2-25z"/><path d="M18 69h34l7 29-44 4 3-33z" class="cls-2"/><path d="M24 73l5 1v4h-6l1-5z" class="cls-2"/><path fill="#e252ac" stroke="#edaae0" stroke-width="1.6" d="M84 63c0-5-23-50-33-50S17 54 17 63c0 3 16-25 34-25s33 28 33 25z"/><path fill="#5390e1" stroke="#cdfdfd" stroke-width="1.6" d="M53 71c1-3-5-2-4-7 2-10 11 5 15-7 5-13-11-17-20-12-7 4-12 12-6 21 6 10 15 7 15 5z"/><path fill="#93dd49" stroke="#d8ffc8" stroke-width="2.1" d="M63 65c5 0 7-9 13-3 5 6 3 12-2 16-6 2-12 1-16-4-2-3 1-10 5-9z"/><circle cx="31" cy="74.1" r="6.4" fill="#ffda00" stroke="#fff7ee" stroke-width="1.3"/></svg>
