<svg xmlns="http://www.w3.org/2000/svg" viewBox="0 0 48 85">
	<style>
		.st0{fill:#390b08}
		.st1{fill:#f4bf99}
		.st2{fill:#18251b}
		.st3{fill:#61242d}
		.st4{fill:#782e03}
		.st5{fill:#597c7c}
		.st6{fill:#56797a}
		.st7{fill:#18261b}
		.st8{fill:#f3bf99}
		.st9{fill:#724a2e}
		.st10{fill:#df936f}
	</style>
	<path class="st0" d="M29.7 84.17c-.1.2-.34.16-.5.26h-.39c-.35-.12-.72-.12-1.09-.15-1.13-.12-2.27-.21-3.41-.33a15.1 15.1 0 01-1.5-.24c-.55-.13-1.06-.03-1.59.04-.5.07-1 .11-1.51.14.1-.29.24-.55.39-.8.15-.04.3-.03.45-.05.54-.05 1.1-.13 1.63-.05 1.03.15 2.08.21 3.11.34.99.12 1.97.24 2.97.3.32.02.67-.02.98.15.04.14-.12.31-.04.4.1.11.28-.06.43-.02h.08z"/>
	<path class="st1" d="M30.28 69.6c-.1 0-.18.08-.26.13-.71.48-1.5.8-2.28 1.15-.48.22-1.01.17-1.52.25-.28.04-.55.13-.83.12-.09-.33-.16-.66-.26-.97a5.2 5.2 0 01-.24-1.6c-.02-1.18.12-2.34.13-3.51 0-.92.22-1.81.44-2.7.25-1.02.65-1.99.87-3 .05-.23.14-.44.26-.63.35-.56.77-1.08 1.06-1.68.08-.17.17-.34.12-.55-.19-.75-.3-1.52-.55-2.27a.44.44 0 01.07-.43c.56-.81.97-1.66 1.03-2.7.07-1.2.52-2.34.97-3.47.24-.6.5-1.22.62-1.87.02-.14.11-.16.2-.18a18.9 18.9 0 013.71-.53c.68-.04 1.38.06 2.07.09.9.04 1.78.18 2.65.43.09.03.16.06.19.17.18.79.5 1.53.7 2.31.05.23.06.47.12.7.07.26.31.33.5.13.1-.12.14-.03.2.03l1.56 1.51c.05.06.1.11.1.19.09.62.24 1.23.17 1.86-.05.59-.14 1.17-.23 1.75-.12.76-.28 1.5-.57 2.21-.35.84-.52 1.73-.8 2.59-.17.08-.17.26-.22.41l-.53 1.65c-.06.18-.15.34-.25.49-.68.94-1.34 1.88-2.23 2.65-.82.71-1.57 1.5-2.44 2.13-.6.44-1.29.75-1.85 1.24-.74.62-1.57 1.12-2.37 1.65-.1.05-.2.1-.26.2l-.05.06zm9.32-14.74l1.31-2c.1-.14.06-.28 0-.42-.12-.35-.18-.7-.22-1.06-.05-.33-.1-.66-.17-.99-.02-.1-.07-.2-.2-.18-.1.02-.07.13-.06.2.09.63.18 1.26.3 1.88a.6.6 0 01-.1.45c-.29.4-.54.81-.74 1.26-.11.27-.13.56-.12.86zm-8.25 4.88c.1-.04.07-.1.07-.15a9.63 9.63 0 00-1.05-3.44c-.09-.16-.2-.3-.34-.42-.05-.04-.12-.1-.19-.01-.05.06 0 .11.04.16.58.7.85 1.56 1.1 2.41.15.48.2.98.37 1.45z"/>
	<path class="st2" d="M15.9 72.11c-.46-.5-.63-1.12-.82-1.75.04-.15-.02-.3-.03-.46l-.02-.29.01-.53.1-1.38c.07-.4.16-.8.16-1.22.1-.2.03-.41.06-.62.14-.92.14-1.85.21-2.78.06-.8-.15-1.57-.33-2.33-.29-1.3-.58-2.6-1.14-3.82a.28.28 0 01.01-.28c.42-.78.44-1.58.1-2.38a17.4 17.4 0 00-1.72-3.17c-.07-.1-.13-.2-.13-.32a10.33 10.33 0 00-.55-2.97c.09-.1.19-.12.32-.08.13.05.27.06.38-.06.55-.54 1.17-1.04 1.6-1.69a.85.85 0 01.81-.41c.17 0 .32-.05.46-.18.36-.33.65-.7.93-1.1.1-.13.18-.18.36-.15.48.08.97.12 1.45.18.57.08 1.14.19 1.7.32-.13.3-.28.61-.38.93a2.8 2.8 0 01-.9 1.3c-.24.18-.46.4-.7.6-.38.3-.65.7-1.03 1-.84.65-1.68 1.3-2.5 1.96a.55.55 0 01-.5.13c-.23-.05-.45-.1-.68-.08-.09 0-.16.02-.17.12 0 .1.05.13.13.15.28.08.55.18.83.25.22.05.42.02.6-.15.38-.39.8-.7 1.23-1.04.74-.59 1.52-1.13 2.14-1.87.2-.23.42-.46.7-.6l.04.04a2.2 2.2 0 01-.28.67c-.15.26-.31.51-.44.79-.66 1.47-1.27 2.96-2.04 4.38-.27.5-.42 1.06-.68 1.57-.07.12-.22.3-.06.4.18.1.24-.14.31-.26.48-.77.78-1.64 1.26-2.41.18-.3.35-.61.5-.93.56-1.2 1.03-2.44 1.62-3.62.52-1.05.9-2.18 1.33-3.27.17.03.34.05.5.09 1.54.35 3.06.74 4.57 1.18 1.18.34 2.37.6 3.56.86.18.04.21.12.14.28-.2.5-.4 1.01-.57 1.53-.16.48-.28.97-.41 1.45-.4-.04-.77.12-1.14.21-.22.06-.29.24-.26.42.1.61.09 1.23.1 1.84 0 .14-.05.24-.17.32-.2.12-.38.25-.56.38-.37.3-.64.63-.6 1.15a7.8 7.8 0 01-.05 1.57c-.1.77-.2 1.54-.27 2.31a4.25 4.25 0 01-.41 1.65 32.1 32.1 0 00-.94 1.87c-.2.45-.4.91-.7 1.31-.37.5-.7 1.02-.97 1.57a.6.6 0 00-.04.5c.2.58.39 1.16.63 1.73.2.45.2.91.09 1.38-.13 0-.2.1-.3.17-.36.27-.74.53-1.14.74l-1.22.7c-.82.51-1.7.86-2.68.85-.38 0-.74-.09-1.1-.22-.07-.02-.18-.1-.24.02-.06.13.06.17.14.22.35.2.75.23 1.14.3.73.04 1.44-.04 2.12-.35.62-.27 1.18-.65 1.79-.96.51-.26.98-.6 1.47-.9l-.09 1.21c0 .12-.09.13-.16.15-1.03.34-1.89 1-2.77 1.58-.51.34-.99.73-1.54 1.01-.38-.17-.8-.24-1.19-.37-.32-.14-.67-.17-.97-.34z"/>
	<path class="st3" d="M29.24 83.78c-.3-.17-.66-.13-.98-.15-1-.06-1.98-.18-2.97-.3-1.03-.13-2.08-.19-3.11-.34-.52-.08-1.09 0-1.63.05-.15.02-.3 0-.45.04h-.07a6.13 6.13 0 01-1.94-2.13c-.24-.46-.58-.84-.86-1.27 0-.3-.12-.55-.22-.82l-.08-.16c-.09-.67-.35-1.29-.55-1.92 0-.1-.04-.18-.08-.3a.6.6 0 01-.4.33c-.35-.1-.46-.22-.5-.59-.04-.45.03-.9.1-1.34.02-.14.02-.24-.13-.34-.3-.22-.25-.56.1-.85.14-.04.28-.08.42-.06.1.08.2.06.3.05.24.02.4-.06.49-.3a.28.28 0 01.14-.18c.29.03.53.2.82.22.3.17.6.31.93.08.83-.62 1.66-1.25 2.51-1.85.37-.27.73-.57 1.19-.68-.2.43-.43.83-.74 1.2a.6.6 0 00-.18.35c-.04.31-.1.63-.06.94.1.54.05 1.07.05 1.6 0 .32.04.62.12.91.1.34.2.7.47 1.02 0-.14.02-.23.01-.32-.03-.55-.1-1.11-.1-1.67 0-.74.08-1.48.1-2.22 0-.19.06-.33.17-.47.21-.27.44-.53.63-.82.19-.28.46-.53.45-.9 0-.62.1-1.24.06-1.85v-.11l.01-.14c.17.37.12.78.47 1.07.02-.5.16-.94-.07-1.37-.18-.33-.3-.68-.44-1.03-.23-.59-.49-1.16-.68-1.77a.59.59 0 01.04-.5c.3-.58.73-1.1 1.09-1.64.53-.81.87-1.73 1.26-2.62.19-.41.4-.82.48-1.28l.15-1.02c.08-.75.13-1.5.2-2.26.04-.48.06-.96.12-1.43.03-.22.03-.47.2-.64.29-.26.6-.5.93-.69-.02.14-.12.24-.2.34-.1.12-.16.26-.12.4.06.27.05.54.13.8.19.56.28 1.14.4 1.72.02.09.01.17-.04.26-.28.42-.53.86-.83 1.27-.16.2-.35.41-.42.66-.26 1.06-.7 2.05-.94 3.12-.19.84-.47 1.68-.47 2.54 0 1.18-.15 2.35-.13 3.53l-.02.32c-.01.7-.16 1.4.2 2.08.2.36.33.76.5 1.14l.04.1a11.48 11.48 0 001.8 3.56.3.3 0 00.1.17v.03c.1.18.18.36.26.54.36.75.78 1.47 1.13 2.23.5 1.08 1.07 2.13 1.56 3.22.2.45.4.9.64 1.34.22.4.1.74-.3.96-.16.1-.33.17-.5.26-.15-.22-.37-.08-.56-.12zm-2.22-5.82c-.28-.73-.73-1.38-1.05-2.08.23 1.01.53 2 1 2.94.06.21.14.42.26.6.32.88.76 1.7 1.04 2.6.03.06.07.09.13.06.18-.1.36-.04.59 0l-.45-.96-1.26-2.59-.26-.57z"/>
	<path class="st1" d="M1.18 63.06c0-.07.02-.15-.04-.21l.04-.24c.13-.78.15-1.59.33-2.36.12-.5.13-1 .44-1.44.9-1.27 1.48-2.7 2.19-4.07.11-.22.18-.45.27-.68a.7.7 0 00.05-.32c-.01-.09-.06-.19.05-.24.12-.06.17.05.23.1.2.2.37.18.59 0 .26-.2.55-.37.84-.56.13.57.17 1.12.26 1.67.02-.42.06-.83 0-1.25-.02-.26-.1-.51-.06-.78l.13-.91c.04-.21-.05-.49.1-.62.15-.13.4-.12.61-.19.43-.15.84-.31 1.16-.7.43-.49.77-1.05 1.21-1.53.46-.5 1.05-.66 1.68-.77l.01.14c.2.75.33 1.5.46 2.27.08.47-.01.99.43 1.34-.26.77-.59 1.5-.8 2.29-.32 1.22-.48 2.47-.84 3.68-.05.17 0 .3.15.4 0 .06 0 .12-.02.18-.24 1.2-.8 2.29-1.18 3.44-.03.03-.07.06-.09.1-.28.65-.57 1.3-.8 1.97l-.11.3c-.1.26-.27.45-.56.49-.97.13-1.92.39-2.9.3-.52-.04-1.04-.14-1.57-.1-.35.01-.7.05-1.05.05-.54.01-.77-.17-.94-.68-.05-.16-.05-.34-.16-.48 0-.2-.04-.4-.1-.59zm6.4-6.08a2.82 2.82 0 00-1.08-1.5 1.3 1.3 0 00-.6-.2c-.08 0-.18.02-.2.12 0 .12.1.08.16.09.32.01.57.16.79.37.35.34.63.73.92 1.12zm1.37-1.18c.23 0 .33-.16.47-.27.26-.22.47-.5.7-.75.06-.05.09-.13.04-.2-.06-.07-.15-.03-.22 0a.37.37 0 00-.1.1l-.89 1.12zm-.03.12l.04-.02c0-.03 0-.06-.03-.04-.02 0-.03.02-.04.03l.03.03z"/>
	<path class="st4" d="M11.26 47.96a2.7 2.7 0 00-1.68.77c-.44.48-.78 1.04-1.2 1.54-.33.38-.74.54-1.17.69-.2.07-.46.06-.61.2-.15.12-.06.4-.1.6-.05.31-.1.62-.13.92-.04.27.04.52.07.78.05.42 0 .83 0 1.25-.1-.55-.14-1.1-.27-1.67-.29.2-.58.36-.84.57-.22.17-.4.18-.6 0-.05-.06-.1-.17-.22-.11-.1.05-.06.15-.05.24a.7.7 0 01-.05.32c-.1.23-.16.46-.27.68-.7 1.37-1.29 2.8-2.18 4.07-.32.44-.33.95-.45 1.44-.18.77-.2 1.58-.33 2.36l-.04.24c-.27.27-.2.63-.28.96-.02.1-.04.22-.1.38-.05-.42.02-.79.06-1.14a12 12 0 00.03-1.58 18 18 0 01.12-2.28c0-.1.07-.18.13-.26.28-.36.51-.75.7-1.16.05-.12.11-.23.18-.33.55-.8.93-1.7 1.38-2.55.17-.32.27-.67.4-1 .04-.08.03-.11-.02-.17-.41-.5-.86-.98-1.17-1.56-.05-.1-.12-.11-.22-.1-.26 0-.5 0-.76-.05-.5-.07-.68-.34-.49-.82a4 4 0 00.26-.87c.05-.29 0-.53-.1-.79-.22-.62-.55-1.2-.74-1.82l-.12-.45c-.04-.19.02-.35.17-.45.14-.1.17-.21.16-.37l-.04-.84c0-.16.07-.25.22-.3a5.07 5.07 0 002.68-1.96c.35-.52.63-1.09.98-1.61.1-.15.13-.24.38-.17.3.08.64 0 .96-.04.23-.03.47-.04.69-.14l.65-.12c.46-.06.9-.2 1.36-.33.69-.2 1.4-.33 2.06-.6l.47-.15c.13 0 .23-.05.34-.1.42-.14.83-.3 1.25-.46.76-.29 1.57-.4 2.31-.75a2.5 2.5 0 011.18-.24c1.2.04 2.42-.08 3.64-.04.17 0 .33-.06.5-.04.72.08 1.44.02 2.15.03.05 0 .1-.03.15-.05h.41c.07.08.17.06.26.06.99 0 1.97-.08 2.96-.06h.14c.94-.1 1.88-.26 2.83-.26.76 0 1.52-.1 2.27-.18 1.03-.12 2.06-.29 3.1-.32l.65-.1c.3.06.58-.05.85-.17a.9.9 0 00.53-.09l.42-.1c.4-.1.8-.21 1.2-.05.5.2 1.03.37 1.5.62.1.05.2.09.17.22-.04.13-.15.12-.25.1-.1 0-.21-.03-.32-.06-.49-.17-.97-.35-1.46-.51-.07-.03-.14-.07-.23-.04-1.05.31-2.13.5-3.21.66-1.31.2-2.64.29-3.95.39-.58.04-1.17.03-1.74.14-1.42.26-2.85.24-4.28.33-1.83.12-3.67 0-5.5-.02-1.02-.01-2.04.04-3.05-.11-.1-.02-.2.02-.28.07-.6.36-1.28.54-1.96.72-1.46.4-2.86 1-4.35 1.36-1.38.32-2.75.7-4.17.79-.09 0-.14.03-.18.1-.3.55-.7 1.04-1.06 1.54-.86 1.17-1.7 2.36-2.72 3.4-.07.07-.07.13-.04.23.3 1.04.71 2.05.78 3.13.03.5.4.64.66.97.04-.2-.02-.35.05-.5.1.06.11.13.12.2.1.74.55 1.26 1.02 1.78.23.25.33.28.58.06.15-.13.26-.13.37 0 .15.16.3.14.49.06.1-.05.2-.1.3-.12.12-.02.13-.08.14-.18l.07-.95c.03-.26.1-.53-.2-.7-.06-.04-.03-.13-.04-.2-.03-.45.04-.9.15-1.32.08-.35.02-.73.2-1.03.5-.84 1.07-1.6 2.1-1.93a29.72 29.72 0 016.59-1.44c.17-.02.36 0 .5-.15.21-.2.43-.4.63-.61.18-.2.4-.4.25-.73-.04-.1.01-.25.07-.27.1-.04.22.05.25.16.08.28.32.27.54.3.64.06 1.3.09 1.94.2 2.03.34 4.05.71 6.03 1.26 1.38.4 2.78.73 4.18 1.07.24.06.35 0 .38-.23.05-.5.4-.7.8-.8 1.48-.43 2.99-.7 4.54-.64 1.33.05 2.66.07 3.95.5.19.06.31.14.4.32.29.59.5 1.2.67 1.84.06.23.17.47.46.44.8-.07 1.59-.13 2.38-.25.75-.1 1.5-.15 2.22-.44.14-.06.32-.05.39-.22.15-.35.37-.68.5-1.06a24.13 24.13 0 001.32-7.22c0-.26.1-.52.01-.78-.17-.55-.32-1.11-.53-1.65-.37-.94-.67-1.91-1.14-2.82l-.98-1.88c.35.06.7.13.97.37-.19.06-.03.14 0 .19.3.5.58 1.02.8 1.57.15.41.32.82.56 1.2.1.23.15.49.3.7-.05.2.06.36.12.53.22.61.36 1.24.46 1.89a13.4 13.4 0 01-.39 4.84c-.2.97-.38 1.94-.7 2.88-.12.37-.27.73-.44 1.08-.3.68-.97.85-1.58 1.08-.76.28-1.57.35-2.37.45-.56.07-1.12.1-1.56.11.3.35.64.75.99 1.13l.78.8c.06.05.13.13.13.2.02.6.28 1.16.25 1.76v.95c-.06.28-.14.56-.17.84-.08.86-.27 1.7-.56 2.5-.05.13-.12.24-.1.37a5.3 5.3 0 00-.37.8l-.2.42-.64 1.05c-.03.05-.07.09-.14.06.28-.86.45-1.75.8-2.59.3-.7.45-1.45.57-2.2.09-.59.18-1.17.23-1.76.07-.63-.08-1.24-.16-1.86-.01-.08-.06-.13-.11-.19l-1.57-1.51c-.05-.06-.09-.15-.2-.03-.18.2-.42.13-.49-.13-.06-.23-.07-.47-.13-.7-.2-.78-.51-1.52-.7-2.31-.02-.1-.09-.14-.18-.17-.87-.25-1.75-.39-2.65-.43-.7-.03-1.38-.13-2.07-.1-1.25.08-2.5.23-3.7.54-.1.02-.19.04-.21.18-.12.65-.38 1.26-.62 1.88-.45 1.12-.9 2.25-.97 3.47a5.15 5.15 0 01-1.03 2.7.44.44 0 00-.07.42c.24.75.36 1.52.55 2.27.05.2-.04.38-.12.55-.3.6-.7 1.12-1.06 1.68-.12.2-.2.4-.26.62-.22 1.02-.62 1.99-.87 3-.22.9-.43 1.79-.44 2.7 0 1.18-.15 2.34-.13 3.51 0 .56.06 1.09.24 1.6.1.32.17.65.26.98.02.26.1.51.18.76.02.05.02.09-.03.11-.18-.19-.2-.5-.47-.63-.17-.38-.3-.78-.5-1.14-.36-.67-.21-1.38-.2-2.08 0-.1.03-.21.02-.32-.02-1.18.13-2.35.13-3.53 0-.86.28-1.7.47-2.54.24-1.07.68-2.06.94-3.12.07-.25.26-.45.42-.66.3-.4.55-.85.83-1.27a.32.32 0 00.04-.26c-.12-.58-.21-1.16-.4-1.71-.08-.27-.07-.54-.13-.8a.43.43 0 01.12-.4c.08-.1.18-.21.2-.35.05-.02.06-.06.06-.1l.05-.07a3 3 0 00.57-1.05c.12-.45.1-.93.14-1.4.04-.2.1-.39.1-.6.14-.48.26-.97.42-1.45.17-.52.37-1.02.57-1.53.07-.16.04-.24-.14-.28-1.2-.26-2.38-.52-3.56-.86a88.68 88.68 0 00-4.57-1.18c-.16-.04-.33-.06-.5-.09-.1-.08-.22-.05-.33-.06a17.2 17.2 0 00-1.7-.32c-.48-.06-.97-.1-1.45-.18-.18-.03-.27.02-.36.16-.28.39-.57.76-.93 1.09a.64.64 0 01-.46.18c-.35 0-.6.1-.8.41-.44.65-1.06 1.15-1.61 1.7-.11.1-.25.1-.38.05-.13-.04-.23-.02-.32.07l-.55.16zm-9.1-2.6c-.05-.04-.08 0-.12.03-.68.33-.7.34-.61.88.27-.25.46-.54.66-.83l.07-.09.02-.01v-.02l-.01.04zm11.52.35l-.4.04c-1.75.24-3.45.68-5.15 1.16-.3.09-.49.24-.59.53-.06.18-.2.29-.37.37-.3.15-.51.45-.8.64-.03.02-.05.07-.05.11l-.23 1.81c-.02.16.03.21.17.15.42-.2.87-.27 1.3-.42.16-.06.3-.15.42-.28.29-.35.58-.7.89-1.03.41-.44.82-.9 1.44-1.06.24-.07.48-.15.73-.2.55-.1 1.06-.28 1.46-.7.17-.16.31-.35.52-.47.26-.15.42-.39.66-.65zM1.87 51c-.09.4-.09.4.3.32l-.3-.32zm17.37-23.2c-.1-.55-.19-1.1-.27-1.66-.02-.13-.08-.17-.2-.13-.64.22-1.12-.05-1.54-.49-1.22-1.23-2.54-2.36-3.6-3.75-.34-.44-.39-.95-.55-1.43-.13-.39-.26-.74-.6-1-.54-.41-.97-.96-1.47-1.43-.2-.18-.26-.4-.12-.66.05-.1.08-.23.13-.35.14-.41.24-.49.7-.5l-.98-2.36c-.2-.46-.32-.95-.67-1.33-.25-.27-.43-.6-.62-.92a.7.7 0 01-.1-.3c-.07-.94 0-1.87.2-2.79.34-1.7.9-3.35 1.65-4.92.22-.47.62-.77 1.03-1.07.77-.58 1.63-1.03 2.46-1.52A4.1 4.1 0 0117.28.7a12.77 12.77 0 016.3 2.2c.35.24.73.44 1.08.68.45.3.66.81.94 1.27.88 1.45 1.7 2.92 2.28 4.53.05.12.12.16.24.14.5-.12.87.07 1.15.5.4.6.84 1.18.98 1.91.07.42.07.84.02 1.25-.08.85-.22 1.68-.47 2.5-.03.1-.04.2-.1.28-.08.14-.1.26 0 .4.1.15.04.27-.1.36-.24.14-.49.25-.75.32a.4.4 0 01-.33-.07c-.06-.03-.12-.08-.18-.02-.05.06.01.12.04.17.15.27.32.52.4.82.1.31.08.57-.2.78-.18.13-.24.32-.2.55.1.55.2 1.09.37 1.62.25.78.36 1.59.5 2.4.05.35.15.66.48.85.1.24.34.37.44.6l-.26.22-.34-.18c.1.22-.15.25-.16.4l-.06.05c-.25-.05-.3-.27-.37-.46-.2-.5-.24-1.04-.4-1.54a15.6 15.6 0 01-.67-2.6c-.04-.28.02-.56-.11-.87-.18.4-.46.66-.69.95-.8 1.03-1.46 2.17-2.26 3.2-.15.2-.3.41-.53.5-.63.23-1.26.47-1.9.65-.92.26-1.85.47-2.76.74-.14.04-.2.09-.17.24.14.7.24 1.41.41 2.1.11.44.12.89.08 1.33 0 .09-.02.2-.12.22-.15.02-.09-.13-.11-.2l-.32-.95-.2-.75zm9.35-17.5c-.04-.14-.13-.2-.28-.12-.17.1-.37.1-.55.14-.45.08-.46.08-.54.53-.06.3-.1.61-.14.91 0 .08-.03.15-.11.17-.1.02-.12-.06-.17-.11-.13-.14-.13-.3-.13-.49.01-.34.1-.67.14-1.01.03-.26.1-.59.49-.63.16-.02.08-.15.04-.24-.6-1.5-1.32-2.96-2.2-4.33-.25-.39-.45-.83-.84-1.12a12.22 12.22 0 00-8.45-2.56c-.1 0-.2.05-.28.1-.3.16-.6.34-.9.48-.64.29-1.18.72-1.77 1.07-.59.35-1.1.84-1.37 1.51-.4.97-.77 1.95-1.08 2.95-.3.95-.46 1.93-.47 2.92-.01.47-.1.96.18 1.37.34.5.6 1.04.86 1.58.43.88.86 1.76 1.16 2.7l.94 2.83c.21.65.4 1.3.6 1.96-.01.08.02.15.06.2.56.85 1.25 1.58 1.96 2.29.57.57 1.2 1.09 1.82 1.62.23.2.41.44.81.34.52-.12 1.08-.1 1.6-.2 1.21-.25 2.4-.56 3.5-1.15.28-.15.64-.21.84-.47.7-.9 1.38-1.81 2.05-2.73.55-.75 1-1.57 1.5-2.35.05-.07.08-.14.03-.23-.3-.5-.32-1.1-.54-1.64-.2-.47-.18-.96-.18-1.44 0-.1.06-.17.11-.25.2.06.14.29.25.41.11-.11.22-.27.39-.22.26.09.52.12.8.1.12 0 .2.1.27.17.07.08.1.2.2.24.07-.02.07-.08.09-.13.44-.96.49-2 .5-3.03a1.6 1.6 0 00-.3-.86c-.26.48-.49.63-.77.57a.66.66 0 01-.46-.64c0-.13.02-.26.1-.38.15-.24.42-.16.64-.24l-.11-.2-.29-.39zm-16.41 7.33c-.03-.12-.04-.19-.07-.25-.06-.15-.2-.2-.33-.2-.2-.01-.17.2-.26.3-.1.12.04.17.1.23.3.29.65.53.94.88a.39.39 0 00-.17-.35l-.55-.44c-.1-.08-.16-.24-.12-.31.07-.12.19.01.28.05l.18.09zm16.36-2.13c-.01.32.06.62.18.91.04.1.16 0 .24-.03.09-.04.08-.1.04-.17-.14-.25-.26-.5-.46-.71zm.24-4.23c-.15 0-.18.11-.18.22-.01.13.08.24.2.25.14.01.24-.1.24-.23 0-.15-.13-.2-.26-.24zm-.62 4.46c-.02-.12-.07-.25-.19-.24-.15.02-.21.16-.23.3 0 .1.02.2.15.19.14-.02.22-.12.27-.25zm-.3.6c.47.09.47.09.38-.23-.1.13-.21.22-.38.23z"/>
	<path class="st5" d="M19.24 27.8l.2.75-1.02.64c-.05.03-.06.08-.08.13l-.61 1.54c-.08.2-.17.42-.15.65-.03 0-.04.02-.04.05a.93.93 0 00-.11.45c-.09.3-.16.6-.26.91-.03.12 0 .18.1.25a7.77 7.77 0 003.05 1.27c.14.03.25 0 .37-.06.66-.36 1.2-.89 1.8-1.36.6-.5 1.08-1.11 1.6-1.7.25-.28.59-.51.72-.9.12-.08.18-.2.24-.33.06-.05.13-.1.18-.16.37-.36.58-.83.9-1.22a60.6 60.6 0 012.73-3.02c.16-.16.39-.24.5-.45.03 0 .06-.01.05-.06.2 0 .34-.12.5-.21l.26-.22c.02.13.3.17.15.32-.14.13-.23.32-.4.42-.86.53-1.41 1.38-2.14 2.05-.93.85-1.6 1.94-2.38 2.92a19.55 19.55 0 01-3.12 3.25c-.34.27-.69.53-1.06.76-.52.33-1.08.34-1.67.2A6.04 6.04 0 0117 33.5c-.18-.16-.32-.28-.2-.57.25-.58.32-1.22.51-1.82.25-.78.54-1.54.86-2.3.04-.1.09-.22.25-.2.18.04.29-.07.43-.2l-.43-.06-.3-.01c-.1-.01-.16.03-.22.12-.73 1.18-1.7 2.17-2.65 3.16-.1.11-.24.2-.42.19.04-.2.18-.33.25-.52-.05 0-.09 0-.12.02l-3.87 1.06c-.11.03-.15.1-.19.18-.13.29-.3.56-.49.81a.74.74 0 00-.13.4c-.04.41-.14.8-.4 1.2-.15-.92.05-1.72.58-2.46-.33-.02-.49.1-.64.33a16.3 16.3 0 00-1.39 3c-.32.97-.57 1.95-.6 2.98-.01.58.37.98.94 1.03.2.01.39.07.6.18l-.7.16.16.29c.05.1.06.2-.04.27s-.2.02-.26-.07c-.22-.32-.56-.49-.83-.74-.29-.25-.28-.22-.55.04-.17.15-.16.28-.1.46.08.27.18.54.2.82l-.65.12a8.4 8.4 0 00-.46-.93c-.17-.32-.12-.54.2-.7.18-.09.24-.28.38-.41.34-.3.45-.71.56-1.14.23-.9.5-1.78.79-2.66.29-.87.57-1.73.96-2.56.11-.25.27-.46.42-.67.18-.24.46-.28.73-.3.24-.03.49 0 .64-.27.05-.08.18-.12.3-.1.77.13 1.5-.12 2.2-.39.64-.24 1.3-.43 1.94-.66.17-.06.3-.15.42-.3a12.6 12.6 0 001.53-2.14c.16-.3.34-.46.75-.37.4.09.85.02 1.28.02z"/>
	<path class="st5" d="M30.17 24.75c-.1-.23-.35-.36-.44-.6.2.03.38 0 .55-.1.17-.1.37-.11.56-.11.16 0 .27.06.33.25.11.38.37.7.64.95.19.17.57.14.86.19.26.04.53.03.78.09.32.07.58-.02.87-.17 1.35-.66 2.7-1.33 4.14-1.76.3-.1.53-.03.75.14l.08.08c.95 1.06 2.2 1.7 3.4 2.4.43.24.74.54.94.98.23.5.57.95.7 1.5.02.1.12.13.19.18.77.54 1.51 1.12 2.27 1.69.14.1.2.24.23.4.14.96.24 1.92.45 2.85.12.49-.02.84-.23 1.22-.08.16-.18.31-.27.47-.15-.22-.2-.48-.3-.72.52-.69.27-1.4.04-2.11-.07.07-.07.15-.08.23l-.12.45c-.03.07-.07.16-.17.15-.1-.02-.1-.11-.1-.2v-.4c0-.35-.08-.64-.44-.78-.18-.08-.33-.2-.5-.3a1.8 1.8 0 00-.96-.36c-.96-.2-1.94-.3-2.92-.44-.14-.01-.3-.06-.43.09-.5.62-1.06 1.2-1.5 1.86a17.64 17.64 0 01-2.37 2.96c-.14.13-.31.27-.33.45-.05.38-.15.75-.13 1.13a.9.9 0 01-.53.1c-.07-.35.02-.7.08-1.03.07-.43.25-.8.59-1.12.67-.63 1.31-1.29 1.82-2.08.63-.97 1.33-1.9 2.07-2.78a.6.6 0 01.32-.2c.33-.1.65 0 .97.05.7.12 1.41.29 2.12.44.62.13 1.22.3 1.75.7.25.18.5.35.71.59-.04-.37-.09-.73-.15-1.09a.2.2 0 00-.1-.12l-1.23-1.02c-.37-.3-.82-.5-1.1-.87a8.53 8.53 0 01-1.13-1.92.75.75 0 00-.36-.38c-.75-.42-1.48-.88-2.18-1.38-.49-.34-.94-.73-1.41-1.1-.15-.12-.29-.18-.5-.13a7.5 7.5 0 00-1.51.59c-1.2.63-2.37 1.31-3.6 1.86-.14.06-.27.17-.5.1l.85-.63c-.54.04-1-.03-1.46-.1-.39-.05-.79-.05-1.1-.4l-.58-.6c-.1-.1-.2-.16-.33-.14z"/>
	<path class="st0" d="M42.65 53.09v-.95c.4.5.63 1.08.93 1.62.07.13.06.26 0 .4-.1.28-.18.58-.3.86-.09.2-.08.37.03.56.35.66.63 1.36.83 2.08-.1.07-.14.22-.28.24-.2-.24-.23-.56-.44-.78l-.06-.16c-.06-.32-.26-.57-.38-.85-.06-.13-.1-.01-.14.04-.13.18-.14.42-.32.58l-.02-.01a.65.65 0 00.04-.19c-.07-.79.13-1.54.34-2.28.13-.47 0-.8-.23-1.16z"/>
	<path class="st4" d="M15.9 72.11c.31.17.66.2.98.34l-.17.66-.42-.08c-.26-.17-.57-.22-.85-.32l-.49-.24h-.01c-.03-.05-.07-.1-.13-.09a27.51 27.51 0 00-.17-.16 14.2 14.2 0 00-.04-.04l-.09-.12-.02-.2c.1-.22.28-.19.44-.09.27.17.58.25.87.38.05.03.08.01.1-.04z"/>
	<path class="st3" d="M42.6 56.84l-.08-.11c.18-.16.2-.4.32-.58.03-.05.08-.17.14-.04.12.28.32.53.38.85-.07-.03-.1-.17-.19-.1-.2.2-.39.08-.58-.02z"/>
	<path class="st4" d="M20.03 83.07l.07.01c-.15.26-.3.52-.4.8a.54.54 0 01-.26 0l.05-.6c.14-.2.37-.11.54-.2z"/>
	<path class="st0" d="M19.49 83.27l-.05.62c-.26.05-.5-.09-.75-.06 0-.14.12-.1.18-.13.15-.1.37-.1.4-.35.02-.08.14-.06.22-.08z"/>
	<path class="st4" d="M29.24 83.78c.19.04.41-.1.56.12-.1.07.08.22-.1.27l-.07-.01c-.15-.04-.33.13-.43.02-.08-.09.08-.26.04-.4zM44.26 58.6l-.4-.7c.14-.02.18-.17.28-.24.08.31.17.62.12.94zm-4.66-3.74c-.01-.3 0-.59.12-.86.2-.45.45-.87.74-1.26a.6.6 0 00.1-.45c-.12-.62-.21-1.25-.3-1.88-.01-.07-.05-.18.07-.2.12-.02.17.09.19.18l.17 1c.04.35.1.7.23 1.05.05.14.08.28 0 .41l-1.32 2.01zm-8.25 4.88c-.17-.47-.22-.97-.36-1.45a6.65 6.65 0 00-1.11-2.41c-.04-.05-.1-.1-.04-.16.07-.09.14-.03.19 0 .14.13.25.27.34.43a9.63 9.63 0 011.05 3.44c0 .05.03.11-.07.15z"/>
	<path class="st0" d="M27.12 53.14l-.05.06c-.05.02-.06.07-.06.11-.34.2-.64.43-.92.7-.18.16-.18.41-.2.63-.07.47-.09.95-.13 1.43-.06.75-.12 1.5-.2 2.26l-.15 1.02c-.07.46-.3.87-.48 1.28-.4.89-.73 1.8-1.26 2.62-.36.55-.78 1.06-1.1 1.65a.59.59 0 00-.03.49c.2.6.45 1.18.68 1.77.14.35.26.7.44 1.03.23.43.1.88.07 1.37-.35-.29-.3-.7-.46-1.07l-.02.14v.1c.03.62-.06 1.24-.06 1.85 0 .38-.26.63-.45.91-.2.29-.42.55-.63.82a.75.75 0 00-.17.47c-.02.74-.1 1.48-.1 2.22 0 .56.07 1.12.1 1.67l-.01.32c-.28-.33-.36-.68-.46-1.02-.1-.29-.13-.6-.13-.9 0-.54.04-1.07-.05-1.6-.05-.32.03-.64.06-.95a.68.68 0 01.18-.36c.31-.36.55-.76.74-1.19h.02v-.02l-.02.02c-.46.1-.82.41-1.19.68-.84.6-1.68 1.23-2.51 1.84-.33.24-.63.1-.93-.07l.43-.6c.55-.28 1.03-.67 1.54-1 .88-.6 1.74-1.25 2.77-1.59.07-.02.16-.03.16-.15l.1-1.2v-.58c.11-.47.11-.93-.08-1.38-.24-.57-.42-1.15-.63-1.73a.6.6 0 01.04-.5c.27-.55.6-1.07.97-1.57.3-.4.5-.86.7-1.31.3-.64.6-1.26.94-1.87.28-.52.35-1.09.4-1.65l.28-2.3c.07-.53.1-1.06.05-1.58-.04-.52.23-.86.6-1.15.18-.13.36-.26.56-.38.12-.08.16-.18.16-.32 0-.61.01-1.23-.09-1.84-.03-.18.04-.36.26-.42.37-.09.74-.25 1.14-.2 0 .2-.07.4-.11.6-.12.03-.24.07-.37.09-.23.04-.3.16-.3.39.01.28-.06.57-.07.86-.01.21-.15.43-.05.63.08.16.08.31.08.47z"/>
	<path class="st5" d="M11.26 47.96l.55-.16a10.97 10.97 0 01.55 2.98c0 .12.06.22.13.32.69 1 1.26 2.05 1.72 3.17.34.8.32 1.6-.1 2.38a.28.28 0 000 .28 19.5 19.5 0 011.13 3.82c.18.76.39 1.53.33 2.33-.07.93-.07 1.86-.2 2.78-.04.2.03.42-.07.62l-.28 1.1c-.06.02-.04.15-.13.1-.06-.02 0-.08 0-.13.02-.03.01-.07.01-.1.03-.14-.03-.26-.04-.4.01-.5.06-1.02.03-1.53l.02-.7c.04-.9.16-1.78.01-2.67a27.27 27.27 0 00-1.33-5.1c-.07-.17-.14-.35-.05-.57.28-.62.34-1.28.15-1.93a9.55 9.55 0 00-.93-2.05c-.05-.09-.09-.18-.18-.24-.1-.21-.2-.43-.42-.55-.44-.35-.35-.87-.43-1.34-.13-.76-.26-1.52-.46-2.27-.01-.05 0-.1 0-.14z"/>
	<path class="st6" d="M19.82 44.64c.11.01.23-.02.33.06-.44 1.1-.81 2.22-1.33 3.27-.59 1.18-1.06 2.42-1.62 3.62-.15.32-.32.63-.5.93-.48.77-.78 1.64-1.26 2.4-.07.13-.13.37-.3.27-.17-.1-.02-.28.05-.4.26-.51.41-1.07.68-1.57.77-1.42 1.38-2.91 2.04-4.38.13-.28.29-.53.44-.79.12-.21.23-.43.28-.67.03-.02.06-.07.02-.09-.04-.02-.04.03-.06.06-.28.13-.5.36-.7.59-.62.74-1.4 1.28-2.14 1.87-.42.34-.85.65-1.23 1.04a.59.59 0 01-.6.15c-.28-.07-.55-.17-.83-.25-.08-.02-.14-.06-.13-.15 0-.1.08-.12.17-.13.23-.01.45.04.67.09.2.04.35 0 .5-.13l2.51-1.96c.38-.3.65-.7 1.03-1 .24-.2.46-.42.7-.6.44-.35.72-.79.9-1.3.1-.32.25-.62.38-.93zm2.83 23.66l-.02.57c-.5.3-.96.64-1.48.9-.6.3-1.16.69-1.78.96-.68.3-1.39.39-2.12.34l.06-.31c.99.01 1.86-.34 2.68-.85.4-.24.81-.48 1.22-.7.4-.21.78-.47 1.14-.74.1-.06.17-.17.3-.17zm-4.58 4.52l-.43.6c-.29-.02-.53-.19-.82-.22l-.1-.1.16-.65c.4.13.8.2 1.2.37z"/>
	<path class="st4" d="M17.31 70.76l-.06.31c-.39-.06-.79-.09-1.14-.3-.08-.04-.2-.08-.14-.21.06-.12.16-.05.24-.02.36.13.72.22 1.1.22z"/>
	<path class="st7" d="M16.2 73.68c.1-.11-.02-.23 0-.35.01-.1.02-.22.1-.3l.41.08.11.09a.27.27 0 00-.14.19c-.09.23-.25.31-.48.3z"/>
	<path class="st4" d="M12.58 52.26c-.27.97-.64 1.9-.9 2.87-.2.74-.3 1.5-.52 2.22l-.13.44c-.06.17-.16.29-.36.28-.15-.09-.2-.22-.15-.39.36-1.21.52-2.46.84-3.68.21-.78.54-1.52.8-2.29.22.12.32.34.42.55zm-5.01 4.72c-.29-.39-.57-.78-.92-1.12a1.18 1.18 0 00-.79-.37c-.06 0-.16.03-.15-.09 0-.1.1-.13.18-.12.22.03.43.08.61.2.53.38.88.89 1.07 1.5zm1.38-1.18l.89-1.13a.37.37 0 01.1-.08c.07-.04.16-.08.22 0 .05.06.02.14-.04.2-.23.24-.44.52-.7.74-.14.1-.24.27-.47.27zm-.03.12a1.71 1.71 0 01-.03-.03c0-.01.02-.03.04-.03.04-.02.04.01.03.04l-.04.02z"/>
	<path class="st1" d="M36.66 37.41c-.02-.38.08-.75.13-1.13.02-.18.2-.32.33-.45.91-.9 1.67-1.9 2.37-2.96.44-.67 1-1.24 1.5-1.86.13-.15.29-.1.43-.09.98.13 1.96.24 2.92.44l.98 1.88c.47.9.77 1.88 1.14 2.82.21.54.36 1.1.53 1.65.08.26 0 .52-.01.79 0 2.48-.58 4.86-1.33 7.22-.12.37-.34.7-.5 1.05-.06.17-.24.16-.38.22-.71.3-1.47.34-2.22.44-.8.12-1.59.18-2.38.25-.29.03-.4-.2-.46-.44a9.46 9.46 0 00-.67-1.84.6.6 0 00-.4-.32c-1.29-.43-2.62-.45-3.95-.5-1.55-.06-3.06.21-4.54.63-.4.12-.75.32-.8.8-.03.23-.14.3-.38.24-1.4-.34-2.8-.68-4.18-1.07-1.98-.55-4-.92-6.03-1.26-.64-.11-1.3-.14-1.94-.2-.22-.03-.46-.02-.54-.3-.03-.11-.15-.2-.25-.16-.06.02-.1.18-.07.27.16.33-.07.53-.25.73l-.62.6c-.15.15-.34.14-.51.16a29.4 29.4 0 00-6.6 1.45c-1.03.33-1.58 1.08-2.1 1.92-.17.3-.1.68-.2 1.03-.1.43-.17.87-.14 1.32 0 .07-.02.16.04.2.3.17.23.44.2.7l-.07.95c0 .1-.02.16-.14.18-.1.02-.2.07-.3.12-.18.08-.34.1-.49-.07-.11-.12-.22-.11-.37.01-.25.22-.35.2-.58-.06-.47-.52-.93-1.04-1.02-1.78a.25.25 0 00-.12-.2c-.07.15-.01.3-.06.5-.25-.32-.62-.47-.65-.97-.07-1.08-.49-2.1-.79-3.13-.02-.1-.02-.16.05-.23 1.03-1.04 1.86-2.23 2.72-3.4.37-.5.76-1 1.06-1.54.04-.07.1-.1.18-.1 1.42-.08 2.8-.47 4.17-.8 1.49-.34 2.89-.94 4.35-1.35a7.56 7.56 0 001.96-.72c.08-.04.18-.09.28-.07 1.01.15 2.03.1 3.05.1 1.83.03 3.67.16 5.5.03 1.43-.1 2.86-.07 4.28-.33.57-.1 1.16-.1 1.74-.14 1.31-.1 2.64-.19 3.95-.39 1.08-.17 2.16-.35 3.2-.66.1-.03.17.01.24.04l1.46.5c.1.04.21.06.32.08.1.01.21.02.24-.11.04-.13-.06-.17-.15-.22-.48-.25-1-.42-1.5-.62-.42-.16-.81-.05-1.2.05l-.43.1zM4.16 49.97c.1-.1.08-.22.06-.33-.06-.42-.11-.84-.23-1.25-.02-.07-.05-.14.02-.2.3-.29.45-.68.74-.97.49-.48.78-1.06.97-1.7.05-.15.2-.38.03-.46-.11-.06-.22.2-.3.33-.48.86-1.14 1.59-1.68 2.4-.12.19-.19.34-.12.55.14.44.26.88.34 1.33.02.11.03.24.17.3zm.23-5.69c-.1 0-.12.07-.15.12-.6 1-1.28 1.92-1.97 2.86a.65.65 0 00-.11.38c-.02.44.12.86.2 1.28.07.28.14.57.38.82a.76.76 0 000-.33l-.3-1.54c-.02-.1-.04-.2.05-.3.2-.23.36-.48.54-.72.5-.7.99-1.41 1.3-2.22.04-.1.13-.22.06-.35zm3.4-.48c-.14.18-.24.32-.3.5a.7.7 0 01-.55.52c-.13.02-.25.06-.37.1-.05.02-.1.06-.08.12.01.04.06.07.1.09.16.06.88-.13.98-.28.2-.3.32-.63.23-1.05zm-2.82-.1c.09.02.14-.04.16-.07.21-.4.54-.6 1-.59.05 0 .13-.07.11-.16-.02-.08-.1-.1-.17-.1l-.71.04c-.13 0-.21.08-.26.2-.1.22-.13.44-.13.67zm1.28.28v.14c.02.07.02.18.11.18.09.01.1-.09.13-.15l.03-.1c-.04-.22.1-.28.27-.33a.55.55 0 00.16-.09.13.13 0 00.05-.08c0-.05-.04-.06-.08-.06-.37 0-.68.05-.67.5z"/>
	<path class="st7" d="M30.17 24.75c.14-.02.24.03.33.13.2.2.4.41.58.62.31.34.71.34 1.1.4.46.06.92.13 1.46.1l-.85.62c.23.07.36-.04.5-.1 1.23-.55 2.4-1.23 3.6-1.86a7.5 7.5 0 011.51-.59c.21-.05.35 0 .5.12.47.38.92.77 1.41 1.11.7.5 1.43.96 2.19 1.38.16.09.27.2.35.38.29.69.66 1.33 1.12 1.92.3.37.74.57 1.1.87l1.25 1.02c.04.03.08.08.09.12.06.36.11.72.15 1.09-.2-.24-.46-.41-.7-.6a4.46 4.46 0 00-1.76-.7c-.7-.14-1.41-.31-2.12-.43-.32-.06-.64-.15-.97-.05a.6.6 0 00-.32.2c-.74.89-1.44 1.81-2.07 2.78a11 11 0 01-1.82 2.08c-.34.32-.52.69-.6 1.12-.05.34-.14.68-.07 1.02-.27.12-.54.23-.85.16-.17-.3-.44-.5-.69-.71-.24-.21-.22-.41-.07-.64.27-.42.4-.9.57-1.37.03-.08.05-.14-.03-.19-.08-.05-.14-.02-.2.04l-.21.26c-.01-.65.05-1.24 0-1.83-.04-.66.03-1.33-.03-2-.03-.34.08-.49.32-.7.78-.7 1.5-1.46 2.21-2.24.21-.22.42-.45.55-.74.04-.09.16-.2.04-.29-.13-.08-.19.07-.25.14-.25.28-.5.55-.74.84-.49.6-1.09 1.09-1.59 1.68-.22.26-.48.48-.88.42-.15-.02-.25.1-.24.27l.08 1.38c.03.7.05 1.4-.05 2.1a.7.7 0 01-.08-.23c-.11-.66-.24-1.32-.33-1.98a9.63 9.63 0 01.46-4.77c.04-.12.1-.23.23-.27.44-.12.85-.33 1.26-.5.1-.05.2-.1.27-.19.15-.22.36-.37.57-.53.31-.22.61-.46.91-.69l-.04-.07c-.5.3-1.11.43-1.58.8-.46.39-1 .63-1.53.86a.55.55 0 00-.34.31 9.02 9.02 0 00-.57 2.03c-.14.83-.5 1.63-.37 2.51.07.48.07.98.18 1.46.21.86.44 1.72.8 2.53.18.44.22.81-.23 1.14-.22.16-.17.32.02.54.26.32.64.48.93.74-1.04.03-2.07.2-3.1.32-.75.09-1.5.18-2.27.18-.95 0-1.89.16-2.83.25l-.14.02c-.99-.03-1.97.05-2.96.05-.1 0-.19.02-.26-.06.06-.1.1-.23.18-.33l.98-1.5c.49-.76.8-1.63 1.39-2.34.43-.53.8-1.11 1.13-1.72.23-.42.5-.82.74-1.23.07-.12.23-.19.23-.38-.28.19-.45.45-.64.68-.5.63-.86 1.36-1.37 1.98-.37.45-.76.86-1.03 1.37a35 35 0 01-1.6 2.6c-.17.27-.36.54-.42.87-.05.02-.1.05-.15.05-.71 0-1.43.05-2.14-.03-.18-.02-.34.04-.51.04-1.22-.04-2.43.08-3.64.04a2.5 2.5 0 00-1.18.24c-.74.34-1.55.46-2.31.75l-1.25.47c-.1.04-.21.1-.34.09.05-.48-.02-.96-.05-1.44a2.28 2.28 0 00-.45-1.25c-.21-.29-.35-.63-.54-.94-.05-.08-.11-.22-.21-.17-.11.06-.02.18.02.27l.48.97c.07.14.2.28.2.44.05.76.23 1.5.08 2.27-.66.27-1.37.4-2.06.6-.45.13-.9.27-1.36.33-.02-.28-.12-.55-.2-.82-.06-.18-.07-.3.1-.46.28-.26.26-.3.55-.04.27.25.62.42.83.74.06.09.16.14.26.07s.09-.18.04-.27l-.15-.3.68-.15c-.2-.11-.39-.17-.59-.18-.57-.05-.95-.45-.94-1.03.03-1.03.28-2.01.6-2.97.36-1.05.82-2.05 1.4-3 .14-.25.3-.36.63-.34a3.12 3.12 0 00-.57 2.46c.25-.4.35-.79.39-1.2a.74.74 0 01.13-.4c.2-.25.36-.53.49-.81.04-.09.08-.15.19-.18l3.87-1.06.12-.02c-.07.2-.2.32-.25.52.18 0 .32-.08.42-.19.96-1 1.92-1.98 2.65-3.16.06-.1.11-.13.22-.12l.3.01.43.06c-.14.13-.25.24-.43.2-.16-.02-.2.1-.25.2a27.7 27.7 0 00-.86 2.3c-.19.6-.26 1.24-.5 1.82-.13.29.01.41.2.57.73.62 1.62.93 2.54 1.15.59.15 1.15.14 1.67-.19.37-.23.72-.5 1.06-.76a19.2 19.2 0 003.12-3.25c.79-.98 1.45-2.07 2.38-2.92.73-.67 1.28-1.52 2.14-2.05.17-.1.26-.29.4-.42.15-.15-.13-.2-.15-.32zm-9.23 11.23a6.6 6.6 0 01-1.44-.36c-1.29-.43-2.44-1.15-3.64-1.76-.15-.07-.13-.15-.06-.25.14-.2.26-.4.35-.61l.96-2.2.5-1.2c.03-.07.07-.16-.03-.2-.09-.04-.13.03-.18.1-.11.15-.2.33-.29.51-.13.33-.24.67-.42.97-.5.87-.8 1.83-1.33 2.68-.18.29-.12.34.17.53.57.36 1.17.62 1.77.9 1.05.52 2.13.97 3.28 1.23.33.07.6.1.89-.19.73-.72 1.53-1.36 2.23-2.12a212.5 212.5 0 003.38-3.73c.57-.65.94-1.47 1.6-2.06.04-.04.07-.1.1-.15a7.16 7.16 0 012.2-2.04c.05-.03.12-.07.1-.14-.03-.08-.11-.05-.17-.05a.67.67 0 00-.37.15c-.56.4-1.1.8-1.6 1.3-.42.44-.86.88-1.25 1.36-.63.76-1.22 1.57-1.87 2.32-.92 1.06-1.8 2.14-2.8 3.13-.59.58-1.24 1.11-1.76 1.77-.08.1-.19.13-.32.11z"/>
	<path class="st8" d="M13.68 45.71c-.24.26-.4.5-.66.65-.2.12-.35.3-.52.47-.4.42-.9.6-1.46.7-.25.05-.49.13-.73.2-.62.16-1.03.62-1.44 1.06-.31.33-.6.68-.9 1.03a.95.95 0 01-.42.28c-.42.15-.87.22-1.29.42-.14.06-.2 0-.17-.15l.23-1.8c0-.05.02-.1.05-.12.29-.19.5-.49.8-.64.18-.08.3-.2.37-.37.1-.29.28-.44.59-.53 1.7-.48 3.4-.92 5.16-1.16l.39-.04z"/>
	<path class="st6" d="M34.63 37.77c-.3-.26-.67-.42-.93-.74-.2-.22-.24-.38-.02-.54.45-.33.4-.7.22-1.14a15.8 15.8 0 01-.79-2.53c-.11-.48-.1-.98-.18-1.46-.14-.88.23-1.68.37-2.51.12-.7.3-1.38.57-2.03a.55.55 0 01.34-.31 6.07 6.07 0 001.53-.85c.47-.38 1.07-.5 1.58-.81l.04.07-.9.7c-.22.15-.43.3-.58.52-.07.1-.17.14-.27.19-.41.17-.82.38-1.26.5-.14.04-.19.15-.23.27a9.63 9.63 0 00-.47 4.77c.1.66.23 1.32.34 1.98a.7.7 0 00.08.23c.1-.7.08-1.4.05-2.1l-.08-1.38c-.01-.18.09-.29.24-.27.4.06.66-.16.88-.42.5-.59 1.1-1.08 1.6-1.68.23-.29.48-.56.72-.84.07-.07.13-.22.26-.14.12.09 0 .2-.04.3-.13.28-.34.5-.55.73-.7.78-1.44 1.54-2.21 2.24-.24.21-.35.36-.32.7.06.67-.01 1.34.04 2 .04.6-.02 1.18-.01 1.83l.21-.26c.06-.06.12-.09.2-.04.08.05.06.11.03.19-.17.46-.3.95-.58 1.37-.14.23-.16.43.08.64.25.22.52.42.7.71l-.66.11zm-11.97.76c.06-.33.25-.6.43-.87.55-.85 1.1-1.7 1.59-2.6.27-.5.66-.92 1.03-1.37.5-.62.87-1.35 1.37-1.98.2-.23.36-.5.64-.68 0 .2-.16.26-.23.38-.24.41-.5.81-.74 1.23-.33.61-.7 1.19-1.13 1.72-.58.71-.9 1.58-1.4 2.34l-.97 1.5c-.07.1-.12.22-.18.33h-.4z"/>
	<path class="st7" d="M45.3 31.73c.17.1.32.21.5.29.36.14.45.43.44.78v.4c0 .09 0 .18.1.2.1.01.14-.08.17-.15l.12-.45c.01-.08.01-.16.08-.23.23.72.48 1.42-.04 2.11a6.59 6.59 0 01-.57-1.19 8.6 8.6 0 00-.8-1.57c-.02-.05-.18-.13 0-.2z"/>
	<path class="st3" d="M42.5 56.72c-.16-.06-.21.15-.36.15-.1-.01-.21 0-.3-.07-.03-.13.04-.24.09-.36.29-.81.48-1.65.56-2.5.03-.29.1-.57.16-.85.23.35.36.7.23 1.16-.2.74-.4 1.5-.34 2.28 0 .06-.02.13-.04.19z"/>
	<path class="st6" d="M10.67 40.33c.15-.76-.03-1.51-.08-2.27 0-.16-.13-.3-.2-.44l-.48-.97c-.04-.09-.14-.2-.02-.27.1-.05.16.1.21.17.19.3.33.65.54.94.29.38.42.8.45 1.25.03.48.1.96.05 1.44l-.47.15z"/>
	<path class="st3" d="M27.12 53.14c0-.16 0-.3-.08-.47-.1-.2.04-.42.05-.63 0-.29.08-.58.08-.86 0-.23.06-.35.3-.39.12-.02.24-.06.36-.1-.04.47-.02.95-.14 1.4a3 3 0 01-.57 1.05z"/>
	<path class="st8" d="M2.1 45.44c-.2.29-.4.58-.67.83-.08-.54-.07-.55.61-.88l.05.05zM1.87 51l.3.31c-.39.08-.39.08-.3-.32z"/>
	<path class="st3" d="M27.01 53.31c0-.04.01-.09.06-.1 0 .04-.01.08-.06.1z"/>
	<path class="st8" d="M2.16 45.35l-.07.1-.05-.06c.04-.03.07-.07.13-.03z"/>
	<path class="st8" d="M2.17 45.36l.01-.04v.02l-.02.01zm11.56-24.45l-.61-1.96c-.3-.95-.63-1.9-.94-2.84-.3-.93-.73-1.81-1.16-2.69-.27-.54-.52-1.08-.86-1.58-.28-.41-.2-.9-.19-1.37.02-1 .18-1.97.48-2.92.3-1 .69-1.98 1.08-2.95.28-.67.78-1.16 1.37-1.5.59-.36 1.13-.8 1.76-1.08.32-.14.6-.32.91-.49.09-.04.17-.09.28-.1A12.22 12.22 0 0124.3 4c.39.3.6.73.84 1.12.88 1.37 1.6 2.83 2.2 4.33.04.1.12.22-.04.24-.4.04-.46.37-.49.63-.04.34-.13.67-.14 1.01 0 .18 0 .35.13.49.05.05.08.13.17.11.08-.02.1-.1.11-.17.05-.3.08-.6.14-.9.08-.46.09-.46.54-.54.18-.03.38-.04.55-.14.15-.08.24-.02.28.13-.49.02-.67.1-.73.4a13.3 13.3 0 01-.56 1.88c-.07.2-.05.36.1.52.2.18.22.39.05.6a.94.94 0 00-.17.57c0 .1-.04.24.1.27.13.02.15-.1.19-.2.05-.12.1-.25.17-.36.25-.39.24-.7-.08-1.02-.14-.15-.15-.28-.1-.45.2-.56.4-1.1.57-1.67.05-.15.12-.23.27-.26.18-.03.2-.14.19-.29l.29.4.11.19c-.22.08-.5 0-.64.24a.68.68 0 00-.1.38c0 .3.2.57.46.64.28.06.5-.1.76-.57.18.28.32.56.32.86a7.5 7.5 0 01-.51 3.03c-.02.05-.02.11-.1.13-.1-.05-.12-.16-.2-.24-.07-.08-.15-.16-.26-.16-.28 0-.54-.02-.8-.1-.17-.06-.28.1-.39.21-.11-.12-.04-.35-.25-.4-.22-.4-.22-.85-.33-1.28l-.01-.21c-.12-.58-.36-1.14-.36-1.72 0-.56-.32-.8-.74-1-.1-.04-.17-.1-.26-.15-.07-.04-.14-.11-.22-.05-.07.06 0 .14.02.2.1.45.23.89.28 1.35.04.36.13.72.2 1.08.02.51.14 1 .21 1.5.02.11 0 .2-.05.29-.23.44-.44.9-.68 1.33-.48.85-.98 1.7-1.68 2.4-.12.1-.19.16-.26-.04-.15-.43-.33-.85-.46-1.28a.69.69 0 00-.39-.45 11.9 11.9 0 00-3.33-1.12c-.34-.05-.68-.12-.97.16-.28.26-.65.35-1 .47a.42.42 0 00-.2.12c-.6.72-1.21 1.43-1.67 2.24-.1.17-.2.33-.16.56.11.68.24 1.37.4 2.05.06.29.03.3-.27.27a3.38 3.38 0 01-1.62-.72zm-.11-7.17c.34.16.6-.02.8-.26a.65.65 0 00.1-.84c.16-.07.33-.1.5-.1.1 0 .23 0 .21-.14-.01-.12-.14-.08-.22-.09-.45-.02-.86.13-1.28.22-.3.06-.5.22-.66.47-.19.28-.34.6-.47.91a.73.73 0 00-.01.44c.27-.26.33-.6.6-.8 0 .02.03.05.02.07-.01.1-.1.19.03.26.1.06.19-.02.27-.07l.1-.07zm6.57-3.22c.52.36 1.2.02 1.27-.64l.54.14c.1.02.22.05.26-.07.03-.12-.09-.15-.17-.18a1.8 1.8 0 00-.33-.1c-.37-.08-.75-.26-1.12-.16-.62.16-1.16.53-1.66.92-.07.06-.12.13-.07.21.06.09.14.05.22 0 .16-.08.29-.23.48-.27-.04.21.06.27.25.27.13 0 .21-.1.33-.12zm-3.75-1.95c.32-.13.5-.32.72-.47.24-.19.48-.32.8-.31.38 0 .74-.1 1.02-.38.17-.17.37-.32.55-.49.06-.05.11-.1.2-.1a6.9 6.9 0 012.25.57c.14.07.29.1.44.12.01-.08-.03-.1-.06-.14a3.74 3.74 0 00-1.84-1.03 1.32 1.32 0 00-.83-.05c-.84.3-1.68.63-2.46 1.07-.43.24-.57.72-.79 1.2zm-5.34 4.17l.05.31c.01.06.04.12.1.12.09 0 .07-.08.07-.14a1.4 1.4 0 01.18-.78l.5-.9c.08-.13.19-.18.34-.18.21 0 .41-.04.62-.09.18-.05.27-.15.33-.34.14-.37.29-.77.78-.85.12-.01.22-.11.33-.17.06-.04.12-.07.1-.14-.03-.07-.1-.04-.15-.04l-1.07.15a.65.65 0 00-.32.15c-.32.25-.62.53-.91.8-.62.58-.77 1.36-.95 2.1zm7.76-7.6c-.42-.05-.74.08-1.05.22-.91.38-1.66 1-2.37 1.64a.36.36 0 01-.14.1c-.37.08-.73.19-1.1.26-.35.06-.61.26-.85.5-.05.05-.12.11-.06.18.07.08.13 0 .19-.03.28-.2.58-.31.91-.4a3.16 3.16 0 001.44-.66 5.77 5.77 0 012.05-1.32c.32-.1.66-.21.98-.48zm-1.67-.6c-.18-.08-.4-.06-.56-.2-.16-.14-.33-.11-.47.02-.55.52-1.23.88-1.8 1.4-.06.05-.14.06-.22.08l-1.88.49c-.07.01-.17.02-.16.1 0 .1.11.06.18.06.43.03.83-.16 1.24-.25.35-.07.72-.12 1.02-.33.55-.4 1.1-.8 1.6-1.26.16-.15.3-.23.52-.1.16.1.35.04.53-.01zm-.11.6c-.32.03-.66-.05-.94.17-.31.24-.66.44-.95.71-.44.41-.92.7-1.54.75-.87.07-1.27.76-1.72 1.37a.1.1 0 000 .12c.06.05.1 0 .13-.04l.34-.43c.37-.48.82-.8 1.46-.87.5-.05.96-.28 1.34-.64.32-.3.71-.52 1.05-.81.05-.04.1-.07.18-.06.25 0 .44-.15.65-.28zm2.58 9.64c-.02.1-.08.24.1.25.14 0 .22-.1.22-.25v-.03l-.13-.8c-.01-.11-.06-.21-.18-.25l-.6-.16c-.06-.02-.1 0-.14.05-.05.07 0 .12.04.17.09.08.21.1.32.14.08.04.2.05.23.17.06.23.15.46.14.71zm-2.02.23c.01.11.01.26.15.28.15.02.11-.12.13-.21.02-.16.16-.22.27-.23.25-.01.47-.14.72-.13.05 0 .11 0 .13-.06.03-.07.01-.13-.03-.18-.09-.1-.2-.12-.32-.09-.26.07-.53.14-.78.24a.4.4 0 00-.27.38zm-6.9-3.73l.06-.01c.2-.61.57-1.12.97-1.62.05-.06.08-.14.01-.2-.06-.04-.14.03-.18.08-.47.5-.8 1.05-.86 1.75zm11.08-4.9c.01-.13-.08-.18-.14-.23l-1.23-.84c-.07-.05-.18-.14-.26-.02-.08.13.05.17.13.22.22.14.45.3.69.42.27.14.5.35.81.45zm-6.13 8.7c0-.07 0-.14-.07-.17-.08-.03-.12.04-.14.1-.09.18-.16.37-.24.56-.1.21-.06.39.1.54.1.1.2.28.34.18.1-.07-.02-.25-.11-.35-.12-.13-.13-.26-.04-.41a.94.94 0 00.16-.45zm.26.85c.01.06-.03.14.07.15.08.01.08-.07.11-.12.11-.22.35-.34.52-.25.1.06.2.19.27 0 .05-.14 0-.3-.16-.35-.36-.14-.82.2-.81.57zm1.13-2.16c-.05-.05-.08 0-.12 0-.23.03-.36.29-.62.25-.07-.02-.16 0-.16.1 0 .08.1.1.16.1.33.08.56-.07.74-.45zm12.28 11.47c-.11.21-.34.29-.5.45a65.2 65.2 0 00-2.73 3.02c-.32.39-.53.86-.9 1.22-.05.06-.12.11-.18.16-.36-.02-.71.07-1.07.12-.1.01-.2.06-.2.19.02.12.11.13.2.13.29 0 .57 0 .83-.1-.13.38-.47.6-.72.9-.52.58-1 1.2-1.6 1.7-.6.46-1.14.99-1.8 1.35a.51.51 0 01-.37.06 7.77 7.77 0 01-3.06-1.27c-.1-.07-.12-.13-.09-.25.1-.3.17-.6.26-.91.61-.15 1.73-.9 1.94-1.33-.36.15-.7.3-1.03.49-.24.14-.47.3-.75.34-.03-.23.06-.44.14-.65l.61-1.54c.02-.05.03-.1.08-.13l1.01-.64.32.95c.02.07-.04.22.11.2.1-.01.11-.13.12-.22a3.9 3.9 0 00-.08-1.32c-.17-.7-.27-1.4-.4-2.1-.04-.16.02-.2.16-.25.91-.27 1.84-.48 2.76-.74.64-.18 1.27-.42 1.9-.65.24-.09.38-.3.53-.5.8-1.03 1.45-2.17 2.26-3.2.23-.3.51-.56.69-.95.13.31.07.6.1.86.14.9.4 1.75.67 2.6.17.51.22 1.05.41 1.55.08.19.12.41.38.46zm-6.84 5.67c-.4.07-.7.25-1 .41-.17.09-.3.1-.46-.05-.14-.15-.32-.27-.49-.39-.1-.08-.23-.15-.33-.02-.1.12-.01.22.08.3l.68.63c.09.08.2.12.32.07.48-.2.88-.48 1.2-.95z"/>
	<path class="st9" d="M13.73 20.91c.48.37 1 .64 1.62.72.3.04.33.02.26-.27a49.4 49.4 0 01-.4-2.05c-.03-.23.07-.4.17-.56.46-.81 1.07-1.52 1.67-2.24a.51.51 0 01.2-.12c.35-.12.72-.21 1-.47.3-.28.63-.21.97-.16 1.18.17 2.26.62 3.33 1.12.2.1.32.24.39.45.13.43.31.85.46 1.28.07.2.14.15.26.03.7-.7 1.2-1.54 1.68-2.4.24-.43.45-.88.68-1.32a.44.44 0 00.05-.29c-.07-.5-.2-.99-.2-1.5.13 0 .25.07.36.15.23.14.47.27.72.35.1.43.11.88.33 1.27-.05.08-.1.14-.1.25 0 .48-.04.97.17 1.44.22.53.24 1.13.54 1.64.05.09.02.16-.02.23-.51.78-.96 1.6-1.5 2.35-.68.92-1.36 1.83-2.06 2.73-.2.26-.56.32-.85.47-1.1.59-2.28.9-3.49 1.14-.52.11-1.08.1-1.6.21-.4.1-.58-.15-.81-.34-.62-.53-1.25-1.05-1.82-1.62-.71-.71-1.4-1.44-1.96-2.28-.04-.06-.07-.13-.05-.2zm6.53-1.62c.56-.01.61.04.6.47 0 .13-.03.25-.08.37-.14.3-.27.6-.42.88a.38.38 0 00-.02.36c.07.14.11.29.16.44.03.11.06.15.2.08.82-.4 1.4-1.08 2.02-1.7.06-.07.07-.13.04-.22-.23-.71-.52-1.4-.88-2.04a.54.54 0 00-.34-.27c-.7-.2-1.4-.43-2.1-.65-.4-.12-.4-.12-.66.21-.1.14-.17.31-.37.34-.3.03-.6.08-.89.1-.11 0-.15.07-.2.15-.28.59-.57 1.17-.87 1.75a.45.45 0 00-.05.24c.05.7.1 1.4.21 2.08.02.12.07.2.2.26.6.23 1.18.46 1.79.66.25.09.43-.07.65-.08.04 0 .06-.04.05-.08l-.07-.7c0-.06-.02-.11-.09-.13-.4-.07-.69-.34-1-.56-.56-.39-.58-.74-.06-1.16.67-.54 1.48-.7 2.18-.8z"/>
	<path class="st8" d="M12.18 17.63l-.18-.1c-.1-.03-.2-.16-.28-.04-.04.07.03.23.12.3l.55.45c.1.08.17.18.17.35-.3-.35-.63-.6-.93-.88-.07-.06-.22-.1-.11-.23.09-.1.07-.31.26-.3.13 0 .27.05.33.2.03.06.04.13.07.25zm16.36-2.13c.2.21.32.46.46.7.04.08.05.14-.04.18-.08.04-.2.13-.24.03-.12-.29-.2-.6-.18-.91zm.24-4.23c.13.04.26.1.26.24 0 .13-.1.24-.24.23-.12-.01-.21-.11-.2-.25 0-.1.03-.22.18-.22zm-.62 4.46c-.05.13-.13.23-.27.25-.13.01-.16-.1-.15-.19.02-.14.08-.28.23-.3.12-.01.17.12.2.24zm1.74 9.24c-.15.1-.3.22-.5.22.02-.15.27-.18.17-.4l.34.18zm-2.04-8.64c.17-.01.28-.1.38-.23.09.32.09.32-.38.23z"/>
	<path class="st8" d="M29.41 25.18c0 .05-.02.06-.06.06l.06-.06z"/>
	<path class="st4" d="M17.58 31.51c.29-.04.52-.2.76-.34a7 7 0 011.03-.49 4.13 4.13 0 01-1.94 1.33c0-.16.03-.31.1-.45.04 0 .06-.01.06-.05zm7.23-1.09c-.26.1-.54.11-.82.1-.1 0-.2 0-.2-.12 0-.13.1-.18.2-.2.35-.04.7-.13 1.06-.1-.06.11-.12.24-.24.32z"/>
	<path class="st8" d="M17.59 31.5c0 .05-.02.05-.05.06 0-.03 0-.06.05-.05z"/>
	<path class="st3" d="M22.27 70.97l.02-.02v.01l-.02.01z"/>
	<path class="st2" d="M18.6 47.35c0-.03.01-.08.05-.06.04.02.01.07-.02.09a2.88 2.88 0 00-.04-.03z"/>
	<path class="st4" d="M4.16 49.97c-.14-.06-.15-.19-.17-.3-.08-.45-.2-.9-.34-1.33-.07-.21 0-.36.12-.55.54-.81 1.2-1.54 1.68-2.4.08-.14.19-.39.3-.33.17.08.02.3-.03.46-.2.64-.48 1.22-.97 1.7-.3.29-.45.68-.74.97-.07.06-.04.13-.02.2.12.41.17.83.23 1.25.02.11.04.23-.06.33zm.23-5.69c.07.13-.02.24-.06.35-.31.8-.8 1.52-1.3 2.22-.18.24-.34.49-.54.71-.09.1-.07.2-.05.3l.3 1.55c.02.1.03.19 0 .33a1.53 1.53 0 01-.37-.82c-.09-.42-.23-.84-.21-1.28 0-.14.03-.26.11-.38.69-.94 1.37-1.87 1.97-2.86.03-.05.06-.12.15-.12zm3.41-.48c.1.42-.02.75-.23 1.05-.1.15-.82.34-.99.28-.03-.02-.08-.05-.09-.09-.02-.06.03-.1.08-.12.12-.04.24-.08.37-.1a.7.7 0 00.56-.53c.05-.17.15-.31.3-.5zm-2.83-.1c0-.24.03-.46.13-.68.05-.12.13-.2.26-.2.23-.02.47-.03.7-.03.08 0 .16 0 .18.1.02.08-.06.15-.12.15-.45 0-.78.2-1 .59a.13.13 0 01-.15.06zm1.28.28c0-.44.3-.48.67-.49.04 0 .08.01.08.06 0 .03-.02.07-.05.08a.55.55 0 01-.16.1c-.17.04-.3.1-.27.32l-.03.1c-.03.06-.04.16-.13.15-.09 0-.1-.1-.1-.18-.01-.05 0-.1 0-.14z"/>
	<path class="st6" d="M20.94 35.98c.13.02.24 0 .32-.11.52-.66 1.17-1.19 1.77-1.77 1-.99 1.87-2.07 2.79-3.13.65-.75 1.24-1.56 1.87-2.32.4-.48.83-.92 1.26-1.36a11 11 0 011.59-1.3.67.67 0 01.37-.15c.06 0 .14-.03.17.05.02.07-.05.11-.1.14a7.16 7.16 0 00-2.2 2.03c-.03.06-.06.12-.1.16-.66.6-1.03 1.41-1.6 2.06A308.78 308.78 0 0123.7 34c-.7.76-1.5 1.4-2.23 2.12-.3.29-.56.26-.9.19a14.9 14.9 0 01-3.27-1.22c-.6-.3-1.2-.55-1.77-.91-.3-.19-.35-.24-.17-.53.52-.85.84-1.81 1.33-2.68.18-.3.29-.64.42-.97.08-.18.18-.36.3-.52.04-.06.08-.13.17-.1.1.05.06.14.03.21l-.5 1.2-.96 2.2c-.1.22-.21.42-.35.61-.07.1-.09.18.06.25 1.2.61 2.35 1.33 3.64 1.76.47.16.95.31 1.44.36z"/>
	<path class="st9" d="M16.44 8.57c.22-.49.36-.97.8-1.21.77-.44 1.6-.77 2.45-1.07.26-.1.56-.03.83.05a3.8 3.8 0 011.84 1.03c.03.04.07.06.06.14-.15-.02-.3-.05-.44-.12a6.88 6.88 0 00-2.24-.56c-.1-.01-.15.04-.21.1-.18.16-.38.3-.55.48-.28.29-.64.38-1.01.38-.33 0-.57.12-.81.3-.21.16-.4.35-.72.48z"/>
	<path class="st10" d="M26.95 13.63a3.42 3.42 0 01-.72-.35.72.72 0 00-.37-.15c-.07-.36-.16-.72-.2-1.08-.05-.46-.17-.9-.28-1.35-.02-.06-.1-.14-.02-.2s.15.01.22.05c.09.04.17.1.26.15.42.2.74.44.74 1 0 .58.24 1.14.36 1.72l.01.21z"/>
	<path class="st9" d="M11.1 12.74c.18-.74.33-1.52.95-2.1.3-.27.6-.55.91-.8.1-.08.2-.13.32-.15l1.07-.15c.05 0 .12-.03.15.04.02.07-.04.1-.1.14-.11.06-.21.16-.33.17-.5.08-.64.48-.78.85-.06.2-.15.3-.33.34-.2.05-.41.1-.62.1-.15-.01-.26.04-.33.17-.17.3-.35.6-.5.9-.13.24-.22.5-.2.78.01.06.03.15-.07.14-.05 0-.08-.06-.09-.12l-.05-.31z"/>
	<path class="st4" d="M18.86 5.15c-.32.27-.66.38-.98.48-.81.27-1.45.77-2.05 1.32-.42.38-.92.54-1.44.67-.33.08-.63.2-.91.39-.06.04-.12.1-.19.03-.06-.07 0-.13.06-.19.24-.23.5-.43.85-.5.37-.06.73-.17 1.1-.26.06-.01.1-.05.14-.09a8.57 8.57 0 012.37-1.64 1.8 1.8 0 011.05-.21zm9.73 5.15c.01.15-.01.26-.2.3-.14.02-.21.1-.26.25-.17.56-.37 1.11-.56 1.67-.06.17-.05.3.1.45.31.33.32.63.07 1.02-.07.11-.12.24-.17.36-.04.1-.06.22-.19.2-.14-.03-.1-.17-.1-.27 0-.2.05-.4.17-.56.17-.22.14-.43-.04-.61-.16-.16-.18-.33-.1-.52.22-.62.42-1.24.55-1.89.06-.3.24-.37.73-.4zM17.2 4.54c-.19.05-.38.1-.54.01-.22-.13-.36-.05-.53.1-.5.45-1.04.86-1.6 1.26-.29.21-.66.26-1.01.33-.41.1-.8.28-1.24.25-.07 0-.17.05-.18-.05-.01-.09.09-.1.16-.11l1.88-.49c.08-.02.16-.03.22-.09.57-.5 1.25-.87 1.8-1.4.14-.12.31-.15.47-.01.16.14.38.12.56.2zm-.12.59c-.2.13-.4.28-.65.28a.25.25 0 00-.18.06c-.34.29-.73.5-1.05.81-.38.36-.83.59-1.34.64-.64.07-1.09.4-1.46.87-.1.15-.22.29-.34.43-.03.03-.07.1-.13.04a.1.1 0 010-.12c.46-.6.85-1.3 1.72-1.37.62-.04 1.1-.34 1.54-.75.29-.27.64-.47.95-.71.28-.22.62-.14.94-.18zm-3.88 8.42c-.28.19-.34.54-.61.8a.73.73 0 01.01-.44c.13-.32.28-.63.47-.91.15-.25.35-.4.66-.47.42-.1.83-.24 1.28-.22.08 0 .2-.03.22.09.02.13-.11.14-.21.14-.17 0-.34.03-.5.1-.13.04-.27.07-.37.16-.24.1-.55.07-.65.38l-.01.02-.05.04c0 .1-.08.15-.14.21-.07-.01-.09.03-.1.09zm6.41-3.18c-.2.04-.32.2-.48.28-.08.04-.16.08-.22 0-.05-.09 0-.16.07-.22.5-.4 1.04-.76 1.66-.92.37-.1.75.08 1.12.16.11.02.22.06.33.1.08.03.2.06.17.18-.04.12-.16.1-.26.07l-.54-.14-.54-.12c-.2 0-.35.1-.51.17-.1.05-.21.07-.28.16l-.31.16-.07.03c-.05.02-.1.03-.1.08l-.04.01z"/>
	<path class="st6" d="M20.13 10.09c.07-.1.18-.11.28-.16 0 .17.07.32.26.32.2 0 .25-.17.25-.35v-.14l.54.12c-.07.66-.75 1-1.27.64.04-.07.1-.13.11-.2.04-.14.02-.26-.17-.23z"/>
	<path class="st4" d="M19.66 14.78c0-.25-.08-.48-.14-.71-.03-.12-.15-.13-.23-.17-.1-.05-.23-.06-.32-.14-.05-.05-.1-.1-.04-.17.03-.05.08-.07.14-.05l.6.16c.12.04.17.14.18.25l.13.8v.02c0 .16-.08.26-.22.26-.18 0-.12-.14-.1-.25z"/>
	<path class="st6" d="M14.15 12.8c.1-.1.24-.12.37-.16.18.3.13.6-.1.84-.2.24-.46.42-.8.26.1-.15.12-.31.09-.49.34.09.51-.1.44-.45z"/>
	<path class="st4" d="M17.64 15c0-.18.12-.3.27-.37.25-.1.52-.17.78-.24a.3.3 0 01.32.1c.04.04.06.1.03.17-.02.06-.08.07-.13.06-.25-.01-.47.12-.72.13-.1.01-.25.07-.27.23-.02.1.02.23-.13.2-.14-.01-.14-.16-.15-.27zm-6.9-3.72c.05-.7.39-1.26.86-1.75.04-.05.12-.12.18-.07.07.05.04.13-.01.2-.4.49-.76 1-.97 1.6 0 .02-.03.01-.06.02zm11.08-4.9c-.3-.1-.54-.3-.81-.45-.24-.12-.47-.28-.7-.42-.07-.05-.2-.1-.12-.22.08-.12.19-.03.26.02l1.23.84c.06.05.15.1.14.23zm-6.13 8.7c0 .16-.08.31-.16.45-.09.15-.08.28.04.41.09.1.2.28.11.35-.14.1-.24-.09-.34-.18-.16-.15-.2-.33-.1-.54l.24-.57c.02-.05.06-.12.14-.09.08.03.06.1.07.17zm.26.85c0-.38.45-.7.8-.57.17.06.22.2.17.35-.07.19-.17.06-.27 0-.17-.1-.4.03-.52.25-.03.05-.03.13-.11.12-.1 0-.06-.1-.07-.15z"/>
	<path d="M20.13 10.09c.19-.03.2.09.17.22-.02.08-.07.14-.11.21-.12.02-.2.12-.33.12-.2 0-.3-.06-.25-.27l.03-.01c.06 0 .1 0 .1-.07.05.01.07 0 .08-.04l.3-.16zm-6.43 3.16a.6.6 0 01-.08.5c-.04.01-.07.04-.11.06-.08.05-.16.13-.27.07-.12-.07-.04-.17-.03-.26l-.02-.07v-.01c.1.04.12 0 .11-.09.06-.06.14-.11.14-.2.03 0 .06-.01.05-.05v-.02c.08 0 .16 0 .22.07z" fill="#fefefe"/>
	<path class="st4" d="M17.08 13.77c-.18.38-.41.53-.74.46-.07-.02-.16-.03-.16-.11 0-.1.1-.12.16-.1.26.04.4-.22.62-.24.04 0 .07-.06.12-.01zm5.44 17.13c-.32.48-.72.77-1.2.96-.12.05-.23 0-.32-.07l-.68-.63c-.1-.08-.18-.18-.08-.3.1-.13.23-.06.33.02.17.12.35.24.5.39.14.16.28.14.45.05.3-.16.6-.34 1-.41z"/>
	<path class="st8" d="M20.26 19.3c-.7.1-1.5.25-2.18.8-.52.41-.5.76.05 1.15.32.22.61.49 1.01.56.07.02.08.07.09.13l.07.7c0 .04 0 .08-.05.08-.22 0-.4.17-.65.08-.6-.2-1.2-.43-1.79-.66-.13-.05-.18-.14-.2-.26-.12-.69-.16-1.39-.21-2.08 0-.09.02-.16.05-.24l.88-1.75c.04-.08.08-.14.2-.15.29-.02.58-.07.88-.1.2-.03.27-.2.37-.34.26-.33.25-.33.66-.2l2.1.64c.16.05.26.13.34.27.37.65.65 1.33.88 2.04.03.09.02.15-.04.21-.63.63-1.2 1.31-2.02 1.71-.14.07-.16.03-.2-.08l-.16-.44a.38.38 0 01.02-.36c.15-.29.28-.58.42-.88a.94.94 0 00.08-.37c.01-.43-.04-.48-.6-.47zm-3.38.27l-.06.32c-.13.18-.05.26.13.28h.24c.2.01.36-.1.51-.2.1-.07.18-.15.31-.12.03.04.07.06.11.03a7.7 7.7 0 011.84-.74c.03 0 .05-.04.08-.06.55.1.9-.27 1.25-.59.06-.03.12-.05.16-.09.07-.05.17-.12.13-.2-.03-.1-.14-.09-.23-.06-.1.03-.2.03-.28-.05a109.14 109.14 0 01-.32-.06c-.01-.1-.1-.11-.18-.15.03-.1-.05-.13-.11-.15l-1.15-.4c-.22-.08-.37-.04-.5.16-.2.27-.43.5-.8.52-.1 0-.23.04-.3.16-.26.36-.55.7-.76 1.09-.06.1-.16.19-.07.31z"/>
	<path class="st2" d="M13.7 13.25c-.05-.07-.13-.06-.2-.07.1-.3.4-.29.65-.38.07.36-.1.54-.44.45z"/>
	<path class="st8" d="M13.3 13.45c.01.08-.01.13-.1.09.01-.06.03-.1.1-.09z"/>
	<path class="st2" d="M13.49 13.2c0 .04-.02.04-.05.04l.05-.04zm7.43-3.44v.14c0 .18-.05.34-.26.35-.18 0-.24-.15-.25-.32.16-.07.32-.17.5-.17z"/>
	<path class="st8" d="M19.75 10.29c0 .07-.05.08-.1.07 0-.05.05-.06.1-.07zm.07-.04c-.01.04-.03.05-.07.03l.07-.03z"/>
	<path class="st10" d="M21.3 18.5c-.37.31-.71.67-1.26.58-.53-.06-1 .15-1.48.33-.23.08-.46.17-.55.44-.13-.03-.2.05-.3.11-.16.1-.31.22-.52.2l.32-.4c.17-.23.35-.46.58-.64a3.7 3.7 0 013.2-.63z"/>
	<path class="st4" d="M21.3 18.5a3.7 3.7 0 00-3.21.62c-.23.18-.4.4-.58.64l-.32.4c-.08 0-.16.02-.24.01-.18-.02-.26-.1-.13-.28.18.03.25-.11.33-.23a3.87 3.87 0 011.81-1.37 5 5 0 011.79-.25l.2.03c.03.03.08.03.12.02.08.08.18.08.28.05.1-.03.2-.03.23.05.04.09-.06.16-.13.21-.04.04-.1.06-.16.1z"/>
	<path class="st10" d="M20.75 18.04a5 5 0 00-1.79.25c-.74.28-1.35.72-1.81 1.37-.08.12-.15.26-.33.23l.06-.32c.13.01.18-.1.24-.18l.63-.95c.08-.14.17-.24.36-.24.34.01.59-.14.74-.46.08-.15.2-.2.41-.16.45.07.86.26 1.3.3.08.04.18.05.19.16z"/>
	<path class="st4" d="M20.57 17.88c-.45-.04-.86-.23-1.31-.3-.2-.03-.33.01-.4.16a.75.75 0 01-.75.46c-.19 0-.28.1-.36.24-.2.32-.42.63-.63.95-.06.08-.1.2-.24.18-.09-.13.01-.22.07-.31.21-.4.5-.73.75-1.1.08-.1.2-.14.3-.15.38-.02.61-.25.8-.52.14-.2.3-.24.51-.16l1.15.4c.06.02.14.05.1.15zm-2.56 1.97c.09-.27.32-.36.55-.44.47-.18.95-.4 1.48-.33-.03.02-.05.06-.08.06a7.7 7.7 0 00-1.84.74c-.04.03-.08.01-.1-.03z"/>
	<path class="st10" d="M21.07 18.1c-.05 0-.1 0-.13-.03.05-.02.1-.02.13.02z"/>
</svg>
