<svg xmlns="http://www.w3.org/2000/svg" viewBox="0 0 46 35">
	<style>
		.st12{fill:#cdf4fc}.st14{fill:#4074d7}.st15{fill:#072590}.st16{fill:#092691}.st21{fill:#265244}
	</style>
	<path class="st12" d="M5.56 34.524l.001.052h-.817l.002-.05.813-.002z"/>
	<path d="M5.56 34.524l-.814.002c-.393-.1-.791-.178-1.167-.34-.289-.123-.44-.314-.42-.646.058-.87.102-1.742.225-2.607.008-.056.064-.118-.005-.174l.037.002-.003-.024-.03.029c-.07-.018-.125.024-.176.056-.571.35-1.214.25-1.829.266-.438.01-.687-.293-.7-.758-.023-.871.003-1.733.28-2.579.269-.816.369-1.683.692-2.484.332-.825.77-1.595 1.29-2.316.087-.121.14-.218.09-.366-.2-.618-.394-1.238-.587-1.858-.218-.698-.27-1.425-.296-2.146-.025-.677-.132-1.359-.014-2.035a8.019 8.019 0 01.56-1.808c.093-.215.311-.3.522-.36.835-.233 1.675-.448 2.509-.687 1.91-.548 3.773-1.228 5.64-1.914 3.26-1.197 6.413-2.626 9.507-4.185 2.313-1.166 4.519-2.528 6.696-3.937 1.464-.947 2.822-2.033 4.256-3.017.674-.463 1.278-.41 1.922-.075.368.192.755.34 1.122.536.493.264.873.646 1.249 1.034.346.358.687.732.938 1.162.317.543.38 1.161.414 1.78.074 1.31.185 2.618.472 3.882.06.05.09.02.116 0 1.02-.853 2.106-1.632 2.96-2.67a2.01 2.01 0 01.541-.45c.277-.163.48-.07.588.228.247.689.282 1.403.228 2.12-.113 1.5-.114 3.011-.33 4.5-.16 1.094-.265 2.193-.433 3.286-.153.997-.413 1.963-.667 2.933a.911.911 0 00.02.528c.381 1.228.956 2.378 1.427 3.57.184.465.515.85.769 1.279.557.941 1.11 1.885 1.647 2.838.236.419.062.858-.193 1.155-.988 1.155-1.91 2.375-3.093 3.352-.195.161-.38.342-.541.536-.404.486-.93.682-1.543.75-.384.043-.756.213-1.14.242-1.247.095-2.475.353-3.723.444-1.15.084-2.303.066-3.454.107-1.105.039-2.213.118-3.314-.046-.356-.053-.656.045-.988.139-.545.153-1.117.224-1.682.296-.683.088-1.37.157-2.056.208-1.66.124-3.316.064-4.97-.117-.595-.065-1.197.026-1.794-.04-1.402-.156-2.81-.011-4.216-.06-.956-.035-1.92-.115-2.882-.048-.502.035-.975.197-1.466.276-.727.117-1.46.16-2.192.211zM40.564 20.14c-.292.402-.692.595-1.028.865-.143.114-.3.092-.42-.028-.12-.121-.081-.274.005-.4.103-.15.235-.275.386-.38.246-.17.42-.387.49-.69.086-.38.189-.755.3-1.127.311-1.04.5-2.108.675-3.177.096-.588.14-1.185.249-1.77a24.7 24.7 0 00.351-2.932c.044-.676.14-1.349.184-2.025.04-.616.07-1.237-.09-1.88-.083.053-.12.14-.184.202-.717.703-1.36 1.489-2.232 2.021-.1.061-.181.15-.275.22-.441.33-.814.755-1.331.98a5.51 5.51 0 00-1.177.723c-.467.362-.928.728-1.247 1.237-.06.096-.112.212-.244.15-.126-.059-.094-.18-.058-.286.105-.308.286-.573.52-.787.594-.541 1.124-1.163 1.862-1.529.158-.078.192-.175.135-.347a8.485 8.485 0 01-.284-1.019c-.231-1.179-.4-2.365-.44-3.57-.015-.447-.127-.89-.437-1.26-.459-.546-1.035-.96-1.589-1.392-.409-.319-.884-.555-1.341-.808-.389-.214-.788-.364-1.21-.042-.309.236-.65.43-.956.67a60.015 60.015 0 01-4.925 3.478c-1.164.734-2.374 1.384-3.574 2.053-.792.441-1.56.924-2.377 1.318a84.953 84.953 0 01-3.74 1.676c-2.158.918-4.28 1.918-6.532 2.6-1.574.478-3.122 1.043-4.712 1.473-.61.165-1.212.368-1.83.496-.282.059-.424.166-.515.429a6.031 6.031 0 00-.308 2.19c.02.59-.068 1.187.033 1.767.135.773.328 1.538.55 2.292.227.766.382 1.545.451 2.34.024.271.044.55-.08.836l-.382-1.38a47.286 47.286 0 00-.897 1.834c-.442.96-.644 1.995-.865 3.021a6.096 6.096 0 00-.059 2.133c.01.073-.02.166.124.152a5.635 5.635 0 001.849-.493c.148-.068.198-.175.216-.34.098-.934.078-1.88.269-2.806.035-.173.085-.355.278-.336.171.017.22.207.206.367-.054.605-.06 1.213-.041 1.819.012.416.017.834-.029 1.244-.115 1.032-.39 2.04-.494 3.076-.05.507.045.643.548.771.625.16 1.245.044 1.865.036.696-.008 1.392-.055 2.077-.202a7.178 7.178 0 011.861-.175c.425.02.853.074 1.275.045.508-.036 1.01-.028 1.517.007 1.131.076 2.26-.111 3.396-.008.954.087 1.917.012 2.877.11.934.096 1.877.074 2.822.034 1.35-.057 2.68-.236 4.012-.439.223-.034.451-.032.666-.112.755-.284 1.54-.469 2.32-.659.812-.197 1.6-.463 2.37-.77.617-.245 1.247-.483 1.794-.88.1-.071.223-.058.356-.016-.085.192-.117.416-.281.547-.324.258-.633.536-1.026.702a29.59 29.59 0 01-2.655.955c-.203.064-.408.123-.613.184.74.064 1.468-.043 2.198-.078 1.329-.064 2.657-.144 3.985-.216.84-.045 1.674-.152 2.51-.25.533-.062 1.032-.296 1.564-.33.397-.025.677-.205.954-.452.568-.508 1.094-1.059 1.66-1.571.817-.742 1.523-1.6 2.344-2.34.127-.114.086-.216.017-.335-.219-.376-.415-.765-.652-1.128-.37-.566-.52-1.236-.891-1.8-.274-.416-.61-.795-.795-1.264-.42-1.067-1.034-2.054-1.305-3.224z" fill="#092690"/>
	<path class="st14" d="M40.565 20.14c.27 1.17.884 2.158 1.305 3.224.185.47.521.848.794 1.264.372.565.522 1.234.891 1.8.237.363.434.753.652 1.129.07.118.11.22-.016.335-.821.74-1.527 1.598-2.345 2.34-.565.511-1.09 1.062-1.659 1.57-.277.247-.557.427-.954.452-.532.034-1.031.268-1.565.33-.835.098-1.669.205-2.509.25-1.329.072-2.656.152-3.985.216-.73.036-1.458.142-2.198.078.205-.06.41-.12.613-.184a29.527 29.527 0 002.655-.955c.393-.166.702-.444 1.026-.702.164-.13.196-.354.28-.547-.132-.042-.256-.055-.355.017-.547.397-1.178.634-1.794.88-.77.306-1.559.572-2.37.77-.78.19-1.565.374-2.32.658-.215.08-.443.079-.666.113-1.331.202-2.662.38-4.012.438-.945.04-1.888.062-2.822-.033-.96-.098-1.923-.023-2.877-.11-1.136-.104-2.265.083-3.396.007a11.018 11.018 0 00-1.517-.007c-.422.03-.85-.025-1.275-.045a7.178 7.178 0 00-1.862.175c-.685.148-1.38.194-2.076.203-.62.007-1.24.123-1.865-.036-.503-.13-.599-.265-.548-.772.104-1.036.38-2.044.494-3.076.045-.41.041-.828.028-1.244a15.347 15.347 0 01.042-1.82c.014-.159-.035-.349-.206-.366-.194-.019-.243.164-.279.337-.19.925-.17 1.871-.269 2.805-.017.165-.068.272-.216.34a5.635 5.635 0 01-1.848.494c-.145.014-.114-.08-.124-.152a6.099 6.099 0 01.059-2.133c.22-1.027.423-2.061.865-3.022.28-.607.576-1.207.897-1.834l.381 1.38c.125-.285.105-.565.081-.837a11.872 11.872 0 00-.45-2.338 20.503 20.503 0 01-.55-2.293c-.102-.58-.014-1.177-.034-1.766a6.031 6.031 0 01.308-2.19c.09-.263.233-.371.515-.43.618-.128 1.22-.33 1.83-.496 1.59-.43 3.138-.995 4.712-1.472 2.253-.683 4.374-1.683 6.531-2.6a84.953 84.953 0 003.74-1.676c.817-.395 1.586-.878 2.378-1.319 1.2-.668 2.41-1.318 3.574-2.053a60.056 60.056 0 004.925-3.478c.306-.239.647-.433.956-.67.422-.322.821-.172 1.21.043.457.252.932.489 1.34.808.555.432 1.13.845 1.59 1.392.31.368.422.813.437 1.26.04 1.205.209 2.39.44 3.57.068.345.174.683.284 1.018.057.172.023.27-.135.348-.738.365-1.269.987-1.862 1.529-.234.213-.415.479-.52.786-.036.106-.068.228.058.286.132.062.184-.053.244-.15.319-.508.78-.875 1.247-1.237a5.51 5.51 0 011.177-.723c.517-.224.89-.65 1.33-.98.095-.07.177-.159.276-.22.872-.532 1.515-1.318 2.232-2.02.063-.062.1-.15.183-.203.161.644.13 1.264.09 1.88-.043.677-.139 1.35-.183 2.025a24.7 24.7 0 01-.351 2.932c-.11.585-.153 1.182-.249 1.77-.175 1.07-.364 2.136-.675 3.177-.111.373-.215.748-.3 1.127-.07.304-.244.52-.49.69-.151.105-.283.23-.386.38-.087.126-.125.28-.005.4.119.12.277.142.42.028.337-.27.736-.463 1.028-.865zm-31.9 4.8h.001c.006.205-.126.353-.217.517-.198.358-.375.725-.462 1.127-.066.307-.091.63.136.88.29.321.553.676.93.909.118.072.18.158.16.31-.028.209.103.271.287.248.09-.01.178-.03.266-.051.824-.202 1.636-.402 2.51-.319.887.085 1.751.245 2.612.455.122.03.338.216.295-.142-.01-.073.11-.078.169-.117.704-.468 1.371-.966 1.785-1.74a.741.741 0 00.017-.74 6.266 6.266 0 00-1.956-2.36c-.289-.215-.615-.357-.972-.557.238.007.417.003.599.033.135.023.368.121.402-.061.038-.2-.213-.213-.362-.238-.616-.103-1.233-.155-1.861-.058-1.384.212-2.734.514-3.954 1.248-.39.235-.77.475-1.09.802-.083.086-.232.193-.124.312.1.11.234-.007.337-.079.17-.12.303-.285.493-.38zm22.485-9.337c-.217-.292-.505-.416-.816-.533-.678-.254-1.395-.299-2.091-.455-.795-.178-1.612-.266-2.415-.32-1.006-.068-2.016-.131-3.034-.115-1.395.023-2.754.247-4.123.435-.824.113-1.624.351-2.438.517-1.4.283-2.709.852-3.995 1.462-1.099.52-2.063 1.24-2.962 2.049-.524.471-1.114.862-1.58 1.406-.631.737-1.224 1.5-1.731 2.327-.039.063-.133.138-.027.205.074.047.124-.031.172-.09.254-.318.516-.63.768-.948.44-.556.943-1.057 1.457-1.537.526-.493 1.137-.896 1.71-1.339 1.077-.832 2.275-1.442 3.534-1.948.748-.3 1.474-.67 2.254-.866a50.083 50.083 0 014.144-.831c1.33-.216 2.666-.209 4.002-.205 1.085.002 2.166.11 3.242.256 1.047.141 2.099.251 3.133.485.25.057.51.12.796.045zm-9.208 8.428l-.224.459c-.387.783-.582 1.592-.375 2.467a.872.872 0 00.198.376c.267.316.63.355 1.006.392.611.06 1.227.074 1.834.182.184.033.222.078.086.226-.106.117-.203.276-.058.408.147.134.282.02.393-.102.847-.924 1.923-1.496 3.058-1.974.517-.218 1.039-.424 1.6-.505.147-.022.27-.195.143-.257-.26-.127-.088-.246-.055-.37.054-.201.137-.396.173-.6.064-.364.14-.74-.232-1.013-.038-.028-.08-.096-.072-.137.054-.298-.171-.414-.351-.56-.351-.284-.778-.428-1.184-.6-.662-.28-1.378-.31-2.08-.278-.362.016-.732.098-1.097.167-.838.157-1.624.437-2.341.895-.346.22-.694.456-.841.886.155.057.257-.062.419-.062zm17.537 7.11a2.448 2.448 0 00-.063-.855c-.122-.444-.25-.888-.347-1.338-.12-.558-.255-1.115-.473-1.64a28.636 28.636 0 01-1.34-4.123c-.162-.653-.479-1.248-.742-1.862-.039-.09-.097-.206-.214-.163-.12.043-.078.168-.059.263.051.255.079.511.174.762.264.694.4 1.428.555 2.15.15.702.333 1.389.58 2.059.402 1.084.87 2.142 1.148 3.272.13.528.235 1.107.781 1.475zm-5.922-21.03c0-.207-.005-.356 0-.504.019-.434.053-.867.059-1.301.008-.644-.011-1.288-.005-1.931.005-.552.052-1.11.024-1.655-.028-.543.033-1.04.232-1.533a.931.931 0 00.036-.612c-.198.06-.311.207-.452.371l-.113-.398c-.03-.101-.082-.2-.198-.189-.111.012-.116.126-.118.216-.004.144 0 .287.018.432.037.304.068.612.061.918-.01.442-.057.883-.086 1.324-.08 1.253.157 2.492.173 3.74.005.387.177.736.369 1.123zm.745 18.1c-.13-.011-.268.036-.4.099-.36.173-.67.426-1.005.64-.151.096-.125.225.042.307.15.073.284.028.411-.052.177-.111.361-.203.556-.282.37-.148.63-.051.794.317.08.183.124.377.167.572.034.154.107.322.276.328.157.006.272-.128.335-.28a.89.89 0 00.036-.103c.206-.76-.399-1.544-1.212-1.546zm.22-11.391c.039-.035.06-.045.06-.057a1.32 1.32 0 00.008-.19c-.064-1.094-.408-2.123-.731-3.157-.021-.068-.056-.152-.151-.113-.088.036-.105.121-.082.207.294 1.098.515 2.214.896 3.31z"/>
	<path class="st15" d="M31.15 15.603c-.286.076-.546.012-.796-.045-1.034-.234-2.085-.344-3.133-.485-1.076-.145-2.157-.254-3.242-.256-1.336-.003-2.673-.01-4.002.205a50.042 50.042 0 00-4.144.831c-.78.196-1.506.566-2.254.866-1.259.506-2.457 1.116-3.534 1.948-.573.443-1.183.846-1.71 1.339-.514.48-1.017.98-1.457 1.537-.252.32-.514.63-.768.948-.048.059-.098.137-.172.09-.106-.066-.012-.142.027-.204.507-.828 1.1-1.59 1.731-2.328.466-.544 1.056-.935 1.58-1.406.9-.81 1.863-1.529 2.962-2.049 1.286-.61 2.596-1.179 3.995-1.462.814-.165 1.614-.404 2.438-.517 1.37-.188 2.728-.412 4.123-.435 1.018-.016 2.028.048 3.034.115.803.054 1.62.142 2.415.32.696.157 1.414.202 2.091.456.31.116.599.24.816.532z"/>
	<path class="st16" d="M21.942 24.031c-.162 0-.264.119-.419.061.147-.43.495-.665.841-.886.717-.457 1.503-.737 2.342-.895.364-.068.734-.15 1.096-.167.703-.032 1.418-.002 2.08.279.406.172.833.316 1.184.6.18.146.405.262.351.56-.007.04.034.109.073.137.371.272.295.649.23 1.013-.035.204-.117.399-.171.6-.034.124-.205.243.054.37.127.062.004.235-.142.256-.562.082-1.084.288-1.6.506-1.135.478-2.212 1.05-3.059 1.974-.11.121-.246.236-.393.102-.145-.132-.048-.291.059-.408.135-.149.097-.193-.087-.226-.607-.109-1.223-.122-1.834-.182-.377-.037-.739-.076-1.005-.393a.872.872 0 01-.198-.375c-.208-.875-.013-1.685.374-2.467l.224-.459zm3.012-1.188c-.629.083-1.193.272-1.68.73-.896.844-1.4 1.843-1.439 3.08-.008.265.095.37.335.428.556.132 1.11.238 1.688.25.349.008.727-.08 1.05.158.067.05.13.013.193-.04 1.055-.882 2.28-1.414 3.604-1.738.097-.024.166-.06.216-.142.177-.298.316-.613.377-.955a.736.736 0 00-.058-.497c-.459-.879-1.244-1.215-2.163-1.344-.186-.032-.371-.077-.559-.094-.531-.049-1.063-.082-1.564.164zM8.666 24.94c-.19.094-.324.26-.494.38-.102.07-.236.189-.337.078-.107-.12.042-.227.126-.312.318-.327.7-.568 1.09-.802 1.219-.734 2.568-1.036 3.952-1.248.63-.097 1.245-.045 1.862.058.149.025.4.038.362.238-.034.182-.267.084-.403.061-.182-.03-.36-.026-.599-.033.358.2.684.342.973.557.847.629 1.5 1.41 1.956 2.36a.741.741 0 01-.017.74c-.414.774-1.081 1.272-1.785 1.74-.059.039-.178.044-.17.117.044.358-.172.171-.294.142-.86-.21-1.725-.37-2.612-.455-.874-.083-1.686.117-2.51.319-.088.021-.177.04-.266.051-.184.023-.315-.04-.287-.247.02-.153-.042-.24-.16-.312-.378-.232-.64-.587-.93-.908-.227-.25-.203-.574-.136-.88.086-.402.264-.77.462-1.128.09-.163.223-.312.217-.517l.028-.022c-.006 0-.014-.001-.017.002-.005.005-.008.013-.011.02zm3.636-1.298a1.105 1.105 0 00-.458.032c-.586.184-1.176.356-1.756.556-.192.066-.425.13-.53.312-.415.713-.795 1.445-1.017 2.246a.613.613 0 00.12.56c.26.343.579.625.89.916.108.1.205.12.34.09.466-.105.916-.245 1.406-.273a7.008 7.008 0 012.875.446c.338.125.624.064.917-.107.622-.361 1.115-.858 1.559-1.417.098-.125.113-.214.068-.358-.282-.904-.9-1.558-1.583-2.168-.053-.048-.11-.096-.193-.077-.775-.616-1.605-1.04-2.638-.758z"/>
	<path class="st15" d="M39.479 31.141c-.546-.367-.65-.947-.78-1.475-.28-1.13-.747-2.188-1.148-3.273-.248-.67-.43-1.357-.581-2.058-.155-.722-.29-1.456-.555-2.15-.095-.25-.123-.507-.174-.762-.019-.095-.062-.22.059-.263.117-.043.176.073.214.162.263.615.58 1.21.743 1.863a28.64 28.64 0 001.339 4.123c.218.525.352 1.082.473 1.64.098.45.225.894.347 1.338.076.273.086.547.063.855zM33.557 10.112c-.192-.387-.364-.736-.37-1.122-.015-1.25-.252-2.488-.172-3.74.029-.442.076-.883.086-1.325a6.442 6.442 0 00-.06-.918 2.934 2.934 0 01-.019-.432c.002-.09.007-.204.118-.216.115-.012.168.088.198.19l.113.398c.14-.165.254-.312.453-.372a.93.93 0 01-.037.612c-.2.493-.26.99-.232 1.533.028.545-.019 1.103-.024 1.655-.006.643.013 1.287.005 1.931-.005.434-.04.867-.058 1.301-.006.148-.001.297-.001.505zM34.302 28.211c.814.002 1.418.786 1.212 1.546a.872.872 0 01-.037.102c-.062.153-.177.287-.334.281-.169-.006-.242-.174-.276-.328a2.925 2.925 0 00-.168-.572c-.163-.368-.424-.465-.793-.317-.195.079-.38.17-.556.282-.127.08-.262.125-.411.052-.167-.082-.194-.211-.042-.308.335-.213.645-.466 1.005-.64.132-.062.27-.11.4-.098z"/>
	<path d="M34.522 16.82c-.38-1.096-.602-2.212-.896-3.31-.023-.086-.006-.17.082-.207.095-.039.13.045.15.113.324 1.034.668 2.063.732 3.157a1.32 1.32 0 01-.008.19c0 .011-.022.021-.06.057z" fill="#082691"/>
	<path class="st12" d="M27.077 22.773c.919.13 1.704.465 2.163 1.344.089.17.088.332.058.497-.061.342-.2.657-.378.954-.05.084-.118.119-.215.143-1.324.324-2.55.856-3.604 1.739-.063.052-.126.089-.193.039-.323-.238-.701-.15-1.05-.157-.578-.013-1.132-.119-1.688-.251-.24-.057-.343-.163-.335-.428.039-1.237.543-2.236 1.44-3.08.486-.458 1.05-.647 1.679-.73-.219.17-.419.356-.585.578-.204-.001-.417-.053-.593.107a.78.78 0 00-.255.776c.072.33.238.44.628.483.106.463.412.751.835.922.818.332 1.797.009 2.325-.736.425-.598.531-1.51-.232-2.2z"/>
	<path d="M27.077 22.773c.763.69.657 1.602.232 2.2-.528.745-1.507 1.068-2.325.737-.423-.172-.73-.46-.835-.923.355-.067.553-.307.599-.655.045-.34-.151-.528-.379-.711a3.04 3.04 0 01.584-.577c.502-.247 1.034-.214 1.565-.165.188.017.373.062.559.094zm-1.322 2.004c.37-.006.673-.33.666-.716-.005-.303-.371-.6-.73-.593a.638.638 0 00-.63.621.693.693 0 00.694.688z" fill="#1c8a50"/>
	<path class="st12" d="M14.94 24.4c.083-.019.14.03.193.077.682.61 1.3 1.264 1.583 2.168.045.144.03.234-.069.358-.443.559-.936 1.056-1.558 1.417-.294.17-.579.232-.917.107a7.01 7.01 0 00-2.876-.446c-.49.028-.94.168-1.405.272-.135.03-.232.011-.34-.09-.312-.29-.63-.572-.89-.915a.613.613 0 01-.12-.56c.222-.801.602-1.533 1.017-2.246.105-.181.338-.246.53-.312.58-.2 1.17-.372 1.756-.556.15-.047.304-.049.458-.032a2.146 2.146 0 00-.696.59c-.62-.179-1.045.068-1.088.632-.033.436.15.654.698.834.014.27.107.512.26.732.688.984 2.157 1.09 3.057.2.647-.639.796-1.39.407-2.23z"/>
	<path d="M11.606 24.232c.192-.244.42-.445.696-.59 1.033-.282 1.863.142 2.638.758.39.84.24 1.591-.407 2.23-.9.89-2.37.783-3.056-.2a1.375 1.375 0 01-.26-.732c.346-.026.54-.221.663-.539.151-.391.01-.675-.274-.927zm.707 1.076c-.002.415.3.705.747.72.414.012.708-.303.731-.74.028-.516-.344-.725-.757-.777-.351-.044-.718.39-.72.797z" fill="#1b8a4f"/>
	<path class="st14" d="M8.666 24.94c.003-.008.006-.016.011-.021.003-.003.011-.001.017-.001l-.028.022z"/>
	<path d="M24.37 23.42c.227.184.423.372.378.712-.046.347-.244.588-.599.655-.39-.043-.556-.153-.628-.483a.779.779 0 01.255-.776c.176-.16.389-.108.593-.107z" fill="#fcfdfd"/>
	<path class="st21" d="M25.755 24.777a.693.693 0 01-.694-.688.638.638 0 01.63-.62c.359-.008.725.29.73.592.007.385-.296.71-.666.716z"/>
	<path d="M11.606 24.232c.284.252.425.536.274.927-.122.318-.317.513-.664.539-.548-.18-.731-.398-.698-.834.043-.564.467-.81 1.088-.632z" fill="#fdfdfd"/>
	<path class="st21" d="M12.313 25.308c.003-.407.37-.841.721-.797.413.052.785.261.757.776-.023.438-.317.753-.73.74-.449-.014-.75-.304-.748-.72z"/>
</svg>
