<svg xmlns="http://www.w3.org/2000/svg" viewBox="0 0 36 37">
	<style>
		.st24{fill:#e0822f}
		.st32{fill:#fefefd}
	</style>
	<path d="M11.98 36.64c-.01-.04-.04-.05-.08-.05a4.33 4.33 0 01-2.42-1.14c-.32-.27-.61-.39-1.05-.36-.52.03-1.06-.06-1.59-.14-1.08-.17-2.15-.4-3.22-.66-.88-.21-1.7-.6-2.44-1.14-.5-.36-.72-1.11-.56-1.81A2.6 2.6 0 012 29.5c.55-.29 1.03-.7 1.53-1.07.07-.04.08-.09.06-.15l-.04-.19c-.2-.6-.05-1.1.4-1.53.13-.12.13-.2.01-.32-.52-.57-1-1.19-1.33-1.88-.86-1.78-1.68-3.57-1.93-5.57-.07-.6-.18-1.22-.25-1.83-.07-.56.02-1.12.1-1.68.18-1.48.32-2.98.78-4.4a15.66 15.66 0 013.07-5.56c.44-.51.86-1.04 1.3-1.57.17-.2.36-.38.59-.52C7.79 2.27 9.32 1.4 11.06.96c.84-.22 1.71-.27 2.57-.4 1-.15 2-.27 3-.23 1.78.06 3.5.27 5.13 1.06.9.45 1.88.74 2.77 1.23 2.04 1.14 3.8 2.6 5.01 4.61 1 1.66 1.9 3.4 2.22 5.34.3 1.9.46 3.82.09 5.74a40.1 40.1 0 01-1.3 4.98c-.2.55-.53 1.02-.81 1.52-.1.17-.07.23.11.3.68.25 1.32.58 2.04.73.63.13 1.06.57 1.48 1 .13.14.26.22.43.27.5.15.96.36 1.3.78.18.22.26.5.36.76.02.07 0 .17.1.2v.5c-.17.13-.13.34-.2.51-.27.55-.5 1.13-1.1 1.43-1.24.62-2.5.62-3.77.17-.52-.19-1.01-.5-1.58-.2a.15.15 0 01-.06.02c-.1.01-.17.06-.23.16-.35.58-.8 1.07-1.38 1.43-.76.48-1.56.67-2.43.35-.63-.23-1.1-.58-1.13-1.3 0-.22-.11-.23-.3-.23-.56.02-1.12.05-1.68-.02-.32-.04-.34-.05-.28.27a4.3 4.3 0 01-.57 2.64c-.17.34-.44.58-.8.69a4.45 4.45 0 01-3.59-.48c-.09-.05-.14-.1-.2.04-.33.73-.95 1.14-1.66 1.43-.4.16-.8.26-1.2.38h-1.42zM3 30.06v.05H2.7c-1.02.09-1.4.32-1.57 1.15l-.02.05c-.18.5-.04 1.08.38 1.4.3.21.6.43.95.56 1 .38 2.03.73 3.1.9.5.08 1.02.2 1.54.25.5.04 1.01.01 1.51.1.08 0 .2.01.24-.03.18-.26.32-.07.42.06.27.35.64.6.98.88.77.64 1.7.82 2.66.82.87 0 1.66-.3 2.34-.82.44-.34.73-.8.77-1.36.08-1.08-.3-2-1.1-2.75a3.71 3.71 0 00-3.04-.98c-.6.06-1.15-.07-1.68-.29-.08-.03-.2-.05-.19-.17.02-.13.15-.1.25-.1h.1c.8.27 1.62.14 2.43.16.4.01.79.1 1.15.27.6.3 1.19.63 1.63 1.16.16.2.22.14.3-.08.35-.94.96-1.62 1.98-1.87.45-.1.9-.14 1.37-.12.98.04 1.72.7 2.06 1.5.08.16.12.18.28.13.8-.25 1.53-.65 2.29-1a.34.34 0 00.17-.2c.21-.49.45-.96.77-1.4.57-.75 1.28-1.16 2.25-.95.13.03.27.04.38-.09.17-.23.35-.46.54-.68.52-.62.85-1.36 1.24-2.06.34-.61.7-1.2.93-1.87.44-1.25.73-2.54.98-3.83.1-.54.24-1.06.26-1.6.05-1.3.02-2.61-.11-3.91-.03-.28-.03-.58-.14-.85-.13-.31-.25-.63-.34-.95-.4-1.34-1.17-2.52-1.8-3.77-.08-.18-.2-.33-.32-.5-.67-.99-1.48-1.87-2.38-2.66-1.14-1-2.39-1.81-3.84-2.28-.55-.18-1.09-.36-1.62-.57a5.63 5.63 0 00-1.69-.47c-.54-.03-1.08-.1-1.61-.15-.91-.11-1.81-.2-2.73-.11-1.15.12-2.3.2-3.42.48-.83.2-1.62.5-2.37.9-.6.32-1.18.68-1.76 1.03-.33.2-.7.35-.95.67-.48.6-.95 1.2-1.45 1.79a14.02 14.02 0 00-2.25 3.73c-.2.47-.43.93-.56 1.44-.24.91-.4 1.85-.53 2.78-.11.83-.2 1.65-.27 2.48-.07.78.03 1.57.16 2.34.14.83.3 1.66.6 2.45.24.62.5 1.23.76 1.85a9.1 9.1 0 001.84 2.99c.41.42.84.82 1.28 1.2.6.54 1.18 1.1 1.85 1.55.3.2.55.43.87.67l-.16.02-.14-.01a5.98 5.98 0 01-2.05-1.03c-.56-.45-1.11-.92-1.6-1.45-.1-.1-.19-.14-.3-.01-.23.27-.4.54-.32.94.07.4.17.82.14 1.24 0 .13.05.3-.16.31-.17.01-.22-.12-.22-.27 0-.14-.07-.17-.17-.1-.35.27-.73.49-1.07.8l.5.24zm29.56-3.27c0-.12-.08-.16-.14-.2a3.93 3.93 0 00-1-.4 9.64 9.64 0 01-1.73-.63c-.32-.13-.31-.17-.46.14a6.61 6.61 0 01-1.1 1.67c-.33.36-.33.37.05.67.67.52.83 1.26.87 2.04.01.1-.1.21.02.3.14.1.27.04.39-.03.15-.1.28-.08.42.03.29.23.62.4.96.54.47.19.95.36 1.45.31a4.66 4.66 0 001.51-.38c.25-.11.52-.2.72-.45.4-.54.4-1.13.36-1.74-.03-.47-.23-.83-.72-1-.57-.2-1.12-.41-1.69-.6a7.4 7.4 0 01-.58-.22c-.07-.04-.17-.09-.13-.18.03-.11.13-.06.2-.04l.6.17zm-13.6 8h.39c.67-.06.92-.08 1.19-.87.26-.77.36-1.56.25-2.37a2.05 2.05 0 00-.82-1.36c-.43-.34-1-.44-1.54-.39a2.4 2.4 0 00-1.69.84c-.45.57-.71 1.18-.46 1.93.12.37.18.76.15 1.14-.03.36.13.55.43.67.67.28 1.38.41 2.1.41zm5.26-3.44c0 .1-.02.2 0 .3.07.24.05.53.27.71.6.48 1.5.54 2.17.15a3.24 3.24 0 001.68-2.26c.14-.7-.24-1.6-.87-1.84-.15-.06-.28-.13-.42-.2-.65-.34-1.23-.26-1.67.22a5.01 5.01 0 00-1.16 2.92zm-1.15-.36l.01.04.48-.05c.12-.01.12-.1.1-.18-.02-.13-.1-.06-.15-.03l-.44.22z" fill="#b14f18"/>
	<path class="st24" d="M3.01 30.06l-.5-.24c.35-.31.73-.53 1.08-.8.1-.07.17-.04.17.1 0 .15.05.28.22.27.2 0 .15-.18.16-.31.03-.42-.07-.83-.14-1.24-.09-.4.09-.67.33-.94.1-.13.18-.1.28 0 .5.54 1.05 1 1.61 1.46.61.49 1.3.8 2.05 1.03l.14.01.16-.02c-.32-.24-.58-.48-.87-.67-.67-.44-1.25-1-1.85-1.54-.44-.4-.87-.8-1.28-1.21a9.1 9.1 0 01-1.84-2.99c-.25-.62-.52-1.23-.76-1.85-.3-.8-.46-1.62-.6-2.45a9.38 9.38 0 01-.17-2.34c.07-.83.17-1.65.28-2.48.13-.93.29-1.87.53-2.78.13-.5.36-.97.56-1.44.56-1.36 1.3-2.61 2.25-3.73.5-.59.97-1.2 1.45-1.8.25-.31.62-.45.95-.66.58-.35 1.16-.71 1.76-1.03.75-.4 1.54-.7 2.37-.9 1.13-.28 2.27-.36 3.42-.48.92-.1 1.82 0 2.73.1.53.07 1.07.13 1.61.16.6.04 1.15.26 1.7.47.52.2 1.06.4 1.6.57 1.46.47 2.71 1.28 3.85 2.28.9.8 1.7 1.67 2.38 2.66.12.17.24.32.33.5.62 1.25 1.38 2.42 1.79 3.77.1.32.21.64.34.95.11.27.11.57.14.85.13 1.3.16 2.6.11 3.9-.02.55-.16 1.07-.26 1.6-.25 1.3-.54 2.59-.98 3.84-.23.66-.59 1.26-.93 1.87-.39.7-.72 1.44-1.24 2.06-.19.22-.37.45-.54.68-.1.13-.25.11-.38.09-.97-.2-1.68.2-2.25.95-.32.44-.56.91-.77 1.4a.34.34 0 01-.17.2c-.76.35-1.49.75-2.29 1-.16.05-.2.03-.28-.14a2.39 2.39 0 00-2.06-1.5c-.46-.01-.92.03-1.37.13-1.02.25-1.63.93-1.98 1.87-.08.22-.14.27-.3.08a4.72 4.72 0 00-1.63-1.16 2.73 2.73 0 00-1.15-.27c-.8-.02-1.63.1-2.43-.15-.03-.02-.07-.01-.1 0-.1 0-.23-.04-.25.1-.02.1.1.13.19.16.53.22 1.08.35 1.68.3a3.71 3.71 0 013.05.97c.8.75 1.17 1.67 1.09 2.75a1.87 1.87 0 01-.77 1.36c-.68.52-1.47.82-2.34.82-.96 0-1.9-.18-2.66-.82-.34-.28-.7-.53-.98-.88-.1-.13-.24-.32-.42-.06-.03.04-.16.03-.24.02-.5-.08-1-.05-1.5-.1-.53-.04-1.04-.16-1.56-.24a15.78 15.78 0 01-3.09-.9 4.06 4.06 0 01-.95-.57c-.42-.31-.56-.9-.38-1.4l.02-.04c.17-.83.55-1.06 1.57-1.15H3l.01-.05zM15.4 28.7c.18-.03.35 0 .52-.05a5.14 5.14 0 003.36-2.65 9.5 9.5 0 001.05-4.64c-.01-.95-.14-1.88-.4-2.78-.59-2-1.62-3.66-3.64-4.52a3.9 3.9 0 00-1.68-.38c-.72.03-1.36.34-1.89.85a8.38 8.38 0 00-2.35 5.4c-.03.69-.06 1.39.02 2.08.07.58.25 1.13.4 1.69a9.8 9.8 0 001.54 3.32 4.04 4.04 0 003.07 1.68zm13.64-9.1c.02-.76-.07-1.5-.18-2.25a7.45 7.45 0 00-.87-2.72c-.2-.35-.44-.7-.85-.83-.84-.26-1.97.16-2.49.87-.68.92-1 2.01-1.26 3.09a11.4 11.4 0 00-.36 3.64c.06.66 0 1.33.11 2 .18.98.38 1.97.87 2.86.21.37.44.77.9.9.66.18 1.26-.02 1.83-.36a3.27 3.27 0 001.35-1.84c.62-1.73.9-3.53.95-5.37zm-8.89 8.32c.26.02.5 0 .75-.1.07-.02.17-.03.17-.14 0-.12-.12-.09-.2-.08-.44.01-.87-.05-1.3-.2-.1-.04-.26-.1-.33.06-.06.15.06.25.18.33.22.15.48.15.73.13zM32.57 26.79l-.6-.17c-.07-.02-.17-.07-.2.04-.04.1.06.15.13.18l.58.22c.57.19 1.12.4 1.69.6.5.17.7.53.72 1 .04.6.04 1.2-.36 1.74-.2.26-.47.34-.72.45-.47.22-1 .34-1.51.38-.5.05-.98-.12-1.45-.31a3.97 3.97 0 01-.96-.54c-.14-.11-.27-.12-.42-.03-.12.07-.25.13-.39.03-.12-.09-.01-.2-.02-.3-.04-.78-.2-1.52-.87-2.04-.38-.3-.38-.3-.05-.67.45-.5.81-1.06 1.1-1.67.15-.3.14-.27.46-.14.56.25 1.13.5 1.73.62.36.08.68.24 1 .41.06.04.14.08.14.2z"/>
	<path class="st24" d="M18.98 34.8c-.73 0-1.44-.14-2.11-.42-.3-.12-.46-.31-.43-.67.03-.38-.03-.77-.15-1.14-.25-.75 0-1.36.46-1.93a2.4 2.4 0 011.69-.84c.54-.05 1.11.05 1.54.39.43.33.74.77.82 1.36.11.81 0 1.6-.25 2.37-.27.8-.52.8-1.2.87h-.37zM24.23 31.35a5 5 0 011.16-2.92c.44-.48 1.02-.56 1.67-.22.14.07.27.14.42.2.63.24 1 1.13.87 1.84a3.24 3.24 0 01-1.68 2.26c-.66.39-1.57.33-2.17-.15-.22-.18-.2-.47-.27-.72-.02-.1 0-.2 0-.3zM23.08 30.99l.44-.22c.05-.03.13-.1.16.03.01.08 0 .17-.11.18l-.48.05V31z"/>
	<path d="M15.4 28.7a4.04 4.04 0 01-3.08-1.67 9.8 9.8 0 01-1.54-3.32c-.15-.56-.33-1.11-.4-1.69-.08-.7-.05-1.4-.02-2.09a8.38 8.38 0 012.35-5.4 2.86 2.86 0 011.89-.84 3.9 3.9 0 011.68.38c2.02.86 3.05 2.51 3.64 4.52.26.9.39 1.83.4 2.78A9.5 9.5 0 0119.27 26a5.14 5.14 0 01-3.36 2.65c-.17.05-.34.02-.52.05zm4.2-7.16a7.54 7.54 0 00-.17-1.87 6.6 6.6 0 00-2.26-3.88c-.85-.68-2.5-.96-3.5-.19a4.86 4.86 0 00-1.58 2.06 8.5 8.5 0 00-.3 5.44 6.7 6.7 0 002 3.47c.5.43 1.06.76 1.72.8 1.35.1 2.37-.47 3.02-1.63a7.93 7.93 0 001.07-4.2z" fill="#f0a952"/>
	<path d="M29.03 19.6a17.16 17.16 0 01-.95 5.37 3.27 3.27 0 01-1.35 1.84c-.57.34-1.17.54-1.83.35-.46-.12-.69-.52-.9-.9-.49-.88-.69-1.87-.87-2.86-.12-.66-.05-1.33-.11-1.99-.11-1.24.08-2.46.36-3.64a8.28 8.28 0 011.26-3.1c.52-.7 1.65-1.12 2.49-.86.41.14.65.48.85.83.5.85.73 1.77.87 2.72.1.75.2 1.49.18 2.24zm-.66.1c.01-.4-.02-.78-.06-1.17a6.16 6.16 0 00-.9-2.98c-.25-.37-.73-.61-1.17-.52-.58.13-.98.51-1.29 1a11.35 11.35 0 00-1.26 7c.11.82.3 1.61.75 2.32.5.8 1.35 1 2.02.42.33-.28.6-.6.79-1a12.3 12.3 0 001.12-5.07z" fill="#efa852"/>
	<path d="M20.14 27.93c-.25.02-.51.02-.73-.13-.12-.08-.24-.18-.18-.33.07-.16.23-.1.33-.06.43.15.86.21 1.3.2.08 0 .2-.04.2.08 0 .11-.1.12-.17.14-.24.1-.5.12-.75.1z" fill="#b04e16"/>
	<path d="M19.6 21.54a7.93 7.93 0 01-1.07 4.2 3.02 3.02 0 01-3.02 1.64 2.9 2.9 0 01-1.71-.81 6.7 6.7 0 01-2.01-3.47 8.5 8.5 0 01.3-5.44c.34-.83.87-1.5 1.59-2.06 1-.77 2.64-.5 3.5.2a6.6 6.6 0 012.25 3.87c.14.62.19 1.25.17 1.87zm-.41-.3c.03-.35 0-.79-.05-1.23-.08-.68-.42-1.29-.65-1.92a4.02 4.02 0 00-1.09-1.6c-1.04-.95-2.4-1.13-3.39-.44-.55.39-1.01.9-1.32 1.5a7.51 7.51 0 00-.66 4.62c.11.78.4 1.55.73 2.27.59 1.25 1.34 2.33 2.92 2.43.57.03 1.1-.02 1.57-.38.8-.6 1.3-1.44 1.57-2.38.26-.9.36-1.83.37-2.87z" fill="#b2511a"/>
	<path d="M28.37 19.7a12.3 12.3 0 01-1.12 5.07c-.2.4-.46.72-.79 1-.67.57-1.52.39-2.02-.42-.44-.71-.64-1.5-.75-2.3a11.36 11.36 0 011.26-7.01c.3-.5.7-.88 1.3-1 .43-.1.9.14 1.16.51.62.9.8 1.93.9 2.98.04.39.07.78.06 1.17zm-.37.22c-.01-.8.03-1.4-.06-1.98a4.11 4.11 0 00-.96-2.26c-.34-.36-.68-.4-1.07-.1-.3.23-.56.49-.75.82-.47.82-.7 1.72-.86 2.65-.27 1.6-.36 3.22.03 4.83.12.47.29.91.57 1.31.33.46 1 .48 1.37.14.3-.27.57-.57.75-.95a9.48 9.48 0 00.98-4.46z" fill="#b2521b"/>
	<path d="M19.19 21.24c-.01 1.04-.11 1.97-.37 2.87a4.47 4.47 0 01-1.57 2.38c-.47.36-1 .41-1.57.38-1.58-.1-2.33-1.18-2.92-2.43a8.27 8.27 0 01-.74-2.27 7.51 7.51 0 01.67-4.63c.3-.6.77-1.1 1.32-1.5.98-.68 2.35-.5 3.4.44.49.45.86 1 1.08 1.6.23.64.57 1.25.65 1.93.05.44.08.88.05 1.23zm-5.03-.88v-.4a.6.6 0 00-.68-.58c-.18.02-.33.1-.4.25-.17.5-.29 1.01-.03 1.52.12.22.29.38.56.35.25-.02.36-.2.45-.42.09-.24.11-.49.1-.72zm2.41 3.92c.01.12 0 .25.03.38.05.3.28.55.53.57.26.03.5-.16.61-.48.13-.36.04-.71-.1-1.05-.18-.4-.64-.45-.91-.1-.16.2-.16.44-.16.68z" fill="#fee6c5"/>
	<path d="M28 19.92a9.48 9.48 0 01-.98 4.46c-.18.38-.44.68-.75.95a.94.94 0 01-1.37-.14c-.28-.4-.45-.84-.57-1.31-.39-1.61-.3-3.22-.03-4.83.16-.93.4-1.83.86-2.65.19-.33.46-.59.75-.82.39-.3.73-.26 1.07.1.6.63.82 1.43.96 2.26.1.58.05 1.17.06 1.98zm-2.14-.2c.01-.24 0-.46-.13-.68-.13-.19-.28-.33-.5-.3-.24.04-.37.22-.44.44-.1.3-.09.6-.07.91.03.3.27.52.55.55.25.02.44-.14.55-.44.06-.16.04-.32.04-.48zm-1.07 3.93c.01.26.04.5.27.68.21.15.5.1.59-.13a1.4 1.4 0 00-.06-1.16c-.15-.28-.48-.28-.65-.02-.13.2-.14.41-.15.63z" fill="#fde6c4"/>
	<path class="st32" d="M14.16 20.36c.01.23-.01.48-.1.72-.09.22-.2.4-.45.42-.27.03-.44-.13-.56-.35-.26-.5-.14-1.02.04-1.52.06-.15.21-.23.4-.25a.6.6 0 01.66.58c.02.12 0 .25 0 .4z"/>
	<path d="M16.57 24.28c0-.24 0-.47.16-.68.27-.35.73-.3.9.1.15.34.24.69.11 1.05-.1.32-.35.51-.61.48-.25-.02-.48-.27-.53-.57l-.03-.38z" fill="#295346"/>
	<path class="st32" d="M25.86 19.72c0 .16.02.32-.04.48-.1.3-.3.46-.55.44a.6.6 0 01-.55-.55c-.02-.3-.02-.61.07-.91.07-.22.2-.4.44-.44.22-.03.37.11.5.3.14.22.14.44.13.68z"/>
	<path d="M24.8 23.65c0-.22.01-.44.14-.63.17-.26.5-.26.65.02.2.38.19.77.06 1.16-.08.23-.38.28-.59.13-.23-.17-.26-.42-.27-.68z" fill="#2c5547"/>
</svg>
