<svg id="Layer_1" data-name="Layer 1" xmlns="http://www.w3.org/2000/svg" viewBox="0 0 841.89 1894.18"><defs><style>.cls-1{fill:#243a4f}</style></defs><title>mountain_path</title><path class="cls-1" d="M229.32 455.67l66.41-9.86s38.1 1.2 48.33-7.53 19.54-17.35 27.87-20.79c9.21-3.8 39.86-7.83 39.86-7.83s3.56-17.73 8.11-22c4-3.74 21.87-7.83 21.87-7.83h24l21.52-12.35 13.4-17.48s17.29-10.24 28.93-12 38.37-.81 38.37-.81 13.84-4.76 36.67-18.86c24-14.83-2.26-19.16 41.73-15.57 6.62.54 17.29-13 17.29-13s14.46-16.27 27.52-20.48c36.14-21 57.5-42.17 57.5-42.17l14.11-22 16.58-19 26.81-14.76 26.8-35.52 8.89-11.51V2018.5H0V469.28l68.64-11.86s47.36 1.77 62.67-1.16c10.81-2.07 31-11.78 42-12.2 14.39-.56 56.01 11.61 56.01 11.61z" transform="translate(0 -124.33)"/></svg>