<svg id="Layer_1" data-name="Layer 1" xmlns="http://www.w3.org/2000/svg" viewBox="0 0 29 26.25"><defs><style>.cls-1{fill:none;stroke:#fff;stroke-miterlimit:10}</style></defs><title>icon_abhi</title><path class="cls-1" d="M.5 12.5h4l5-6 5 13 1-6h1l3-7 5 13 2-7h2"/><path class="cls-1" d="M62.41 296.4a8.7 8.7 0 0 0 1-3.5c0-3.8-3.2-6.5-7-6.5a7.09 7.09 0 0 0-7 7 7.09 7.09 0 0 0-7-7c-3.8 0-7 2.7-7 6.5a6.2 6.2 0 0 0 .5 3" transform="translate(-34.91 -285.9)"/><path class="cls-1" d="M5.5 15.5l9 10 7-8"/></svg>