<svg xmlns="http://www.w3.org/2000/svg" xmlns:xlink="http://www.w3.org/1999/xlink" viewBox="0 0 2084 273"><style>.s0{stroke-linecap:round}.s0,.s5{stroke-width:3;fill:#d5aa80;stroke:#45280c}.s7{fill:#2c6842}.s8{fill:#fff}.s12{stroke-width:3;fill:#436f83;stroke:#001d42}</style><symbol id="body" viewBox="-48.2 -44.3 96 89"><use width="27" height="63.2" x="-12.8" y="-31.6" transform="matrix(1.0011 0 0 .9973 -35.37 -12.85)" xlink:href="#arm"/><use width="27" height="63.2" x="-12.8" y="-31.6" transform="matrix(-.9389 -.1512 -.1533 .9565 36.17 -13.08)" xlink:href="#arm"/><path d="M-17.7 22.2h30v21h-30z" class="s0"/><path fill="#334440" stroke="#2c2f2e" stroke-linecap="round" stroke-width="3" d="M-2.7 27.2c-10 0-13.4 8.7-13 15-5.9-1.3-17.1-4.1-20-7-5-5-10-17-10-17s8-10 18-10c0-10 2-14 8-21-2-12-2-15-2-15s28 0 43-1c-2 6-4 14-4 19 5 5 6 9 7 19 7 3 13 8 16 11 0 0-6.6 14.8-13 18-3.7 1.8-11.8 3.3-17 4-1-7-5-15-13-15z"/><path fill="none" stroke="#2c2f2e" stroke-linecap="round" stroke-width="3" d="M26.3 18.2c-1-6 0-10-20-13m-40 12c4-7 8-11 23-12m-6-21l-3 3m33-2l4 5"/></symbol><symbol id="Ear" viewBox="-12.2 -13.9 25 27"><ellipse cx=".3" cy="-.4" fill="#d5aa80" stroke="#45280c" stroke-width="3.04" rx="11" ry="12"/><path fill="none" stroke="#45280c" stroke-width="2" d="M-5.3 1.5c0 3.4 2.8 6.8 6 5.1S-3.9.4 0-4.1s7.7 5.4 7.7 5.4"/></symbol><symbol id="head" viewBox="-59 -51.3 118.1 102.5"><use width="25" height="27" x="-12.2" y="-13.9" transform="matrix(.9985 0 0 .9616 -46.8 -25.25)" xlink:href="#Ear"/><use width="25" height="27" x="-12.2" y="-13.9" transform="matrix(-.9587 0 0 .9224 47.3 -22.75)" xlink:href="#Ear"/><path d="M-2.3 49.7c18.4.7 44.1-6 49.2-32.3 3.8-19.5-.8-37.2-6-44.7-5-7.2-28.9-20.3-31.2-21.4-2.2-1.1-19.9-1.5-21.4-.8-1.5.8-31.5 19.9-33.4 22.9-1.9 3-7.1 30.1-1.1 45C-39.5 35.5-22.6 49-2.3 49.7z" class="s5"/><path fill="#2c2f2e" d="M-48.1-19.5c6.4 6.9 14.8 15.4 19.7 19-10.3 14.1-6.1 33.6 6 46.4-13.9-9.7-34.4-20.6-25.7-65.4zM23 46.9c9.4-16 6.6-35.7 5-45.1C36.5-3.3 43.4-10 47.2-14.1c5.7 28.3.2 51.8-24.2 61z"/><circle cx="21.5" cy="-16.2" r="3.5" class="s7"/><circle cx="-23.5" cy="-17.2" r="3.5" class="s7"/><circle cx="-24.5" cy="-16.2" r="1.5" class="s8"/><circle cx="20.5" cy="-15.2" r="1.5" class="s8"/><path fill="#45280c" d="M3.1-15c2.2-.6 2.9-5.3.9-5.8.2 2.3 0 3.7-.9 5.8zm-7.2-.3c-2.2-.6-2.9-5.3-.9-5.8-.2 2.3 0 3.7.9 5.8zM7.3-25.9c2.9-.7 2.8-4.2-.1-5.1-2.1-.7-4-3-7.7-3s-5.7 1.8-7.5 2.3c-1.9.5-2.6 4.2 0 4.8-.4-.8-1.3-3.6 1.5-3.8 1.7-.1 3.5-1.5 6.1-1.4 3.4.1 5 1.6 7.1 2.3 1.7.5 1.6 3 .6 3.9zM-5.3-39.4c7.4.8 11.8 1.5 17.3 4.4-1.4-3.1-13.4-7.3-17.3-4.4z"/></symbol><symbol id="arm" viewBox="-12.8 -31.6 27 63.2"><path d="M-8.5 31.2c-6-24-2-47 9-61 5 2 8 5 8 5l-2 3 4 4c-3 5-8 6-8 6l-2 4s4.2 5.1 4.2 9.1-1.2 5.9-1.2 5.9l9.3 19.1" class="s5"/><path d="M1.7 8.3l1.8-1.1m-1-27l4-2" class="s0"/></symbol><symbol id="calf" viewBox="-13.5 -21.4 27 42.9"><path fill="#436f83" stroke="#001d42" stroke-linecap="round" stroke-width="3" d="M8 14.9s4-5 4-8-1-10-2-12-4-5-4-5 1-4 1-7-19-5-19 1 3 36 3 36"/></symbol><symbol id="shoe" viewBox="-16 -13.5 30.6 25.8"><path fill="#855725" stroke="#421601" stroke-width="3" d="M-2.9 11c-3.4-2.5-7-9.6-7-9.6s-9.8-11.7-.9-13S.4-11.2 13-1c-.1 6.1-1.9 13-1.9 13M9.2.6l-.8-5"/></symbol><symbol id="thigh" viewBox="-14.5 -30.8 30.9 61.5"><path d="M-3.9 30.3c-4.4-15.5-8.4-35.5-9-47-.8-17.1 15-14 20-7s6 12 6 12 3.2 16.3 1.2 26.3" class="s12"/></symbol><symbol id="crotch" viewBox="-18.1 -22.8 33.4 45.8"><path fill="#436f83" d="M-17.9 3.8c-1.4-7.1 6.5-22.5 13-24l9-1s9.5 10.5 11 24c2.9 26.5-28 27-33 1z"/><path d="M-13.9-11.2l9-9 9-1 8 12" class="s12"/></symbol><use width="30.9" height="61.5" x="-14.5" y="-30.8" transform="matrix(1 0 0 -1 45.92 191.31)" xlink:href="#thigh"/><use width="30.9" height="61.5" x="-14.5" y="-30.8" transform="rotate(180 38.96 95.66)" xlink:href="#thigh"/><use width="30.6" height="25.8" x="-16" y="-13.5" transform="matrix(1 0 0 -1 37.41 252.45)" xlink:href="#shoe"/><use width="30.6" height="25.8" x="-16" y="-13.5" transform="rotate(180 42.2 126.73)" xlink:href="#shoe"/><use width="33.4" height="45.8" x="-18.1" y="-22.8" transform="matrix(1 0 0 -1 62.44 168.3)" xlink:href="#crotch"/><use width="27" height="42.9" x="-13.5" y="-21.4" transform="matrix(1 0 0 -1 42.5 227.44)" xlink:href="#calf"/><use width="27" height="42.9" x="-13.5" y="-21.4" transform="rotate(-176.22 44 112.4) scale(.99998)" xlink:href="#calf"/><use width="30.9" height="61.5" x="-14.5" y="-30.8" transform="matrix(1 0 0 -1 176.92 191.31)" xlink:href="#thigh"/><use width="30.9" height="61.5" x="-14.5" y="-30.8" transform="rotate(178.37 102.94 96.5)" xlink:href="#thigh"/><use width="30.6" height="25.8" x="-16" y="-13.5" transform="matrix(1 0 0 -1 168.41 252.45)" xlink:href="#shoe"/><use width="30.6" height="25.8" x="-16" y="-13.5" transform="rotate(-164.41 119.35 112.63)" xlink:href="#shoe"/><use width="33.4" height="45.8" x="-18.1" y="-22.8" transform="matrix(1 0 0 -1 193.44 168.3)" xlink:href="#crotch"/><use width="27" height="42.9" x="-13.5" y="-21.4" transform="matrix(1 0 0 -1 173.5 227.44)" xlink:href="#calf"/><use width="27" height="42.9" x="-13.5" y="-21.4" transform="rotate(-160.63 123 95.86)" xlink:href="#calf"/><use width="30.9" height="61.5" x="-14.5" y="-30.8" transform="matrix(1 0 0 -1 307.92 191.31)" xlink:href="#thigh"/><use width="30.9" height="61.5" x="-14.5" y="-30.8" transform="rotate(-180 169.98 95.62)" xlink:href="#thigh"/><use width="30.6" height="25.8" x="-16" y="-13.5" transform="matrix(1 0 0 -1 299.41 252.45)" xlink:href="#shoe"/><use width="30.6" height="25.8" x="-16" y="-13.5" transform="rotate(-163.58 185.13 102.4)" xlink:href="#shoe"/><use width="33.4" height="45.8" x="-18.1" y="-22.8" transform="matrix(1 0 0 -1 324.44 168.3)" xlink:href="#crotch"/><use width="27" height="42.9" x="-13.5" y="-21.4" transform="matrix(1 0 0 -1 304.5 227.44)" xlink:href="#calf"/><use width="27" height="42.9" x="-13.5" y="-21.4" transform="rotate(-159.79 188.93 83.42)" xlink:href="#calf"/><use width="30.9" height="61.5" x="-14.5" y="-30.8" transform="matrix(1 0 0 -1 438.92 192.31)" xlink:href="#thigh"/><use width="30.9" height="61.5" x="-14.5" y="-30.8" transform="matrix(-.9983 -.05917 .05917 -.9982 468.92 191.37)" xlink:href="#thigh"/><use width="30.6" height="25.8" x="-16" y="-13.5" transform="scale(1 -1) rotate(8.26 1977.26 2859.36)" xlink:href="#shoe"/><use width="30.6" height="25.8" x="-16" y="-13.5" transform="rotate(-142.13 271.05 46.82) skewX(-.01)" xlink:href="#shoe"/><use width="33.4" height="45.8" x="-18.1" y="-22.8" transform="matrix(1 0 0 -1 455.44 168.3)" xlink:href="#crotch"/><use width="27" height="42.9" x="-13.5" y="-21.4" transform="matrix(1 0 0 -1 435.5 228.44)" xlink:href="#calf"/><use width="27" height="42.9" x="-13.5" y="-21.4" transform="rotate(-154.13 257.75 60)" xlink:href="#calf"/><use width="30.9" height="61.5" x="-14.5" y="-30.8" transform="scale(1 -1) rotate(-13.09 -548.7 -2570.47)" xlink:href="#thigh"/><use width="30.9" height="61.5" x="-14.5" y="-30.8" transform="rotate(167.85 290.38 126.53)" xlink:href="#thigh"/><use width="30.6" height="25.8" x="-16" y="-13.5" transform="scale(1 -1) rotate(5.88 2755.44 5303.35)" xlink:href="#shoe"/><use width="30.6" height="25.8" x="-16" y="-13.5" transform="matrix(-.9977 -.06759 .06759 -.9977 599.8 253.28)" xlink:href="#shoe"/><use width="33.4" height="45.8" x="-18.1" y="-22.8" transform="matrix(1 0 0 -1 586.44 168.3)" xlink:href="#crotch"/><use width="27" height="42.9" x="-13.5" y="-21.4" transform="scale(1 -1) rotate(5.88 2510.02 5350.1)" xlink:href="#calf"/><use width="27" height="42.9" x="-13.5" y="-21.4" transform="rotate(-158.88 322.04 57.9)" xlink:href="#calf"/><use width="30.9" height="61.5" x="-14.5" y="-30.8" transform="scale(1 -1) rotate(-20.18 -174.13 -2051.83)" xlink:href="#thigh"/><use width="30.9" height="61.5" x="-14.5" y="-30.8" transform="rotate(162.63 353.16 150.51)" xlink:href="#thigh"/><use width="30.6" height="25.8" x="-16" y="-13.5" transform="scale(1 -1) rotate(-13.29 -691.23 -3009.87)" xlink:href="#shoe"/><use width="30.6" height="25.8" x="-16" y="-13.5" transform="rotate(-170.75 377.2 95.67)" xlink:href="#shoe"/><use width="33.4" height="45.8" x="-18.1" y="-22.8" transform="matrix(1 0 0 -1 717.44 168.3)" xlink:href="#crotch"/><use width="27" height="42.9" x="-13.5" y="-21.4" transform="scale(1 -1) rotate(-13.29 -586.44 -3044.21)" xlink:href="#calf"/><use width="27" height="42.9" x="-13.5" y="-21.4" transform="rotate(-156.25 392.4 34.82)" xlink:href="#calf"/><use width="30.9" height="61.5" x="-14.5" y="-30.8" transform="scale(1 -1) rotate(-8.81 -801.32 -5471.45)" xlink:href="#thigh"/><use width="30.9" height="61.5" x="-14.5" y="-30.8" transform="rotate(163.44 420.08 157.47)" xlink:href="#thigh"/><use width="30.6" height="25.8" x="-16" y="-13.5" transform="scale(1 -1) rotate(-12.36 -732.9 -3877.45)" xlink:href="#shoe"/><use width="30.6" height="25.8" x="-16" y="-13.5" transform="rotate(-173.12 442.03 99)" xlink:href="#shoe"/><use width="33.4" height="45.8" x="-18.1" y="-22.8" transform="matrix(1 0 0 -1 848.44 168.3)" xlink:href="#crotch"/><use width="27" height="42.9" x="-13.5" y="-21.4" transform="matrix(.9971 .07564 .07564 -.9971 820.7 222)" xlink:href="#calf"/><use width="27" height="42.9" x="-13.5" y="-21.4" transform="rotate(-161.81 453.33 42.24)" xlink:href="#calf"/><use width="30.9" height="61.5" x="-14.5" y="-30.8" transform="matrix(.9997 .02544 .02544 -.9997 961.08 190.58)" xlink:href="#thigh"/><use width="30.9" height="61.5" x="-14.5" y="-30.8" transform="rotate(158.17 480.78 188.27)" xlink:href="#thigh"/><use width="30.6" height="25.8" x="-16" y="-13.5" transform="matrix(.9986 .05309 .05309 -.9986 949.34 251.16)" xlink:href="#shoe"/><use width="30.6" height="25.8" x="-16" y="-13.5" transform="rotate(-158.77 524.56 29.74)" xlink:href="#shoe"/><use width="33.4" height="45.8" x="-18.1" y="-22.8" transform="matrix(1 0 0 -1 979.44 168.3)" xlink:href="#crotch"/><use width="27" height="42.9" x="-13.5" y="-21.4" transform="matrix(.9986 .05309 .05309 -.9986 955.75 226.46)" xlink:href="#calf"/><use width="27" height="42.9" x="-13.5" y="-21.4" transform="rotate(-168.01 513.7 56.91)" xlink:href="#calf"/><use width="30.9" height="61.5" x="-14.5" y="-30.8" transform="matrix(.9995 .03053 .03053 -.9995 1091.59 191.44)" xlink:href="#thigh"/><use width="30.9" height="61.5" x="-14.5" y="-30.8" transform="rotate(174.77 559.06 121.57) scale(.99996)" xlink:href="#thigh"/><use width="30.6" height="25.8" x="-16" y="-13.5" transform="matrix(.9995 .03053 .03053 -.9995 1080.22 252.3)" xlink:href="#shoe"/><use width="30.6" height="25.8" x="-16" y="-13.5" transform="matrix(-.9953 -.09657 .09656 -.9953 1134.37 254.89)" xlink:href="#shoe"/><use width="33.4" height="45.8" x="-18.1" y="-22.8" transform="matrix(1 0 0 -1 1107.44 168.3)" xlink:href="#crotch"/><use width="27" height="42.9" x="-13.5" y="-21.4" transform="matrix(.9995 .03053 .03053 -.9995 1086.07 227.45)" xlink:href="#calf"/><use width="27" height="42.9" x="-13.5" y="-21.4" transform="rotate(-176.12 568.58 95.22)" xlink:href="#calf"/><use width="30.9" height="61.5" x="-14.5" y="-30.8" transform="matrix(1 0 0 -1 1221.92 191.31)" xlink:href="#thigh"/><use width="30.9" height="61.5" x="-14.5" y="-30.8" transform="rotate(-178.07 628.68 85.54)" xlink:href="#thigh"/><use width="30.6" height="25.8" x="-16" y="-13.5" transform="matrix(1 0 0 -1 1213.41 252.45)" xlink:href="#shoe"/><use width="30.6" height="25.8" x="-16" y="-13.5" transform="rotate(-175.64 633.42 103.27)" xlink:href="#shoe"/><use width="33.4" height="45.8" x="-18.1" y="-22.8" transform="matrix(1 0 0 -1 1238.44 168.3)" xlink:href="#crotch"/><use width="27" height="42.9" x="-13.5" y="-21.4" transform="matrix(1 0 0 -1 1218.5 227.44)" xlink:href="#calf"/><use width="27" height="42.9" x="-13.5" y="-21.4" transform="rotate(-171.85 635.77 69.91)" xlink:href="#calf"/><use width="30.9" height="61.5" x="-14.5" y="-30.8" transform="scale(1 -1) rotate(-11.39 -280.64 -6867.76)" xlink:href="#thigh"/><use width="30.9" height="61.5" x="-14.5" y="-30.8" transform="rotate(-176.65 695.45 76.32) scale(1.00001)" xlink:href="#thigh"/><use width="30.6" height="25.8" x="-16" y="-13.5" transform="scale(1 -1) rotate(8.72 2321.95 8637)" xlink:href="#shoe"/><use width="30.6" height="25.8" x="-16" y="-13.5" transform="rotate(-176.65 697.78 107.48) scale(1.00001)" xlink:href="#shoe"/><use width="33.4" height="45.8" x="-18.1" y="-22.8" transform="matrix(1 0 0 -1 1369.44 168.3)" xlink:href="#crotch"/><use width="27" height="42.9" x="-13.5" y="-21.4" transform="matrix(.9992 .04043 .04043 -.9992 1342.42 226.53)" xlink:href="#calf"/><use width="27" height="42.9" x="-13.5" y="-21.4" transform="rotate(-172.87 699.55 71.46)" xlink:href="#calf"/><use width="30.9" height="61.5" x="-14.5" y="-30.8" transform="scale(1 -1) rotate(-13.97 -40.18 -6127.96)" xlink:href="#thigh"/><use width="30.9" height="61.5" x="-14.5" y="-30.8" transform="matrix(-.9994 -.03566 .03566 -.9994 1516.72 194.22)" xlink:href="#thigh"/><use width="30.6" height="25.8" x="-16" y="-13.5" transform="matrix(.9989 .04664 .04664 -.9989 1462.26 252.93)" xlink:href="#shoe"/><use width="30.6" height="25.8" x="-16" y="-13.5" transform="matrix(-.9994 -.03566 .03566 -.9994 1521 256.55)" xlink:href="#shoe"/><use width="33.4" height="45.8" x="-18.1" y="-22.8" transform="matrix(1 0 0 -1 1500.44 168.3)" xlink:href="#crotch"/><use width="27" height="42.9" x="-13.5" y="-21.4" transform="matrix(.9989 .04664 .04664 -.9989 1468.5 227.19)" xlink:href="#calf"/><use width="27" height="42.9" x="-13.5" y="-21.4" transform="rotate(-174.17 765.45 76.65)" xlink:href="#calf"/><use width="30.9" height="61.5" x="-14.5" y="-30.8" transform="scale(1 -1) rotate(-24.48 374.42 -3808.48)" xlink:href="#thigh"/><use width="30.9" height="61.5" x="-14.5" y="-30.8" transform="rotate(180 823.46 95.66)" xlink:href="#thigh"/><use width="30.6" height="25.8" x="-16" y="-13.5" transform="scale(1 -1) rotate(14.85 1754.95 5976.55)" xlink:href="#shoe"/><use width="30.6" height="25.8" x="-16" y="-13.5" transform="rotate(180 826.7 126.73)" xlink:href="#shoe"/><use width="33.4" height="45.8" x="-18.1" y="-22.8" transform="matrix(1 0 0 -1 1631.44 168.3)" xlink:href="#crotch"/><use width="27" height="42.9" x="-13.5" y="-21.4" transform="matrix(.9881 .1534 .1534 -.9882 1596.88 224.5)" xlink:href="#calf"/><use width="27" height="42.9" x="-13.5" y="-21.4" transform="rotate(-176.22 828.5 86.47) scale(.99998)" xlink:href="#calf"/><use width="30.9" height="61.5" x="-14.5" y="-30.8" transform="scale(1 -1) rotate(-20.63 342.6 -4877.76)" xlink:href="#thigh"/><use width="30.9" height="61.5" x="-14.5" y="-30.8" transform="rotate(180 888.96 95.66)" xlink:href="#thigh"/><use width="30.6" height="25.8" x="-16" y="-13.5" transform="matrix(.9721 -.2343 -.2343 -.9722 1726.55 251.54)" xlink:href="#shoe"/><use width="30.6" height="25.8" x="-16" y="-13.5" transform="matrix(-1 -.00478 .00477 -1 1780.7 254.49)" xlink:href="#shoe"/><use width="33.4" height="45.8" x="-18.1" y="-22.8" transform="matrix(1 0 0 -1 1762.44 168.3)" xlink:href="#crotch"/><use width="27" height="42.9" x="-13.5" y="-21.4" transform="matrix(1 -.00504 -.00507 -1 1730.66 225.66)" xlink:href="#calf"/><use width="27" height="42.9" x="-13.5" y="-21.4" transform="rotate(-170.55 898.58 40.57)" xlink:href="#calf"/><use width="30.9" height="61.5" x="-14.5" y="-30.8" transform="matrix(.9265 .3762 .3762 -.9266 1872.66 186.64)" xlink:href="#thigh"/><use width="30.9" height="61.5" x="-14.5" y="-30.8" transform="rotate(180 954.46 95.66)" xlink:href="#thigh"/><use width="30.6" height="25.8" x="-16" y="-13.5" transform="scale(1 -1) rotate(14.41 1901.4 7245.28)" xlink:href="#shoe"/><use width="30.6" height="25.8" x="-16" y="-13.5" transform="rotate(180 957.7 126.73)" xlink:href="#shoe"/><use width="33.4" height="45.8" x="-18.1" y="-22.8" transform="matrix(1 0 0 -1 1893.44 168.3)" xlink:href="#crotch"/><use width="27" height="42.9" x="-13.5" y="-21.4" transform="scale(1 -1) rotate(7.22 2675.82 14675.3)" xlink:href="#calf"/><use width="27" height="42.9" x="-13.5" y="-21.4" transform="rotate(-176.22 959.5 82.14) scale(.99998)" xlink:href="#calf"/><use width="30.9" height="61.5" x="-14.5" y="-30.8" transform="scale(1 -1) rotate(-20.95 495.34 -5513.8)" xlink:href="#thigh"/><use width="30.9" height="61.5" x="-14.5" y="-30.8" transform="matrix(-1 -.00689 .00689 -1 2040.48 196.4)" xlink:href="#thigh"/><use width="30.6" height="25.8" x="-16" y="-13.5" transform="scale(1 -1) rotate(18.19 1774.88 6117.42)" xlink:href="#shoe"/><use width="30.6" height="25.8" x="-16" y="-13.5" transform="rotate(174.44 1015.7 177.25) scale(1.00001)" xlink:href="#shoe"/><use width="33.4" height="45.8" x="-18.1" y="-22.8" transform="matrix(1 0 0 -1 2025.44 172.3)" xlink:href="#crotch"/><use width="27" height="42.9" x="-13.5" y="-21.4" transform="scale(1 -1) rotate(12.14 2037.19 9282.27)" xlink:href="#calf"/><use width="27" height="42.9" x="-13.5" y="-21.4" transform="rotate(-169.74 1030.57 23.51)" xlink:href="#calf"/><use width="96" height="89" x="-48.2" y="-44.3" transform="matrix(.9999 0 0 -1 62.15 136.65)" xlink:href="#body"/><use width="96" height="89" x="-48.2" y="-44.3" transform="matrix(.9999 0 0 -1 193.15 137.65)" xlink:href="#body"/><use width="96" height="89" x="-48.2" y="-44.3" transform="matrix(.9999 0 0 -1 324.15 138.65)" xlink:href="#body"/><use width="96" height="89" x="-48.2" y="-44.3" transform="matrix(.9999 0 0 -1 455.15 140.65)" xlink:href="#body"/><use width="96" height="89" x="-48.2" y="-44.3" transform="matrix(.9999 0 0 -1 585.15 145.65)" xlink:href="#body"/><use width="96" height="89" x="-48.2" y="-44.3" transform="matrix(.9999 0 0 -1 716.15 141.65)" xlink:href="#body"/><use width="96" height="89" x="-48.2" y="-44.3" transform="matrix(.9999 0 0 -1 847.15 138.65)" xlink:href="#body"/><use width="96" height="89" x="-48.2" y="-44.3" transform="matrix(.9999 0 0 -1 978.15 137.65)" xlink:href="#body"/><use width="96" height="89" x="-48.2" y="-44.3" transform="matrix(.9999 0 0 -1 1109.15 136.65)" xlink:href="#body"/><use width="96" height="89" x="-48.2" y="-44.3" transform="matrix(.9999 0 0 -1 1240.15 137.65)" xlink:href="#body"/><use width="96" height="89" x="-48.2" y="-44.3" transform="matrix(.9999 0 0 -1 1371.15 139.65)" xlink:href="#body"/><use width="96" height="89" x="-48.2" y="-44.3" transform="matrix(.9999 0 0 -1 1502.15 139.65)" xlink:href="#body"/><use width="96" height="89" x="-48.2" y="-44.3" transform="matrix(.9999 0 0 -1 1632.15 140.65)" xlink:href="#body"/><use width="96" height="89" x="-48.2" y="-44.3" transform="matrix(.9999 0 0 -1 1763.15 140.65)" xlink:href="#body"/><use width="96" height="89" x="-48.2" y="-44.3" transform="matrix(.9999 0 0 -1 1894.15 140.65)" xlink:href="#body"/><use width="96" height="89" x="-48.2" y="-44.3" transform="matrix(.9999 0 0 -1 2025.15 139.65)" xlink:href="#body"/><use width="118.1" height="102.5" x="-59" y="-51.3" transform="matrix(.9994 0 0 -1.0045 60.97 53.5)" xlink:href="#head"/><use width="118.1" height="102.5" x="-59" y="-51.3" transform="matrix(.9994 0 0 -1.0045 191.97 55.5)" xlink:href="#head"/><use width="118.1" height="102.5" x="-59" y="-51.3" transform="matrix(.9994 0 0 -1.0045 322.97 57.5)" xlink:href="#head"/><use width="118.1" height="102.5" x="-59" y="-51.3" transform="matrix(.9994 0 0 -1.0045 452.97 60.5)" xlink:href="#head"/><use width="118.1" height="102.5" x="-59" y="-51.3" transform="matrix(.9994 0 0 -1.0045 583.97 63.5)" xlink:href="#head"/><use width="118.1" height="102.5" x="-59" y="-51.3" transform="matrix(.9994 0 0 -1.0045 714.97 59.5)" xlink:href="#head"/><use width="118.1" height="102.5" x="-59" y="-51.3" transform="matrix(.9994 0 0 -1.0045 845.97 56.5)" xlink:href="#head"/><use width="118.1" height="102.5" x="-59" y="-51.3" transform="matrix(.9994 0 0 -1.0045 976.97 55.5)" xlink:href="#head"/><use width="118.1" height="102.5" x="-59" y="-51.3" transform="matrix(.9994 0 0 -1.0045 1106.97 54.5)" xlink:href="#head"/><use width="118.1" height="102.5" x="-59" y="-51.3" transform="matrix(.9994 0 0 -1.0045 1237.97 53.5)" xlink:href="#head"/><use width="118.1" height="102.5" x="-59" y="-51.3" transform="matrix(.9994 0 0 -1.0045 1368.97 55.5)" xlink:href="#head"/><use width="118.1" height="102.5" x="-59" y="-51.3" transform="matrix(.9994 0 0 -1.0045 1499.97 56.5)" xlink:href="#head"/><use width="118.1" height="102.5" x="-59" y="-51.3" transform="matrix(.9994 0 0 -1.0045 1630.97 56.5)" xlink:href="#head"/><use width="118.1" height="102.5" x="-59" y="-51.3" transform="matrix(.9994 0 0 -1.0045 1760.97 56.5)" xlink:href="#head"/><use width="118.1" height="102.5" x="-59" y="-51.3" transform="matrix(.9994 0 0 -1.0045 1891.97 55.5)" xlink:href="#head"/><use width="118.1" height="102.5" x="-59" y="-51.3" transform="matrix(.9994 0 0 -1.0045 2022.97 54.5)" xlink:href="#head"/></svg>
